<?xml version="1.0" encoding="iso-8859-1"?>
<!-- Generator: Adobe Illustrator 19.0.0, SVG Export Plug-In . SVG Version: 6.00 Build 0)  -->
<svg version="1.1" id="Capa_1" xmlns="http://www.w3.org/2000/svg" xmlns:xlink="http://www.w3.org/1999/xlink" x="0px" y="0px"
	 viewBox="0 0 512 512" style="enable-background:new 0 0 512 512;" xml:space="preserve">
<path style="fill:#00AC5E;" d="M202.406,178.557c-19.977-23.307-30.958-52.991-30.958-83.688V0H140.49l-20.016,289.988
	l112.891-20.016v-7.727C233.365,231.548,222.384,201.864,202.406,178.557z"/>
<path style="fill:#00DE7B;" d="M140.49,0h-30.958v94.869c0,30.697-10.981,60.381-30.958,83.688s-30.958,52.991-30.958,83.688v7.727
	l92.875,20.016L140.49,0L140.49,0z"/>
<polygon style="fill:#A2D7FD;" points="464.385,482 394.833,482 394.833,329.51 369.825,329.51 379.833,512 464.385,512 "/>
<polygon style="fill:#CCE7FD;" points="364.833,329.51 364.833,482 295.281,482 295.281,512 379.833,512 379.833,329.51 "/>
<polygon style="fill:#00AC5E;" points="140.49,512 233.365,512 233.365,435.083 120.474,415.067 "/>
<path style="fill:#CCE7FD;" d="M379.833,243.369l-20.016,58.082l20.016,58.082l0,0c46.697,0,84.552-37.855,84.552-84.552v-31.613
	h-84.552V243.369z"/>
<path style="fill:#E7F3FF;" d="M295.281,243.369v31.613c0,46.697,37.855,84.552,84.552,84.552l0,0V243.369H295.281z"/>
<polygon style="fill:#00DE7B;" points="47.615,435.083 47.615,512 140.49,512 140.49,415.067 "/>
<polygon style="fill:#EBDED9;" points="140.49,435.083 233.365,435.083 233.365,269.972 140.49,269.972 120.474,352.528 "/>
<rect x="47.615" y="269.97" style="fill:#FBF1F1;" width="92.87" height="165.11"/>
<g>
</g>
<g>
</g>
<g>
</g>
<g>
</g>
<g>
</g>
<g>
</g>
<g>
</g>
<g>
</g>
<g>
</g>
<g>
</g>
<g>
</g>
<g>
</g>
<g>
</g>
<g>
</g>
<g>
</g>
</svg>
