<?xml version="1.0" encoding="iso-8859-1"?>
<!-- Generator: Adobe Illustrator 19.0.0, SVG Export Plug-In . SVG Version: 6.00 Build 0)  -->
<svg version="1.1" id="Capa_1" xmlns="http://www.w3.org/2000/svg" xmlns:xlink="http://www.w3.org/1999/xlink" x="0px" y="0px"
	 viewBox="0 0 512 512" style="enable-background:new 0 0 512 512;" xml:space="preserve">
<polygon style="fill:#AE5E2E;" points="286.958,269.139 235.984,249.123 235.984,455.099 286.958,435.083 "/>
<g>
	<polygon style="fill:#DA7F4A;" points="225.042,269.139 225.042,435.083 256,455.099 256,249.123 	"/>
	<polygon style="fill:#DA7F4A;" points="354.588,435.083 256,435.083 235.984,466.042 256,497 375.227,497 	"/>
</g>
<polygon style="fill:#E39B74;" points="157.412,435.083 136.773,497 256,497 256,435.083 "/>
<polygon style="fill:#AE5E2E;" points="408.333,482 256,482 245.992,497 256,512 408.333,512 "/>
<rect x="103.67" y="482" style="fill:#DA7F4A;" width="152.33" height="30"/>
<polygon style="fill:#FFD500;" points="375.227,0 256,0 235.984,134.569 256,269.139 426.824,269.139 "/>
<polygon style="fill:#FFF361;" points="136.773,0 85.176,269.139 256,269.139 256,0 "/>
<g>
</g>
<g>
</g>
<g>
</g>
<g>
</g>
<g>
</g>
<g>
</g>
<g>
</g>
<g>
</g>
<g>
</g>
<g>
</g>
<g>
</g>
<g>
</g>
<g>
</g>
<g>
</g>
<g>
</g>
</svg>
