<?xml version="1.0" encoding="iso-8859-1"?>
<!-- Generator: Adobe Illustrator 19.0.0, SVG Export Plug-In . SVG Version: 6.00 Build 0)  -->
<svg version="1.1" id="Capa_1" xmlns="http://www.w3.org/2000/svg" xmlns:xlink="http://www.w3.org/1999/xlink" x="0px" y="0px"
	 viewBox="0 0 512 512" style="enable-background:new 0 0 512 512;" xml:space="preserve">
<path style="fill:#EBDED9;" d="M256.002,0c-0.003,0-0.006,0-0.008,0l-20.016,193.258l169.937-19.942
	C394.839,75.189,331.939,0,256.002,0z"/>
<path style="fill:#FBF1F1;" d="M106.106,173.167l149.887,20.09V0C180.099,0.006,117.228,75.117,106.106,173.167z"/>
<polygon style="fill:#FD641A;" points="331.867,497 310.896,394.758 235.978,374.738 255.994,497 "/>
<polygon style="fill:#FC9E00;" points="180.12,497 255.994,497 255.994,374.738 201.093,394.75 "/>
<path style="fill:#FD2323;" d="M405.898,235.386l-169.92-20.09l20.016,193.258c0.003,0,0.006,0,0.008,0
	C331.901,408.553,394.776,333.44,405.898,235.386z"/>
<path style="fill:#FD641A;" d="M106.089,235.237c11.075,98.123,73.971,173.31,149.904,173.316V215.296L106.089,235.237z"/>
<polygon style="fill:#FD2323;" points="378.305,512 378.305,482 255.994,482 245.986,497 255.994,512 "/>
<g>
	<rect x="133.682" y="482" style="fill:#FD641A;" width="122.31" height="30"/>
	<polygon style="fill:#FD641A;" points="436.448,173.318 255.994,173.318 235.978,204.277 255.994,235.235 436.448,235.235 	"/>
</g>
<rect x="75.552" y="173.32" style="fill:#FC9E00;" width="180.44" height="61.917"/>
<g>
</g>
<g>
</g>
<g>
</g>
<g>
</g>
<g>
</g>
<g>
</g>
<g>
</g>
<g>
</g>
<g>
</g>
<g>
</g>
<g>
</g>
<g>
</g>
<g>
</g>
<g>
</g>
<g>
</g>
</svg>
