<?xml version="1.0" encoding="iso-8859-1"?>
<!-- Generator: Adobe Illustrator 19.0.0, SVG Export Plug-In . SVG Version: 6.00 Build 0)  -->
<svg version="1.1" id="Capa_1" xmlns="http://www.w3.org/2000/svg" xmlns:xlink="http://www.w3.org/1999/xlink" x="0px" y="0px"
	 viewBox="0 0 512 512" style="enable-background:new 0 0 512 512;" xml:space="preserve">
<polygon style="fill:#A2D7FD;" points="405.691,63.785 235.984,43.769 235.984,232.396 405.691,212.38 "/>
<polygon style="fill:#CCE7FD;" points="106.309,63.785 106.309,212.38 256,232.396 256,43.769 "/>
<polygon style="fill:#5FBEFD;" points="350.539,512 350.539,405.945 235.984,385.926 256,512 "/>
<g>
	<polygon style="fill:#A2D7FD;" points="161.461,512 256,512 256,385.926 161.461,405.939 	"/>
	<path style="fill:#A2D7FD;" d="M235.984,256.15L256,416.381h41.368c77.439,0,140.216-62.777,140.216-140.216L235.984,256.15z"/>
</g>
<path style="fill:#CCE7FD;" d="M74.416,276.166c0,77.439,62.777,140.216,140.216,140.216H256V256.15L74.416,276.166z"/>
<rect x="357.85" y="112.57" style="fill:#758892;" width="95.68" height="30"/>
<polygon style="fill:#006EFD;" points="469.476,212.38 256,212.38 235.984,244.273 256,276.166 469.476,276.166 "/>
<rect x="42.524" y="212.38" style="fill:#0494FD;" width="213.48" height="63.785"/>
<polygon style="fill:#006EFD;" points="437.584,0 256,0 235.984,31.893 256,63.785 437.584,63.785 "/>
<rect x="74.42" style="fill:#0494FD;" width="181.58" height="63.785"/>
<g>
</g>
<g>
</g>
<g>
</g>
<g>
</g>
<g>
</g>
<g>
</g>
<g>
</g>
<g>
</g>
<g>
</g>
<g>
</g>
<g>
</g>
<g>
</g>
<g>
</g>
<g>
</g>
<g>
</g>
</svg>
