<?xml version="1.0" encoding="iso-8859-1"?>
<!-- Generator: Adobe Illustrator 19.0.0, SVG Export Plug-In . SVG Version: 6.00 Build 0)  -->
<svg version="1.1" id="Capa_1" xmlns="http://www.w3.org/2000/svg" xmlns:xlink="http://www.w3.org/1999/xlink" x="0px" y="0px"
	 viewBox="0 0 512 512" style="enable-background:new 0 0 512 512;" xml:space="preserve">
<rect x="364.83" y="79.83" style="fill:#B0CED3;" width="30" height="66.67"/>
<rect x="117.17" y="79.83" style="fill:#DDE7EC;" width="30" height="66.67"/>
<path style="fill:#B0CED3;" d="M286.958,0C275.043,0,264.174,4.559,256,12.022c-9.211,8.41-15,20.509-15,33.936v80.313l5.502,3.671
	l-0.51,6.337l6.256-2.504l3.752,2.504v-4.005l15-6.003V45.958C271,37.159,278.159,30,286.958,30c8.8,0,15.959,7.159,15.959,15.958
	v33.875h30V45.958C332.917,20.616,312.3,0,286.958,0z"/>
<path style="fill:#EBDED9;" d="M256,126.27l-20.016,158.079l83.57-20.016c64.589,0,116.948-52.359,116.948-116.948V126.27H256z"/>
<path style="fill:#FBF1F1;" d="M75.498,126.27v21.115c0,64.588,52.359,116.948,116.948,116.948L256,284.349V126.27H75.498z"/>
<polygon style="fill:#DA7F4A;" points="256,512 512,512 512,388.167 235.984,368.151 "/>
<g>
	<polygon style="fill:#E39B74;" points="0,388.167 0,512 256,512 256,368.151 	"/>
	<polygon style="fill:#E39B74;" points="256,264.333 235.984,326.25 256,388.167 512,388.167 512,264.333 	"/>
</g>
<rect y="264.33" style="fill:#EFC0A8;" width="256" height="123.83"/>
<polygon style="fill:#924D24;" points="301.025,465.083 301.025,435.083 256,435.083 245.992,450.083 256,465.083 "/>
<g>
	<polygon style="fill:#AE5E2E;" points="301.025,341.25 301.025,311.25 256,311.25 245.992,326.25 256,341.25 	"/>
	<rect x="210.97" y="435.08" style="fill:#AE5E2E;" width="45.02" height="30"/>
</g>
<rect x="210.97" y="311.25" style="fill:#DA7F4A;" width="45.02" height="30"/>
<g>
</g>
<g>
</g>
<g>
</g>
<g>
</g>
<g>
</g>
<g>
</g>
<g>
</g>
<g>
</g>
<g>
</g>
<g>
</g>
<g>
</g>
<g>
</g>
<g>
</g>
<g>
</g>
<g>
</g>
</svg>
