<?xml version="1.0" encoding="iso-8859-1"?>
<!-- Generator: Adobe Illustrator 19.0.0, SVG Export Plug-In . SVG Version: 6.00 Build 0)  -->
<svg version="1.1" id="Capa_1" xmlns="http://www.w3.org/2000/svg" xmlns:xlink="http://www.w3.org/1999/xlink" x="0px" y="0px"
	 viewBox="0 0 512 512" style="enable-background:new 0 0 512 512;" xml:space="preserve">
<g>
	<path style="fill:#B0CED3;" d="M217.074,72.52h-30.048V0h-15l-10.008,106.232L172.026,512h31.124V176.164
		c25.908-11.828,43.924-37.945,43.924-68.285V0h-30L217.074,72.52L217.074,72.52z"/>
	<path style="fill:#B0CED3;" d="M351.236,5.452l-10.008,130.881L351.236,512h31.893V266.186
		c19.572-17.519,31.893-42.973,31.893-71.307V95.678C415.022,54.021,388.396,18.587,351.236,5.452z"/>
</g>
<g>
	<path style="fill:#DDE7EC;" d="M157.026,0v72.52h-30.048V0h-30v107.879c0,30.341,18.016,56.457,43.924,68.285V512h31.124V0H157.026
		z"/>
	<path style="fill:#DDE7EC;" d="M319.344,0L319.344,0v512h31.893V5.452C341.26,1.925,330.527,0,319.344,0z"/>
</g>
<g>
</g>
<g>
</g>
<g>
</g>
<g>
</g>
<g>
</g>
<g>
</g>
<g>
</g>
<g>
</g>
<g>
</g>
<g>
</g>
<g>
</g>
<g>
</g>
<g>
</g>
<g>
</g>
<g>
</g>
</svg>
