<?xml version="1.0" encoding="iso-8859-1"?>
<!-- Generator: Adobe Illustrator 19.0.0, SVG Export Plug-In . SVG Version: 6.00 Build 0)  -->
<svg version="1.1" id="Capa_1" xmlns="http://www.w3.org/2000/svg" xmlns:xlink="http://www.w3.org/1999/xlink" x="0px" y="0px"
	 viewBox="0 0 512 512" style="enable-background:new 0 0 512 512;" xml:space="preserve">
<g>
	<polygon style="fill:#DDE7EC;" points="191.062,310.385 0,310.385 0,244.138 176.42,192.855 203.047,245.914 	"/>
	<polygon style="fill:#DDE7EC;" points="199.544,378.484 130.49,401.006 130.49,456.763 209.297,456.763 223.004,406.124 	"/>
</g>
<g>
	<polygon style="fill:#B0CED3;" points="320.938,310.385 512,310.385 512,244.138 335.575,192.853 308.941,245.994 	"/>
	<polygon style="fill:#B0CED3;" points="302.702,456.763 381.51,456.763 381.51,401.006 312.456,378.484 288.06,413.635 	"/>
</g>
<path style="fill:#758892;" d="M245.992,61.534L256,512l0,0c22.747,0,41.932-16.943,44.744-39.515L345.62,112.27h-0.002
	C339.568,106.515,300.189,61.534,245.992,61.534z"/>
<g>
	<path style="fill:#B0CED3;" d="M166.381,112.271L166.381,112.271l44.876,360.214C214.068,495.057,233.253,512,256,512l0,0V61.534
		C201.798,61.534,172.427,106.52,166.381,112.271z"/>
	<path style="fill:#B0CED3;" d="M256,0L256,0l-20.016,43L256,81.55c54.197,0,83.568,24.966,89.618,30.72h0.002l1.178-9.458
		C353.6,48.212,311.022,0,256,0z"/>
</g>
<path style="fill:#DDE7EC;" d="M256,81.55V0l0,0c-55.022,0-97.6,48.212-90.798,102.811l1.178,9.459l0,0
	C172.427,106.52,201.798,81.55,256,81.55z"/>
<g>
</g>
<g>
</g>
<g>
</g>
<g>
</g>
<g>
</g>
<g>
</g>
<g>
</g>
<g>
</g>
<g>
</g>
<g>
</g>
<g>
</g>
<g>
</g>
<g>
</g>
<g>
</g>
<g>
</g>
</svg>
