<?xml version="1.0" encoding="iso-8859-1"?>
<!-- Generator: Adobe Illustrator 19.0.0, SVG Export Plug-In . SVG Version: 6.00 Build 0)  -->
<svg version="1.1" id="Capa_1" xmlns="http://www.w3.org/2000/svg" xmlns:xlink="http://www.w3.org/1999/xlink" x="0px" y="0px"
	 viewBox="0 0 512 512" style="enable-background:new 0 0 512 512;" xml:space="preserve">
<rect x="16.893" y="384.04" style="fill:#B0CED3;" width="30" height="47.839"/>
<rect x="465.11" y="384.04" style="fill:#758892;" width="30" height="47.839"/>
<polygon style="fill:#B0CED3;" points="512,80.124 256,80.124 235.984,239.588 256,399.05 512,399.05 "/>
<rect y="80.12" style="fill:#DDE7EC;" width="256" height="318.93"/>
<g>
	<rect x="368.05" y="128.911" style="fill:#758892;" width="31.893" height="30"/>
	<rect x="432.32" y="128.911" style="fill:#758892;" width="31.893" height="30"/>
	<rect x="368.05" y="192.691" style="fill:#758892;" width="31.893" height="30"/>
	<rect x="432.32" y="192.691" style="fill:#758892;" width="31.893" height="30"/>
</g>
<g>
	<rect x="368.05" y="256.48" style="fill:#FBF1F1;" width="31.893" height="30"/>
	<rect x="432.32" y="256.48" style="fill:#FBF1F1;" width="31.893" height="30"/>
	<rect x="368.05" y="320.26" style="fill:#FBF1F1;" width="96.16" height="30"/>
</g>
<polygon style="fill:#475A61;" points="335.266,128.909 256,128.909 235.984,239.583 256,350.214 335.266,350.214 "/>
<rect x="48.734" y="128.911" style="fill:#758892;" width="207.27" height="221.31"/>
<g>
</g>
<g>
</g>
<g>
</g>
<g>
</g>
<g>
</g>
<g>
</g>
<g>
</g>
<g>
</g>
<g>
</g>
<g>
</g>
<g>
</g>
<g>
</g>
<g>
</g>
<g>
</g>
<g>
</g>
</svg>
