<?xml version="1.0" encoding="iso-8859-1"?>
<!-- Generator: Adobe Illustrator 19.0.0, SVG Export Plug-In . SVG Version: 6.00 Build 0)  -->
<svg version="1.1" id="Capa_1" xmlns="http://www.w3.org/2000/svg" xmlns:xlink="http://www.w3.org/1999/xlink" x="0px" y="0px"
	 viewBox="0 0 511.999 511.999" style="enable-background:new 0 0 511.999 511.999;" xml:space="preserve">
<path style="fill:#E00000;" d="M479.503,393.928c0-59.012-47.839-106.85-106.85-106.85H255.999l-19.964,130.839l19.964,94.082
	h223.504L479.503,393.928L479.503,393.928z"/>
<path style="fill:#FD2323;" d="M139.346,287.078c-59.012,0-106.85,47.838-106.85,106.85v118.071h223.503V287.078H139.346z"/>
<path style="fill:#FCBBA7;" d="M255.999,39.759l-19.964,140.7l19.964,140.7l0,0c66.503,0,120.413-53.911,120.413-120.414v-58.231
	C376.413,142.515,373.195,39.759,255.999,39.759z"/>
<path style="fill:#FBCABB;" d="M135.586,159.742v41.004c0,66.503,53.911,120.414,120.413,120.414l0,0V39.759
	C138.803,39.759,135.586,159.742,135.586,159.742z"/>
<path style="fill:#FD641A;" d="M236.035,74.111l19.964,74.28c16.11,7.222,34.684,11.352,54.474,11.352
	c24.668,0,47.467-6.396,65.939-17.227v-48.44L236.035,74.111z"/>
<path style="fill:#FC9E00;" d="M135.586,94.075v65.667c33.702,0,62.567-20.707,74.567-50.093l0.015-0.015
	c9.985,16.35,26.049,29.888,45.832,38.757V74.111L135.586,94.075z"/>
<polygon style="fill:#E00000;" points="376.413,0 255.999,0 255.999,0 236.035,39.759 255.999,94.075 376.413,94.075 "/>
<polygon style="fill:#FD2323;" points="255.999,0 135.586,0 135.586,94.075 255.999,94.075 "/>
<g>
	<polygon style="fill:#FFD500;" points="297.315,399.734 297.315,369.811 255.999,369.811 246.017,384.773 255.999,399.734 	"/>
	<polygon style="fill:#FFD500;" points="297.315,463.347 297.315,433.425 255.999,433.425 246.017,448.386 255.999,463.347 	"/>
</g>
<g>
	<rect x="214.683" y="369.811" style="fill:#FFF361;" width="41.313" height="29.922"/>
	<rect x="214.683" y="433.427" style="fill:#FFF361;" width="41.313" height="29.922"/>
</g>
<g>
</g>
<g>
</g>
<g>
</g>
<g>
</g>
<g>
</g>
<g>
</g>
<g>
</g>
<g>
</g>
<g>
</g>
<g>
</g>
<g>
</g>
<g>
</g>
<g>
</g>
<g>
</g>
<g>
</g>
</svg>
