<?xml version="1.0" encoding="iso-8859-1"?>
<!-- Generator: Adobe Illustrator 19.0.0, SVG Export Plug-In . SVG Version: 6.00 Build 0)  -->
<svg version="1.1" id="Capa_1" xmlns="http://www.w3.org/2000/svg" xmlns:xlink="http://www.w3.org/1999/xlink" x="0px" y="0px"
	 viewBox="0 0 512 512" style="enable-background:new 0 0 512 512;" xml:space="preserve">
<g>
	<path style="fill:#FF7CBA;" d="M213.563,475.628l20.016-52.514l-20.016-56.555c-31.248-12.002-56.1-36.875-68.106-68.12
		l-56.562-20.016l-52.526,20.016C53.56,387.924,124.074,458.438,213.563,475.628z"/>
	<path style="fill:#FF7CBA;" d="M213.563,145.44l20.016-56.554l-20.016-52.515C124.071,53.562,53.556,124.08,36.367,213.569
		l52.528,20.016l56.558-20.016C157.458,182.32,182.312,157.444,213.563,145.44z"/>
</g>
<g>
	<path style="fill:#FF3998;" d="M298.433,366.561l-20.016,56.552l20.016,52.516c89.491-17.189,160.006-87.703,177.198-177.19
		l-52.526-20.016l-56.562,20.016C354.537,329.685,329.683,354.56,298.433,366.561z"/>
	<path style="fill:#FF3998;" d="M298.433,36.371l-20.016,52.516l20.016,56.552c31.253,12.003,56.108,36.88,68.113,68.13
		l56.558,20.016l52.528-20.016C458.444,124.079,387.927,53.56,298.433,36.371z"/>
</g>
<g>
	<polygon style="fill:#758892;" points="256,0 241,0 241,45 245.992,45 256,45 271,45 271,0 	"/>
	<polygon style="fill:#758892;" points="256,467 245.992,467 241,467 241,512 256,512 271,512 271,467 	"/>
</g>
<rect x="467" y="241" style="fill:#475A61;" width="45" height="30"/>
<rect y="241" style="fill:#758892;" width="45" height="30"/>
<path style="fill:#FBF1F1;" d="M145.453,213.569H36.367c-2.639,13.739-4.034,27.921-4.034,42.431
	c0,14.513,1.395,28.697,4.035,42.439h109.088c-5.063-13.177-7.857-27.479-7.857-42.439
	C137.599,241.043,140.392,226.744,145.453,213.569z"/>
<g>
	<path style="fill:#EBDED9;" d="M475.633,213.569H366.547c5.061,13.175,7.854,27.474,7.854,42.431
		c0,14.96-2.794,29.263-7.857,42.439h109.088c2.64-13.742,4.035-27.927,4.035-42.439
		C479.667,241.49,478.272,227.308,475.633,213.569z"/>
	<path style="fill:#EBDED9;" d="M298.433,475.629V366.561c-13.174,5.059-27.478,7.84-42.433,7.84l-20.016,48.714L256,479.667
		C270.51,479.667,284.693,478.268,298.433,475.629z"/>
	<path style="fill:#EBDED9;" d="M298.433,36.371c-13.74-2.639-27.923-4.038-42.433-4.038l-20.016,56.553L256,137.599
		c14.955,0,29.259,2.78,42.433,7.84L298.433,36.371L298.433,36.371z"/>
</g>
<g>
	<path style="fill:#FBF1F1;" d="M213.563,475.628c13.742,2.639,27.925,4.038,42.437,4.038V374.401
		c-14.957,0-29.262-2.781-42.437-7.841V475.628z"/>
	<path style="fill:#FBF1F1;" d="M213.563,36.372V145.44c13.175-5.06,27.481-7.841,42.437-7.841V32.333
		C241.488,32.333,227.305,33.732,213.563,36.372z"/>
</g>
<g>
</g>
<g>
</g>
<g>
</g>
<g>
</g>
<g>
</g>
<g>
</g>
<g>
</g>
<g>
</g>
<g>
</g>
<g>
</g>
<g>
</g>
<g>
</g>
<g>
</g>
<g>
</g>
<g>
</g>
</svg>
