<?xml version="1.0" encoding="iso-8859-1"?>
<!-- Generator: Adobe Illustrator 19.0.0, SVG Export Plug-In . SVG Version: 6.00 Build 0)  -->
<svg version="1.1" id="Capa_1" xmlns="http://www.w3.org/2000/svg" xmlns:xlink="http://www.w3.org/1999/xlink" x="0px" y="0px"
	 viewBox="0 0 512 512" style="enable-background:new 0 0 512 512;" xml:space="preserve">
<path style="fill:#B0CED3;" d="M231.732,370.212l20.016,81.877h135.727c10.968-35.376,55.631-61.861,109.072-61.861L231.732,370.212
	z"/>
<path style="fill:#DDE7EC;" d="M6.949,390.228C2.406,410.118,0,430.822,0,452.088l0,0h251.748v-81.877L6.949,390.228z"/>
<path style="fill:#758892;" d="M402.602,195.445h-30v-63.092c0-39.945,32.498-72.443,72.443-72.443H512v30h-66.955
	c-23.403,0-42.443,19.04-42.443,42.443V195.445z"/>
<path style="fill:#00AC5E;" d="M496.547,337.676l-57.395-162.247H276.66c-8.399,0-16.704,0.397-24.911,1.13l-20.017,101.94
	l20.016,111.729h244.799V337.676z M278.492,299.1v-61.792l95.458-0.069l20.576,61.86L278.492,299.1L278.492,299.1z"/>
<path style="fill:#00DE7B;" d="M165.709,198.587L29.159,328.368c-9.73,19.428-17.251,40.155-22.209,61.86h244.799V176.559
	C221.393,179.271,192.445,186.868,165.709,198.587z"/>
<path style="fill:#FBF1F1;" d="M165.709,258.392v-59.805c-59.271,25.98-107.679,72.135-136.55,129.781h66.574
	C134.379,328.368,165.709,297.038,165.709,258.392z"/>
<g>
</g>
<g>
</g>
<g>
</g>
<g>
</g>
<g>
</g>
<g>
</g>
<g>
</g>
<g>
</g>
<g>
</g>
<g>
</g>
<g>
</g>
<g>
</g>
<g>
</g>
<g>
</g>
<g>
</g>
</svg>
