<?xml version="1.0" encoding="iso-8859-1"?>
<!-- Generator: Adobe Illustrator 19.0.0, SVG Export Plug-In . SVG Version: 6.00 Build 0)  -->
<svg version="1.1" id="Capa_1" xmlns="http://www.w3.org/2000/svg" xmlns:xlink="http://www.w3.org/1999/xlink" x="0px" y="0px"
	 viewBox="0 0 512 512" style="enable-background:new 0 0 512 512;" xml:space="preserve">
<polygon style="fill:#EBDED9;" points="512,64.646 256,64.646 235.984,256.002 256,447.358 512,447.358 "/>
<rect y="64.642" style="fill:#FBF1F1;" width="256" height="382.71"/>
<g>
	<rect x="320.73" y="241.002" style="fill:#979292;" width="142.48" height="157.57"/>
	<polygon style="fill:#979292;" points="287.893,271.002 287.893,241.002 256,241.002 245.992,256.002 256,271.002 	"/>
	<polygon style="fill:#979292;" points="287.893,334.788 287.893,304.788 256,304.788 245.992,319.788 256,334.788 	"/>
	<polygon style="fill:#979292;" points="287.893,398.573 287.893,368.573 256,368.573 245.992,383.573 256,398.573 	"/>
	<polygon style="fill:#979292;" points="464.161,113.431 256,113.431 245.992,128.431 256,143.431 464.161,143.431 	"/>
</g>
<g>
	<rect x="47.839" y="177.222" style="fill:#C9BBB6;" width="125.34" height="30"/>
	<rect x="47.839" y="368.572" style="fill:#C9BBB6;" width="208.16" height="30"/>
	<rect x="47.839" y="304.792" style="fill:#C9BBB6;" width="208.16" height="30"/>
	<rect x="47.839" y="241.002" style="fill:#C9BBB6;" width="208.16" height="30"/>
	<rect x="47.839" y="113.432" style="fill:#C9BBB6;" width="208.16" height="30"/>
</g>
<g>
</g>
<g>
</g>
<g>
</g>
<g>
</g>
<g>
</g>
<g>
</g>
<g>
</g>
<g>
</g>
<g>
</g>
<g>
</g>
<g>
</g>
<g>
</g>
<g>
</g>
<g>
</g>
<g>
</g>
</svg>
