<?xml version="1.0" encoding="iso-8859-1"?>
<!-- Generator: Adobe Illustrator 19.0.0, SVG Export Plug-In . SVG Version: 6.00 Build 0)  -->
<svg version="1.1" id="Capa_1" xmlns="http://www.w3.org/2000/svg" xmlns:xlink="http://www.w3.org/1999/xlink" x="0px" y="0px"
	 viewBox="0 0 512 512" style="enable-background:new 0 0 512 512;" xml:space="preserve">
<polygon style="fill:#B0CED3;" points="512,73.041 256,73.041 235.984,179.35 256,285.659 512,285.659 "/>
<rect y="73.04" style="fill:#DDE7EC;" width="256" height="212.62"/>
<g>
	<path style="fill:#CCE7FD;" d="M153.108,438.96h-30c0-11.425,2.265-17.672,4.085-22.691c1.378-3.8,2.288-6.311,2.288-12.464
		s-0.91-8.664-2.288-12.464c-1.82-5.02-4.085-11.267-4.085-22.691s2.265-17.67,4.085-22.689c1.378-3.799,2.288-6.31,2.288-12.461h30
		c0,11.424-2.265,17.67-4.085,22.689c-1.378,3.799-2.288,6.31-2.288,12.461c0,6.153,0.91,8.664,2.289,12.465
		c1.82,5.02,4.085,11.267,4.085,22.69s-2.265,17.671-4.085,22.69C154.019,430.296,153.108,432.806,153.108,438.96z"/>
	<path style="fill:#CCE7FD;" d="M229.578,438.96h-30c0-11.425,2.265-17.672,4.085-22.691c1.378-3.8,2.288-6.311,2.288-12.464
		s-0.91-8.664-2.288-12.464c-1.82-5.02-4.085-11.267-4.085-22.691s2.265-17.67,4.085-22.689c1.378-3.799,2.288-6.31,2.288-12.461h30
		c0,11.424-2.265,17.67-4.085,22.689c-1.378,3.799-2.288,6.31-2.288,12.461c0,6.153,0.91,8.664,2.289,12.465
		c1.82,5.02,4.085,11.267,4.085,22.69s-2.265,17.671-4.085,22.69C230.488,430.296,229.578,432.806,229.578,438.96z"/>
</g>
<g>
	<path style="fill:#A2D7FD;" d="M306.048,438.96h-30c0-11.425,2.265-17.672,4.085-22.691c1.378-3.8,2.288-6.311,2.288-12.464
		s-0.91-8.664-2.288-12.464c-1.82-5.02-4.085-11.267-4.085-22.691s2.265-17.67,4.085-22.689c1.378-3.799,2.288-6.31,2.288-12.461h30
		c0,11.424-2.265,17.67-4.085,22.689c-1.378,3.799-2.288,6.31-2.288,12.461c0,6.153,0.911,8.664,2.289,12.465
		c1.82,5.02,4.085,11.267,4.085,22.69s-2.265,17.671-4.085,22.69C306.959,430.296,306.048,432.806,306.048,438.96z"/>
	<path style="fill:#A2D7FD;" d="M382.518,438.96h-30c0-11.425,2.265-17.672,4.085-22.691c1.378-3.8,2.288-6.311,2.288-12.464
		s-0.91-8.664-2.288-12.464c-1.82-5.02-4.085-11.267-4.085-22.691s2.265-17.67,4.085-22.689c1.378-3.799,2.288-6.31,2.288-12.461h30
		c0,11.424-2.265,17.67-4.085,22.689c-1.378,3.799-2.288,6.31-2.288,12.461c0,6.153,0.911,8.664,2.289,12.465
		c1.82,5.02,4.085,11.267,4.085,22.69s-2.265,17.671-4.085,22.69C383.429,430.296,382.518,432.806,382.518,438.96z"/>
</g>
<polygon style="fill:#758892;" points="329.593,121.826 256,121.826 245.992,136.826 256,151.826 329.593,151.826 "/>
<polygon style="fill:#475A61;" points="464.161,206.874 256,206.874 245.992,221.874 256,236.874 464.161,236.874 "/>
<rect x="47.839" y="206.87" style="fill:#758892;" width="208.16" height="30"/>
<rect x="182.41" y="121.83" style="fill:#B0CED3;" width="73.59" height="30"/>
<g>
</g>
<g>
</g>
<g>
</g>
<g>
</g>
<g>
</g>
<g>
</g>
<g>
</g>
<g>
</g>
<g>
</g>
<g>
</g>
<g>
</g>
<g>
</g>
<g>
</g>
<g>
</g>
<g>
</g>
</svg>
