<?xml version="1.0" encoding="iso-8859-1"?>
<!-- Generator: Adobe Illustrator 19.0.0, SVG Export Plug-In . SVG Version: 6.00 Build 0)  -->
<svg version="1.1" id="Capa_1" xmlns="http://www.w3.org/2000/svg" xmlns:xlink="http://www.w3.org/1999/xlink" x="0px" y="0px"
	 viewBox="0 0 512 512" style="enable-background:new 0 0 512 512;" xml:space="preserve">
<polygon style="fill:#B0CED3;" points="512,0 256,0 235.984,254.938 256,512 512,512 "/>
<rect style="fill:#DDE7EC;" width="256" height="512"/>
<polygon style="fill:#006EFD;" points="448.266,63.734 256,63.734 235.984,254.938 256,448.266 448.266,448.266 "/>
<rect x="63.734" y="63.734" style="fill:#0494FD;" width="192.27" height="384.53"/>
<path style="fill:#EBDED9;" d="M262.352,127.469H256l-20.016,33.351L256,191.203h6.353c17.6,0,31.867,14.267,31.867,31.867l0,0
	c0,17.6-14.268,31.867-31.867,31.867H256l-20.016,32.328L256,318.672h6.352c52.715,0,95.602-42.887,95.602-95.602
	C357.954,170.356,315.067,127.469,262.352,127.469z"/>
<polygon style="fill:#FBF1F1;" points="217.781,254.938 217.781,191.203 256,191.203 256,127.469 217.781,127.469 154.046,127.469 
	154.046,384.531 217.781,384.531 217.781,318.672 256,318.672 256,254.938 "/>
<g>
</g>
<g>
</g>
<g>
</g>
<g>
</g>
<g>
</g>
<g>
</g>
<g>
</g>
<g>
</g>
<g>
</g>
<g>
</g>
<g>
</g>
<g>
</g>
<g>
</g>
<g>
</g>
<g>
</g>
</svg>
