<?xml version="1.0" encoding="iso-8859-1"?>
<!-- Generator: Adobe Illustrator 19.0.0, SVG Export Plug-In . SVG Version: 6.00 Build 0)  -->
<svg version="1.1" id="Capa_1" xmlns="http://www.w3.org/2000/svg" xmlns:xlink="http://www.w3.org/1999/xlink" x="0px" y="0px"
	 viewBox="0 0 512 512" style="enable-background:new 0 0 512 512;" xml:space="preserve">
<path style="fill:#FC9E00;" d="M409.24,184.42h-30V82.334C379.24,53.477,355.763,30,326.906,30H206.938
	c-28.856,0-52.333,23.477-52.333,52.334v34.068h-30V82.334C124.605,36.935,161.54,0,206.938,0h119.968
	c45.398,0,82.333,36.935,82.333,82.334V184.42z"/>
<path style="fill:#B0CED3;" d="M139.605,82.334l-20.016,34.069l20.016,28.345c17.235,0,31.207,13.972,31.207,31.207
	s-13.972,31.207-31.207,31.207l-20.016,35.936L139.605,512l40.99-31.207v-181.55c41.756-16.377,71.323-57.032,71.323-104.596
	C251.919,132.618,201.634,82.334,139.605,82.334z"/>
<path style="fill:#DDE7EC;" d="M108.398,175.953c0-17.235,13.972-31.207,31.207-31.207V82.334
	c-62.029,0-112.313,50.285-112.313,112.313c0,47.564,29.567,88.219,71.323,104.596v181.55L139.605,512V207.16
	C122.37,207.16,108.398,193.188,108.398,175.953z"/>
<polygon style="fill:#EBDED9;" points="484.708,166.894 394.24,166.894 374.224,315.202 394.24,467.209 484.708,467.209 "/>
<rect x="303.769" y="166.89" style="fill:#FBF1F1;" width="90.47" height="300.31"/>
<g>
</g>
<g>
</g>
<g>
</g>
<g>
</g>
<g>
</g>
<g>
</g>
<g>
</g>
<g>
</g>
<g>
</g>
<g>
</g>
<g>
</g>
<g>
</g>
<g>
</g>
<g>
</g>
<g>
</g>
</svg>
