<?xml version="1.0" encoding="iso-8859-1"?>
<!-- Generator: Adobe Illustrator 19.0.0, SVG Export Plug-In . SVG Version: 6.00 Build 0)  -->
<svg version="1.1" id="Capa_1" xmlns="http://www.w3.org/2000/svg" xmlns:xlink="http://www.w3.org/1999/xlink" x="0px" y="0px"
	 viewBox="0 0 512 512" style="enable-background:new 0 0 512 512;" xml:space="preserve">
<path style="fill:#C9BBB6;" d="M465.133,365.754H413.25v-30h51.883c9.301,0,16.867-7.566,16.867-16.867s-7.566-16.867-16.867-16.867
	H413.25v-30h51.883c25.843,0,46.867,21.024,46.867,46.867S490.976,365.754,465.133,365.754z"/>
<path style="fill:#EBDED9;" d="M386.398,416.235c34.169,0,61.868-27.699,61.868-61.868v-99.241h-80.212l-10.008,171.117
	L386.398,416.235z"/>
<path style="fill:#FBF1F1;" d="M287.842,354.367c0,34.169,27.699,61.868,61.868,61.868l18.344,10.008V255.126h-80.212V354.367z"/>
<path style="fill:#B0CED3;" d="M399.946,127.657h80.161V89.655c0-31.854-25.823-57.676-57.676-57.676h-54.377l-20.016,50.355
	l20.016,77.216h31.892V127.657z"/>
<polygon style="fill:#DDE7EC;" points="224.107,31.979 204.091,127.657 336.161,127.657 336.161,159.55 368.054,159.55 
	368.054,31.979 "/>
<polygon style="fill:#FD2323;" points="512,416.235 368.054,416.235 348.038,448.128 368.054,480.021 512,480.021 "/>
<path style="fill:#FD641A;" d="M224.107,416.235V31.979h-75.489C66.539,31.979,0,98.518,0,180.597V480.02h368.054v-63.786
	L224.107,416.235L224.107,416.235z"/>
<g>
	<path style="fill:#FBF1F1;" d="M112.053,416.235c-26.643,0-48.319-21.676-48.319-48.319s21.676-48.32,48.319-48.32
		c26.644,0,48.32,21.676,48.32,48.32S138.697,416.235,112.053,416.235z"/>
	<rect x="47.788" y="240.81" style="fill:#FBF1F1;" width="128.53" height="30"/>
	<rect x="47.788" y="177.03" style="fill:#FBF1F1;" width="128.53" height="30"/>
</g>
<g>
</g>
<g>
</g>
<g>
</g>
<g>
</g>
<g>
</g>
<g>
</g>
<g>
</g>
<g>
</g>
<g>
</g>
<g>
</g>
<g>
</g>
<g>
</g>
<g>
</g>
<g>
</g>
<g>
</g>
</svg>
