<?xml version="1.0" encoding="iso-8859-1"?>
<!-- Generator: Adobe Illustrator 19.0.0, SVG Export Plug-In . SVG Version: 6.00 Build 0)  -->
<svg version="1.1" id="Capa_1" xmlns="http://www.w3.org/2000/svg" xmlns:xlink="http://www.w3.org/1999/xlink" x="0px" y="0px"
	 viewBox="0 0 512 512" style="enable-background:new 0 0 512 512;" xml:space="preserve">
<rect x="304.74" y="15" style="fill:#B0CED3;" width="30" height="141.33"/>
<rect x="177.26" y="15" style="fill:#DDE7EC;" width="30" height="141.33"/>
<polygon style="fill:#758892;" points="364.78,0 256,0 245.992,15 256,30 364.78,30 "/>
<rect x="147.22" style="fill:#B0CED3;" width="108.78" height="30"/>
<rect x="338.19" y="432.4" style="fill:#758892;" width="30" height="79.6"/>
<rect x="143.81" y="432.4" style="fill:#B0CED3;" width="30" height="79.6"/>
<polygon style="fill:#00AC5E;" points="413.234,122.472 256,122.472 235.984,446.96 353.186,466.976 413.234,466.976 "/>
<g>
	<polygon style="fill:#00DE7B;" points="98.766,122.472 98.766,466.976 158.814,466.976 256,446.96 256,122.472 	"/>
	<polygon style="fill:#00DE7B;" points="353.186,182.52 256,182.52 235.984,320.964 256,466.976 353.186,466.976 	"/>
</g>
<rect x="158.81" y="182.52" style="fill:#00FF8E;" width="97.19" height="284.46"/>
<polygon style="fill:#00AC5E;" points="308.15,257.568 308.15,227.568 256,227.568 245.992,242.568 256,257.568 "/>
<rect x="203.85" y="227.57" style="fill:#00DE7B;" width="52.15" height="30"/>
<g>
</g>
<g>
</g>
<g>
</g>
<g>
</g>
<g>
</g>
<g>
</g>
<g>
</g>
<g>
</g>
<g>
</g>
<g>
</g>
<g>
</g>
<g>
</g>
<g>
</g>
<g>
</g>
<g>
</g>
</svg>
