<?xml version="1.0" encoding="iso-8859-1"?>
<!-- Generator: Adobe Illustrator 19.0.0, SVG Export Plug-In . SVG Version: 6.00 Build 0)  -->
<svg version="1.1" id="Capa_1" xmlns="http://www.w3.org/2000/svg" xmlns:xlink="http://www.w3.org/1999/xlink" x="0px" y="0px"
	 viewBox="0 0 512 512" style="enable-background:new 0 0 512 512;" xml:space="preserve">
<g>
	<polygon style="fill:#A2D7FD;" points="174.625,257.285 174.625,225.446 159.625,225.446 149.617,241.366 159.625,257.285 	"/>
	<polygon style="fill:#A2D7FD;" points="174.625,320.964 174.625,289.125 159.625,289.125 149.617,305.044 159.625,320.964 	"/>
	<polygon style="fill:#A2D7FD;" points="174.625,384.643 174.625,352.804 159.625,352.804 149.617,368.723 159.625,384.643 	"/>
	<polygon style="fill:#A2D7FD;" points="174.625,448.321 174.625,416.482 159.625,416.482 149.617,432.402 159.625,448.321 	"/>
	<polygon style="fill:#A2D7FD;" points="174.625,512 174.625,480.161 159.625,480.161 149.617,496.081 159.625,512 	"/>
</g>
<polygon style="fill:#B0CED3;" points="159.625,0 139.609,149.048 191.439,129.032 191.439,63.628 448.372,63.628 448.372,512 
	512,512 512,0 "/>
<polygon style="fill:#DDE7EC;" points="159.625,0 127.811,0 127.811,129.032 159.625,149.048 "/>
<g>
	<rect x="17.268" y="225.45" style="fill:#CCE7FD;" width="30" height="31.839"/>
	<rect x="80.946" y="225.45" style="fill:#CCE7FD;" width="30" height="31.839"/>
</g>
<g>
	<rect x="208.3" y="225.45" style="fill:#A2D7FD;" width="30" height="31.839"/>
	<rect x="271.98" y="225.45" style="fill:#A2D7FD;" width="30" height="31.839"/>
</g>
<g>
	<rect x="17.268" y="289.12" style="fill:#CCE7FD;" width="30" height="31.839"/>
	<rect x="80.946" y="289.12" style="fill:#CCE7FD;" width="30" height="31.839"/>
</g>
<g>
	<rect x="208.3" y="289.12" style="fill:#A2D7FD;" width="30" height="31.839"/>
	<rect x="271.98" y="289.12" style="fill:#A2D7FD;" width="30" height="31.839"/>
</g>
<g>
	<rect x="17.268" y="352.8" style="fill:#CCE7FD;" width="30" height="31.839"/>
	<rect x="80.946" y="352.8" style="fill:#CCE7FD;" width="30" height="31.839"/>
</g>
<g>
	<rect x="208.3" y="352.8" style="fill:#A2D7FD;" width="30" height="31.839"/>
	<rect x="271.98" y="352.8" style="fill:#A2D7FD;" width="30" height="31.839"/>
</g>
<g>
	<rect x="17.268" y="416.48" style="fill:#CCE7FD;" width="30" height="31.839"/>
	<rect x="80.946" y="416.48" style="fill:#CCE7FD;" width="30" height="31.839"/>
</g>
<g>
	<rect x="208.3" y="416.48" style="fill:#A2D7FD;" width="30" height="31.839"/>
	<rect x="271.98" y="416.48" style="fill:#A2D7FD;" width="30" height="31.839"/>
</g>
<g>
	<rect x="17.268" y="480.16" style="fill:#CCE7FD;" width="30" height="31.839"/>
	<rect x="80.946" y="480.16" style="fill:#CCE7FD;" width="30" height="31.839"/>
</g>
<g>
	<rect x="208.3" y="480.16" style="fill:#A2D7FD;" width="30" height="31.839"/>
	<rect x="271.98" y="480.16" style="fill:#A2D7FD;" width="30" height="31.839"/>
</g>
<g>
	<rect x="144.62" y="289.12" style="fill:#CCE7FD;" width="15" height="31.839"/>
	<rect x="144.62" y="352.8" style="fill:#CCE7FD;" width="15" height="31.839"/>
	<rect x="144.62" y="416.48" style="fill:#CCE7FD;" width="15" height="31.839"/>
	<rect x="144.62" y="480.16" style="fill:#CCE7FD;" width="15" height="31.839"/>
</g>
<polygon style="fill:#758892;" points="159.625,192.711 319.25,192.711 319.25,129.032 159.625,129.032 139.609,160.872 "/>
<rect y="129.03" style="fill:#B0CED3;" width="159.62" height="63.68"/>
<rect x="144.62" y="225.45" style="fill:#CCE7FD;" width="15" height="31.839"/>
<g>
</g>
<g>
</g>
<g>
</g>
<g>
</g>
<g>
</g>
<g>
</g>
<g>
</g>
<g>
</g>
<g>
</g>
<g>
</g>
<g>
</g>
<g>
</g>
<g>
</g>
<g>
</g>
<g>
</g>
</svg>
