<?xml version="1.0" encoding="iso-8859-1"?>
<!-- Generator: Adobe Illustrator 19.0.0, SVG Export Plug-In . SVG Version: 6.00 Build 0)  -->
<svg version="1.1" id="Capa_1" xmlns="http://www.w3.org/2000/svg" xmlns:xlink="http://www.w3.org/1999/xlink" x="0px" y="0px"
	 viewBox="0 0 512 512" style="enable-background:new 0 0 512 512;" xml:space="preserve">
<polygon style="fill:#AE5E2E;" points="512,0 256,0 235.984,271 256,512 512,512 "/>
<rect style="fill:#DA7F4A;" width="256" height="512"/>
<path style="fill:#EBDED9;" d="M256,63.734L235.984,256L256,448.266c106.016,0,192.266-86.25,192.266-192.266
	S362.016,63.734,256,63.734z"/>
<path style="fill:#FBF1F1;" d="M63.734,256c0,106.016,86.25,192.266,192.266,192.266V63.734
	C149.984,63.734,63.734,149.984,63.734,256z"/>
<rect x="378.54" y="241" style="fill:#475A61;" width="31.893" height="30"/>
<rect x="101.56" y="241" style="fill:#758892;" width="31.893" height="30"/>
<g>
	<polygon style="fill:#475A61;" points="271,101.565 256,101.565 245.992,117.512 256,133.458 271,133.458 	"/>
	<polygon style="fill:#475A61;" points="336.641,241 271,241 271,175.359 256,175.359 245.992,219.5 256,271 336.641,271 	"/>
	<polygon style="fill:#475A61;" points="271,410.435 271,378.542 256,378.542 245.992,395.382 256,410.435 	"/>
</g>
<g>
	<rect x="241" y="101.56" style="fill:#758892;" width="15" height="31.893"/>
	<rect x="241" y="378.54" style="fill:#758892;" width="15" height="31.893"/>
	<rect x="241" y="175.36" style="fill:#758892;" width="15" height="95.64"/>
</g>
<g>
</g>
<g>
</g>
<g>
</g>
<g>
</g>
<g>
</g>
<g>
</g>
<g>
</g>
<g>
</g>
<g>
</g>
<g>
</g>
<g>
</g>
<g>
</g>
<g>
</g>
<g>
</g>
<g>
</g>
</svg>
