<?xml version="1.0" encoding="iso-8859-1"?>
<!-- Generator: Adobe Illustrator 19.0.0, SVG Export Plug-In . SVG Version: 6.00 Build 0)  -->
<svg version="1.1" id="Capa_1" xmlns="http://www.w3.org/2000/svg" xmlns:xlink="http://www.w3.org/1999/xlink" x="0px" y="0px"
	 viewBox="0 0 512 512" style="enable-background:new 0 0 512 512;" xml:space="preserve">
<polygon style="fill:#FC9E00;" points="448.215,408.778 235.984,458.818 235.984,276.285 448.215,326.326 "/>
<polygon style="fill:#FFD500;" points="256,458.818 63.785,408.778 63.785,326.326 256,276.285 "/>
<rect y="69.1" style="fill:#DA7F4A;" width="256" height="63.785"/>
<rect x="256" y="69.1" style="fill:#AE5E2E;" width="256" height="63.785"/>
<path style="fill:#FFD500;" d="M336.787,338.394c20.2,0,20.2-13.396,40.401-13.396c20.203,0,20.203,13.396,40.406,13.396
	c16.274,0,19.445-8.688,30.621-12.069V37.208H256L235.984,199L256,338.394c20.185-0.007,20.19-13.396,40.385-13.396
	C316.586,324.998,316.586,338.394,336.787,338.394z"/>
<path style="fill:#FFF361;" d="M63.785,37.208v289.117c11.172,3.381,14.343,12.068,30.613,12.068c20.2,0,20.2-13.396,40.399-13.396
	c20.197,0,20.197,13.396,40.393,13.396c20.197,0,20.197-13.396,40.395-13.396c20.2,0,20.2,13.396,40.399,13.396
	c0.005,0,0.01,0,0.015,0V37.208H63.785z"/>
<path style="fill:#FFD500;" d="M448.215,474.792v-78.083c-11.176,3.381-14.346,12.069-30.621,12.069
	c-20.203,0-20.203-13.396-40.406-13.396c-20.2,0-20.2,13.396-40.401,13.396s-20.201-13.396-40.402-13.396
	c-20.195,0-20.201,13.389-40.385,13.396l-20.016,30.889L256,474.792H448.215z"/>
<path style="fill:#FFF361;" d="M215.586,395.382c-20.197,0-20.197,13.396-40.395,13.396c-20.197,0-20.197-13.396-40.393-13.396
	c-20.2,0-20.2,13.396-40.399,13.396c-16.27,0-19.441-8.687-30.613-12.068v78.082H256v-66.014c-0.005,0-0.01,0-0.015,0
	C235.786,408.778,235.786,395.382,215.586,395.382z"/>
<g>
</g>
<g>
</g>
<g>
</g>
<g>
</g>
<g>
</g>
<g>
</g>
<g>
</g>
<g>
</g>
<g>
</g>
<g>
</g>
<g>
</g>
<g>
</g>
<g>
</g>
<g>
</g>
<g>
</g>
</svg>
