<?xml version="1.0" encoding="iso-8859-1"?>
<!-- Generator: Adobe Illustrator 19.0.0, SVG Export Plug-In . SVG Version: 6.00 Build 0)  -->
<svg version="1.1" id="Capa_1" xmlns="http://www.w3.org/2000/svg" xmlns:xlink="http://www.w3.org/1999/xlink" x="0px" y="0px"
	 viewBox="0 0 512 512" style="enable-background:new 0 0 512 512;" xml:space="preserve">
<path style="fill:#DDE7EC;" d="M493.527,246.763L271,100.392V50.028C271,38.984,279.984,30,291.028,30s20.028,8.984,20.028,20.028
	v24.424h30V50.028C341.056,22.442,318.613,0,291.028,0C277.399,0,265.032,5.484,256,14.354c-9.249,9.083-15,21.717-15,35.674v50.364
	L18.474,246.763C6.906,254.37,0,267.179,0,281.024c0,22.612,18.396,41.009,41.009,41.009h104.545v-30H41.009
	c-6.07,0-11.009-4.938-11.009-11.009c0-3.717,1.854-7.155,4.959-9.197L256,126.434l221.042,145.394
	c3.104,2.042,4.958,5.48,4.958,9.197c0,6.07-4.938,11.009-11.009,11.009H366.446v30h104.545c22.612,0,41.009-18.396,41.009-41.009
	C512,267.179,505.094,254.37,493.527,246.763z"/>
<polygon style="fill:#FF3998;" points="415.626,262.009 256,262.009 235.984,389 256,512 415.626,512 "/>
<polygon style="fill:#FF7CBA;" points="256,262.009 210.305,262.009 190.289,393.416 210.305,512 256,512 "/>
<polygon style="fill:#FF3998;" points="142.069,262.009 122.053,390 142.069,512 210.305,512 210.305,262.009 "/>
<rect x="96.37" y="262.01" style="fill:#FF7CBA;" width="45.695" height="249.99"/>
<g>
</g>
<g>
</g>
<g>
</g>
<g>
</g>
<g>
</g>
<g>
</g>
<g>
</g>
<g>
</g>
<g>
</g>
<g>
</g>
<g>
</g>
<g>
</g>
<g>
</g>
<g>
</g>
<g>
</g>
</svg>
