<?xml version="1.0" encoding="iso-8859-1"?>
<!-- Generator: Adobe Illustrator 19.0.0, SVG Export Plug-In . SVG Version: 6.00 Build 0)  -->
<svg version="1.1" id="Capa_1" xmlns="http://www.w3.org/2000/svg" xmlns:xlink="http://www.w3.org/1999/xlink" x="0px" y="0px"
	 viewBox="0 0 512 512" style="enable-background:new 0 0 512 512;" xml:space="preserve">
<path style="fill:#C9BBB6;" d="M344.446,308.896h55.949C461.934,308.896,512,258.83,512,197.291
	c0-61.538-50.066-111.604-111.605-111.604h-55.949v63.738h55.949c26.394,0,47.867,21.473,47.867,47.868
	c0,26.394-21.473,47.867-47.867,47.867h-55.949V308.896z"/>
<path style="fill:#EBDED9;" d="M182.23,53.792L162.215,245l20.015,213.208h43.324c76.715,0,138.906-62.19,138.906-138.906V53.792
	C364.461,53.792,182.23,53.792,182.23,53.792z"/>
<path style="fill:#FBF1F1;" d="M0,53.792v265.51c0,76.716,62.19,138.906,138.906,138.906h43.324V53.792H0z"/>
<g>
</g>
<g>
</g>
<g>
</g>
<g>
</g>
<g>
</g>
<g>
</g>
<g>
</g>
<g>
</g>
<g>
</g>
<g>
</g>
<g>
</g>
<g>
</g>
<g>
</g>
<g>
</g>
<g>
</g>
</svg>
