<?xml version="1.0" encoding="iso-8859-1"?>
<!-- Generator: Adobe Illustrator 19.0.0, SVG Export Plug-In . SVG Version: 6.00 Build 0)  -->
<svg version="1.1" id="Capa_1" xmlns="http://www.w3.org/2000/svg" xmlns:xlink="http://www.w3.org/1999/xlink" x="0px" y="0px"
	 viewBox="0 0 512 512" style="enable-background:new 0 0 512 512;" xml:space="preserve">
<path style="fill:#758892;" d="M367.904,511.774c-38.767,0-70.306-31.539-70.306-70.305V391.44h30v50.029
	c0,22.224,18.081,40.305,40.306,40.305c22.224,0,40.305-18.081,40.305-40.305V370.82c0-38.766,31.538-70.305,70.305-70.305H512v30
	h-33.486c-22.224,0-40.305,18.081-40.305,40.305v70.649C438.209,480.235,406.671,511.774,367.904,511.774z"/>
<path style="fill:#B0CED3;" d="M312.599,436.371c26.924,0,48.75-21.826,48.75-48.75v-69.345l-68.766-20.016L312.599,436.371z"/>
<path style="fill:#DDE7EC;" d="M263.85,318.277v69.345c0,26.924,21.826,48.75,48.75,48.75v-138.11L263.85,318.277z"/>
<path style="fill:#F60B75;" d="M312.599,0.226l-20.016,145.557l20.016,172.494h48.75v-41.24
	c54.793-19.919,93.931-72.453,93.931-134.131C455.279,64.106,391.399,0.226,312.599,0.226z"/>
<path style="fill:#FF3998;" d="M312.599,0.226H61.86L41.844,63.639l20.016,63.412l108.886,31.236
	c5.887,54.917,42.93,100.508,93.103,118.749v41.24h48.75V0.226z"/>
<path style="fill:#B0CED3;" d="M312.599,62.037L312.599,62.037l-20.016,80.869l20.016,80.869l0,0
	c44.592,0,80.869-36.278,80.869-80.869C393.469,98.315,357.191,62.037,312.599,62.037z"/>
<g>
	<path style="fill:#DDE7EC;" d="M231.73,142.906c0,44.591,36.277,80.869,80.869,80.869V62.037
		C268.008,62.037,231.73,98.315,231.73,142.906z"/>
	<polygon style="fill:#DDE7EC;" points="0,0.226 0,109.305 61.86,127.051 61.86,0.226 	"/>
</g>
<g>
</g>
<g>
</g>
<g>
</g>
<g>
</g>
<g>
</g>
<g>
</g>
<g>
</g>
<g>
</g>
<g>
</g>
<g>
</g>
<g>
</g>
<g>
</g>
<g>
</g>
<g>
</g>
<g>
</g>
</svg>
