<?xml version="1.0" encoding="iso-8859-1"?>
<!-- Generator: Adobe Illustrator 19.0.0, SVG Export Plug-In . SVG Version: 6.00 Build 0)  -->
<svg version="1.1" id="Capa_1" xmlns="http://www.w3.org/2000/svg" xmlns:xlink="http://www.w3.org/1999/xlink" x="0px" y="0px"
	 viewBox="0 0 512 512" style="enable-background:new 0 0 512 512;" xml:space="preserve">
<polygon style="fill:#FD641A;" points="256,424.033 512,424.033 512,215.538 234.738,194.276 "/>
<polygon style="fill:#FC9E00;" points="0,215.538 0,424.033 256,424.033 256,194.276 "/>
<polygon style="fill:#FD641A;" points="256,87.967 234.738,173.014 512,151.752 512,87.967 "/>
<polygon style="fill:#FC9E00;" points="256,87.967 0,87.967 0,151.752 256,173.014 "/>
<polygon style="fill:#3B4B51;" points="256,215.538 512,215.538 512,151.752 256,151.752 234.738,183.645 "/>
<rect y="151.75" style="fill:#475A61;" width="256" height="63.785"/>
<polygon style="fill:#FD641A;" points="102.057,296.462 70.164,328.355 102.057,360.248 227.297,360.248 227.297,296.462 "/>
<rect x="291.08" y="296.46" style="fill:#FD2323;" width="157.13" height="63.785"/>
<g>
</g>
<g>
</g>
<g>
</g>
<g>
</g>
<g>
</g>
<g>
</g>
<g>
</g>
<g>
</g>
<g>
</g>
<g>
</g>
<g>
</g>
<g>
</g>
<g>
</g>
<g>
</g>
<g>
</g>
</svg>
