<?xml version="1.0" encoding="iso-8859-1"?>
<!-- Generator: Adobe Illustrator 19.0.0, SVG Export Plug-In . SVG Version: 6.00 Build 0)  -->
<svg version="1.1" id="Capa_1" xmlns="http://www.w3.org/2000/svg" xmlns:xlink="http://www.w3.org/1999/xlink" x="0px" y="0px"
	 viewBox="0 0 512 512" style="enable-background:new 0 0 512 512;" xml:space="preserve">
<polygon style="fill:#0150C1;" points="286.958,497 286.958,373.216 235.984,373.216 256,497 "/>
<g>
	<rect x="225.04" y="373.22" style="fill:#006EFD;" width="30.958" height="123.78"/>
	<polygon style="fill:#006EFD;" points="395.201,512 395.201,482 256,482 245.992,497 256,512 	"/>
</g>
<rect x="116.8" y="482" style="fill:#5FBEFD;" width="139.2" height="30"/>
<path style="fill:#006EFD;" d="M473.542,217.542C473.542,97.397,376.145,0,256,0l-20.016,217.542L256,435.083
	C376.145,435.083,473.542,337.687,473.542,217.542z"/>
<g>
	<path style="fill:#5FBEFD;" d="M38.458,217.542c0,120.145,97.397,217.542,217.542,217.542V0
		C135.855,0,38.458,97.397,38.458,217.542z"/>
	<path style="fill:#5FBEFD;" d="M411.674,217.542c0-24.005-5.465-46.756-15.21-67.08l-160.48,130.456L256,373.216
		C341.839,373.216,411.674,303.381,411.674,217.542z"/>
</g>
<path style="fill:#A2D7FD;" d="M256,290.926l140.464-140.464c-15.358-32.031-41.355-58.027-73.386-73.385l-87.094,67.078
	L256,290.926z"/>
<path style="fill:#CCE7FD;" d="M323.078,77.077c-20.324-9.745-43.074-15.21-67.078-15.21l-20.016,35.946L256,144.155L323.078,77.077
	z"/>
<path style="fill:#A2D7FD;" d="M188.92,358.006c20.324,9.745,43.075,15.21,67.08,15.21v-82.29l-38.878,18.862L188.92,358.006z"/>
<path style="fill:#CCE7FD;" d="M256,144.155l-59.256,39.24L115.535,284.62c15.358,32.031,41.355,58.028,73.385,73.386l67.08-67.08
	V144.155z"/>
<path style="fill:#E7F3FF;" d="M256,61.867c-85.839,0-155.674,69.835-155.674,155.674c0,24.004,5.465,46.754,15.209,67.078
	L256,144.155V61.867z"/>
<g>
</g>
<g>
</g>
<g>
</g>
<g>
</g>
<g>
</g>
<g>
</g>
<g>
</g>
<g>
</g>
<g>
</g>
<g>
</g>
<g>
</g>
<g>
</g>
<g>
</g>
<g>
</g>
<g>
</g>
</svg>
