<?xml version="1.0" encoding="iso-8859-1"?>
<!-- Generator: Adobe Illustrator 19.0.0, SVG Export Plug-In . SVG Version: 6.00 Build 0)  -->
<svg version="1.1" id="Capa_1" xmlns="http://www.w3.org/2000/svg" xmlns:xlink="http://www.w3.org/1999/xlink" x="0px" y="0px"
	 viewBox="0 0 512 512" style="enable-background:new 0 0 512 512;" xml:space="preserve">
<polygon style="fill:#475A61;" points="368.18,30 414.574,30 414.574,0 335.606,0 312.003,27.287 422.898,104.938 440.105,80.363 
	"/>
<path style="fill:#E00000;" d="M399.17,178.644c0-38.19-27.395-70.104-63.563-77.127V75.048l-75.048-20.016L280.574,512H399.17
	V178.644z"/>
<path style="fill:#3B4B51;" d="M131.93,423h-30V108.588c0-43.32,35.244-78.564,78.564-78.564h60.048v30h-60.048
	c-26.778,0-48.564,21.786-48.564,48.564V423z"/>
<path style="fill:#FD2323;" d="M225.542,75.048v26.469c-36.168,7.022-63.563,38.937-63.563,77.127V512h118.596V55.032
	L225.542,75.048z"/>
<polygon style="fill:#3B4B51;" points="429.206,209.004 280.574,209.004 270.566,224.004 280.574,239.004 429.206,239.004 "/>
<rect x="71.895" y="209" style="fill:#475A61;" width="208.68" height="30"/>
<polygon style="fill:#3B4B51;" points="335.606,0 280.574,0 260.558,37.524 280.574,75.048 335.606,75.048 "/>
<rect x="225.54" style="fill:#475A61;" width="55.03" height="75.05"/>
<polygon style="fill:#EBDED9;" points="335.606,284.004 280.574,284.004 260.558,345.996 280.574,407.988 335.606,407.988 "/>
<rect x="225.54" y="284" style="fill:#FBF1F1;" width="55.03" height="123.98"/>
<g>
</g>
<g>
</g>
<g>
</g>
<g>
</g>
<g>
</g>
<g>
</g>
<g>
</g>
<g>
</g>
<g>
</g>
<g>
</g>
<g>
</g>
<g>
</g>
<g>
</g>
<g>
</g>
<g>
</g>
</svg>
