<?xml version="1.0" encoding="iso-8859-1"?>
<!-- Generator: Adobe Illustrator 19.0.0, SVG Export Plug-In . SVG Version: 6.00 Build 0)  -->
<svg version="1.1" id="Capa_1" xmlns="http://www.w3.org/2000/svg" xmlns:xlink="http://www.w3.org/1999/xlink" x="0px" y="0px"
	 viewBox="0 0 512 512" style="enable-background:new 0 0 512 512;" xml:space="preserve">
<polygon style="fill:#EBDED9;" points="512,0 256,0 235.984,256 256,512 512,512 "/>
<rect style="fill:#FBF1F1;" width="256" height="512"/>
<path style="fill:#758892;" d="M256,85.056L235.984,256L256,426.944c94.258,0,170.943-76.685,170.943-170.944
	S350.258,85.056,256,85.056z"/>
<g>
	<path style="fill:#B0CED3;" d="M91.879,208.161H63.785v95.678h28.094C112.622,374.887,178.342,426.944,256,426.944V85.056
		C178.342,85.056,112.622,137.113,91.879,208.161z"/>
	<rect x="47.839" y="48.786" style="fill:#B0CED3;" width="63.785" height="30"/>
</g>
<rect x="400.38" y="48.786" style="fill:#758892;" width="63.785" height="30"/>
<path style="fill:#475A61;" d="M256,148.79L235.984,256L256,363.21c59.115,0,107.208-48.094,107.208-107.21
	S315.115,148.79,256,148.79z"/>
<path style="fill:#758892;" d="M148.792,256c0,59.116,48.093,107.21,107.208,107.21V148.79
	C196.885,148.79,148.792,196.884,148.792,256z"/>
<g>
</g>
<g>
</g>
<g>
</g>
<g>
</g>
<g>
</g>
<g>
</g>
<g>
</g>
<g>
</g>
<g>
</g>
<g>
</g>
<g>
</g>
<g>
</g>
<g>
</g>
<g>
</g>
<g>
</g>
</svg>
