<?xml version="1.0" encoding="iso-8859-1"?>
<!-- Generator: Adobe Illustrator 19.0.0, SVG Export Plug-In . SVG Version: 6.00 Build 0)  -->
<svg version="1.1" id="Capa_1" xmlns="http://www.w3.org/2000/svg" xmlns:xlink="http://www.w3.org/1999/xlink" x="0px" y="0px"
	 viewBox="0 0 512 512" style="enable-background:new 0 0 512 512;" xml:space="preserve">
<polygon style="fill:#924D24;" points="480.107,512 480.107,448.215 235.984,428.199 256,512 "/>
<polygon style="fill:#AE5E2E;" points="31.893,512 256,512 256,428.199 31.893,448.215 "/>
<polygon style="fill:#DA7F4A;" points="512,448.215 512,298.81 235.984,278.794 256,448.215 "/>
<g>
	<polygon style="fill:#E39B74;" points="0,448.215 256,448.215 256,278.794 0,298.81 	"/>
	<polygon style="fill:#E39B74;" points="512,149.405 235.984,129.389 256,298.81 512,298.81 	"/>
</g>
<polygon style="fill:#EFC0A8;" points="0,149.405 0,298.81 256,298.81 256,129.389 "/>
<polygon style="fill:#DA7F4A;" points="512,0 256,0 235.984,74.702 256,149.405 512,149.405 "/>
<rect style="fill:#E39B74;" width="256" height="149.41"/>
<polygon style="fill:#AE5E2E;" points="301.676,239.107 301.676,209.107 256,209.107 245.992,224.107 256,239.107 "/>
<g>
	<polygon style="fill:#924D24;" points="301.676,59.703 256,59.703 245.992,74.702 256,89.703 301.676,89.703 	"/>
	<polygon style="fill:#924D24;" points="301.676,388.512 301.676,358.512 256,358.512 245.992,373.512 256,388.512 	"/>
</g>
<rect x="210.32" y="209.11" style="fill:#DA7F4A;" width="45.676" height="30"/>
<g>
	<rect x="210.32" y="59.703" style="fill:#AE5E2E;" width="45.676" height="30"/>
	<rect x="210.32" y="358.51" style="fill:#AE5E2E;" width="45.676" height="30"/>
</g>
<g>
</g>
<g>
</g>
<g>
</g>
<g>
</g>
<g>
</g>
<g>
</g>
<g>
</g>
<g>
</g>
<g>
</g>
<g>
</g>
<g>
</g>
<g>
</g>
<g>
</g>
<g>
</g>
<g>
</g>
</svg>
