<?xml version="1.0" encoding="iso-8859-1"?>
<!-- Generator: Adobe Illustrator 19.0.0, SVG Export Plug-In . SVG Version: 6.00 Build 0)  -->
<svg version="1.1" id="Capa_1" xmlns="http://www.w3.org/2000/svg" xmlns:xlink="http://www.w3.org/1999/xlink" x="0px" y="0px"
	 viewBox="0 0 512 512" style="enable-background:new 0 0 512 512;" xml:space="preserve">
<path style="fill:#DA7F4A;" d="M464.161,125.34c0-26.421-21.418-47.839-47.839-47.839H256l-20.016,273.497h228.177V125.34z"/>
<path style="fill:#E39B74;" d="M95.678,77.501c-26.421,0-47.839,21.418-47.839,47.839v225.658H256V77.501H95.678z"/>
<rect x="32.839" y="350.999" style="fill:#AE5E2E;" width="30" height="83.5"/>
<g>
	<rect x="449.16" y="350.999" style="fill:#924D24;" width="30" height="83.5"/>
	<polygon style="fill:#924D24;" points="416.322,248.454 256,248.454 235.984,332.257 436.338,332.257 	"/>
</g>
<g>
	<polygon style="fill:#AE5E2E;" points="95.678,248.454 75.662,332.257 256,332.257 256,248.454 	"/>
	<path style="fill:#AE5E2E;" d="M512,221.02c0-26.421-21.418-47.839-47.839-47.839l0,0c-26.421,0-47.839,21.418-47.839,47.839
		v91.221H256l-20.016,38.758L256,386.656h256V221.02z"/>
</g>
<path style="fill:#DA7F4A;" d="M95.678,312.241V221.02c0-26.421-21.418-47.839-47.839-47.839l0,0C21.418,173.18,0,194.599,0,221.02
	v165.637h256v-74.416H95.678z"/>
<g>
</g>
<g>
</g>
<g>
</g>
<g>
</g>
<g>
</g>
<g>
</g>
<g>
</g>
<g>
</g>
<g>
</g>
<g>
</g>
<g>
</g>
<g>
</g>
<g>
</g>
<g>
</g>
<g>
</g>
</svg>
