<?xml version="1.0" encoding="iso-8859-1"?>
<!-- Generator: Adobe Illustrator 19.0.0, SVG Export Plug-In . SVG Version: 6.00 Build 0)  -->
<svg version="1.1" id="Capa_1" xmlns="http://www.w3.org/2000/svg" xmlns:xlink="http://www.w3.org/1999/xlink" x="0px" y="0px"
	 viewBox="0 0 512 512" style="enable-background:new 0 0 512 512;" xml:space="preserve">
<polygon style="fill:#B0CED3;" points="426.683,296.032 396.683,296.032 396.683,30 307.727,30 307.727,60.036 277.727,60.036 
	277.727,0 426.683,0 "/>
<path style="fill:#758892;" d="M329.453,120.084H256V83.357c0-20.284,16.443-36.727,36.727-36.727l0,0
	c20.284,0,36.727,16.443,36.727,36.727L329.453,120.084L329.453,120.084z"/>
<rect x="92.02" y="444.33" style="fill:#EBDED9;" width="30" height="67.67"/>
<rect x="389.98" y="444.33" style="fill:#C9BBB6;" width="30" height="67.67"/>
<path style="fill:#EBDED9;" d="M256,266.008l-20.016,100.484L256,466.976h168.996c39.767,0,72.004-32.237,72.004-72.004V266.008H256
	z"/>
<path style="fill:#FBF1F1;" d="M15,266.008v128.964c0,39.767,32.237,72.004,72.004,72.004H256V266.008h-46.01l-74.49,20.016
	l-74.49-20.016H15z"/>
<polygon style="fill:#FF3998;" points="61.01,346.928 61.01,406.976 209.99,406.976 209.99,346.928 135.5,326.912 "/>
<rect x="61.01" y="266.01" style="fill:#FF7CBA;" width="148.98" height="80.92"/>
<g>
</g>
<g>
</g>
<g>
</g>
<g>
</g>
<g>
</g>
<g>
</g>
<g>
</g>
<g>
</g>
<g>
</g>
<g>
</g>
<g>
</g>
<g>
</g>
<g>
</g>
<g>
</g>
<g>
</g>
</svg>
