<?xml version="1.0" encoding="iso-8859-1"?>
<!-- Generator: Adobe Illustrator 19.0.0, SVG Export Plug-In . SVG Version: 6.00 Build 0)  -->
<svg version="1.1" id="Capa_1" xmlns="http://www.w3.org/2000/svg" xmlns:xlink="http://www.w3.org/1999/xlink" x="0px" y="0px"
	 viewBox="0 0 512 512" style="enable-background:new 0 0 512 512;" xml:space="preserve">
<polygon style="fill:#0150C1;" points="512,31.893 256,31.893 235.984,256 256,480.107 512,480.107 "/>
<rect y="31.893" style="fill:#006EFD;" width="256" height="448.21"/>
<polygon style="fill:#B0CED3;" points="448.266,95.627 256,95.627 235.984,256 256,416.373 448.266,416.373 "/>
<polygon style="fill:#DDE7EC;" points="63.734,95.627 63.734,144.413 73.742,159.413 63.734,174.413 63.734,337.587 73.742,352.587 
	63.734,367.587 63.734,416.373 256,416.373 256,95.627 "/>
<path style="fill:#758892;" d="M256,159.362L235.984,256L256,352.638c53.287,0,96.639-43.352,96.639-96.638
	S309.287,159.362,256,159.362z"/>
<path style="fill:#B0CED3;" d="M159.361,256c0,53.287,43.352,96.638,96.639,96.638V159.362
	C202.713,159.362,159.361,202.713,159.361,256z"/>
<rect x="280.33" y="241" style="fill:#DDE7EC;" width="120.14" height="30"/>
<path style="fill:#B0CED3;" d="M256,209.667L235.984,256L256,302.333c25.549,0,46.334-20.785,46.334-46.333
	S281.549,209.667,256,209.667z"/>
<path style="fill:#DDE7EC;" d="M209.666,256c0,25.548,20.785,46.333,46.334,46.333v-92.667
	C230.451,209.667,209.666,230.452,209.666,256z"/>
<g>
	<rect x="63.734" y="144.41" style="fill:#B0CED3;" width="47.839" height="30"/>
	<rect x="63.734" y="337.59" style="fill:#B0CED3;" width="47.839" height="30"/>
</g>
<g>
</g>
<g>
</g>
<g>
</g>
<g>
</g>
<g>
</g>
<g>
</g>
<g>
</g>
<g>
</g>
<g>
</g>
<g>
</g>
<g>
</g>
<g>
</g>
<g>
</g>
<g>
</g>
<g>
</g>
</svg>
