<?xml version="1.0" encoding="iso-8859-1"?>
<!-- Generator: Adobe Illustrator 19.0.0, SVG Export Plug-In . SVG Version: 6.00 Build 0)  -->
<svg version="1.1" id="Capa_1" xmlns="http://www.w3.org/2000/svg" xmlns:xlink="http://www.w3.org/1999/xlink" x="0px" y="0px"
	 viewBox="0 0 512 512" style="enable-background:new 0 0 512 512;" xml:space="preserve">
<polygon style="fill:#924D24;" points="256,26.583 245.992,40.994 256,56.583 328.108,56.583 328.108,105.369 358.108,105.369 
	358.108,26.583 "/>
<polygon style="fill:#AE5E2E;" points="153.892,26.583 153.892,105.369 183.892,105.369 183.892,56.583 256,56.583 256,26.583 "/>
<polygon style="fill:#DA7F4A;" points="443.308,90.357 375.001,90.357 354.985,287.887 375.001,485.417 443.308,485.417 
	512,416.725 512,159.048 "/>
<g>
	<path style="fill:#AE5E2E;" d="M512,159.048L512,159.048c-37.937,0-68.692-30.754-68.692-68.691l0,0H512V159.048z"/>
	<path style="fill:#AE5E2E;" d="M512,416.725L512,416.725c-37.937,0-68.692,30.754-68.692,68.691l0,0H512V416.725z"/>
	<polygon style="fill:#AE5E2E;" points="375.001,90.357 256,90.357 235.984,287.887 256,485.417 375.001,485.417 	"/>
</g>
<polygon style="fill:#DA7F4A;" points="136.999,90.357 116.983,287.887 136.999,485.417 256,485.417 256,90.357 "/>
<polygon style="fill:#E39B74;" points="0,159.048 0,416.725 68.692,485.417 136.999,485.417 136.999,90.357 68.692,90.357 "/>
<g>
	<path style="fill:#DA7F4A;" d="M0,159.048L0,159.048c37.937,0,68.692-30.754,68.692-68.691l0,0H0V159.048z"/>
	<path style="fill:#DA7F4A;" d="M0,416.725L0,416.725c37.937,0,68.692,30.754,68.692,68.691l0,0H0V416.725z"/>
</g>
<g>
</g>
<g>
</g>
<g>
</g>
<g>
</g>
<g>
</g>
<g>
</g>
<g>
</g>
<g>
</g>
<g>
</g>
<g>
</g>
<g>
</g>
<g>
</g>
<g>
</g>
<g>
</g>
<g>
</g>
</svg>
