<?xml version="1.0" encoding="iso-8859-1"?>
<!-- Generator: Adobe Illustrator 19.0.0, SVG Export Plug-In . SVG Version: 6.00 Build 0)  -->
<svg version="1.1" id="Capa_1" xmlns="http://www.w3.org/2000/svg" xmlns:xlink="http://www.w3.org/1999/xlink" x="0px" y="0px"
	 viewBox="0 0 512 512" style="enable-background:new 0 0 512 512;" xml:space="preserve">
<polygon style="fill:#3B4B51;" points="13.038,287.302 26.076,318.777 90.076,292.267 90.076,237.667 "/>
<polygon style="fill:#475A61;" points="90.076,218.515 0,255.826 13.038,287.302 90.076,255.391 "/>
<g>
	<rect x="334.92" y="380.19" style="fill:#B0CED3;" width="177.08" height="64.4"/>
	<polygon style="fill:#B0CED3;" points="345.691,241.703 293.476,221.687 293.476,390.965 345.691,370.949 	"/>
</g>
<polygon style="fill:#DDE7EC;" points="281.293,241.703 281.293,370.949 313.492,390.965 313.492,221.687 "/>
<path style="fill:#758892;" d="M365.973,412.395c0-28.984-23.497-52.481-52.481-52.481l-20.016,52.481l20.016,52.481
	C342.476,464.875,365.973,441.379,365.973,412.395z"/>
<path style="fill:#B0CED3;" d="M261.011,412.395c0,28.984,23.497,52.481,52.481,52.481V359.914
	C284.508,359.914,261.011,383.41,261.011,412.395z"/>
<path style="fill:#0150C1;" d="M465.886,99.726L233,165L70.743,263.398l48.332,72.171l194.416-80.53l106.299-44.03
	C463.25,193.008,483.888,143.185,465.886,99.726L465.886,99.726z"/>
<path style="fill:#006EFD;" d="M465.886,99.726c-18.001-43.459-67.825-64.097-111.284-46.095l-41.11,17.028L22.411,191.228
	l48.332,72.171L465.886,99.726L465.886,99.726z"/>
<g>
</g>
<g>
</g>
<g>
</g>
<g>
</g>
<g>
</g>
<g>
</g>
<g>
</g>
<g>
</g>
<g>
</g>
<g>
</g>
<g>
</g>
<g>
</g>
<g>
</g>
<g>
</g>
<g>
</g>
</svg>
