<?xml version="1.0" encoding="iso-8859-1"?>
<!-- Generator: Adobe Illustrator 19.0.0, SVG Export Plug-In . SVG Version: 6.00 Build 0)  -->
<svg version="1.1" id="Capa_1" xmlns="http://www.w3.org/2000/svg" xmlns:xlink="http://www.w3.org/1999/xlink" x="0px" y="0px"
	 viewBox="0 0 512 512" style="enable-background:new 0 0 512 512;" xml:space="preserve">
<path style="fill:#FC9E00;" d="M316.582,165.262c14.633,10.128,32.391,16.061,51.534,16.061c50.071,0,90.661-40.591,90.661-90.661
	S418.188,0,368.116,0s-90.661,40.591-90.661,90.661L316.582,165.262z"/>
<polygon style="fill:#CCE7FD;" points="225.669,235.981 200.661,235.981 210.669,512 330.331,512 330.331,482 225.669,482 "/>
<polygon style="fill:#E7F3FF;" points="195.669,235.981 195.669,482 91.008,482 91.008,512 210.669,512 210.669,235.981 "/>
<polygon style="fill:#CCE7FD;" points="368.116,90.661 210.669,90.661 190.654,209.055 300.158,189.039 "/>
<polygon style="fill:#E7F3FF;" points="53.222,90.661 121.182,189.039 210.669,209.055 210.669,90.661 "/>
<polygon style="fill:#00AC5E;" points="210.669,189.039 190.654,244.333 210.669,318.579 300.158,189.039 "/>
<polygon style="fill:#00DE7B;" points="121.182,189.039 210.669,318.579 210.669,189.039 "/>
<g>
</g>
<g>
</g>
<g>
</g>
<g>
</g>
<g>
</g>
<g>
</g>
<g>
</g>
<g>
</g>
<g>
</g>
<g>
</g>
<g>
</g>
<g>
</g>
<g>
</g>
<g>
</g>
<g>
</g>
</svg>
