<?xml version="1.0" encoding="iso-8859-1"?>
<!-- Generator: Adobe Illustrator 19.0.0, SVG Export Plug-In . SVG Version: 6.00 Build 0)  -->
<svg version="1.1" id="Capa_1" xmlns="http://www.w3.org/2000/svg" xmlns:xlink="http://www.w3.org/1999/xlink" x="0px" y="0px"
	 viewBox="0 0 512 512" style="enable-background:new 0 0 512 512;" xml:space="preserve">
<polygon style="fill:#EBDED9;" points="512,0 224.107,0 204.091,491.984 384.48,512 512,512 "/>
<polygon style="fill:#FBF1F1;" points="0,0 0,512 63.734,512 224.107,491.984 224.107,0 "/>
<polygon style="fill:#758892;" points="384.48,63.734 224.107,63.734 204.091,491.984 320.695,512 384.48,512 "/>
<polygon style="fill:#B0CED3;" points="63.734,63.734 63.734,512 127.52,512 224.107,491.984 224.107,63.734 "/>
<g>
	<rect x="433.27" y="240.03" style="fill:#006EFD;" width="30" height="31.893"/>
	<rect x="433.27" y="303.81" style="fill:#006EFD;" width="30" height="31.893"/>
</g>
<polygon style="fill:#B0CED3;" points="320.695,127.52 224.107,127.52 204.091,319.76 224.107,512 320.695,512 "/>
<rect x="127.52" y="127.52" style="fill:#DDE7EC;" width="96.59" height="384.48"/>
<g>
</g>
<g>
</g>
<g>
</g>
<g>
</g>
<g>
</g>
<g>
</g>
<g>
</g>
<g>
</g>
<g>
</g>
<g>
</g>
<g>
</g>
<g>
</g>
<g>
</g>
<g>
</g>
<g>
</g>
</svg>
