<?xml version="1.0" encoding="iso-8859-1"?>
<!-- Generator: Adobe Illustrator 19.0.0, SVG Export Plug-In . SVG Version: 6.00 Build 0)  -->
<svg version="1.1" id="Capa_1" xmlns="http://www.w3.org/2000/svg" xmlns:xlink="http://www.w3.org/1999/xlink" x="0px" y="0px"
	 viewBox="0 0 512 512" style="enable-background:new 0 0 512 512;" xml:space="preserve">
<polygon style="fill:#FD2323;" points="358.417,64.411 358.417,0 256,27.83 235.984,84.427 "/>
<g>
	<polygon style="fill:#FD641A;" points="256,27.83 121.377,64.411 256,84.427 	"/>
	<polygon style="fill:#FD641A;" points="390.623,64.411 256,64.411 235.984,288.205 256,512 390.623,512 	"/>
</g>
<rect x="121.38" y="64.41" style="fill:#FC9E00;" width="134.62" height="447.59"/>
<polygon style="fill:#B0CED3;" points="341.264,348.594 256,348.594 245.992,363.594 256,378.594 341.264,378.594 "/>
<rect x="170.74" y="348.59" style="fill:#DDE7EC;" width="85.26" height="30"/>
<path style="fill:#B0CED3;" d="M341.264,299.183c0-41.895-30.381-76.803-70.264-83.915v-34.657h-15L245.992,266L256,314.183h85.264
	V299.183z"/>
<path style="fill:#DDE7EC;" d="M241,180.611v34.657c-39.882,7.112-70.264,42.02-70.264,83.915v15H256V180.611H241z"/>
<g>
</g>
<g>
</g>
<g>
</g>
<g>
</g>
<g>
</g>
<g>
</g>
<g>
</g>
<g>
</g>
<g>
</g>
<g>
</g>
<g>
</g>
<g>
</g>
<g>
</g>
<g>
</g>
<g>
</g>
</svg>
