<?xml version="1.0" encoding="iso-8859-1"?>
<!-- Generator: Adobe Illustrator 19.0.0, SVG Export Plug-In . SVG Version: 6.00 Build 0)  -->
<svg version="1.1" id="Capa_1" xmlns="http://www.w3.org/2000/svg" xmlns:xlink="http://www.w3.org/1999/xlink" x="0px" y="0px"
	 viewBox="0 0 511.998 511.998" style="enable-background:new 0 0 511.998 511.998;" xml:space="preserve">
<path style="fill:#B0CED3;" d="M371.131,174.187c0-44.795-32.597-81.97-75.363-89.116V56.418h-14.999l-20.014,140.264
	l110.377-20.015L371.131,174.187L371.131,174.187z"/>
<path style="fill:#DDE7EC;" d="M265.77,56.418v28.653c-42.766,7.146-75.363,44.32-75.363,89.116v2.48l90.363,20.015V56.418H265.77z"
	/>
<polygon style="fill:#EBDED9;" points="481.053,176.666 280.769,176.666 260.754,269.508 280.769,362.35 481.053,362.35 "/>
<rect x="77.075" y="176.667" style="fill:#FBF1F1;" width="203.698" height="185.679"/>
<rect x="466.052" y="114.771" style="fill:#C9BBB6;" width="29.998" height="309.471"/>
<polygon style="fill:#EBDED9;" points="92.072,424.244 62.074,424.244 62.074,121.329 0,63.886 20.375,41.869 92.072,108.216 "/>
<circle style="fill:#475A61;" cx="481.051" cy="439.181" r="30.947"/>
<circle style="fill:#758892;" cx="77.075" cy="439.181" r="30.947"/>
<g>
</g>
<g>
</g>
<g>
</g>
<g>
</g>
<g>
</g>
<g>
</g>
<g>
</g>
<g>
</g>
<g>
</g>
<g>
</g>
<g>
</g>
<g>
</g>
<g>
</g>
<g>
</g>
<g>
</g>
</svg>
