<?xml version="1.0" encoding="iso-8859-1"?>
<!-- Generator: Adobe Illustrator 19.0.0, SVG Export Plug-In . SVG Version: 6.00 Build 0)  -->
<svg version="1.1" id="Capa_1" xmlns="http://www.w3.org/2000/svg" xmlns:xlink="http://www.w3.org/1999/xlink" x="0px" y="0px"
	 viewBox="0 0 512 512" style="enable-background:new 0 0 512 512;" xml:space="preserve">
<path style="fill:#EBDED9;" d="M392.054,63.785c-13.199,0-25.821,2.463-37.439,6.945C340.716,29.606,301.816,0,256,0
	l-20.016,468.231l156.07-20.016V271.927c57.477,0,104.071-46.594,104.071-104.071S449.531,63.785,392.054,63.785z"/>
<path style="fill:#FBF1F1;" d="M256,0c-45.816,0-84.716,29.606-98.615,70.73c-11.619-4.481-24.24-6.945-37.439-6.945
	c-57.477,0-104.071,46.594-104.071,104.071s46.594,104.071,104.071,104.071v176.288L256,468.231V0z"/>
<polygon style="fill:#C9BBB6;" points="316.351,448.215 316.351,271.926 286.351,271.926 286.351,448.215 256,448.215 
	235.984,480.107 256,512 392.054,512 392.054,448.215 "/>
<polygon style="fill:#EBDED9;" points="225.649,448.215 225.649,271.926 195.649,271.926 195.649,448.215 119.946,448.215 
	119.946,512 256,512 256,448.215 "/>
<g>
</g>
<g>
</g>
<g>
</g>
<g>
</g>
<g>
</g>
<g>
</g>
<g>
</g>
<g>
</g>
<g>
</g>
<g>
</g>
<g>
</g>
<g>
</g>
<g>
</g>
<g>
</g>
<g>
</g>
</svg>
