<?xml version="1.0" encoding="iso-8859-1"?>
<!-- Generator: Adobe Illustrator 19.0.0, SVG Export Plug-In . SVG Version: 6.00 Build 0)  -->
<svg version="1.1" id="Capa_1" xmlns="http://www.w3.org/2000/svg" xmlns:xlink="http://www.w3.org/1999/xlink" x="0px" y="0px"
	 viewBox="0 0 512 512" style="enable-background:new 0 0 512 512;" xml:space="preserve">
<polygon style="fill:#AE5E2E;" points="286.036,124.845 316.036,124.845 316.036,49.797 256,49.797 245.992,64.797 256,79.797 
	286.036,79.797 "/>
<polygon style="fill:#DA7F4A;" points="195.964,49.797 195.964,124.845 225.964,124.845 225.964,79.797 256,79.797 256,49.797 "/>
<polygon style="fill:#AE5E2E;" points="406.976,109.833 346.928,109.833 326.912,347.118 406.976,327.103 "/>
<polygon style="fill:#E39B74;" points="346.928,109.833 256,109.833 235.984,347.118 346.928,327.103 "/>
<polygon style="fill:#EFC0A8;" points="165.072,109.833 145.056,347.118 256,327.103 256,109.833 "/>
<polygon style="fill:#DA7F4A;" points="105.024,109.833 105.024,327.103 135.048,347.118 165.072,327.103 165.072,109.833 "/>
<polygon style="fill:#B0CED3;" points="30,347.118 0,327.103 0,64.797 30,64.797 "/>
<polygon style="fill:#758892;" points="512,327.103 482,347.118 482,64.797 512,64.797 "/>
<polygon style="fill:#B0CED3;" points="512,327.115 256,327.115 235.984,372.139 256,417.163 512,417.163 "/>
<rect y="327.113" style="fill:#DDE7EC;" width="256" height="90.05"/>
<circle style="fill:#758892;" cx="75.05" cy="432.184" r="30.02"/>
<circle style="fill:#475A61;" cx="436.95" cy="432.184" r="30.02"/>
<g>
</g>
<g>
</g>
<g>
</g>
<g>
</g>
<g>
</g>
<g>
</g>
<g>
</g>
<g>
</g>
<g>
</g>
<g>
</g>
<g>
</g>
<g>
</g>
<g>
</g>
<g>
</g>
<g>
</g>
</svg>
