<?xml version="1.0" encoding="iso-8859-1"?>
<!-- Generator: Adobe Illustrator 19.0.0, SVG Export Plug-In . SVG Version: 6.00 Build 0)  -->
<svg version="1.1" id="Capa_1" xmlns="http://www.w3.org/2000/svg" xmlns:xlink="http://www.w3.org/1999/xlink" x="0px" y="0px"
	 viewBox="0 0 512 512" style="enable-background:new 0 0 512 512;" xml:space="preserve">
<polygon style="fill:#FFD500;" points="212.617,0 116.939,0 96.924,256 116.939,512 212.617,512 "/>
<rect x="21.261" style="fill:#FFF361;" width="95.68" height="512"/>
<path style="fill:#FC9E00;" d="M85.046,95.678L85.046,95.678c0,17.614,14.279,31.893,31.893,31.893h341.906
	c17.614,0,31.893-14.279,31.893-31.893l0,0c0-17.614-14.279-31.893-31.893-31.893H116.939
	C99.325,63.785,85.046,78.064,85.046,95.678z"/>
<path style="fill:#475A61;" d="M116.939,320.644L106.931,353l10.008,79.891h15v-52.208c10.051-5.368,16.892-15.957,16.892-28.147
	C148.832,334.923,134.553,320.644,116.939,320.644z"/>
<path style="fill:#758892;" d="M85.046,352.536c0,12.191,6.842,22.78,16.893,28.147v52.208h15V320.644
	C99.325,320.644,85.046,334.923,85.046,352.536z"/>
<g>
</g>
<g>
</g>
<g>
</g>
<g>
</g>
<g>
</g>
<g>
</g>
<g>
</g>
<g>
</g>
<g>
</g>
<g>
</g>
<g>
</g>
<g>
</g>
<g>
</g>
<g>
</g>
<g>
</g>
</svg>
