<?xml version="1.0" encoding="iso-8859-1"?>
<!-- Generator: Adobe Illustrator 19.0.0, SVG Export Plug-In . SVG Version: 6.00 Build 0)  -->
<svg version="1.1" id="Capa_1" xmlns="http://www.w3.org/2000/svg" xmlns:xlink="http://www.w3.org/1999/xlink" x="0px" y="0px"
	 viewBox="0 0 512 512" style="enable-background:new 0 0 512 512;" xml:space="preserve">
<rect x="48.785" y="397.911" style="fill:#AE5E2E;" width="30" height="79.73"/>
<rect x="433.21" y="397.911" style="fill:#924D24;" width="30" height="79.73"/>
<path style="fill:#E39B74;" d="M448.215,98.143c0-35.228-28.558-63.785-63.785-63.785H256l-20.016,332.651h212.231V98.143z"/>
<path style="fill:#EFC0A8;" d="M127.571,34.358c-35.228,0-63.785,28.558-63.785,63.785v268.866H256V34.358H127.571z"/>
<path style="fill:#DA7F4A;" d="M512,225.714c0-35.228-28.558-63.785-63.785-63.785l0,0c-35.228,0-63.785,28.558-63.785,63.785
	v96.537H256l-20.016,44.759L256,417.93h256V225.714z"/>
<path style="fill:#E39B74;" d="M127.571,322.25v-96.537c0-35.228-28.558-63.785-63.785-63.785l0,0
	C28.558,161.929,0,190.486,0,225.714v192.215h256v-95.678L127.571,322.25L127.571,322.25z"/>
<rect x="48.785" y="220.401" style="fill:#AE5E2E;" width="30" height="31.893"/>
<rect x="433.21" y="220.401" style="fill:#924D24;" width="30" height="31.893"/>
<g>
</g>
<g>
</g>
<g>
</g>
<g>
</g>
<g>
</g>
<g>
</g>
<g>
</g>
<g>
</g>
<g>
</g>
<g>
</g>
<g>
</g>
<g>
</g>
<g>
</g>
<g>
</g>
<g>
</g>
</svg>
