<?xml version="1.0" encoding="iso-8859-1"?>
<!-- Generator: Adobe Illustrator 19.0.0, SVG Export Plug-In . SVG Version: 6.00 Build 0)  -->
<svg version="1.1" id="Capa_1" xmlns="http://www.w3.org/2000/svg" xmlns:xlink="http://www.w3.org/1999/xlink" x="0px" y="0px"
	 viewBox="0 0 512 512" style="enable-background:new 0 0 512 512;" xml:space="preserve">
<path style="fill:#758892;" d="M287.893,117.487c0-17.614-14.279-31.893-31.893-31.893l-20.016,31.893L256,149.379
	C273.614,149.379,287.893,135.101,287.893,117.487z"/>
<g>
	<path style="fill:#B0CED3;" d="M224.107,117.487c0,17.614,14.279,31.893,31.893,31.893V85.594
		C238.386,85.594,224.107,99.873,224.107,117.487z"/>
	<path style="fill:#B0CED3;" d="M480.107,362.62c0-123.297-99.952-223.249-223.249-223.249H256l-20.016,243.265L480.107,362.62
		L480.107,362.62z"/>
</g>
<path style="fill:#DDE7EC;" d="M255.141,139.371c-123.297,0-223.249,99.952-223.249,223.249l0,0L256,382.637V139.371H255.141z"/>
<polygon style="fill:#758892;" points="512,362.621 256,362.621 235.984,394.513 256,426.406 512,426.406 "/>
<rect y="362.62" style="fill:#B0CED3;" width="256" height="63.785"/>
<g>
</g>
<g>
</g>
<g>
</g>
<g>
</g>
<g>
</g>
<g>
</g>
<g>
</g>
<g>
</g>
<g>
</g>
<g>
</g>
<g>
</g>
<g>
</g>
<g>
</g>
<g>
</g>
<g>
</g>
</svg>
