<?xml version="1.0" encoding="iso-8859-1"?>
<!-- Generator: Adobe Illustrator 19.0.0, SVG Export Plug-In . SVG Version: 6.00 Build 0)  -->
<svg version="1.1" id="Capa_1" xmlns="http://www.w3.org/2000/svg" xmlns:xlink="http://www.w3.org/1999/xlink" x="0px" y="0px"
	 viewBox="0 0 512 512" style="enable-background:new 0 0 512 512;" xml:space="preserve">
<g>
	<polygon style="fill:#FD641A;" points="480.107,83.252 256,83.252 235.984,305.255 480.107,263.715 	"/>
	<rect x="31.893" y="333.078" style="fill:#FD641A;" width="30" height="95.67"/>
</g>
<rect x="450.11" y="333.078" style="fill:#FD2323;" width="30" height="95.67"/>
<polygon style="fill:#FC9E00;" points="31.893,83.252 31.893,263.715 256,305.255 256,83.252 "/>
<path style="fill:#EBDED9;" d="M347.533,147.038h-32.751c-26.429,0-49.103,16.074-58.781,38.979l0,0l-20.016,44.823l175.334-20.016
	C411.318,175.595,382.76,147.038,347.533,147.038z"/>
<path style="fill:#FBF1F1;" d="M197.219,147.038h-32.751c-35.228,0-63.785,28.558-63.785,63.785L256,230.839v-44.823
	C246.322,163.112,223.648,147.038,197.219,147.038z"/>
<path style="fill:#E00000;" d="M480.107,263.715c0-29.211-23.68-52.892-52.891-52.892H256l-20.016,94.432l244.123-20.016V263.715z"
	/>
<path style="fill:#FD2323;" d="M84.784,210.823c-29.211,0-52.891,23.68-52.891,52.892v21.525L256,305.255v-94.432L84.784,210.823
	L84.784,210.823z"/>
<polygon style="fill:#FD641A;" points="512,285.239 256,285.239 235.984,333.079 256,380.918 512,380.918 "/>
<rect y="285.238" style="fill:#FC9E00;" width="256" height="95.68"/>
<g>
</g>
<g>
</g>
<g>
</g>
<g>
</g>
<g>
</g>
<g>
</g>
<g>
</g>
<g>
</g>
<g>
</g>
<g>
</g>
<g>
</g>
<g>
</g>
<g>
</g>
<g>
</g>
<g>
</g>
</svg>
