<?xml version="1.0" encoding="iso-8859-1"?>
<!-- Generator: Adobe Illustrator 19.0.0, SVG Export Plug-In . SVG Version: 6.00 Build 0)  -->
<svg version="1.1" id="Capa_1" xmlns="http://www.w3.org/2000/svg" xmlns:xlink="http://www.w3.org/1999/xlink" x="0px" y="0px"
	 viewBox="0 0 512 512" style="enable-background:new 0 0 512 512;" xml:space="preserve">
<path style="fill:#EBDED9;" d="M389.344,133.344C389.344,59.7,329.644,0,256,0l0,0l-20.016,32.333L256,63.754
	c38.381,0.002,69.61,31.209,69.61,69.59v42.307c0,38.444-31.165,69.61-69.61,69.61l0,0l-20.016,133.37L256,512h133.344V133.344z"/>
<g>
	<path style="fill:#FBF1F1;" d="M256,0c-73.644,0-133.344,59.7-133.344,133.344v26.978h63.734v-25.921
		c0-38.2,30.334-70.076,68.529-70.658c0.362-0.005,0.719,0.011,1.081,0.011V0L256,0z"/>
	<rect x="122.66" y="245.26" style="fill:#FBF1F1;" width="133.34" height="266.74"/>
</g>
<path style="fill:#FD2323;" d="M256,294.046l-10.008,15.43L256,324.046c9.616,0,18.653,2.507,26.509,6.888L256,357.443
	l-10.008,24.303L256,399.869l47.721-47.721c4.381,7.856,6.888,16.893,6.888,26.508c0,30.112-24.498,54.61-54.61,54.61
	l-10.008,14.454L256,463.266c46.654,0,84.61-37.956,84.61-84.61S302.654,294.046,256,294.046z"/>
<path style="fill:#FD641A;" d="M229.492,426.377L256,399.869v-42.426l-47.721,47.721c-4.381-7.856-6.888-16.893-6.888-26.509
	c0-30.112,24.498-54.609,54.61-54.609v-30c-46.654,0-84.61,37.956-84.61,84.609s37.956,84.61,84.61,84.61v-30
	C246.384,433.266,237.347,430.758,229.492,426.377z"/>
<g>
</g>
<g>
</g>
<g>
</g>
<g>
</g>
<g>
</g>
<g>
</g>
<g>
</g>
<g>
</g>
<g>
</g>
<g>
</g>
<g>
</g>
<g>
</g>
<g>
</g>
<g>
</g>
<g>
</g>
</svg>
