<svg height="431pt" viewBox="-61 1 431 431.792" width="431pt" xmlns="http://www.w3.org/2000/svg"><path d="m122.828125 345.601562c-3.976563 0-7.203125-3.222656-7.203125-7.199218 0 0 0 0 0-.003906v-28.796876c0-3.976562 3.222656-7.203124 7.203125-7.203124 3.976563 0 7.199219 3.226562 7.199219 7.203124v28.796876c0 3.976562-3.222656 7.199218-7.195313 7.203124-.003906 0-.003906 0-.003906 0zm0 0" fill="#dd3e46"/><path d="m180.425781 345.601562c-3.972656 0-7.199219-3.222656-7.199219-7.199218 0 0 0 0 0-.003906v-28.796876c0-3.976562 3.222657-7.203124 7.199219-7.203124 3.976563 0 7.199219 3.226562 7.199219 7.203124v28.796876c.003906 3.976562-3.21875 7.199218-7.195312 7.203124zm0 0" fill="#dd3e46"/><path d="m65.226562 280.800781c-7.953124 0-14.402343 6.445313-14.402343 14.398438v28.800781h28.800781v-14.398438h144v14.398438h28.800781v-28.800781c0-7.953125-6.445312-14.398438-14.398437-14.398438zm0 0" fill="#f49e21"/><path d="m7.625 7.199219h288v201.601562h-288zm0 0" fill="#36afad"/><path d="m223.625 50.398438v50.402343h-28.800781v-50.402343h-28.796875v79.203124h57.597656v36h28.800781v-115.203124zm0 0" fill="#fff69a"/><path d="m137.226562 50.398438h-86.402343v28.800781h43.203125l-43.203125 57.601562v28.800781h86.402343v-28.800781h-43.199218l43.199218-57.601562zm0 0" fill="#fff69a"/><path d="m108.425781 338.398438h86.398438c11.929687 0 21.601562 9.671874 21.601562 21.601562v64.800781h-129.601562v-64.800781c0-11.929688 9.671875-21.601562 21.601562-21.601562zm0 0" fill="#f49e21"/><g fill="#dd3e46"><path d="m144.425781 360h14.398438v14.398438h-14.398438zm0 0"/><path d="m115.625 360h14.402344v14.398438h-14.402344zm0 0"/><path d="m173.226562 360h14.398438v14.398438h-14.398438zm0 0"/><path d="m144.425781 388.800781h14.398438v14.398438h-14.398438zm0 0"/><path d="m115.625 388.800781h14.402344v14.398438h-14.402344zm0 0"/><path d="m173.226562 388.800781h14.398438v14.398438h-14.398438zm0 0"/></g><path d="m29.226562 208.800781 72 50.398438-21.601562-50.398438zm0 0" fill="#195c85"/><path d="m281.226562 288c-3.976562 0-7.199218-3.21875-7.199218-7.195312v-.003907c-.011719-7.949219-6.453125-14.390625-14.402344-14.402343-3.976562 0-7.199219-3.222657-7.199219-7.199219 0-3.976563 3.222657-7.199219 7.199219-7.199219 15.898438.015625 28.785156 12.902344 28.800781 28.800781 0 3.972657-3.21875 7.195313-7.195312 7.199219zm0 0" fill="#dd3e46"/><path d="m302.824219 266.398438c-3.972657.003906-7.195313-3.21875-7.199219-7.195313v-.003906c-.007812-7.949219-6.449219-14.390625-14.398438-14.398438-3.976562 0-7.203124-3.222656-7.203124-7.203125 0-3.976562 3.226562-7.199218 7.203124-7.199218 15.898438.015624 28.78125 12.902343 28.800782 28.800781 0 3.976562-3.222656 7.199219-7.199219 7.199219 0 0 0 0-.003906 0zm0 0" fill="#dd3e46"/><path d="m166.027344 136.800781h50.398437v28.800781c0 3.972657 3.222657 7.199219 7.195313 7.199219h.003906 28.800781c3.976563 0 7.199219-3.222656 7.199219-7.199219v-115.203124c.003906-3.972657-3.21875-7.199219-7.195312-7.199219h-.003907-28.800781c-3.976562 0-7.199219 3.222656-7.199219 7.195312v.003907 43.199218h-14.398437v-43.199218c0-3.972657-3.222656-7.199219-7.199219-7.199219h-.003906-28.800781c-3.972657 0-7.199219 3.222656-7.199219 7.195312v.003907 79.199218c0 3.976563 3.222656 7.203125 7.195312 7.203125zm7.199218-79.199219h14.398438v43.199219c0 3.976563 3.222656 7.199219 7.199219 7.199219h28.800781c3.976562 0 7.199219-3.222656 7.203125-7.199219v-43.199219h14.398437v100.796876h-14.398437v-28.796876c0-3.976562-3.222656-7.199218-7.199219-7.203124h-.003906-50.398438zm0 0"/><path d="m50.824219 172.800781h86.402343c3.976563 0 7.199219-3.222656 7.199219-7.199219v-28.800781c0-3.976562-3.222656-7.199219-7.199219-7.203125h-28.800781l34.558594-46.082031c.9375-1.242187 1.441406-2.757813 1.441406-4.316406v-28.800781c0-3.972657-3.222656-7.199219-7.199219-7.199219h-86.402343c-3.972657 0-7.199219 3.222656-7.199219 7.195312v.003907 28.800781c0 3.976562 3.222656 7.199219 7.195312 7.199219h.003907 28.800781l-34.558594 46.085937c-.9375 1.242187-1.441406 2.757813-1.441406 4.316406v28.800781c0 3.972657 3.222656 7.199219 7.195312 7.199219zm7.203125-33.601562 41.757812-55.683594c2.386719-3.175781 1.742188-7.6875-1.4375-10.074219-1.246094-.9375-2.761718-1.441406-4.320312-1.441406h-36.003906v-14.398438h72v19.199219l-41.757813 55.683594c-2.386719 3.175781-1.742187 7.6875 1.4375 10.074219 1.246094.9375 2.761719 1.441406 4.320313 1.441406h36v14.398438h-72v-19.199219zm0 0"/><path d="m223.625 331.199219h28.800781c3.976563.003906 7.199219-3.21875 7.199219-7.195313v-.003906-28.800781c-.011719-11.921875-9.675781-21.585938-21.597656-21.597657h-172.800782c-11.925781.011719-21.589843 9.675782-21.601562 21.597657v28.800781c0 3.976562 3.222656 7.199219 7.195312 7.199219h.003907 28.800781c3.976562.003906 7.199219-3.21875 7.199219-7.195313v-.003906-7.199219h28.800781v14.398438h-7.199219c-15.898437.015625-28.785156 12.902343-28.800781 28.800781v64.800781c0 3.976563 3.222656 7.199219 7.195312 7.199219h.003907 129.601562c3.972657 0 7.199219-3.222656 7.199219-7.199219v-64.800781c-.015625-15.898438-12.902344-28.785156-28.800781-28.800781h-7.199219v-14.398438h28.800781v7.199219c-.003906 3.976562 3.21875 7.199219 7.195313 7.199219zm-14.398438 28.800781v57.601562h-115.199218v-57.601562c.007812-7.949219 6.449218-14.390625 14.398437-14.398438h86.398438c7.949219.007813 14.394531 6.449219 14.402343 14.398438zm-36-28.800781h-43.199218v-14.398438h43.199218zm-93.601562-28.796875c-3.972656-.003906-7.199219 3.21875-7.199219 7.195312v.003906 7.199219h-14.398437v-21.601562c.003906-3.972657 3.222656-7.195313 7.199218-7.199219h172.800782c3.972656.003906 7.195312 3.226562 7.199218 7.199219v21.601562h-14.398437v-7.199219c0-3.976562-3.222656-7.199218-7.199219-7.203124h-.003906-144zm0 0"/><path d="m144.425781 360h14.398438v14.398438h-14.398438zm0 0"/><path d="m115.625 360h14.402344v14.398438h-14.402344zm0 0"/><path d="m173.226562 360h14.398438v14.398438h-14.398438zm0 0"/><path d="m144.425781 388.800781h14.398438v14.398438h-14.398438zm0 0"/><path d="m115.625 388.800781h14.402344v14.398438h-14.402344zm0 0"/><path d="m173.226562 388.800781h14.398438v14.398438h-14.398438zm0 0"/><path d="m.425781 7.199219v201.601562c0 3.976563 3.222657 7.199219 7.195313 7.199219h.003906 19.332031l70.140625 49.101562c3.257813 2.277344 7.742188 1.488282 10.023438-1.765624 1.433594-2.042969 1.703125-4.675782.722656-6.96875l-17.300781-40.367188h205.082031c3.976562.003906 7.199219-3.21875 7.203125-7.195312 0-.003907 0-.003907 0-.003907v-201.601562c0-3.976563-3.222656-7.199219-7.199219-7.199219 0 0 0 0-.003906 0h-288c-3.976562 0-7.199219 3.222656-7.199219 7.195312zm84.226563 231.609375-32.585938-22.808594h22.8125zm-69.824219-224.410156h273.597656v187.203124h-273.597656zm0 0"/><path d="m274.027344 280.800781c0 3.976563 3.222656 7.199219 7.199218 7.199219 3.976563 0 7.199219-3.222656 7.199219-7.199219-.015625-15.898437-12.898437-28.785156-28.796875-28.800781-3.980468 0-7.203125 3.222656-7.203125 7.199219 0 3.976562 3.222657 7.203125 7.203125 7.203125 7.945313.007812 14.386719 6.449218 14.398438 14.398437zm0 0"/><path d="m295.625 259.199219c0 3.976562 3.226562 7.199219 7.203125 7.199219s7.199219-3.222657 7.199219-7.199219c-.015625-15.898438-12.902344-28.78125-28.800782-28.800781-3.976562 0-7.199218 3.226562-7.199218 7.203124 0 3.976563 3.222656 7.199219 7.199218 7.199219 7.949219.007813 14.390626 6.449219 14.398438 14.398438zm0 0"/></svg>