<svg height="431pt" viewBox="1 -43 431.793 431" width="431pt" xmlns="http://www.w3.org/2000/svg"><path d="m21.601562 7.617188h388.800782c7.949218 0 14.398437 6.449218 14.398437 14.402343v129.597657c0 7.953124-6.449219 14.402343-14.398437 14.402343h-388.800782c-7.953124 0-14.402343-6.449219-14.402343-14.402343v-129.597657c0-7.953125 6.449219-14.402343 14.402343-14.402343zm0 0" fill="#cfdfe8"/><path d="m50.398438 108.417969h331.203124v57.597656h-331.203124zm0 0" fill="#36afad"/><path d="m367.199219 86.816406h-28.796875c-3.976563 0-7.203125-3.222656-7.203125-7.199218 0-3.976563 3.226562-7.199219 7.203125-7.199219h28.796875c3.976562 0 7.203125 3.222656 7.203125 7.199219-.003906 3.976562-3.226563 7.199218-7.203125 7.199218zm0 0" fill="#195c85"/><g fill="#36afad"><path d="m50.398438 302.816406c-3.976563 0-7.199219-3.222656-7.199219-7.199218 0-3.976563 3.222656-7.199219 7.199219-7.199219 19.875-.023438 35.976562-16.128907 36.003906-36v-57.601563c0-3.976562 3.222656-7.199218 7.199218-7.199218 3.976563 0 7.199219 3.222656 7.199219 7.199218v57.601563c-.03125 27.820312-22.578125 50.367187-50.402343 50.398437zm0 0"/><path d="m50.398438 346.019531c-3.976563 0-7.199219-3.226562-7.199219-7.203125 0-3.976562 3.222656-7.199218 7.199219-7.199218 43.722656-.050782 79.152343-35.480469 79.203124-79.199219v-57.601563c0-3.976562 3.222657-7.199218 7.199219-7.199218 3.976563 0 7.199219 3.222656 7.199219 7.199218v57.601563c-.058594 51.667969-41.929688 93.542969-93.601562 93.601562zm0 0"/><path d="m381.601562 302.816406c-27.824218-.03125-50.371093-22.578125-50.402343-50.398437v-57.601563c0-3.976562 3.226562-7.199218 7.203125-7.199218 3.976562 0 7.199218 3.222656 7.199218 7.199218v57.601563c.023438 19.871093 16.128907 35.976562 36 36 3.976563 0 7.199219 3.222656 7.199219 7.199219 0 3.976562-3.222656 7.199218-7.199219 7.199218zm0 0"/><path d="m381.601562 346.019531c-51.671874-.058593-93.542968-41.933593-93.601562-93.601562v-57.601563c0-3.976562 3.222656-7.199218 7.199219-7.199218 3.980469 0 7.203125 3.222656 7.203125 7.199218v57.601563c.046875 43.71875 35.476562 79.152343 79.199218 79.199219 3.976563 0 7.199219 3.222656 7.199219 7.199218 0 3.976563-3.222656 7.203125-7.199219 7.203125zm0 0"/><path d="m237.601562 238.019531h14.398438v14.398438h-14.398438zm0 0"/><path d="m237.601562 266.816406h14.398438v14.402344h-14.398438zm0 0"/><path d="m223.199219 252.417969h14.402343v14.398437h-14.402343zm0 0"/><path d="m252 252.417969h14.398438v14.398437h-14.398438zm0 0"/><path d="m180 202.015625h14.402344v14.402344h-14.402344zm0 0"/><path d="m180 230.816406h14.402344v14.402344h-14.402344zm0 0"/><path d="m165.601562 216.417969h14.398438v14.398437h-14.398438zm0 0"/><path d="m194.402344 216.417969h14.398437v14.398437h-14.398437zm0 0"/><path d="m180 295.617188h14.402344v14.398437h-14.402344zm0 0"/><path d="m180 324.417969h14.402344v14.398437h-14.402344zm0 0"/><path d="m165.601562 310.015625h14.398438v14.402344h-14.398438zm0 0"/><path d="m194.402344 310.015625h14.398437v14.402344h-14.398437zm0 0"/></g><path d="m352.800781 144.417969h-273.601562c-3.976563 0-7.199219-3.222657-7.199219-7.199219s3.222656-7.203125 7.199219-7.203125h273.601562c3.976563 0 7.199219 3.226563 7.199219 7.203125s-3.222656 7.199219-7.199219 7.199219zm0 0" fill="#195c85"/><path d="m410.402344.417969h-388.800782c-11.925781.011719-21.5898432 9.675781-21.601562 21.601562v129.597657c.0117188 11.925781 9.675781 21.589843 21.601562 21.601562h388.800782c11.921875-.011719 21.585937-9.675781 21.597656-21.601562v-129.597657c-.011719-11.925781-9.675781-21.589843-21.597656-21.601562zm-352.800782 158.398437v-43.199218h316.796876v43.199218zm360-7.199218c-.007812 3.976562-3.226562 7.195312-7.203124 7.203124h-21.597657v-50.402343c0-3.976563-3.226562-7.199219-7.203125-7.199219h-331.199218c-3.972657 0-7.199219 3.222656-7.199219 7.199219v50.402343h-21.597657c-3.976562-.007812-7.195312-3.226562-7.203124-7.203124v-129.597657c.007812-3.976562 3.226562-7.199219 7.203124-7.203125h388.800782c3.972656.003906 7.191406 3.226563 7.199218 7.203125zm0 0"/><path d="m367.199219 72.417969h-28.796875c-3.976563 0-7.203125 3.222656-7.203125 7.199219 0 3.976562 3.226562 7.203124 7.203125 7.203124h28.796875c3.976562 0 7.203125-3.226562 7.203125-7.203124-.003906-3.976563-3.226563-7.199219-7.203125-7.199219zm0 0"/><path d="m50.398438 302.816406c27.824218-.03125 50.371093-22.578125 50.402343-50.398437v-57.601563c0-3.976562-3.222656-7.199218-7.199219-7.199218-3.976562 0-7.203124 3.222656-7.203124 7.199218v57.601563c-.023438 19.871093-16.125 35.976562-36 36-3.976563 0-7.199219 3.222656-7.199219 7.199219 0 3.976562 3.222656 7.199218 7.199219 7.199218zm0 0"/><path d="m50.398438 346.019531c51.671874-.058593 93.542968-41.933593 93.601562-93.601562v-57.601563c0-3.976562-3.222656-7.199218-7.199219-7.199218-3.976562 0-7.203125 3.222656-7.203125 7.199218v57.601563c-.046875 43.71875-35.476562 79.148437-79.199218 79.199219-3.976563 0-7.199219 3.222656-7.199219 7.199218 0 3.976563 3.222656 7.203125 7.199219 7.203125zm0 0"/><path d="m338.398438 187.617188c-3.972657 0-7.199219 3.222656-7.199219 7.199218v57.601563c.03125 27.820312 22.578125 50.367187 50.402343 50.398437 3.976563 0 7.199219-3.222656 7.199219-7.199218 0-3.976563-3.222656-7.199219-7.199219-7.199219-19.875-.023438-35.976562-16.128907-36.003906-36v-57.601563c.003906-3.976562-3.222656-7.199218-7.199218-7.199218zm0 0"/><path d="m295.199219 187.617188c-3.976563 0-7.199219 3.222656-7.199219 7.199218v57.601563c.058594 51.667969 41.929688 93.542969 93.601562 93.601562 3.976563 0 7.199219-3.226562 7.199219-7.203125 0-3.976562-3.222656-7.199218-7.199219-7.199218-43.722656-.050782-79.152343-35.480469-79.203124-79.199219v-57.601563c0-3.976562-3.222657-7.199218-7.199219-7.199218zm0 0"/><path d="m237.601562 238.019531h14.398438v14.398438h-14.398438zm0 0"/><path d="m237.601562 266.816406h14.398438v14.402344h-14.398438zm0 0"/><path d="m223.199219 252.417969h14.402343v14.398437h-14.402343zm0 0"/><path d="m252 252.417969h14.398438v14.398437h-14.398438zm0 0"/><path d="m180 202.015625h14.402344v14.402344h-14.402344zm0 0"/><path d="m180 230.816406h14.402344v14.402344h-14.402344zm0 0"/><path d="m165.601562 216.417969h14.398438v14.398437h-14.398438zm0 0"/><path d="m194.402344 216.417969h14.398437v14.398437h-14.398437zm0 0"/><path d="m180 295.617188h14.402344v14.398437h-14.402344zm0 0"/><path d="m180 324.417969h14.402344v14.398437h-14.402344zm0 0"/><path d="m165.601562 310.015625h14.398438v14.402344h-14.398438zm0 0"/><path d="m194.402344 310.015625h14.398437v14.402344h-14.398437zm0 0"/><path d="m352.800781 130.019531h-273.601562c-3.976563 0-7.199219 3.222657-7.199219 7.199219s3.222656 7.199219 7.199219 7.199219h273.601562c3.976563 0 7.199219-3.222657 7.199219-7.199219s-3.222656-7.199219-7.199219-7.199219zm0 0"/></svg>