<svg height="431pt" viewBox="1 -3 431.794 431" width="431pt" xmlns="http://www.w3.org/2000/svg"><path d="m43.199219 187.601562h43.199219v43.203126h-43.199219zm0 0" fill="#d3843d"/><path d="m345.601562 187.601562h43.199219v43.203126h-43.199219zm0 0" fill="#d3843d"/><path d="m43.199219 302.804688h43.199219v115.199218h-43.199219zm0 0" fill="#d3843d"/><path d="m345.601562 302.804688h43.199219v115.199218h-43.199219zm0 0" fill="#d3843d"/><path d="m7.199219 115.605469h417.601562v71.996093h-417.601562zm0 0" fill="#fcf05a"/><path d="m115.199219 187.601562h-57.597657l28.796876-71.996093h57.601562zm0 0" fill="#394d5c"/><path d="m230.398438 187.601562h-57.597657l28.800781-71.996093h57.597657zm0 0" fill="#394d5c"/><path d="m345.601562 187.601562h-57.601562l28.800781-71.996093h57.597657zm0 0" fill="#394d5c"/><path d="m7.199219 230.804688h417.601562v72h-417.601562zm0 0" fill="#fcf05a"/><path d="m115.199219 302.804688h-57.597657l28.796876-72h57.601562zm0 0" fill="#394d5c"/><path d="m230.398438 302.804688h-57.597657l28.800781-72h57.597657zm0 0" fill="#394d5c"/><path d="m345.601562 302.804688h-57.601562l28.800781-72h57.597657zm0 0" fill="#394d5c"/><path d="m180 86.804688h72v28.800781h-72zm0 0" fill="#e9686a"/><path d="m252 86.804688h-72v-36c0-19.882813 16.117188-36 36-36s36 16.117187 36 36zm0 0" fill="#f9b253"/><path d="m216 94.003906c-3.976562 0-7.199219-3.222656-7.199219-7.199218v-28.800782c0-3.976562 3.222657-7.203125 7.199219-7.203125s7.199219 3.226563 7.199219 7.203125v28.800782c0 3.976562-3.222657 7.199218-7.199219 7.199218zm0 0" fill="#e9686a"/><g fill="#f49e21"><path d="m151.199219 58.003906h-28.800781c-3.976563 0-7.199219-3.222656-7.199219-7.203125 0-3.976562 3.222656-7.199219 7.199219-7.199219h28.800781c3.976562 0 7.199219 3.222657 7.199219 7.199219 0 3.980469-3.222657 7.203125-7.199219 7.203125zm0 0"/><path d="m151.199219 29.203125c-1.910157.003906-3.742188-.757813-5.089844-2.109375l-14.398437-14.402344c-2.789063-2.835937-2.746094-7.394531.089843-10.179687 2.800781-2.75 7.289063-2.75 10.089844 0l14.398437 14.402343c2.8125 2.808594 2.8125 7.367188 0 10.179688-1.347656 1.351562-3.179687 2.109375-5.089843 2.109375zm0 0"/><path d="m136.800781 101.203125c-3.976562 0-7.199219-3.226563-7.199219-7.199219 0-1.910156.757813-3.742187 2.109376-5.089844l14.398437-14.398437c2.835937-2.789063 7.394531-2.746094 10.179687.089844 2.75 2.800781 2.75 7.289062 0 10.089843l-14.398437 14.398438c-1.347656 1.351562-3.179687 2.113281-5.089844 2.109375zm0 0"/><path d="m309.601562 58.003906h-28.800781c-3.976562 0-7.199219-3.222656-7.199219-7.203125 0-3.976562 3.222657-7.199219 7.199219-7.199219h28.800781c3.976563 0 7.199219 3.222657 7.199219 7.199219 0 3.980469-3.222656 7.203125-7.199219 7.203125zm0 0"/><path d="m280.800781 29.203125c-3.976562 0-7.199219-3.226563-7.199219-7.203125 0-1.90625.757813-3.738281 2.109376-5.085938l14.398437-14.402343c2.835937-2.785157 7.394531-2.742188 10.179687.09375 2.75 2.800781 2.75 7.289062 0 10.089843l-14.398437 14.398438c-1.347656 1.351562-3.179687 2.113281-5.089844 2.109375zm0 0"/><path d="m295.199219 101.203125c-1.910157.003906-3.742188-.757813-5.089844-2.109375l-14.398437-14.398438c-2.789063-2.835937-2.746094-7.394531.089843-10.183593 2.800781-2.75 7.289063-2.75 10.089844 0l14.398437 14.402343c2.8125 2.8125 2.8125 7.371094 0 10.179688-1.351562 1.351562-3.179687 2.109375-5.089843 2.109375zm0 0"/></g><path d="m424.800781 108.402344h-165.601562v-57.597656c0-23.859376-19.339844-43.199219-43.199219-43.199219s-43.199219 19.339843-43.199219 43.199219v57.597656h-165.601562c-3.976563 0-7.199219 3.222656-7.199219 7.203125v71.996093c0 3.976563 3.222656 7.203126 7.199219 7.203126h28.800781v28.800781h-28.800781c-3.976563 0-7.199219 3.222656-7.199219 7.199219v72c0 3.976562 3.222656 7.199218 7.199219 7.199218h28.800781v108c0 3.976563 3.222656 7.199219 7.199219 7.199219h43.203125c3.972656 0 7.199218-3.222656 7.199218-7.199219v-108h244.800782v108c0 3.976563 3.222656 7.199219 7.199218 7.199219h43.199219c3.976563 0 7.199219-3.222656 7.199219-7.199219v-108h28.800781c3.976563 0 7.199219-3.222656 7.203125-7.199218v-72c0-3.976563-3.226562-7.199219-7.203125-7.203126h-28.800781v-28.796874h28.800781c3.976563 0 7.199219-3.226563 7.199219-7.203126v-72c0-3.976562-3.222656-7.199218-7.199219-7.199218zm-61.035156 14.402344-23.042969 57.597656h-42.085937l23.039062-57.597656zm-270.164063 100.800781v-28.800781h244.796876v28.800781zm147.433594 71.996093 23.042969-57.597656h42.085937l-23.042968 57.597656zm-115.199218 0 23.042968-57.597656h42.085938l-23.042969 57.597656zm65.128906-172.796874-23.042969 57.597656h-42.085937l23.042968-57.597656zm115.199218 0-23.039062 57.597656h-42.085938l23.039063-57.597656zm-80.640624 57.597656h-42.089844l23.042968-57.597656h42.089844zm-38.324219-129.597656c0-15.90625 12.894531-28.800782 28.800781-28.800782s28.800781 12.894532 28.800781 28.800782v28.796874h-21.601562v-21.597656c0-3.976562-3.222657-7.203125-7.199219-7.203125s-7.203125 3.226563-7.203125 7.203125v21.597656h-21.597656zm0 43.199218h57.601562v14.398438h-57.601562zm-53.835938 28.800782-23.039062 57.597656h-42.089844l23.042969-57.597656zm-118.964843 0h61.363281l-23.039063 57.597656h-38.324218zm36 72h28.800781v28.800781h-28.800781zm-36 43.199218h61.363281l-23.039063 57.597656h-38.324218zm64.800781 172.800782h-28.800781v-100.800782h28.800781zm-10.964844-115.203126 23.042969-57.597656h42.085937l-23.039062 57.597656zm115.199219 0 23.042968-57.597656h42.089844l-23.042968 57.597656zm138.242187-57.597656h42.089844l-23.042969 57.597656h-42.085937zm59.925781 172.800782h-28.800781v-100.800782h28.800781zm36-115.203126h-61.363281l23.039063-57.597656h38.324218zm-36-71.996093h-28.800781v-28.800781h28.800781zm36-43.203125h-61.363281l23.039063-57.597656h38.324218zm0 0"/><path d="m151.199219 43.601562h-28.800781c-3.976563 0-7.199219 3.226563-7.199219 7.203126 0 3.976562 3.222656 7.199218 7.199219 7.199218h28.800781c3.976562 0 7.199219-3.222656 7.199219-7.199218 0-3.976563-3.222657-7.203126-7.199219-7.203126zm0 0"/><path d="m156.289062 16.914062-14.398437-14.402343c-2.816406-2.804688-7.375-2.796875-10.179687.015625-2.804688 2.808594-2.804688 7.355468 0 10.167968l14.398437 14.398438c2.816406 2.808594 7.375 2.800781 10.179687-.015625 2.800782-2.808594 2.800782-7.355469 0-10.164063zm0 0"/><path d="m146.109375 74.511719-14.398437 14.402343c-2.816407 2.804688-2.824219 7.363282-.015626 10.179688 2.808594 2.816406 7.367188 2.820312 10.179688.015625.007812-.007813.011719-.011719.015625-.015625l14.398437-14.398438c2.808594-2.816406 2.800782-7.375-.015624-10.183593-2.808594-2.800781-7.355469-2.800781-10.164063 0zm0 0"/><path d="m316.800781 50.804688c0-3.976563-3.222656-7.199219-7.199219-7.203126h-28.800781c-3.976562 0-7.199219 3.226563-7.199219 7.203126 0 3.976562 3.222657 7.199218 7.199219 7.199218h28.800781c3.976563 0 7.199219-3.222656 7.199219-7.199218zm0 0"/><path d="m280.800781 29.203125c1.910157.003906 3.742188-.757813 5.089844-2.109375l14.398437-14.402344c2.816407-2.804687 2.820313-7.363281.011719-10.179687-2.808593-2.8125-7.367187-2.816407-10.179687-.007813-.003906 0-.007813.003906-.011719.007813l-14.398437 14.402343c-2.8125 2.808594-2.8125 7.367188 0 10.179688 1.351562 1.351562 3.179687 2.109375 5.089843 2.109375zm0 0"/><path d="m275.710938 74.511719c-2.8125 2.8125-2.816407 7.367187-.003907 10.179687 0 0 0 0 .003907.003906l14.398437 14.398438c2.816406 2.808594 7.371094 2.804688 10.179687-.011719 2.804688-2.808593 2.804688-7.359375 0-10.167969l-14.398437-14.402343c-2.808594-2.808594-7.367187-2.8125-10.175781-.003907-.003906.003907-.003906.003907-.003906.003907zm0 0"/></svg>