<svg height="431pt" viewBox="1 -17 431.792 431" width="431pt" xmlns="http://www.w3.org/2000/svg"><path d="m345.601562 86.804688c-3.976562.003906-7.199218-3.214844-7.203124-7.191407 0 0 0-.003906 0-.007812v-64.800781h-93.597657c-3.976562 0-7.203125-3.222657-7.203125-7.199219 0-3.976563 3.226563-7.199219 7.203125-7.199219h100.800781c3.972657-.003906 7.195313 3.214844 7.199219 7.191406v.007813 72c.003907 3.972656-3.21875 7.195312-7.191406 7.199219-.003906 0-.007813 0-.007813 0zm0 0" fill="#516977"/><path d="m399.601562 230.804688h-367.203124c-13.917969 0-25.199219-11.28125-25.199219-25.199219s11.28125-25.199219 25.199219-25.199219h367.203124c13.917969 0 25.199219 11.28125 25.199219 25.199219s-11.28125 25.199219-25.199219 25.199219zm0 0" fill="#aabece"/><path d="m57.601562 230.804688h316.796876v57.601562c0 31.8125-25.785157 57.601562-57.597657 57.601562h-201.601562c-31.808594 0-57.597657-25.789062-57.597657-57.601562zm0 0" fill="#cfdfe8"/><path d="m144 389.207031h-28.800781l14.402343-43.199219h28.796876zm0 0" fill="#394d5c"/><path d="m288 389.207031h28.800781l-14.398437-43.199219h-28.800782zm0 0" fill="#394d5c"/><path d="m158.398438 130.007812c0 7.949219-6.445313 14.398438-14.398438 14.398438s-14.398438-6.449219-14.398438-14.398438c0-7.953124 6.445313-14.402343 14.398438-14.402343s14.398438 6.449219 14.398438 14.402343zm0 0" fill="#36afad"/><path d="m129.601562 72.40625c0 11.929688-9.671874 21.601562-21.601562 21.601562s-21.601562-9.671874-21.601562-21.601562 9.671874-21.601562 21.601562-21.601562 21.601562 9.671874 21.601562 21.601562zm0 0" fill="#36afad"/><path d="m331.199219 79.605469h28.800781v100.800781h-28.800781zm0 0" fill="#cfdfe8"/><path d="m280.800781 65.207031h-72v-21.601562c0-19.882813 16.117188-36 36-36 19.882813 0 36 16.117187 36 36zm0 0" fill="#aabece"/><path d="m280.800781 72.40625h-72c-3.972656.003906-7.199219-3.21875-7.199219-7.191406 0-.003906 0-.003906 0-.007813v-21.601562c0-23.859375 19.339844-43.199219 43.199219-43.199219s43.199219 19.339844 43.199219 43.199219v21.601562c0 3.972657-3.21875 7.199219-7.191406 7.199219-.003906 0-.003906 0-.007813 0zm-64.800781-14.398438h57.601562v-14.402343c0-15.90625-12.894531-28.800781-28.800781-28.800781s-28.800781 12.894531-28.800781 28.800781zm0 0" fill="#aabece"/><g fill="#36afad"><path d="m216 115.605469c-3.972656.003906-7.199219-3.21875-7.199219-7.191407 0-.003906 0-.003906 0-.007812v-14.398438c0-3.976562 3.222657-7.203124 7.199219-7.203124s7.199219 3.226562 7.199219 7.203124v14.398438c.003906 3.972656-3.214844 7.199219-7.191407 7.199219 0 0-.003906 0-.007812 0zm0 0"/><path d="m237.601562 137.207031c-3.976562 0-7.199218-3.21875-7.203124-7.191406 0-.003906 0-.003906 0-.007813v-14.402343c0-3.976563 3.226562-7.199219 7.203124-7.199219 3.976563 0 7.199219 3.222656 7.199219 7.199219v14.402343c.003907 3.972657-3.21875 7.195313-7.191406 7.199219-.003906 0-.007813 0-.007813 0zm0 0"/><path d="m266.398438 108.40625c-3.972657 0-7.195313-3.21875-7.199219-7.191406 0-.003906 0-.003906 0-.007813v-14.402343c0-3.976563 3.222656-7.199219 7.199219-7.199219 3.980468 0 7.203124 3.222656 7.203124 7.199219v14.402343c0 3.972657-3.21875 7.195313-7.191406 7.199219-.003906 0-.007812 0-.011718 0zm0 0"/><path d="m288 130.007812c-3.972656 0-7.195312-3.21875-7.199219-7.191406 0-.003906 0-.007812 0-.011718v-14.398438c0-3.976562 3.222657-7.199219 7.199219-7.199219s7.199219 3.222657 7.199219 7.199219v14.398438c.003906 3.976562-3.214844 7.199218-7.191407 7.203124-.003906 0-.003906 0-.007812 0zm0 0"/></g><path d="m115.199219 317.207031c-15.882813 0-28.796875-16.152343-28.796875-36 0-3.976562 3.222656-7.203125 7.199218-7.203125 3.976563 0 7.199219 3.226563 7.199219 7.203125 0 11.707031 6.597657 21.597657 14.402344 21.597657 3.976563 0 7.199219 3.226562 7.199219 7.203124-.003906 3.976563-3.226563 7.199219-7.203125 7.199219zm0 0" fill="#aabece"/><path d="m399.601562 173.207031h-32.402343v-93.601562c.003906-3.972657-3.21875-7.195313-7.191407-7.199219-.003906 0-.003906 0-.007812 0h-7.199219v-64.800781c.003907-3.972657-3.21875-7.195313-7.191406-7.199219-.003906 0-.007813 0-.007813 0h-100.800781c-23.847656.027344-43.175781 19.351562-43.199219 43.199219v21.601562c-.003906 3.972657 3.214844 7.195313 7.191407 7.199219h.007812 72c3.972657.003906 7.195313-3.21875 7.199219-7.191406 0-.003906 0-.007813 0-.007813v-21.601562c-.003906-10.640625-3.957031-20.902344-11.089844-28.800781h61.492188v57.601562h-7.203125c-3.972657 0-7.195313 3.21875-7.199219 7.191406v.007813 93.601562h-291.601562c-17.890626 0-32.398438 14.503907-32.398438 32.398438s14.507812 32.402343 32.398438 32.402343h18v50.398438c.039062 35.773438 29.027343 64.761719 64.800781 64.800781h4.414062l-11.242187 33.722657c-1.261719 3.765624.769531 7.84375 4.535156 9.105468.742188.246094 1.515625.371094 2.292969.371094h28.800781c3.097656.003906 5.847656-1.980469 6.828125-4.921875l12.757813-38.277344h104.828124l12.757813 38.277344c.980469 2.941406 3.730469 4.925781 6.828125 4.921875h28.800781c3.972657.003906 7.195313-3.210938 7.199219-7.183594 0-.78125-.125-1.554687-.371094-2.292968l-11.242187-33.722657h4.414062c35.773438-.039062 64.761719-29.027343 64.800781-64.800781v-50.398438h18c17.890626 0 32.398438-14.507812 32.398438-32.398437 0-17.894531-14.507812-32.402344-32.398438-32.402344zm-126-129.601562v14.402343h-57.601562v-14.402343c0-15.90625 12.894531-28.800781 28.800781-28.800781s28.800781 12.894531 28.800781 28.800781zm64.796876 43.199219h14.402343v86.402343h-14.402343zm-199.585938 295.203124h-13.621094l9.597656-28.800781h13.621094zm167.996094 0h-13.621094l-9.597656-28.800781h13.621094zm60.390625-93.601562c-.03125 27.820312-22.578125 50.367188-50.398438 50.398438h-201.601562c-27.820313-.03125-50.363281-22.578126-50.398438-50.398438v-50.398438h302.398438zm32.402343-64.800781h-367.203124c-9.941407 0-18-8.058594-18-18 0-9.941407 8.058593-18 18-18h367.203124c9.941407 0 18 8.058593 18 18 0 9.941406-8.058593 18-18 18zm0 0"/><path d="m144 151.605469c11.929688 0 21.601562-9.667969 21.601562-21.597657 0-11.929687-9.671874-21.601562-21.601562-21.601562s-21.601562 9.671875-21.601562 21.601562c.015624 11.921876 9.679687 21.585938 21.601562 21.597657zm0-28.800781c3.976562 0 7.199219 3.226562 7.199219 7.203124 0 3.976563-3.222657 7.199219-7.199219 7.199219s-7.199219-3.222656-7.199219-7.199219c.003907-3.976562 3.222657-7.199218 7.199219-7.203124zm0 0"/><path d="m108 43.605469c-15.90625 0-28.800781 12.894531-28.800781 28.800781s12.894531 28.800781 28.800781 28.800781 28.800781-12.894531 28.800781-28.800781c-.015625-15.898438-12.902343-28.785156-28.800781-28.800781zm0 43.199219c-7.953125 0-14.398438-6.445313-14.398438-14.398438s6.445313-14.398438 14.398438-14.398438 14.398438 6.445313 14.398438 14.398438c-.007813 7.949219-6.449219 14.390625-14.398438 14.398438zm0 0"/><path d="m223.199219 108.40625v-14.402344c0-3.976562-3.222657-7.199218-7.199219-7.199218s-7.199219 3.222656-7.199219 7.199218v14.402344c0 3.976562 3.222657 7.199219 7.199219 7.199219s7.199219-3.222657 7.199219-7.199219zm0 0"/><path d="m244.800781 130.007812v-14.402343c0-3.976563-3.222656-7.199219-7.203125-7.199219-3.976562 0-7.199218 3.222656-7.199218 7.199219v14.402343c0 3.976563 3.222656 7.199219 7.199218 7.199219 3.980469 0 7.203125-3.222656 7.203125-7.199219zm0 0"/><path d="m273.601562 101.207031v-14.402343c0-3.976563-3.222656-7.199219-7.203124-7.199219-3.976563 0-7.199219 3.222656-7.199219 7.199219v14.402343c0 3.976563 3.222656 7.199219 7.199219 7.199219 3.980468 0 7.203124-3.222656 7.203124-7.199219zm0 0"/><path d="m295.199219 122.804688v-14.398438c0-3.976562-3.222657-7.199219-7.199219-7.199219s-7.199219 3.222657-7.199219 7.199219v14.398438c0 3.980468 3.222657 7.203124 7.199219 7.203124s7.199219-3.226562 7.199219-7.203124zm0 0"/><path d="m115.199219 317.207031c3.976562 0 7.203125-3.222656 7.203125-7.203125 0-3.976562-3.226563-7.199218-7.203125-7.199218-7.804688 0-14.398438-9.890626-14.398438-21.601563 0-3.976563-3.222656-7.199219-7.199219-7.199219-3.976562 0-7.203124 3.222656-7.203124 7.199219 0 19.851563 12.917968 36.003906 28.800781 36.003906zm0 0"/></svg>