<svg height="431pt" viewBox="1 -100 431.794 431" width="431pt" xmlns="http://www.w3.org/2000/svg"><path d="m7.199219 108.445312h417.601562v57.601563h-417.601562zm0 0" fill="#195c85"/><path d="m154.800781 108.445312h-72c-17.894531 0-32.402343-14.503906-32.402343-32.398437s14.507812-32.402344 32.402343-32.402344h72c17.890625 0 32.398438 14.507813 32.398438 32.402344s-14.503907 32.398437-32.398438 32.398437zm0 0" fill="#36afad"/><path d="m36 166.046875h28.800781v57.597656h-28.800781zm0 0" fill="#f49e21"/><path d="m367.199219 166.046875h28.800781v57.597656h-28.800781zm0 0" fill="#f49e21"/><path d="m216 65.246094h208.800781v72h-208.800781zm0 0" fill="#aef"/><path d="m7.199219 7.644531h28.800781v100.800781h-28.800781zm0 0" fill="#f49e21"/><path d="m424.800781 58.046875h-208.800781c-3.976562-.003906-7.199219 3.21875-7.199219 7.195313v.003906 36h-23.480469c13.929688-16.84375 11.570313-41.792969-5.277343-55.722656-7.101563-5.871094-16.027344-9.082032-25.242188-9.078126h-72c-21.859375-.011718-39.589843 17.695313-39.601562 39.554688-.003907 9.214844 3.207031 18.144531 9.078125 25.246094h-9.078125v-93.601563c0-3.972656-3.21875-7.199219-7.195313-7.199219h-.003906-28.800781c-3.976563 0-7.199219 3.222657-7.199219 7.195313v.003906 158.402344c0 3.972656 3.21875 7.199219 7.195312 7.199219h.003907 21.601562v50.398437c0 3.976563 3.21875 7.199219 7.195313 7.203125h.003906 28.800781c3.972657 0 7.199219-3.222656 7.199219-7.199218 0 0 0 0 0-.003907v-50.398437h288v50.398437c0 3.976563 3.222656 7.199219 7.199219 7.203125h28.800781c3.976562 0 7.199219-3.222656 7.199219-7.199218 0 0 0 0 0-.003907v-50.398437h21.601562c3.976563 0 7.199219-3.222656 7.203125-7.199219v-100.800781c0-3.976563-3.222656-7.199219-7.199218-7.203125-.003907.003906-.003907.003906-.003907.003906zm-7.199219 14.398437v57.601563h-194.402343v-57.601563zm-360 3.601563c.015626-13.914063 11.289063-25.183594 25.199219-25.203125h72c13.917969 0 25.199219 11.285156 25.199219 25.203125 0 13.914063-11.28125 25.199219-25.199219 25.199219h-72c-13.910156-.019532-25.183593-11.289063-25.199219-25.199219zm-43.203124-61.203125h14.402343v86.402344h-14.402343zm43.203124 201.601562h-14.402343v-43.199218h14.402343zm331.199219 0h-14.402343v-43.199218h14.402343zm-374.402343-57.601562v-43.199219h194.402343v21.601563c0 3.976562 3.222657 7.199218 7.195313 7.199218h.003906 201.601562v14.402344h-403.203124zm0 0"/></svg>