<svg height="431pt" viewBox="-93 1 431 431.792" width="431pt" xmlns="http://www.w3.org/2000/svg"><path d="m209.246094 201.601562c-3.976563 0-7.199219-3.21875-7.203125-7.191406 0-.003906 0-.007812 0-.007812v-43.203125c0-3.976563 3.226562-7.199219 7.203125-7.199219 3.976562 0 7.199218 3.222656 7.199218 7.199219v43.203125c.003907 3.972656-3.21875 7.195312-7.191406 7.199218-.003906 0-.007812 0-.007812 0zm0 0" fill="#e9686a"/><path d="m223.644531 208.800781c0 7.953125-6.445312 14.398438-14.398437 14.398438s-14.402344-6.445313-14.402344-14.398438 6.449219-14.398437 14.402344-14.398437 14.398437 6.445312 14.398437 14.398437zm0 0" fill="#5a6470"/><path d="m209.246094 230.398438c-11.929688 0-21.601563-9.667969-21.601563-21.597657 0-11.929687 9.671875-21.601562 21.601563-21.601562 11.929687 0 21.597656 9.671875 21.597656 21.601562-.011719 11.921875-9.675781 21.585938-21.597656 21.597657zm0-28.796876c-3.976563 0-7.203125 3.222657-7.203125 7.199219 0 3.976563 3.226562 7.199219 7.203125 7.199219 3.976562 0 7.199218-3.222656 7.199218-7.199219-.003906-3.976562-3.226562-7.199219-7.199218-7.199219zm0 0" fill="#5a6470"/><path d="m22.042969 295.199219h201.601562v129.601562h-201.601562zm0 0" fill="#eda366"/><path d="m238.042969 151.199219h-230.398438l43.199219-144h144zm0 0" fill="#f49e21"/><path d="m108.445312 151.199219h28.800782v43.199219h-28.800782zm0 0" fill="#ffd782"/><path d="m166.042969 295.199219h-86.398438l-14.398437-50.398438 14.398437-50.398437h86.398438l14.402343 50.398437zm0 0" fill="#e9686a"/><path d="m173.246094 43.199219h-100.800782c-3.976562 0-7.203124-3.222657-7.203124-7.199219s3.226562-7.199219 7.203124-7.199219h100.800782c3.976562 0 7.199218 3.222657 7.199218 7.199219s-3.222656 7.199219-7.199218 7.199219zm0 0" fill="#fcf05a"/><path d="m50.84375 324h144v72h-144zm0 0" fill="#ad6327"/><path d="m137.246094 367.199219h-28.800782c-3.976562 0-7.203124-3.222657-7.203124-7.199219s3.226562-7.199219 7.203124-7.199219h28.800782c3.976562 0 7.199218 3.222657 7.199218 7.199219s-3.222656 7.199219-7.199218 7.199219zm0 0" fill="#d3843d"/><path d="m201.742188 5.132812c-.914063-3.046874-3.71875-5.132812-6.898438-5.132812h-144c-3.179688 0-5.980469 2.085938-6.894531 5.132812l-43.203125 144c-1.140625 3.808594 1.019531 7.820313 4.828125 8.964844.671875.199219 1.371093.300782 2.070312.300782h93.601563v28.800781h-21.601563c-3.214843 0-6.042969 2.132812-6.925781 5.222656l-14.398438 50.402344c-.367187 1.292969-.367187 2.660156 0 3.949219l11.777344 41.226562h-48.054687c-3.972657-.003906-7.195313 3.214844-7.199219 7.191406v.007813 129.601562c0 3.972657 3.21875 7.195313 7.191406 7.199219h.007813 201.601562c3.972657.003906 7.199219-3.21875 7.199219-7.191406 0-.003906 0-.007813 0-.007813v-129.601562c.003906-3.972657-3.21875-7.195313-7.191406-7.199219-.003906 0-.003906 0-.007813 0h-48.054687l11.78125-41.226562c.367187-1.289063.367187-2.65625 0-3.949219l-14.402344-50.402344c-.882812-3.089844-3.707031-5.222656-6.921875-5.222656h-21.601563v-28.800781h57.597657v30.128906c-11.246094 3.976562-17.140625 16.316406-13.164063 27.5625 3.976563 11.246094 16.320313 17.140625 27.566406 13.164062 11.246094-3.976562 17.140626-16.316406 13.164063-27.5625-2.175781-6.152344-7.015625-10.992187-13.164063-13.164062v-30.128906h21.597657c3.976562 0 7.203125-3.21875 7.203125-7.195313 0-.703125-.101563-1.398437-.304688-2.070313zm7.503906 210.867188c-3.976563 0-7.203125-3.222656-7.203125-7.199219 0-3.976562 3.226562-7.203125 7.203125-7.203125 3.976562 0 7.199218 3.226563 7.199218 7.203125-.003906 3.976563-3.226562 7.195313-7.199218 7.199219zm7.199218 201.601562h-187.199218v-115.199218h187.199218zm-43.488281-172.800781-12.339843 43.199219h-75.546876l-12.339843-43.199219 12.339843-43.199219h75.546876zm-42.914062-57.601562h-14.398438v-28.800781h14.398438zm-112.722657-43.199219 38.882813-129.601562h133.285156l38.882813 129.601562zm0 0"/><path d="m173.246094 28.800781h-100.800782c-3.976562 0-7.203124 3.222657-7.203124 7.199219s3.226562 7.199219 7.203124 7.199219h100.800782c3.976562 0 7.199218-3.222657 7.199218-7.199219s-3.222656-7.199219-7.199218-7.199219zm0 0"/><path d="m43.644531 324v72c-.003906 3.972656 3.21875 7.195312 7.191407 7.199219h.007812 144c3.976562.003906 7.199219-3.21875 7.203125-7.191407 0-.003906 0-.003906 0-.007812v-72c0-3.972656-3.21875-7.199219-7.195313-7.199219h-.003906-144.003906c-3.972656-.003906-7.195312 3.214844-7.199219 7.191407zm14.398438 7.199219h129.601562v57.601562h-129.601562zm0 0"/><path d="m137.246094 352.800781h-28.800782c-3.976562 0-7.203124 3.222657-7.203124 7.199219s3.226562 7.199219 7.203124 7.199219h28.800782c3.976562 0 7.199218-3.222657 7.199218-7.199219s-3.222656-7.199219-7.199218-7.199219zm0 0"/></svg>