<svg height="431pt" viewBox="-28 1 431 431.793" width="431pt" xmlns="http://www.w3.org/2000/svg"><path d="m7.609375 79.199219h302.402344v57.601562h-302.402344zm0 0" fill="#e97424"/><path d="m266.8125 424.800781h-216l-28.800781-288h273.597656zm0 0" fill="#f49e21"/><g fill="#fcf05a"><path d="m144.410156 187.199219h28.800782v165.601562h-28.800782zm0 0"/><path d="m202.011719 187.199219h28.796875v165.601562h-28.796875zm0 0"/><path d="m86.8125 187.199219h28.796875v165.601562h-28.796875zm0 0"/></g><path d="m94.011719 7.199219v72h28.796875v-43.199219h72.003906v43.199219h28.796875v-72zm0 0" fill="#f49e21"/><path d="m338.8125 86.398438c-3.976562.003906-7.199219-3.21875-7.203125-7.195313v-.003906c-.011719-11.921875-9.675781-21.585938-21.597656-21.601563-3.976563 0-7.203125-3.222656-7.203125-7.199218 0-3.976563 3.226562-7.199219 7.203125-7.199219 11.921875-.015625 21.585937-9.675781 21.597656-21.601563 0-3.976562 3.226563-7.199218 7.203125-7.199218s7.199219 3.222656 7.199219 7.199218c.011719 11.921875 9.675781 21.585938 21.601562 21.601563 3.976563 0 7.199219 3.222656 7.199219 7.199219 0 3.976562-3.222656 7.199218-7.199219 7.199218-11.925781.015625-21.589843 9.675782-21.601562 21.601563 0 3.976562-3.21875 7.199219-7.195313 7.199219-.003906 0-.003906 0-.003906 0zm-7.222656-36c2.734375 2.058593 5.167968 4.488281 7.222656 7.222656 2.054688-2.734375 4.484375-5.164063 7.21875-7.222656-2.734375-2.054688-5.164062-4.484376-7.21875-7.21875-2.054688 2.734374-4.488281 5.164062-7.222656 7.21875zm0 0" fill="#fcf05a"/><path d="m7.609375 144h7.882813l28.152343 281.519531c.367188 3.679688 3.464844 6.484375 7.164063 6.480469h216c3.699218.003906 6.796875-2.800781 7.164062-6.480469l28.152344-281.519531h7.882812c3.976563 0 7.199219-3.222656 7.203126-7.195312 0-.003907 0-.003907 0-.003907v-57.601562c0-3.976563-3.222657-7.199219-7.199219-7.199219 0 0 0 0-.003907 0h-79.199218v-64.800781c0-3.976563-3.21875-7.199219-7.195313-7.199219h-.003906-129.597656c-3.976563 0-7.199219 3.21875-7.203125 7.195312v.003907 64.800781h-79.199219c-3.972656 0-7.199219 3.222656-7.199219 7.195312v.003907 57.601562c0 3.976563 3.222656 7.199219 7.195313 7.199219zm252.683594 273.601562h-202.964844l-27.359375-273.601562h257.683594zm-159.082031-403.203124h115.199218v57.601562h-14.398437v-36c0-3.976562-3.222657-7.199219-7.195313-7.199219-.003906 0-.003906 0-.003906 0h-72c-3.976562 0-7.199219 3.21875-7.199219 7.195313v.003906 36h-14.402343zm28.800781 57.601562v-28.800781h57.597656v28.800781zm-115.203125 14.398438h288.003906v43.199218h-288.003906zm0 0"/><path d="m144.410156 360h28.800782c3.976562 0 7.199218-3.222656 7.199218-7.195312 0-.003907 0-.003907 0-.003907v-165.601562c0-3.976563-3.21875-7.199219-7.195312-7.199219-.003906 0-.003906 0-.003906 0h-28.800782c-3.976562 0-7.199218 3.222656-7.199218 7.195312v.003907 165.601562c0 3.972657 3.222656 7.199219 7.195312 7.199219zm7.199219-165.597656h14.402344v151.199218h-14.402344zm0 0"/><path d="m202.011719 360h28.796875c3.976562 0 7.203125-3.222656 7.203125-7.195312 0-.003907 0-.003907 0-.003907v-165.601562c0-3.976563-3.222657-7.199219-7.199219-7.199219 0 0 0 0-.003906 0h-28.796875c-3.976563 0-7.199219 3.222656-7.203125 7.195312v.003907 165.601562c0 3.972657 3.222656 7.199219 7.199218 7.199219zm7.199219-165.597656h14.398437v151.199218h-14.398437zm0 0"/><path d="m86.8125 360h28.796875c3.976563 0 7.199219-3.222656 7.203125-7.195312 0-.003907 0-.003907 0-.003907v-165.601562c0-3.976563-3.222656-7.199219-7.199219-7.199219 0 0 0 0-.003906 0h-28.796875c-3.976562 0-7.199219 3.222656-7.203125 7.195312v.003907 165.601562c0 3.972657 3.222656 7.199219 7.199219 7.199219zm7.199219-165.597656h14.398437v151.199218h-14.398437zm0 0"/><path d="m310.011719 57.601562c11.921875.011719 21.585937 9.675782 21.597656 21.597657 0 3.976562 3.226563 7.203125 7.203125 7.203125s7.199219-3.226563 7.199219-7.203125c.011719-11.921875 9.675781-21.585938 21.601562-21.597657 3.976563 0 7.199219-3.226562 7.199219-7.203124 0-3.976563-3.222656-7.199219-7.199219-7.199219-11.925781-.011719-21.589843-9.675781-21.601562-21.601563 0-3.976562-3.222657-7.199218-7.199219-7.199218s-7.203125 3.222656-7.203125 7.199218c-.011719 11.925782-9.675781 21.589844-21.597656 21.601563-3.976563 0-7.203125 3.222656-7.203125 7.199219 0 3.976562 3.226562 7.203124 7.203125 7.203124zm28.800781-14.421874c2.054688 2.734374 4.484375 5.164062 7.21875 7.21875-2.734375 2.058593-5.164062 4.488281-7.21875 7.222656-2.054688-2.734375-4.488281-5.164063-7.222656-7.222656 2.734375-2.054688 5.167968-4.484376 7.222656-7.21875zm0 0"/></svg>