<svg height="431pt" viewBox="1 -79 431.793 431" width="431pt" xmlns="http://www.w3.org/2000/svg"><path d="m36 7.632812h360c15.90625 0 28.800781 12.894532 28.800781 28.800782v201.601562c0 15.90625-12.894531 28.796875-28.800781 28.796875h-360c-15.90625 0-28.800781-12.890625-28.800781-28.796875v-201.601562c0-15.90625 12.894531-28.800782 28.800781-28.800782zm0 0" fill="#36afad"/><path d="m43.199219 194.835938h201.601562v28.800781h-201.601562zm0 0" fill="#195c85"/><path d="m396 209.234375c0 15.90625-12.894531 28.800781-28.800781 28.800781-15.902344 0-28.796875-12.894531-28.796875-28.800781s12.894531-28.800781 28.796875-28.800781c15.90625 0 28.800781 12.894531 28.800781 28.800781zm0 0" fill="#fcf05a"/><path d="m338.398438 209.234375c0 15.90625-12.894532 28.800781-28.796876 28.800781-15.90625 0-28.800781-12.894531-28.800781-28.800781s12.894531-28.800781 28.800781-28.800781c15.902344 0 28.796876 12.894531 28.796876 28.800781zm0 0" fill="#dd3e46"/><path d="m50.398438 50.835938h72v57.597656h-72zm0 0" fill="#fff"/><g fill="#195c85"><path d="m388.800781 115.636719h-28.800781c-3.976562 0-7.199219-3.226563-7.199219-7.203125 0-3.976563 3.222657-7.199219 7.199219-7.199219h21.601562v-14.398437h-21.601562c-3.976562 0-7.199219-3.222657-7.199219-7.199219 0 0 0 0 0-.003907v-28.800781c0-3.972656 3.21875-7.199219 7.195313-7.199219h.003906 28.800781c3.976563 0 7.199219 3.222657 7.199219 7.199219 0 3.980469-3.222656 7.203125-7.199219 7.203125h-21.601562v14.398438h21.601562c3.972657 0 7.199219 3.222656 7.199219 7.195312v.007813 28.796875c0 3.976562-3.21875 7.199218-7.195312 7.203125zm0 0"/><path d="m374.398438 58.035156c-3.972657 0-7.195313-3.222656-7.199219-7.195312 0-.003906 0-.003906 0-.007813v-14.398437c0-3.976563 3.222656-7.199219 7.199219-7.199219 3.980468 0 7.203124 3.222656 7.203124 7.199219v14.398437c0 3.976563-3.222656 7.203125-7.199218 7.203125 0 0 0 0-.003906 0zm0 0"/><path d="m374.398438 130.035156c-3.972657 0-7.195313-3.21875-7.199219-7.195312 0-.003906 0-.003906 0-.003906v-14.402344c0-3.976563 3.222656-7.199219 7.199219-7.199219 3.980468 0 7.203124 3.222656 7.203124 7.199219v14.402344c0 3.972656-3.222656 7.199218-7.199218 7.199218 0 0 0 0-.003906 0zm0 0"/><path d="m244.800781 50.835938h28.800781v14.398437h-28.800781zm0 0"/><path d="m144 50.835938h86.398438v14.398437h-86.398438zm0 0"/><path d="m144 79.636719h28.800781v14.398437h-28.800781zm0 0"/><path d="m187.199219 79.636719h86.402343v14.398437h-86.402343zm0 0"/></g><path d="m396 .433594h-360c-19.871094.023437-35.9765625 16.128906-36 36v201.601562c.0234375 19.871094 16.128906 35.976563 36 36h360c19.875-.023437 35.976562-16.128906 36-36v-201.601562c-.023438-19.871094-16.125-35.976563-36-36zm21.601562 237.601562c-.015624 11.921875-9.675781 21.585938-21.601562 21.601563h-360c-11.921875-.015625-21.585938-9.675781-21.601562-21.601563v-201.601562c.015624-11.921875 9.675781-21.585938 21.601562-21.597656h360c11.925781.011718 21.589844 9.675781 21.601562 21.597656zm0 0"/><path d="m367.199219 173.234375c-11.375.03125-22.0625 5.457031-28.796875 14.621094-11.808594-15.996094-34.347656-19.394531-50.34375-7.585938-16 11.804688-19.394532 34.34375-7.589844 50.34375 11.808594 15.996094 34.347656 19.394531 50.34375 7.585938 2.894531-2.136719 5.453125-4.695313 7.589844-7.585938 11.835937 15.933594 34.351562 19.257813 50.285156 7.421875 15.9375-11.835937 19.261719-34.355468 7.425781-50.289062-6.792969-9.144532-17.519531-14.527344-28.914062-14.511719zm-57.597657 57.601563c-11.929687 0-21.601562-9.671876-21.601562-21.601563s9.671875-21.601563 21.601562-21.601563c11.929688 0 21.597657 9.671876 21.597657 21.601563-.011719 11.925781-9.675781 21.585937-21.597657 21.601563zm57.597657 0c-11.929688 0-21.597657-9.671876-21.597657-21.601563s9.667969-21.601563 21.597657-21.601563c11.929687 0 21.601562 9.671876 21.601562 21.601563-.011719 11.925781-9.675781 21.585937-21.601562 21.601563zm0 0"/><path d="m50.398438 115.636719h72c3.976562 0 7.199218-3.222657 7.203124-7.199219 0 0 0 0 0-.003906v-57.597656c0-3.976563-3.222656-7.199219-7.199218-7.203126 0 0 0 0-.003906 0h-72c-3.972657 0-7.199219 3.222657-7.199219 7.199219v57.601563c0 3.976562 3.222656 7.199218 7.195312 7.199218.003907.003907.003907.003907.003907.003907zm7.203124-57.601563h57.597657v43.199219h-57.597657zm0 0"/><path d="m244.800781 187.636719h-201.601562c-3.976563-.003907-7.199219 3.21875-7.199219 7.195312v.003907 28.796874c0 3.976563 3.222656 7.199219 7.195312 7.203126h.003907 201.601562c3.972657 0 7.199219-3.222657 7.199219-7.199219 0 0 0 0 0-.003907v-28.796874c0-3.976563-3.222656-7.199219-7.199219-7.203126zm-7.199219 28.796875h-187.203124v-14.398438h187.203124zm0 0"/><path d="m360 101.234375c-3.976562 0-7.199219 3.222656-7.199219 7.203125 0 3.976562 3.222657 7.199219 7.199219 7.199219h7.199219v7.199219c0 3.976562 3.226562 7.199218 7.203125 7.199218 3.976562 0 7.199218-3.222656 7.199218-7.199218v-7.199219h7.199219c3.976563 0 7.199219-3.222657 7.203125-7.199219v-28.800781c0-3.976563-3.222656-7.199219-7.199218-7.203125 0 0 0 0-.003907 0h-21.597656v-14.398438h21.597656c3.976563 0 7.203125-3.222656 7.203125-7.199218 0-3.976563-3.226562-7.203126-7.203125-7.203126h-7.199219v-7.199218c0-3.976563-3.222656-7.199219-7.199218-7.199219-3.976563 0-7.203125 3.222656-7.203125 7.199219v7.199218h-7.199219c-3.976562 0-7.199219 3.222657-7.199219 7.199219v28.800781c0 3.976563 3.21875 7.199219 7.195313 7.203126h.003906 21.601562v14.398437zm0 0"/><path d="m244.800781 50.835938h28.800781v14.398437h-28.800781zm0 0"/><path d="m144 50.835938h86.398438v14.398437h-86.398438zm0 0"/><path d="m144 79.636719h28.800781v14.398437h-28.800781zm0 0"/><path d="m187.199219 79.636719h86.402343v14.398437h-86.402343zm0 0"/></svg>