<svg height="431pt" viewBox="-100 1 431 431.793" width="431pt" xmlns="http://www.w3.org/2000/svg"><path d="m132.160156 64.800781 91.484375 28.800781v-72c0-7.953124-6.445312-14.402343-14.398437-14.402343h-187.199219c-7.953125 0-14.402344 6.449219-14.402344 14.402343v367.199219c0 19.882813 16.117188 36 36 36h144c19.882813 0 36.003907-16.117187 36.003907-36v-208.800781c0-7.953125-6.449219-14.398438-14.402344-14.398438h-79.199219c-27.835937 0-50.402344-22.566406-50.402344-50.402343 0-.515625.007813-1.035157.027344-1.550781 1.574219-27.71875 24.726563-49.261719 52.488281-48.847657zm0 0" fill="#36afad"/><path d="m148.046875 223.199219h-62.679687c-6.878907-.242188-12.65625 5.125-12.921876 12v108l16.800782 24h75.601562l8.398438-24v-108c-.265625-6.878907-6.042969-12.246094-12.921875-12zm0 0" fill="#ffd782"/><path d="m72.445312 280.800781v64.800781h-3.859374c-13.773438 0-24.941407-11.167968-24.941407-24.941406v-31.546875c0-4.589843 3.722657-8.3125 8.3125-8.3125zm0 0" fill="#f6bf9b"/><g fill="#ed917e"><path d="m137.246094 223.199219h14.398437v64.800781h-14.398437zm0 0"/><path d="m115.644531 223.199219h14.402344v64.800781h-14.402344zm0 0"/><path d="m94.046875 223.199219h14.398437v64.800781h-14.398437zm0 0"/></g><path d="m65.246094 235.203125v38.398437h-13.285156c-8.5625.007813-15.503907 6.945313-15.515626 15.507813v31.550781c.019532 17.742188 14.398438 32.121094 32.140626 32.140625h1.789062l15.125 21.601563h84.453125l10.492187-29.976563v-109.222656c-.273437-10.851563-9.269531-19.4375-20.125-19.203125h-74.953124c-10.851563-.234375-19.847657 8.351562-20.121094 19.203125zm-14.402344 85.457031v-31.550781c.003906-.613281.5-1.109375 1.117188-1.109375h13.285156v50.085938c-8.351563-1.613282-14.390625-8.917969-14.402344-17.425782zm28.800781-85.457031c.277344-2.894531 2.824219-5.035156 5.726563-4.804687h8.675781v57.601562h14.398437v-57.601562h7.203126v57.601562h14.398437v-57.601562h7.199219v57.601562h14.402344v-57.601562h8.675781c2.898437-.226563 5.445312 1.910156 5.722656 4.804687v106.777344l-6.304687 18.019531h-66.746094l-13.347656-19.070312v-105.726563zm0 0"/><path d="m209.246094 0h-187.199219c-11.925781.0117188-21.589844 9.675781-21.601563 21.601562v367.199219c.027344 23.847657 19.351563 43.175781 43.199219 43.199219h144c23.847657-.023438 43.175781-19.351562 43.199219-43.199219v-208.800781c-.011719-11.921875-9.675781-21.585938-21.597656-21.601562h-79.203125c-23.859375 0-43.203125-19.347657-43.199219-43.207032 0-.441406.007812-.882812.023438-1.328125 1.433593-23.410156 20.765624-41.703125 44.222656-41.847656l90.394531 28.453125c3.792969 1.195312 7.835937-.914062 9.027344-4.707031.222656-.699219.332031-1.429688.332031-2.160157v-72c-.011719-11.925781-9.675781-21.5898432-21.597656-21.601562zm7.199218 83.785156-82.125-25.855468c-.699218-.21875-1.425781-.328126-2.160156-.328126-31.625-.347656-57.921875 24.25-59.683594 55.828126-.984374 31.792968 23.992188 58.359374 55.78125 59.34375.597657.019531 1.191407.027343 1.789063.027343h79.199219c3.976562.003907 7.199218 3.226563 7.203125 7.199219v208.800781c-.019531 15.898438-12.902344 28.785157-28.800781 28.800781h-144.003907c-15.898437-.015624-28.78125-12.902343-28.796875-28.800781v-367.199219c.003906-3.976562 3.222656-7.199218 7.199219-7.203124h187.199219c3.976562.003906 7.195312 3.226562 7.199218 7.203124zm0 0"/></svg>