<svg height="431.792pt" viewBox="1 1 431.792 431.792" width="431.792pt" xmlns="http://www.w3.org/2000/svg"><path d="m7.199219 7.203125h417.601562v417.597656h-417.601562zm0 0" fill="#f4f4e6"/><path d="m259.199219 64.800781h-108c-11.929688 0-21.597657 9.667969-21.601563 21.597657v.003906 194.398437l28.800782 43.199219h129.601562l14.398438-43.199219v-194.402343c0-11.929688-9.667969-21.597657-21.597657-21.597657zm0 0" fill="#ffd782"/><path d="m86.398438 237.601562v-57.601562c0-7.953125 6.449218-14.398438 14.402343-14.398438h28.796875v115.199219c-23.855468 0-43.199218-19.34375-43.199218-43.199219zm0 0" fill="#f6bf9b"/><path d="m158.398438 324h129.601562v100.800781h-129.601562zm0 0" fill="#ffd782"/><g fill="#ed917e"><path d="m252 64.800781h14.398438v122.398438h-14.398438zm0 0"/><path d="m208.800781 64.800781h14.398438v122.398438h-14.398438zm0 0"/><path d="m165.601562 64.800781h14.398438v122.398438h-14.398438zm0 0"/></g><path d="m39.597656 378 334.796875-334.796875 21.601563 21.597656-334.796875 334.796875zm0 0" fill="#dd3e46"/><path d="m0 432h432v-432h-432zm165.601562-14.398438v-86.402343h115.199219v86.402343zm-43.203124-144.726562c-16.746094-3.441406-28.777344-18.175781-28.796876-35.273438v-57.601562c.003907-3.972656 3.222657-7.195312 7.199219-7.199219h21.601563v100.074219zm57.601562-85.675781v-115.199219h28.800781v115.199219h11.417969l-83.417969 83.417969v-184.21875c.007813-7.949219 6.453125-14.390626 14.398438-14.398438h14.402343v115.199219zm115.199219-74.980469-28.800781 28.800781v-69.019531h14.402343c7.949219.007812 14.390625 6.449219 14.398438 14.398438zm-43.199219 43.199219-28.800781 28.800781v-112.21875h28.800781zm122.398438-102.035157 11.421874 11.417969-324.621093 324.617188-11.417969-11.417969zm-215.371094 258.574219 136.171875-136.175781v103.851562l-12.386719 37.167969h-120.558594zm-144.628906-297.558593h403.203124v403.203124h-122.402343v-92.433593l14.402343-43.199219v-120.585938l96.578126-96.582031-31.78125-31.78125-64.796876 64.800781v-11.421874c-.019531-15.898438-12.902343-28.78125-28.800781-28.796876h-129.601562c-15.898438.015626-28.78125 12.898438-28.800781 28.796876v72h-21.597657c-11.925781.015624-21.589843 9.675781-21.601562 21.601562v57.597656c.039062 24.234375 17.300781 45.019532 41.113281 49.507813l-90.894531 90.894531 31.78125 31.78125 87.441406-87.441406 2.558594 3.835937v91.421875h-136.800781zm0 0"/></svg>