<svg height="431pt" viewBox="-57 1 431 431.794" width="431pt" xmlns="http://www.w3.org/2000/svg"><path d="m50.824219 7.199219h57.601562v129.601562h-57.601562zm0 0" fill="#195c85"/><path d="m295.625 324h-86.398438l-14.402343-129.597656h115.199219zm0 0" fill="#195c85"/><path d="m36.425781 136.800781h86.398438c15.90625 0 28.800781 12.894531 28.800781 28.800781v259.199219h-144v-259.199219c0-15.90625 12.894531-28.800781 28.800781-28.800781zm0 0" fill="#36afad"/><path d="m50.824219 7.199219h57.601562v43.199219h-57.601562zm0 0" fill="#36afad"/><path d="m50.824219 194.402344h100.800781v172.796875h-100.800781zm0 0" fill="#f4f4e6"/><path d="m209.226562 396h86.398438v28.800781h-86.398438zm0 0" fill="#fdbd40"/><path d="m238.023438 324h28.800781v72h-28.800781zm0 0" fill="#195c85"/><path d="m288.40625 237.601562c-18.011719 0-18.011719-14.402343-36.023438-14.402343-17.996093 0-17.996093 14.402343-35.992187 14.402343-6.507813.074219-12.789063-2.375-17.523437-6.835937l10.355468 93.234375h86.402344l10.359375-93.261719c-4.75 4.476563-11.050781 6.9375-17.578125 6.863281zm0 0" fill="#36afad"/><path d="m223.625 259.199219h14.398438v14.402343h-14.398438zm0 0" fill="#195c85"/><path d="m238.023438 273.601562h14.402343v14.398438h-14.402343zm0 0" fill="#195c85"/><path d="m194.824219 172.800781c-3.972657 0-7.195313-3.21875-7.199219-7.191406 0-.003906 0-.003906 0-.007813-.011719-11.925781-9.675781-21.589843-21.601562-21.601562-3.976563 0-7.199219-3.222656-7.199219-7.199219 0-3.976562 3.222656-7.203125 7.199219-7.203125 11.925781-.011718 21.589843-9.675781 21.601562-21.597656 0-3.976562 3.222656-7.203125 7.199219-7.203125 3.976562 0 7.203125 3.226563 7.203125 7.203125.011718 11.921875 9.675781 21.585938 21.597656 21.597656 3.976562 0 7.203125 3.226563 7.203125 7.203125 0 3.976563-3.226563 7.199219-7.203125 7.199219-11.921875.011719-21.585938 9.675781-21.597656 21.601562 0 3.972657-3.21875 7.195313-7.191406 7.199219-.003907 0-.007813 0-.011719 0zm-7.21875-36c2.734375 2.054688 5.164062 4.484375 7.21875 7.21875 2.054687-2.734375 4.484375-5.164062 7.222656-7.21875-2.738281-2.054687-5.167969-4.484375-7.222656-7.222656-2.054688 2.738281-4.484375 5.167969-7.21875 7.222656zm0 0" fill="#fcf05a"/><path d="m115.625 7.199219c.003906-3.972657-3.21875-7.19531275-7.191406-7.199219-.003906 0-.003906 0-.007813 0h-57.601562c-3.972657-.00390625-7.195313 3.21875-7.199219 7.191406v.007813 122.402343h-7.199219c-19.875.023438-35.976562 16.125-36 36v259.199219c-.003906 3.972657 3.214844 7.195313 7.191407 7.199219h.007812 144c3.972656.003906 7.199219-3.21875 7.199219-7.191406 0-.003906 0-.003906 0-.007813v-259.199219c-.023438-19.875-16.125-35.976562-36-36.003906h-7.199219zm-57.601562 7.199219h43.199218v28.800781h-43.199218zm86.402343 345.601562h-86.398437v-158.398438h86.398437zm0-194.398438v21.597657h-93.601562c-3.972657 0-7.195313 3.21875-7.199219 7.195312v.007813 172.796875c-.003906 3.976562 3.21875 7.199219 7.191406 7.203125h.007813 93.601562v43.199218h-129.601562v-252c.011719-11.925781 9.675781-21.589843 21.601562-21.601562h86.398438c11.925781.011719 21.585937 9.675781 21.601562 21.601562zm-86.402343-36v-72h43.199218v71.996094h-43.199218zm0 0"/><path d="m315.390625 189.597656c-1.367187-1.523437-3.316406-2.398437-5.367187-2.398437h-115.199219c-3.976563 0-7.199219 3.226562-7.199219 7.203125 0 .265625.015625.53125.042969.792968l14.398437 129.601563c.40625 3.644531 3.488282 6.40625 7.160156 6.40625h21.597657v57.597656h-21.597657c-3.976562 0-7.199218 3.21875-7.203124 7.191407v.007812 28.800781c0 3.976563 3.21875 7.199219 7.195312 7.203125h.007812 86.398438c3.972656 0 7.199219-3.21875 7.199219-7.195312 0-.003906 0-.003906 0-.007813v-28.800781c.003906-3.972656-3.21875-7.195312-7.191407-7.199219-.003906 0-.003906 0-.007812 0h-21.597656v-57.601562h21.597656c3.671875.003906 6.753906-2.757813 7.160156-6.402344l10.363282-93.265625-.003907-.007812 4.039063-36.328126c.222656-2.035156-.429688-4.070312-1.792969-5.597656zm-13.410156 12.003906-2.808594 25.273438c-3.054687 2.417969-6.875 3.667969-10.765625 3.523438-5.082031.050781-9.964844-1.984376-13.507812-5.625-12.722657-11.699219-32.289063-11.699219-45.007813 0-3.542969 3.640624-8.421875 5.675781-13.5 5.625-3.875.144531-7.667969-1.09375-10.710937-3.496094l-2.8125-25.304688h99.113281zm-13.554688 216h-72v-14.402343h72zm-28.800781-28.800781h-14.402344v-57.601562h14.402344zm-43.953125-72-8.121094-73.105469c2.886719.757813 5.855469 1.128907 8.839844 1.105469 8.347656.0625 16.402344-3.078125 22.5-8.78125 3.539063-3.636719 8.414063-5.667969 13.492187-5.621093 5.078126-.019532 9.953126 2.007812 13.519532 5.628906 6.101562 5.695312 14.152344 8.835937 22.5 8.773437 3.003906.023438 5.996094-.355469 8.902344-1.125l-8.128907 73.125zm0 0"/><path d="m223.625 259.199219h14.398438v14.402343h-14.398438zm0 0"/><path d="m238.023438 273.601562h14.402343v14.398438h-14.402343zm0 0"/><path d="m187.625 165.601562c0 3.976563 3.222656 7.199219 7.199219 7.199219 3.976562 0 7.203125-3.222656 7.203125-7.199219.011718-11.925781 9.675781-21.589843 21.597656-21.601562 3.976562 0 7.203125-3.222656 7.203125-7.199219 0-3.980469-3.226563-7.203125-7.203125-7.203125-11.921875-.011718-21.585938-9.675781-21.597656-21.601562 0-3.976563-3.226563-7.199219-7.203125-7.199219-3.976563 0-7.199219 3.222656-7.199219 7.199219-.011719 11.925781-9.675781 21.589844-21.601562 21.601562-3.976563 0-7.199219 3.222656-7.199219 7.203125 0 3.976563 3.222656 7.199219 7.199219 7.199219 11.925781.011719 21.589843 9.675781 21.601562 21.601562zm7.199219-36.023437c2.054687 2.738281 4.484375 5.167969 7.222656 7.222656-2.738281 2.054688-5.167969 4.484375-7.222656 7.21875-2.054688-2.734375-4.484375-5.164062-7.21875-7.21875 2.734375-2.054687 5.164062-4.484375 7.21875-7.222656zm0 0"/></svg>