<svg height="431pt" viewBox="-43 1 431 431.792" width="431pt" xmlns="http://www.w3.org/2000/svg"><path d="m65.21875 64.800781h100.800781v259.199219h-100.800781zm0 0" fill="#aabece"/><path d="m166.019531 64.800781h100.800781v259.199219h-100.800781zm0 0" fill="#cfdfe8"/><g fill="#f49e21"><path d="m65.21875 7.199219h28.800781v28.800781h-28.800781zm0 0"/><path d="m122.820312 7.199219h28.796876v28.800781h-28.796876zm0 0"/><path d="m180.417969 7.199219h28.800781v28.800781h-28.800781zm0 0"/><path d="m238.019531 7.199219h28.800781v28.800781h-28.800781zm0 0"/><path d="m317.21875 122.398438-21.597656 28.800781h43.199218zm0 0"/><path d="m317.21875 208.800781 21.601562-28.800781h-43.199218zm0 0"/></g><path d="m324.417969 424.800781h-316.800781l57.601562-72h201.601562zm0 0" fill="#36afad"/><path d="m58.019531 331.199219h216v-273.597657h-216zm115.199219-259.199219h86.402344v244.800781h-86.402344zm-100.800781 0h86.402343v244.800781h-86.402343zm0 0"/><path d="m58.019531 0v43.199219h43.199219v-43.199219zm28.800781 28.800781h-14.402343v-14.402343h14.402343zm0 0"/><path d="m158.820312 0h-43.199218v43.199219h43.199218zm-14.402343 28.800781h-14.398438v-14.402343h14.398438zm0 0"/><path d="m173.21875 0v43.199219h43.199219v-43.199219zm28.800781 28.800781h-14.398437v-14.402343h14.398437zm0 0"/><path d="m274.019531 0h-43.199219v43.199219h43.199219zm-14.402343 28.800781h-14.398438v-14.402343h14.398438zm0 0"/><path d="m322.976562 118.082031c-2.613281-3.179687-7.3125-3.640625-10.488281-1.023437-.375.308594-.71875.648437-1.027343 1.023437l-21.601563 28.800781c-2.386719 3.179688-1.742187 7.691407 1.4375 10.074219 1.246094.9375 2.765625 1.441407 4.324219 1.441407h43.199218c3.972657.003906 7.199219-3.21875 7.199219-7.191407 0-1.558593-.507812-3.078125-1.441406-4.324219zm-12.957031 25.917969 7.199219-9.597656 7.203125 9.597656zm0 0"/><path d="m338.820312 172.800781h-43.199218c-3.976563-.003906-7.199219 3.21875-7.203125 7.191407 0 1.558593.507812 3.078124 1.441406 4.324218l21.601563 28.800782c2.378906 3.179687 6.886718 3.828124 10.070312 1.449218.546875-.414062 1.035156-.902344 1.445312-1.449218l21.601563-28.800782c2.386719-3.179687 1.746094-7.6875-1.433594-10.074218-1.25-.9375-2.765625-1.441407-4.324219-1.441407zm-21.601562 23.996094-7.199219-9.597656h14.398438zm0 0"/><path d="m272.445312 348.300781c-1.371093-1.707031-3.4375-2.699219-5.625-2.699219h-201.601562c-2.1875 0-4.257812.992188-5.625 2.699219l-57.597656 72c-2.484375 3.105469-1.980469 7.636719 1.125 10.121094 1.277344 1.023437 2.863281 1.578125 4.5 1.578125h316.800781c3.976563 0 7.199219-3.222656 7.199219-7.203125 0-1.632813-.554688-3.21875-1.578125-4.496094zm-249.84375 69.300781 46.078126-57.601562h194.679687l46.078125 57.601562zm0 0"/></svg>