<svg height="431pt" viewBox="1 -14 431.794 431" width="431pt" xmlns="http://www.w3.org/2000/svg"><path d="m7.199219 94.003906h417.601562v259.199219h-417.601562zm0 0" fill="#36afad"/><path d="m165.601562 7.605469h230.398438v129.597656h-230.398438zm0 0" fill="#fcf05a"/><path d="m165.601562 353.203125h230.398438v43.203125h-230.398438zm0 0" fill="#fcf05a"/><g fill="#195c85"><path d="m57.601562 50.804688h50.398438c11.929688 0 21.601562 9.671874 21.601562 21.601562v201.597656c0 11.929688-9.671874 21.601563-21.601562 21.601563h-50.398438c-11.929687 0-21.601562-9.671875-21.601562-21.601563v-201.601562c0-11.925782 9.671875-21.597656 21.601562-21.597656zm0 0"/><path d="m172.800781 180.40625h43.199219v28.796875h-43.199219zm0 0"/><path d="m244.800781 180.40625h43.199219v28.796875h-43.199219zm0 0"/><path d="m316.800781 180.40625h43.199219v28.796875h-43.199219zm0 0"/><path d="m172.800781 238.003906h43.199219v28.800782h-43.199219zm0 0"/><path d="m244.800781 238.003906h43.199219v28.800782h-43.199219zm0 0"/><path d="m316.800781 238.003906h43.199219v28.800782h-43.199219zm0 0"/><path d="m172.800781 295.605469h43.199219v28.796875h-43.199219zm0 0"/><path d="m244.800781 295.605469h43.199219v28.796875h-43.199219zm0 0"/><path d="m316.800781 295.605469h43.199219v28.796875h-43.199219zm0 0"/></g><path d="m64.800781 331.605469h-28.800781c-3.976562 0-7.199219-3.226563-7.199219-7.203125 0-3.976563 3.222657-7.199219 7.199219-7.199219h28.800781c3.976563 0 7.199219 3.222656 7.199219 7.199219 0 3.976562-3.222656 7.203125-7.199219 7.203125zm0 0" fill="#fcf05a"/><path d="m187.199219 29.203125h14.402343v14.402344h-14.402343zm0 0" fill="#f49e21"/><path d="m216 29.203125h57.601562v14.402344h-57.601562zm0 0" fill="#f49e21"/><path d="m288 29.203125h14.402344v14.402344h-14.402344zm0 0" fill="#f49e21"/><path d="m316.800781 29.203125h57.597657v14.402344h-57.597657zm0 0" fill="#f49e21"/><path d="m187.199219 58.003906h72v14.398438h-72zm0 0" fill="#f49e21"/><path d="m273.601562 58.003906h28.800782v14.398438h-28.800782zm0 0" fill="#f49e21"/><path d="m316.800781 58.003906h57.597657v14.398438h-57.597657zm0 0" fill="#f49e21"/><path d="m216 173.203125h-43.199219c-3.976562 0-7.199219 3.222656-7.199219 7.199219v.003906 28.796875c-.003906 3.976563 3.21875 7.199219 7.195313 7.203125h.003906 43.199219c3.976562 0 7.199219-3.222656 7.199219-7.199219 0 0 0 0 0-.003906v-28.796875c.003906-3.976562-3.21875-7.199219-7.195313-7.203125zm-7.199219 28.800781h-28.800781v-14.398437h28.800781zm0 0"/><path d="m288 173.203125h-43.199219c-3.976562 0-7.199219 3.222656-7.199219 7.199219v.003906 28.796875c-.003906 3.976563 3.21875 7.199219 7.195313 7.203125h.003906 43.199219c3.976562 0 7.199219-3.222656 7.199219-7.199219 0 0 0 0 0-.003906v-28.796875c.003906-3.976562-3.21875-7.199219-7.195313-7.203125zm-7.199219 28.800781h-28.800781v-14.398437h28.800781zm0 0"/><path d="m360 173.203125h-43.199219c-3.976562 0-7.199219 3.222656-7.199219 7.199219v.003906 28.796875c-.003906 3.976563 3.21875 7.199219 7.195313 7.203125h.003906 43.199219c3.976562 0 7.199219-3.222656 7.199219-7.199219 0 0 0 0 0-.003906v-28.796875c.003906-3.976562-3.21875-7.199219-7.195313-7.203125zm-7.199219 28.800781h-28.800781v-14.398437h28.800781zm0 0"/><path d="m216 230.804688h-43.199219c-3.976562 0-7.199219 3.222656-7.199219 7.195312v.003906 28.800782c-.003906 3.976562 3.21875 7.199218 7.195313 7.199218h.003906 43.199219c3.976562 0 7.199219-3.222656 7.199219-7.195312 0-.003906 0-.003906 0-.003906v-28.800782c.003906-3.976562-3.21875-7.199218-7.195313-7.199218zm-7.199219 28.800781h-28.800781v-14.402344h28.800781zm0 0"/><path d="m288 230.804688h-43.199219c-3.976562 0-7.199219 3.222656-7.199219 7.195312v.003906 28.800782c-.003906 3.976562 3.21875 7.199218 7.195313 7.199218h.003906 43.199219c3.976562 0 7.199219-3.222656 7.199219-7.195312 0-.003906 0-.003906 0-.003906v-28.800782c.003906-3.976562-3.21875-7.199218-7.195313-7.199218zm-7.199219 28.800781h-28.800781v-14.402344h28.800781zm0 0"/><path d="m360 230.804688h-43.199219c-3.976562 0-7.199219 3.222656-7.199219 7.195312v.003906 28.800782c-.003906 3.976562 3.21875 7.199218 7.195313 7.199218h.003906 43.199219c3.976562 0 7.199219-3.222656 7.199219-7.195312 0-.003906 0-.003906 0-.003906v-28.800782c.003906-3.976562-3.21875-7.199218-7.195313-7.199218zm-7.199219 28.800781h-28.800781v-14.402344h28.800781zm0 0"/><path d="m216 288.40625h-43.199219c-3.976562-.003906-7.199219 3.21875-7.199219 7.195312v.003907 28.800781c-.003906 3.972656 3.21875 7.199219 7.195313 7.199219h.003906 43.199219c3.976562 0 7.199219-3.222657 7.199219-7.199219v-28.800781c.003906-3.976563-3.21875-7.199219-7.195313-7.199219zm-7.199219 28.796875h-28.800781v-14.398437h28.800781zm0 0"/><path d="m288 288.40625h-43.199219c-3.976562-.003906-7.199219 3.21875-7.199219 7.195312v.003907 28.800781c-.003906 3.972656 3.21875 7.199219 7.195313 7.199219h.003906 43.199219c3.976562 0 7.199219-3.222657 7.199219-7.199219v-28.800781c.003906-3.976563-3.21875-7.199219-7.195313-7.199219zm-7.199219 28.796875h-28.800781v-14.398437h28.800781zm0 0"/><path d="m360 288.40625h-43.199219c-3.976562-.003906-7.199219 3.21875-7.199219 7.195312v.003907 28.800781c-.003906 3.972656 3.21875 7.199219 7.195313 7.199219h.003906 43.199219c3.976562 0 7.199219-3.222657 7.199219-7.199219v-28.800781c.003906-3.976563-3.21875-7.199219-7.195313-7.199219zm-7.199219 28.796875h-28.800781v-14.398437h28.800781zm0 0"/><path d="m64.800781 317.203125h-28.800781c-3.976562 0-7.199219 3.226563-7.199219 7.203125s3.222657 7.199219 7.199219 7.199219h28.800781c3.976563 0 7.199219-3.222657 7.199219-7.199219s-3.222656-7.203125-7.199219-7.203125zm0 0"/><path d="m187.199219 29.203125h14.402343v14.402344h-14.402343zm0 0"/><path d="m216 29.203125h57.601562v14.402344h-57.601562zm0 0"/><path d="m288 29.203125h14.402344v14.402344h-14.402344zm0 0"/><path d="m316.800781 29.203125h57.597657v14.402344h-57.597657zm0 0"/><path d="m187.199219 58.003906h72v14.398438h-72zm0 0"/><path d="m273.601562 58.003906h28.800782v14.398438h-28.800782zm0 0"/><path d="m316.800781 58.003906h57.597657v14.398438h-57.597657zm0 0"/><path d="m424.800781 86.804688h-21.601562v-79.199219c0-3.976563-3.21875-7.199219-7.195313-7.203125-.003906 0-.003906 0-.003906 0h-230.398438c-3.976562 0-7.203124 3.222656-7.203124 7.199218v.003907 79.199219h-21.597657v-14.402344c-.019531-15.898438-12.902343-28.78125-28.800781-28.796875h-50.398438c-15.902343.015625-28.785156 12.898437-28.800781 28.796875v14.402344h-21.601562c-3.976563-.003907-7.199219 3.21875-7.199219 7.195312v.003906 259.199219c0 3.976563 3.222656 7.199219 7.199219 7.199219h151.199219v36.003906c0 3.972656 3.222656 7.199219 7.199218 7.199219h.003906 230.398438c3.976562 0 7.199219-3.222657 7.199219-7.199219v-36.003906h21.601562c3.976563.003906 7.199219-3.21875 7.203125-7.195313v-.003906-259.199219c0-3.976562-3.222656-7.199218-7.199218-7.199218-.003907 0-.003907 0-.003907 0zm-252-72h216v115.199218h-216zm-129.601562 57.597656c.007812-7.949219 6.453125-14.390625 14.402343-14.398438h50.398438c7.949219.007813 14.390625 6.449219 14.398438 14.398438v201.601562c-.007813 7.949219-6.449219 14.390625-14.398438 14.398438h-50.398438c-7.949218-.007813-14.394531-6.449219-14.402343-14.398438zm345.601562 316.800781h-216v-28.800781h216zm28.800781-43.199219h-403.203124v-244.800781h14.402343v172.800781c.015625 15.898438 12.898438 28.785156 28.800781 28.800782h50.398438c15.898438-.015626 28.78125-12.902344 28.800781-28.800782v-172.800781h21.597657v36c0 3.976563 3.222656 7.199219 7.199218 7.203125h.003906 230.398438c3.976562 0 7.199219-3.222656 7.199219-7.199219 0 0 0 0 0-.003906v-36h14.402343zm0 0"/></svg>