<svg height="431pt" viewBox="-97 1 431 431.792" width="431pt" xmlns="http://www.w3.org/2000/svg"><path d="m144.445312 93.601562h43.199219c23.859375 0 43.199219 19.339844 43.199219 43.199219v288h-129.601562v-288c0-23.859375 19.34375-43.199219 43.203124-43.199219zm0 0" fill="#e9686a"/><path d="m209.242188 72c-15.902344 0-28.796876-12.894531-28.796876-28.800781s12.894532-28.800781 28.796876-28.800781c15.90625 0 28.800781 12.894531 28.800781 28.800781-.015625 15.898437-12.902344 28.78125-28.800781 28.800781zm0-43.199219c-7.953126 0-14.398438 6.445313-14.398438 14.398438s6.445312 14.402343 14.398438 14.402343c7.953124 0 14.402343-6.449218 14.402343-14.402343-.007812-7.949219-6.449219-14.390625-14.402343-14.398438zm0 0" fill="#e9686a"/><path d="m144.445312 7.199219h43.199219v86.402343h-43.199219zm0 0" fill="#cfdfe8"/><path d="m144.445312 36h-64.800781c-27.835937 0-50.402343 22.566406-50.402343 50.402344v208.796875h28.800781v-201.597657c0-15.90625 12.894531-28.800781 28.800781-28.800781h57.601562zm0 0" fill="#5a6470"/><path d="m14.84375 295.199219h57.601562v28.800781h-57.601562zm0 0" fill="#e9686a"/><path d="m79.644531 396h-72l14.398438-72h43.203125zm0 0" fill="#394d5c"/><path d="m101.242188 381.601562h129.601562v43.199219h-129.601562zm0 0" fill="#394d5c"/><path d="m144.445312 194.402344h86.398438v129.597656h-86.398438zm0 0" fill="#cfdfe8"/><path d="m130.042969 158.398438c-3.976563 0-7.199219-3.222657-7.199219-7.199219 0-20.523438 9.285156-36 21.601562-36 3.976563 0 7.199219 3.222656 7.199219 7.199219 0 3.976562-3.222656 7.203124-7.199219 7.203124-1.792968 0-7.203124 7.660157-7.203124 21.597657 0 3.976562-3.222657 7.199219-7.199219 7.199219zm0 0" fill="#fff"/><path d="m209.242188 72c15.90625 0 28.800781-12.894531 28.800781-28.800781s-12.894531-28.800781-28.800781-28.800781c-5.070313.03125-10.042969 1.414062-14.398438 4.007812v-18.40625h-57.601562v28.800781h-57.597657c-31.796875.035157-57.5625 25.800781-57.601562 57.597657v201.601562h-7.199219c-3.976562 0-7.199219 3.222656-7.199219 7.199219v28.800781c.027344 3.351562 2.394531 6.222656 5.679688 6.890625l-12.738281 63.695313c-.78125 3.898437 1.746093 7.691406 5.644531 8.472656.464843.09375.9375.140625 1.414062.140625h72c3.976563 0 7.199219-3.226563 7.199219-7.203125 0-.472656-.046875-.945313-.140625-1.410156l-12.738281-63.695313c3.28125-.667969 5.648437-3.539063 5.679687-6.890625v-28.800781c0-3.976563-3.226562-7.199219-7.203125-7.199219h-7.199218v-194.398438c.011718-11.925781 9.675781-21.589843 21.601562-21.601562h50.398438v14.972656c-24.765626 3.589844-43.15625 24.800782-43.199219 49.828125v295.199219h144v-295.199219c-.042969-25.027343-18.429688-46.234375-43.199219-49.828125v-18.980468c4.359375 2.597656 9.328125 3.976562 14.398438 4.007812zm0-43.199219c7.953124 0 14.402343 6.445313 14.402343 14.398438s-6.449219 14.402343-14.402343 14.402343c-7.953126 0-14.398438-6.449218-14.398438-14.402343.007812-7.949219 6.449219-14.390625 14.398438-14.398438zm-192.816407 360 11.519531-57.601562h31.394532l11.523437 57.601562zm48.820313-72h-43.203125v-14.398437h43.203125zm21.597656-259.199219c-19.871094.023438-35.976562 16.125-36 36v194.398438h-14.398438v-201.601562c.023438-23.847657 19.351563-43.171876 43.199219-43.199219h57.597657v14.402343zm64.800781-43.203124h28.800781v72h-28.800781zm72 403.203124h-115.199219v-28.800781h115.199219zm0-100.800781h-72v-115.199219h72zm0-180v50.398438h-86.398437v144h86.398437v43.199219h-115.199219v-237.597657c.023438-19.875 16.125-35.976562 36-36h43.199219c19.871094.023438 35.976563 16.125 36 36zm0 0"/><path d="m144.445312 115.199219c-12.316406 0-21.601562 15.476562-21.601562 36 0 3.976562 3.222656 7.203125 7.199219 7.203125 3.976562 0 7.203125-3.226563 7.203125-7.203125 0-13.9375 5.40625-21.597657 7.199218-21.597657 3.976563 0 7.199219-3.226562 7.199219-7.203124 0-3.972657-3.222656-7.199219-7.199219-7.199219zm0 0"/></svg>