<svg height="431pt" viewBox="1 -21 431.792 431" width="431pt" xmlns="http://www.w3.org/2000/svg"><path d="m57.601562 50.808594v57.597656h43.199219v-43.199219c0-7.953125 6.445313-14.398437 14.398438-14.398437h201.601562c7.953125 0 14.398438 6.445312 14.398438 14.398437v43.199219h43.199219v-57.597656c0-23.859375-19.339844-43.203125-43.199219-43.203125h-230.398438c-23.859375 0-43.199219 19.34375-43.199219 43.203125zm0 0" fill="#aabece"/><path d="m7.199219 137.207031h417.601562v72h-417.601562zm0 0" fill="#f49e21"/><path d="m21.601562 209.207031h388.800782v172.800781h-388.800782zm0 0" fill="#ffd782"/><path d="m194.402344 238.007812h43.199218v115.199219h-43.199218zm0 0" fill="#e9686a"/><path d="m158.398438 274.007812h115.203124v43.199219h-115.203124zm0 0" fill="#e9686a"/><path d="m43.199219 108.40625h72v28.800781h-72zm0 0" fill="#36afad"/><path d="m316.800781 108.40625h72v28.800781h-72zm0 0" fill="#36afad"/><path d="m64.800781 209.207031h28.800781v57.601563h-28.800781zm0 0" fill="#f49e21"/><path d="m338.398438 209.207031h28.800781v57.601563h-28.800781zm0 0" fill="#f49e21"/><path d="m50.398438 180.40625h57.601562v28.800781h-57.601562zm0 0" fill="#cfdfe8"/><path d="m324 180.40625h57.601562v28.800781h-57.601562zm0 0" fill="#cfdfe8"/><path d="m244.800781 230.808594h-57.601562v36h-36v57.597656h36v36h57.601562v-36h36v-57.597656h-36zm21.597657 50.398437v28.800781h-36v36h-28.796876v-36h-36v-28.800781h36v-36h28.796876v36zm0 0"/><path d="m396 101.207031h-14.398438v-50.398437c-.03125-27.824219-22.578124-50.371094-50.402343-50.402344h-230.398438c-27.820312.03125-50.367187 22.578125-50.402343 50.402344v50.398437h-14.398438v28.800781h-36v86.398438h14.398438v172.800781h403.203124v-172.800781h14.398438v-86.398438h-36zm-14.398438 28.800781h-57.601562v-14.402343h57.601562zm-57.601562-28.800781h-14.398438v28.800781h-187.203124v-28.800781h-14.398438v-36c.003906-3.976562 3.226562-7.195312 7.199219-7.199219h201.601562c3.976563.003907 7.195313 3.222657 7.199219 7.199219zm-259.199219-50.398437c.023438-19.875 16.128907-35.976563 36-36.003906h230.398438c19.875.027343 35.976562 16.128906 36 36.003906v50.398437h-28.796875v-36c-.015625-11.925781-9.675782-21.585937-21.601563-21.601562h-201.601562c-11.921875.015625-21.585938 9.675781-21.597657 21.601562v36h-28.800781zm-14.402343 64.796875h57.601562v14.402343h-57.601562zm352.800781 259.203125h-374.398438v-158.402344h28.800781v57.601562h43.199219v-57.601562h230.398438v57.601562h43.199219v-57.601562h28.800781zm-302.398438-172.800782h-43.199219v-14.398437h43.199219zm-28.800781 14.398438h14.398438v43.199219h-14.398438zm302.398438-14.398438h-43.199219v-14.398437h43.199219zm-28.796876 14.398438h14.398438v43.199219h-14.398438zm72-72v57.601562h-28.800781v-28.800781h-72v28.800781h-201.601562v-28.800781h-72v28.800781h-28.800781v-57.601562zm0 0"/></svg>