<svg height="431.792pt" viewBox="1 1 431.792 431.792" width="431.792pt" xmlns="http://www.w3.org/2000/svg"><path d="m21.601562 194.402344h129.597657c7.953125 0 14.402343 6.445312 14.402343 14.398437v129.601563c0 7.953125-6.449218 14.398437-14.402343 14.398437h-129.597657c-7.953124 0-14.402343-6.445312-14.402343-14.398437v-129.601563c0-7.953125 6.449219-14.398437 14.402343-14.398437zm0 0" fill="#fff69a"/><path d="m28.800781 302.402344h14.398438v21.597656h-14.398438zm0 0" fill="#ad6327"/><path d="m129.601562 309.601562h14.398438v21.597657h-14.398438zm0 0" fill="#ad6327"/><path d="m208.800781 50.398438h201.601563v331.203124h-201.601563zm0 0" fill="#36afad"/><path d="m194.402344 381.601562h230.398437v43.199219h-230.398437zm0 0" fill="#195c85"/><path d="m244.800781 7.199219h129.597657v43.199219h-129.597657zm0 0" fill="#87cee9"/><path d="m259.199219 309.601562h100.800781v72h-100.800781zm0 0" fill="#cfdfe8"/><g fill="#fff"><path d="m252 79.199219h43.199219v43.199219h-43.199219zm0 0"/><path d="m324 79.199219h43.199219v43.199219h-43.199219zm0 0"/><path d="m252 151.199219h43.199219v43.199219h-43.199219zm0 0"/><path d="m324 151.199219h43.199219v43.199219h-43.199219zm0 0"/><path d="m252 223.199219h43.199219v43.199219h-43.199219zm0 0"/><path d="m324 223.199219h43.199219v43.199219h-43.199219zm0 0"/><path d="m302.402344 309.601562h14.398437v72h-14.398437zm0 0"/></g><path d="m36 273.601562h100.800781v28.800782h-100.800781zm0 0" fill="#a3b2ff"/><path d="m144 309.601562h-115.199219v-43.203124h115.199219zm-100.800781-14.402343h86.398437v-14.398438h-86.398437zm0 0" fill="#a3b2ff"/><path d="m64.800781 273.601562h-14.402343c-7.949219 0-14.398438-6.449218-14.398438-14.402343s6.449219-14.398438 14.398438-14.398438h14.402343c7.953125 0 14.398438 6.445313 14.398438 14.398438s-6.445313 14.402343-14.398438 14.402343zm0 0" fill="#cfdfe8"/><path d="m72 352.800781h28.800781v72h-28.800781zm0 0" fill="#c68758"/><path d="m128.933594 158.398438c.421875-1.5625.644531-3.175782.664062-4.796876.117188-10.488281-8.292968-19.085937-18.78125-19.199218-2.03125.023437-4.042968.386718-5.953125 1.074218-4.269531-14.867187-19.785156-23.457031-34.652343-19.1875-9.984376 2.867188-17.5625 11.023438-19.6875 21.191407-3.003907-2-6.53125-3.074219-10.144532-3.078125-10.488281.113281-18.894531 8.710937-18.78125 19.199218.019532 1.621094.242188 3.234376.664063 4.796876zm0 0" fill="#195c85"/><path d="m179.335938 72c.421874-1.566406.644531-3.179688.664062-4.800781.113281-10.488281-8.296875-19.082031-18.785156-19.199219-2.027344.023438-4.039063.386719-5.949219 1.078125-4.273437-14.871094-19.789063-23.460937-34.65625-19.191406-9.984375 2.867187-17.558594 11.023437-19.683594 21.191406-3.003906-2-6.535156-3.074219-10.144531-3.078125-10.488281.113281-18.898438 8.710938-18.78125 19.199219.019531 1.621093.242188 3.234375.664062 4.800781zm0 0" fill="#195c85"/><path d="m417.601562 43.199219h-36v-43.199219h-144v43.199219h-36v331.199219h-14.402343v57.601562h244.800781v-57.601562h-14.398438zm-165.601562-28.800781h115.199219v28.800781h-115.199219zm-36 43.203124h187.199219v316.796876h-36v-71.996094h-115.199219v71.996094h-36zm50.398438 316.796876v-57.597657h36.003906v57.597657zm50.402343-57.597657h36v57.597657h-36zm100.800781 100.800781h-216v-28.800781h216zm0 0"/><path d="m302.402344 72h-57.601563v57.597656h57.601563zm-14.402344 43.199219h-28.800781v-28.800781h28.800781zm0 0"/><path d="m374.398438 72h-57.597657v57.597656h57.597657zm-14.398438 43.199219h-28.800781v-28.800781h28.800781zm0 0"/><path d="m302.402344 144h-57.601563v57.601562h57.601563zm-14.402344 43.199219h-28.800781v-28.800781h28.800781zm0 0"/><path d="m374.398438 144h-57.597657v57.601562h57.597657zm-14.398438 43.199219h-28.800781v-28.800781h28.800781zm0 0"/><path d="m302.402344 216h-57.601563v57.601562h57.601563zm-14.402344 43.199219h-28.800781v-28.800781h28.800781zm0 0"/><path d="m374.398438 216h-57.597657v57.601562h57.597657zm-14.398438 43.199219h-28.800781v-28.800781h28.800781zm0 0"/><path d="m43.199219 309.601562h86.398437v21.597657h14.402344v-64.800781h-58.925781c.851562-2.304688 1.300781-4.738282 1.324219-7.199219-.011719-11.921875-9.675782-21.585938-21.597657-21.601563h-14.402343c-11.921876.015625-21.585938 9.675782-21.597657 21.601563.023438 2.457031.472657 4.894531 1.328125 7.199219h-1.328125v57.601562h14.398438zm86.402343-14.402343h-86.402343v-14.398438h86.398437v14.398438zm-86.402343-36c.003906-3.972657 3.226562-7.195313 7.199219-7.199219h14.402343c3.976563 0 7.199219 3.222656 7.199219 7.199219 0 3.976562-3.222656 7.199219-7.199219 7.199219h-14.402343c-3.972657-.003907-7.195313-3.222657-7.199219-7.199219zm0 0"/><path d="m21.601562 360h43.199219v72h43.199219v-72h43.199219c11.925781-.011719 21.589843-9.675781 21.601562-21.601562v-129.597657c-.011719-11.925781-9.675781-21.585937-21.601562-21.601562h-129.597657c-11.925781.015625-21.5898432 9.675781-21.601562 21.601562v129.601563c.0117188 11.921875 9.675781 21.585937 21.601562 21.597656zm72 57.601562h-14.402343v-57.601562h14.402343zm-79.203124-208.800781c.007812-3.972656 3.226562-7.195312 7.203124-7.199219h129.597657c3.976562.003907 7.195312 3.222657 7.203125 7.199219v129.601563c-.007813 3.972656-3.226563 7.195312-7.203125 7.199218h-129.597657c-3.976562-.003906-7.195312-3.226562-7.203124-7.199218zm0 0"/><path d="m22.265625 165.601562h106.671875c3.296875 0 6.171875-2.242187 6.980469-5.4375.566406-2.140624.863281-4.347656.882812-6.5625.082031-14.488281-11.59375-26.296874-26.082031-26.382812-.476562 0-.957031.007812-1.4375.03125-8.761719-17.300781-29.890625-24.222656-47.191406-15.460938-6.890625 3.488282-12.4375 9.152344-15.785156 16.113282-1.9375-.46875-3.925782-.703125-5.921876-.703125-14.457031.132812-26.082031 11.941406-25.984374 26.402343.023437 2.214844.316406 4.421876.882812 6.5625.808594 3.199219 3.6875 5.4375 6.984375 5.4375zm18.117187-24.003906c2.203126.011719 4.351563.667969 6.179688 1.894532 3.316406 2.1875 7.78125 1.277343 9.972656-2.042969.476563-.722657.820313-1.527344 1.011719-2.375 2.285156-11.265625 13.269531-18.542969 24.535156-16.257813 7.644531 1.550782 13.777344 7.246094 15.894531 14.75 1.152344 3.804688 5.167969 5.957032 8.972657 4.804688.089843-.027344.175781-.054688.261719-.085938 1.15625-.425781 2.375-.65625 3.605468-.683594 5.589844.082032 10.34375 4.101563 11.351563 9.601563h-93.136719c1.007812-5.503906 5.761719-9.523437 11.351562-9.605469zm0 0"/><path d="m72.664062 79.199219h106.671876c3.296874 0 6.171874-2.238281 6.980468-5.433594.566406-2.144531.863282-4.347656.882813-6.5625.117187-14.453125-11.5-26.265625-25.957031-26.386719-.519532-.003906-1.039063.007813-1.558594.035156-8.761719-17.300781-29.890625-24.226562-47.195313-15.464843-6.890625 3.492187-12.4375 9.152343-15.785156 16.117187-1.9375-.46875-3.925781-.703125-5.917969-.707031-14.460937.136719-26.082031 11.945313-25.984375 26.40625.019531 2.214844.316407 4.417969.878907 6.5625.8125 3.195313 3.6875 5.433594 6.984374 5.433594zm18.121094-24c2.199219.011719 4.347656.667969 6.179688 1.890625 3.320312 2.1875 7.785156 1.269531 9.972656-2.050782.476562-.722656.820312-1.523437 1.007812-2.367187 2.289063-11.265625 13.277344-18.542969 24.539063-16.253906 7.644531 1.550781 13.777344 7.242187 15.890625 14.75 1.152344 3.800781 5.171875 5.953125 8.972656 4.800781.089844-.027344.175782-.054688.265625-.082031 1.152344-.429688 2.371094-.660157 3.601563-.6875 5.589844.082031 10.34375 4.101562 11.351562 9.601562h-93.132812c1.007812-5.5 5.761718-9.519531 11.351562-9.601562zm0 0"/></svg>