<svg height="431pt" viewBox="-100 1 431 431.794" width="431pt" xmlns="http://www.w3.org/2000/svg"><path d="m187.648438 424.800781h-144v-144c11.246093-11.246093 17.550781-17.554687 28.796874-28.800781h86.402344c11.246094 11.246094 17.550782 17.554688 28.800782 28.800781zm0 0" fill="#36afad"/><path d="m94.046875 7.199219h43.199219v244.800781h-43.199219zm0 0" fill="#195c85"/><path d="m223.648438 57.601562c0 11.929688-9.671876 21.597657-21.601563 21.597657h-64.800781v-43.199219h64.800781c11.929687 0 21.601563 9.671875 21.601563 21.601562zm0 0" fill="#87cee9"/><path d="m223.648438 136.800781c0 7.953125-6.449219 14.398438-14.402344 14.398438h-72v-28.800781h72c7.953125 0 14.402344 6.449218 14.402344 14.402343zm0 0" fill="#87cee9"/><path d="m79.648438 338.398438h72v50.402343h-72zm0 0" fill="#fcf05a"/><path d="m115.648438 295.199219-36 43.199219h72zm0 0" fill="#f49e21"/><path d="m36.445312 86.398438c-3.972656.003906-7.195312-3.214844-7.199218-7.191407 0 0 0-.003906 0-.007812-.011719-11.921875-9.675782-21.585938-21.601563-21.597657-3.976562 0-7.199219-3.226562-7.199219-7.203124 0-3.976563 3.222657-7.199219 7.199219-7.199219 11.925781-.011719 21.589844-9.675781 21.601563-21.601563 0-3.976562 3.222656-7.199218 7.199218-7.199218 3.976563 0 7.203126 3.222656 7.203126 7.199218.011718 11.925782 9.675781 21.589844 21.597656 21.601563 3.980468 0 7.203125 3.222656 7.203125 7.199219 0 3.976562-3.222657 7.203124-7.203125 7.203124-11.921875.011719-21.585938 9.675782-21.597656 21.597657 0 3.976562-3.21875 7.199219-7.191407 7.203125-.003906-.003906-.007812-.003906-.011719-.003906zm-7.21875-36c2.734376 2.054687 5.167969 4.488281 7.222657 7.222656 2.050781-2.734375 4.484375-5.167969 7.21875-7.222656-2.734375-2.050782-5.167969-4.484376-7.21875-7.21875-2.054688 2.734374-4.488281 5.167968-7.222657 7.21875zm0 0" fill="#fcf05a"/><path d="m194.847656 244.800781c-3.972656 0-7.199218-3.21875-7.199218-7.191406 0-.003906 0-.007813 0-.007813-.015626-11.925781-9.675782-21.589843-21.601563-21.601562-3.976563 0-7.199219-3.222656-7.199219-7.199219 0-3.976562 3.222656-7.203125 7.199219-7.203125 11.921875-.011718 21.585937-9.675781 21.601563-21.597656 0-3.976562 3.222656-7.203125 7.199218-7.203125 3.976563 0 7.199219 3.226563 7.199219 7.203125.015625 11.921875 9.675781 21.585938 21.601563 21.597656 3.976562 0 7.199218 3.226563 7.199218 7.203125 0 3.976563-3.222656 7.199219-7.199218 7.199219-11.925782.011719-21.585938 9.675781-21.601563 21.601562.003906 3.972657-3.21875 7.195313-7.191406 7.199219-.003907 0-.003907 0-.007813 0zm-7.222656-36c2.738281 2.054688 5.167969 4.484375 7.222656 7.222657 2.054688-2.738282 4.484375-5.167969 7.222656-7.222657-2.738281-2.054687-5.167968-4.484375-7.222656-7.222656-2.054687 2.738281-4.484375 5.167969-7.222656 7.222656zm0 0" fill="#fcf05a"/><path d="m202.046875 86.398438c15.90625 0 28.800781-12.894532 28.800781-28.796876 0-15.90625-12.894531-28.800781-28.800781-28.800781h-57.597656v-21.601562c0-3.972657-3.21875-7.19531275-7.195313-7.199219h-.003906-43.203125c-3.972656-.00390625-7.195313 3.21875-7.199219 7.191406v.007813 237.601562h-14.398437c-1.910157 0-3.742188.757813-5.089844 2.109375l-28.800781 28.800782c-1.351563 1.347656-2.109375 3.179687-2.109375 5.089843v144c-.003907 3.976563 3.214843 7.199219 7.191406 7.203125h.007813 144c3.972656 0 7.199218-3.21875 7.199218-7.195312 0-.003906 0-.003906 0-.007813v-144c0-1.910156-.757812-3.742187-2.109375-5.089843l-28.800781-28.800782c-1.347656-1.351562-3.179688-2.109375-5.089844-2.109375h-14.398437v-86.402343h64.800781c11.929688 0 21.597656-9.667969 21.597656-21.597657 0-11.929687-9.667968-21.601562-21.597656-21.601562h-64.800781v-28.800781zm0-43.199219c7.953125 0 14.402344 6.449219 14.402344 14.402343 0 7.949219-6.449219 14.398438-14.402344 14.398438h-57.597656v-28.800781zm-21.601563 240.582031v133.820312h-129.597656v-133.820312l24.582032-24.582031h80.4375zm-79.199218-38.980469v-230.402343h28.800781v230.402343zm108-115.199219c3.976562 0 7.203125 3.222657 7.203125 7.199219 0 3.976563-3.226563 7.199219-7.203125 7.199219h-64.800782v-14.398438zm0 0"/><path d="m110.113281 290.589844-36 43.199218c-.433593.613282-.8125 1.265626-1.128906 1.949219-.265625.867188-.445313 1.757813-.539063 2.660157v50.402343c0 3.972657 3.21875 7.195313 7.195313 7.199219h.007813 72c3.972656.003906 7.195312-3.21875 7.199218-7.191406 0-.003906 0-.003906 0-.007813v-50.398437c-.09375-.902344-.273437-1.789063-.535156-2.65625-.320312-.683594-.699219-1.339844-1.132812-1.957032l-36-43.199218c-2.761719-3.058594-7.480469-3.296875-10.535157-.53125-.183593.164062-.363281.34375-.53125.53125zm34.332031 91.011718h-57.597656v-36h57.597656zm-49.425781-50.402343 20.628907-24.75 20.628906 24.75zm0 0"/><path d="m43.648438 79.199219c.011718-11.921875 9.675781-21.585938 21.597656-21.597657 3.980468 0 7.203125-3.226562 7.203125-7.203124 0-3.976563-3.222657-7.199219-7.203125-7.199219-11.921875-.011719-21.585938-9.675781-21.597656-21.601563 0-3.976562-3.226563-7.199218-7.203126-7.199218-3.976562 0-7.199218 3.222656-7.199218 7.199218-.011719 11.925782-9.675782 21.589844-21.601563 21.601563-3.976562 0-7.199219 3.222656-7.199219 7.199219 0 3.976562 3.222657 7.203124 7.199219 7.203124 11.925781.011719 21.589844 9.675782 21.601563 21.597657 0 3.976562 3.222656 7.203125 7.199218 7.203125 3.976563 0 7.203126-3.226563 7.203126-7.203125zm-14.421876-28.800781c2.734376-2.050782 5.167969-4.484376 7.21875-7.21875 2.054688 2.734374 4.488282 5.167968 7.222657 7.21875-2.734375 2.054687-5.167969 4.488281-7.222657 7.222656-2.050781-2.734375-4.484374-5.167969-7.21875-7.222656zm0 0"/><path d="m223.648438 201.601562c-11.925782-.015624-21.589844-9.675781-21.601563-21.601562 0-3.976562-3.222656-7.199219-7.199219-7.199219-3.976562 0-7.203125 3.222657-7.203125 7.199219-.011719 11.921875-9.675781 21.585938-21.597656 21.601562-3.980469 0-7.203125 3.222657-7.203125 7.199219 0 3.976563 3.222656 7.199219 7.203125 7.199219 11.921875.015625 21.585937 9.675781 21.597656 21.601562 0 3.976563 3.226563 7.199219 7.203125 7.199219 3.976563 0 7.199219-3.222656 7.199219-7.199219.011719-11.925781 9.675781-21.585937 21.601563-21.601562 3.976562 0 7.199218-3.222656 7.199218-7.199219 0-3.976562-3.222656-7.199219-7.199218-7.199219zm-28.800782 14.417969c-2.054687-2.734375-4.484375-5.164062-7.222656-7.21875 2.738281-2.054687 5.167969-4.484375 7.222656-7.222656 2.054688 2.738281 4.484375 5.167969 7.21875 7.222656-2.734375 2.054688-5.164062 4.484375-7.21875 7.21875zm0 0"/></svg>