<svg height="431.793pt" viewBox="1 1 431.793 431.793" width="431.793pt" xmlns="http://www.w3.org/2000/svg"><path d="m7.199219 7.199219h417.601562v417.601562h-417.601562zm0 0" fill="#fff69a"/><path d="m43.199219 187.199219h345.601562v57.601562h-345.601562zm0 0" fill="#fff"/><path d="m79.199219 90v-14.398438c0-5.964843-4.835938-10.800781-10.800781-10.800781h-21.597657c-5.964843 0-10.800781 4.835938-10.800781 10.800781v36c0 5.964844 4.835938 10.800782 10.800781 10.800782 5.964844 0 10.800781 4.832031 10.800781 10.796875v14.402343c0 5.964844 4.832032 10.800782 10.796876 10.800782h21.601562c5.964844 0 10.800781-4.835938 10.800781-10.800782v-36c0-5.964843-4.835937-10.800781-10.800781-10.800781s-10.800781-4.835937-10.800781-10.800781zm0 0" fill="#7d8d9c"/><path d="m43.199219 187.199219h72v57.601562h-72zm0 0" fill="#f24472"/><path d="m57.597656 352.800781 288-288 21.597656 21.601563-287.996093 287.996094zm0 0" fill="#dd3e46"/><path d="m46.800781 129.601562c1.988281 0 3.597657 1.613282 3.597657 3.597657v14.402343c.011718 9.933594 8.066406 17.988282 18 18h21.601562c9.9375-.011718 17.988281-8.066406 18-18v-36c-.011719-9.9375-8.0625-17.992187-18-18-1.988281-.003906-3.597656-1.613281-3.597656-3.601562v-14.398438c-.011719-9.9375-8.066406-17.992187-18-18h-21.601563c-9.9375.007813-17.988281 8.0625-18 18v36c.011719 9.933594 8.0625 17.988282 18 18zm-3.601562-54c.003906-1.988281 1.613281-3.597656 3.601562-3.601562h21.597657c1.988281.003906 3.597656 1.613281 3.601562 3.601562v14.398438c.007812 9.9375 8.0625 17.988281 18 18 1.984375.003906 3.597656 1.613281 3.597656 3.601562v36c0 1.984376-1.613281 3.597657-3.597656 3.597657h-21.601562c-1.988282-.003907-3.597657-1.613281-3.597657-3.597657v-14.402343c-.011719-9.9375-8.066406-17.988281-18-18-1.988281 0-3.597656-1.613281-3.601562-3.597657zm0 0"/><path d="m424.800781 0h-417.601562c-3.976563 0-7.199219 3.222656-7.199219 7.199219v417.601562c0 3.976563 3.222656 7.199219 7.199219 7.199219h417.601562c3.976563.003906 7.199219-3.21875 7.199219-7.195312 0-.003907 0-.003907 0-.003907v-417.601562c.003906-3.976563-3.21875-7.199219-7.195312-7.199219-.003907 0-.003907 0-.003907 0zm-7.199219 417.601562h-403.203124v-403.203124h403.203124zm0 0"/><path d="m43.199219 180c-3.976563 0-7.199219 3.222656-7.199219 7.199219v57.601562c0 3.976563 3.222656 7.199219 7.195312 7.199219h.003907 105.019531l-95.710938 95.710938c-2.808593 2.808593-2.8125 7.367187-.003906 10.175781.003906.003906.003906.003906.003906.003906l21.601563 21.601563c2.808594 2.8125 7.367187 2.8125 10.175781.003906.003906 0 .003906-.003906.003906-.003906l127.492188-127.488282h177.019531c3.976563 0 7.199219-3.222656 7.199219-7.199218 0 0 0 0 0-.003907v-57.601562c0-3.976563-3.222656-7.199219-7.195312-7.199219-.003907 0-.003907 0-.003907 0h-105.019531l88.507812-88.511719c2.8125-2.808593 2.816407-7.363281.003907-10.175781 0 0 0-.003906-.003907-.003906l-21.597656-21.601563c-2.8125-2.808593-7.367187-2.8125-10.179687-.003906 0 .003906 0 .003906-.003907.003906l-120.289062 120.292969zm7.199219 57.601562v-43.199218h57.601562v43.199218zm331.203124-43.199218v43.199218h-155.417968l43.199218-43.199218zm-36-119.421875 11.417969 11.417969-277.820312 277.820312-11.417969-11.417969zm-182.984374 162.621093h-40.21875v-43.199218h83.417968zm0 0"/></svg>