<svg height="431pt" viewBox="0 0 431 431.79945" width="431pt" xmlns="http://www.w3.org/2000/svg"><path d="m58 273.597656 50.398438-57.601562h179.996093l79.199219 86.398437 57.601562 14.402344v71.996094h-417.59375v-93.597657zm0 0" fill="#195c85"/><path d="m115.597656 7.199219h201.597656v158.398437h-201.597656zm0 0" fill="#36afad"/><path d="m353.195312 388.792969c0 19.882812-16.117187 36-36 36-19.882812 0-36-16.117188-36-36 0-19.882813 16.117188-36 36-36 19.882813 0 36 16.117187 36 36zm0 0" fill="#5a6470"/><path d="m317.195312 431.992188c-23.859374 0-43.199218-19.339844-43.199218-43.199219 0-23.855469 19.339844-43.199219 43.199218-43.199219 23.859376 0 43.199219 19.34375 43.199219 43.199219-.027343 23.847656-19.351562 43.175781-43.199219 43.199219zm0-71.996094c-15.90625 0-28.800781 12.890625-28.800781 28.796875s12.894531 28.800781 28.800781 28.800781 28.800782-12.894531 28.800782-28.800781c-.019532-15.898438-12.902344-28.78125-28.800782-28.796875zm0 0" fill="#5a6470"/><path d="m331.59375 388.792969c0 7.953125-6.445312 14.402343-14.398438 14.402343-7.953124 0-14.398437-6.449218-14.398437-14.402343s6.445313-14.398438 14.398437-14.398438c7.953126 0 14.398438 6.445313 14.398438 14.398438zm0 0" fill="#f4f4e6"/><path d="m317.195312 410.394531c-11.929687 0-21.601562-9.671875-21.601562-21.601562 0-11.929688 9.671875-21.597657 21.601562-21.597657 11.929688 0 21.601563 9.667969 21.601563 21.597657-.015625 11.925781-9.679687 21.589843-21.601563 21.601562zm0-28.800781c-3.976562 0-7.199218 3.222656-7.199218 7.199219 0 3.980469 3.222656 7.203125 7.199218 7.203125 3.976563 0 7.199219-3.222656 7.199219-7.203125-.003906-3.972657-3.222656-7.195313-7.199219-7.199219zm0 0" fill="#f4f4e6"/><path d="m122.796875 388.792969c0 19.882812-16.117187 36-35.996094 36-19.882812 0-36-16.117188-36-36 0-19.882813 16.117188-36 36-36 19.878907 0 35.996094 16.117187 35.996094 36zm0 0" fill="#5a6470"/><path d="m86.800781 431.992188c-23.859375 0-43.199219-19.339844-43.199219-43.199219 0-23.855469 19.339844-43.199219 43.199219-43.199219 23.855469 0 43.195313 19.34375 43.195313 43.199219-.023438 23.847656-19.351563 43.175781-43.195313 43.199219zm0-71.996094c-15.90625 0-28.800781 12.890625-28.800781 28.796875s12.894531 28.800781 28.800781 28.800781c15.902344 0 28.796875-12.894531 28.796875-28.800781-.015625-15.898438-12.898437-28.78125-28.796875-28.796875zm0 0" fill="#5a6470"/><path d="m101.199219 388.792969c0 7.953125-6.449219 14.402343-14.398438 14.402343-7.953125 0-14.402343-6.449218-14.402343-14.402343s6.449218-14.398438 14.402343-14.398438c7.949219 0 14.398438 6.445313 14.398438 14.398438zm0 0" fill="#f4f4e6"/><path d="m86.800781 410.394531c-11.929687 0-21.601562-9.671875-21.601562-21.601562 0-11.929688 9.671875-21.597657 21.601562-21.597657 11.925781 0 21.597657 9.667969 21.597657 21.597657-.011719 11.925781-9.675782 21.589843-21.597657 21.601562zm0-28.800781c-3.980469 0-7.203125 3.222656-7.203125 7.199219 0 3.980469 3.222656 7.203125 7.203125 7.203125 3.976563 0 7.199219-3.222656 7.199219-7.203125-.003906-3.972657-3.226562-7.195313-7.199219-7.199219zm0 0" fill="#f4f4e6"/><path d="m237.996094 244.796875h76.800781l52.796875 57.597656h-129.597656zm0 0" fill="#d2fffd"/><path d="m230.796875 323.996094h36v14.398437h-36zm0 0" fill="#36afad"/><path d="m101.199219 302.394531h100.796875v-57.597656h-71.996094c-11.25 11.246094-17.554688 17.550781-28.800781 28.800781zm0 0" fill="#d2fffd"/><path d="m396.394531 338.394531h28.800781v28.800781h-28.800781zm0 0" fill="#f4a519"/><path d="m7.601562 316.796875h28.796876v28.796875h-28.796876zm0 0" fill="#dd3e46"/><path d="m194.796875 165.597656h43.199219v50.398438h-43.199219zm0 0" fill="#d3843d"/><path d="m194.796875 388.792969h43.199219v36h-43.199219zm0 0" fill="#d3843d"/><path d="m173.195312 36h28.800782v100.796875h-28.800782zm0 0" fill="#fdbd40"/><path d="m230.796875 93.597656h-28.800781v-57.597656h28.800781c15.90625 0 28.800781 12.894531 28.800781 28.800781 0 15.902344-12.894531 28.796875-28.800781 28.796875zm0 0" fill="#ffd782"/><path d="m223.597656 57.597656h14.398438v14.402344h-14.398438zm0 0" fill="#195c85"/><path d="m317.195312 367.195312c-11.929687 0-21.601562 9.671876-21.601562 21.597657 0 11.929687 9.671875 21.601562 21.601562 21.601562 11.929688 0 21.601563-9.671875 21.601563-21.601562-.015625-11.921875-9.679687-21.585938-21.601563-21.597657zm0 28.800782c-3.976562 0-7.199218-3.226563-7.199218-7.203125 0-3.976563 3.222656-7.199219 7.199218-7.199219 3.976563 0 7.199219 3.222656 7.199219 7.199219-.003906 3.976562-3.222656 7.199219-7.199219 7.203125zm0 0"/><path d="m86.800781 367.195312c-11.929687 0-21.601562 9.671876-21.601562 21.597657 0 11.929687 9.671875 21.601562 21.601562 21.601562 11.925781 0 21.597657-9.671875 21.597657-21.601562-.011719-11.921875-9.675782-21.585938-21.597657-21.597657zm0 28.800782c-3.980469 0-7.203125-3.226563-7.203125-7.203125 0-3.976563 3.222656-7.199219 7.203125-7.199219 3.976563 0 7.199219 3.222656 7.199219 7.199219-.003906 3.976562-3.226562 7.199219-7.199219 7.203125zm0 0"/><path d="m230.796875 323.996094h36v14.398437h-36zm0 0"/><path d="m94 270.609375v38.984375h115.195312v-71.996094h-82.179687zm100.796875-18.613281v43.199218h-86.398437v-18.617187l24.582031-24.582031zm0 0"/><path d="m266.796875 64.800781c-.023437-19.875-16.128906-35.976562-36-36h-64.800781v115.195313h43.199218v-43.195313h21.601563c19.871094-.027343 35.976563-16.128906 36-36zm-72 64.796875h-14.398437v-86.398437h14.398437zm14.398437-86.398437h21.601563c11.929687 0 21.601563 9.671875 21.601563 21.601562 0 11.929688-9.671876 21.597657-21.601563 21.597657h-21.601563zm0 0"/><path d="m223.597656 57.597656h14.398438v14.402344h-14.398438zm0 0"/><path d="m291.558594 208.796875h-46.363282v-36h79.199219v-172.796875h-215.996093v172.796875h79.199218v36h-82.46875l-51.46875 58.824219-53.261718 22.828125v105.546875h43.851562c3.945312 23.496094 26.195312 39.347656 49.695312 35.402344 18.140626-3.046876 32.355469-17.261719 35.402344-35.402344h58.25v35.996094h57.597656v-35.996094h29.449219c3.949219 23.496094 26.195313 39.347656 49.695313 35.402344 18.140625-3.046876 32.359375-17.261719 35.402344-35.402344h72.652343v-84.824219l-60.957031-15.238281zm59.667968 86.398437h-106.03125v-43.199218h66.433594zm-228.429687-136.796874v-144h187.199219v144zm79.199219 14.398437h28.800781v36h-28.800781zm-187.195313 151.199219h14.398438v14.398437h-14.398438zm72 93.597656c-15.90625 0-28.800781-12.894531-28.800781-28.800781s12.894531-28.796875 28.800781-28.796875c15.902344 0 28.796875 12.890625 28.796875 28.796875-.015625 15.898437-12.898437 28.785156-28.796875 28.800781zm143.996094 0h-28.800781v-21.601562h28.800781zm86.398437 0c-15.90625 0-28.800781-12.894531-28.800781-28.800781s12.894531-28.796875 28.800781-28.796875 28.800782 12.890625 28.800782 28.796875c-.015625 15.898437-12.902344 28.785156-28.800782 28.800781zm100.796876-57.597656h-14.398438v-14.402344h14.398438zm0-28.800782h-28.796876v43.199219h28.796876v7.199219h-58.25c-3.945313-23.5-26.195313-39.347656-49.695313-35.402344-18.140625 3.046875-32.355469 17.261719-35.402344 35.402344h-145.296875c-3.945312-23.5-26.195312-39.347656-49.695312-35.402344-18.140625 3.046875-32.355469 17.261719-35.402344 35.402344h-29.449219v-28.800781h28.796875v-43.199219h-28.796875v-9.652344l47.535157-20.371094 49.332031-56.375h173.5625l13.199219 14.402344h-67.632813v71.996094h135.90625l51.289063 12.824219zm0 0"/></svg>