<svg height="431pt" viewBox="-28 1 431 431.792" width="431pt" xmlns="http://www.w3.org/2000/svg"><path d="m7.609375 7.199219h360v417.601562h-360zm0 0" fill="#f4f4e6"/><path d="m36.410156 36h302.402344v302.402344h-302.402344zm0 0" fill="#2d75bb"/><path d="m108.410156 252h28.800782v86.398438h-28.800782zm0 0" fill="#ffd782"/><path d="m238.011719 252h28.796875v86.398438h-28.796875zm0 0" fill="#ffd782"/><path d="m137.210938 252h100.800781v86.398438h-100.800781zm0 0" fill="#87cee9"/><path d="m166.011719 252h43.199219v28.800781h-43.199219zm0 0" fill="#ffd782"/><path d="m187.609375 223.199219c-27.835937 0-50.398437-22.5625-50.398437-50.398438v-57.601562c0-27.835938 22.5625-50.398438 50.398437-50.398438s50.402344 22.5625 50.402344 50.398438v57.601562c0 27.835938-22.566407 50.398438-50.402344 50.398438zm0 0" fill="#ffd782"/><g fill="#394d5c"><path d="m158.808594 136.800781h14.402344v14.398438h-14.402344zm0 0"/><path d="m202.011719 136.800781h14.398437v14.398438h-14.398437zm0 0"/><path d="m187.609375 64.800781c-27.835937 0-50.398437 22.5625-50.398437 50.398438h100.800781c0-27.835938-22.566407-50.398438-50.402344-50.398438zm0 0"/><path d="m187.609375 201.601562c-1.421875 0-2.8125-.421874-3.992187-1.210937l-21.601563-14.398437c-3.328125-2.175782-4.265625-6.636719-2.09375-9.964844 2.171875-3.332032 6.636719-4.269532 9.964844-2.09375.039062.023437.078125.050781.117187.078125l17.605469 11.738281 17.605469-11.738281c3.332031-2.175781 7.792968-1.238281 9.964844 2.089843 2.144531 3.285157 1.265624 7.683594-1.976563 9.890626l-21.601563 14.398437c-1.179687.789063-2.570312 1.210937-3.992187 1.210937zm0 0"/></g><path d="m374.808594 0h-374.398438v432h374.398438zm-14.398438 417.601562h-345.601562v-403.203124h345.601562zm0 0"/><path d="m158.808594 136.800781h14.402344v14.398438h-14.402344zm0 0"/><path d="m202.011719 136.800781h14.398437v14.398438h-14.398437zm0 0"/><path d="m160.019531 176.007812c-2.207031 3.304688-1.316406 7.769532 1.988281 9.976563.003907.003906.007813.003906.007813.007813l21.601563 14.398437c2.417968 1.613281 5.570312 1.613281 7.988281 0l21.601562-14.398437c3.328125-2.175782 4.261719-6.636719 2.085938-9.964844-2.175781-3.332032-6.636719-4.265625-9.964844-2.089844-.039063.023438-.074219.046875-.109375.074219l-17.605469 11.738281-17.609375-11.738281c-3.292968-2.210938-7.753906-1.328125-9.964844 1.964843-.007812.011719-.011718.019532-.019531.03125zm0 0"/><path d="m187.609375 230.398438c31.796875-.035157 57.5625-25.800782 57.601563-57.597657v-57.601562c0-31.808594-25.789063-57.597657-57.601563-57.597657s-57.597656 25.789063-57.597656 57.597657v57.601562c.035156 31.796875 25.800781 57.5625 57.597656 57.597657zm7.253906-157.742188c.285157.050781.574219.078125.859375.132812 2.199219.429688 4.363282 1.03125 6.472656 1.800782.359376.128906.71875.253906 1.074219.390625 2.027344.792969 3.988281 1.734375 5.871094 2.820312.320313.1875.632813.386719.945313.578125 1.878906 1.136719 3.667968 2.417969 5.351562 3.828125.195312.160157.371094.34375.5625.511719 1.707031 1.480469 3.296875 3.09375 4.757812 4.824219l.125.136719c1.433594 1.753906 2.730469 3.621093 3.875 5.582031.160157.269531.335938.53125.492188.804687 1.066406 1.910156 1.984375 3.894532 2.75 5.941406.140625.375.28125.746094.410156 1.125.722656 2.082032 1.28125 4.214844 1.675782 6.382813.027343.160156.046874.324219.074218.484375h-85.101562c.027344-.160156.046875-.324219.074218-.484375.394532-2.167969.953126-4.300781 1.675782-6.382813.128906-.378906.269531-.75.410156-1.121093.765625-2.050781 1.683594-4.039063 2.753906-5.949219.152344-.269531.324219-.527344.484375-.796875 1.144531-1.960937 2.441407-3.828125 3.882813-5.589844l.121094-.136719c1.460937-1.726562 3.050781-3.339843 4.757812-4.824218.191406-.167969.371094-.347656.5625-.511719 1.683594-1.410156 3.472656-2.6875 5.351562-3.828125.3125-.191406.625-.390625.945313-.574219 1.882813-1.085937 3.847656-2.03125 5.871094-2.820312.355469-.140625.714843-.265625 1.074219-.394531 2.105468-.765626 4.273437-1.367188 6.472656-1.796876.285156-.054687.574218-.085937.859375-.132812 4.796875-.875 9.710937-.875 14.507812 0zm-50.453125 49.742188h86.398438v50.402343c0 23.859375-19.339844 43.199219-43.199219 43.199219s-43.199219-19.339844-43.199219-43.199219zm0 0"/><path d="m346.011719 345.601562v-316.800781h-316.800781v316.800781zm-216-14.402343h-14.402344v-72h14.402344zm14.398437-72h14.398438v21.601562c0 3.976563 3.222656 7.199219 7.199218 7.199219h43.203126c3.972656 0 7.199218-3.222656 7.199218-7.195312 0-.003907 0-.003907 0-.003907v-21.601562h14.398438v72h-86.398438zm28.800782 0h28.800781v14.402343h-28.800781zm72 72v-72h14.398437v72zm-201.601563-288h288v288h-57.597656v-79.199219c0-3.976562-3.222657-7.199219-7.199219-7.199219 0 0 0 0-.003906 0h-158.398438c-3.976562 0-7.199218 3.21875-7.199218 7.195313v.003906 79.199219h-57.601563zm0 0"/></svg>