<svg height="431pt" viewBox="1 -56 431.793 431" width="431pt" xmlns="http://www.w3.org/2000/svg"><path d="m187.199219 95.609375h57.601562c55.667969 0 100.800781 45.128906 100.800781 100.800781v43.199219h-259.203124v-43.199219c0-55.671875 45.132812-100.800781 100.800781-100.800781zm0 0" fill="#f49e21"/><path d="m108 239.609375h216v28.796875h-216zm0 0" fill="#fcf05a"/><path d="m374.398438 311.609375h-316.796876l28.796876-43.203125h259.203124zm0 0" fill="#f49e21"/><path d="m201.601562 59.605469h28.796876v36.003906h-28.796876zm0 0" fill="#fcf05a"/><path d="m259.199219 59.605469h-86.398438c-7.953125 0-14.402343-6.445313-14.402343-14.398438s6.449218-14.398437 14.402343-14.398437h86.398438c7.953125 0 14.402343 6.445312 14.402343 14.398437s-6.449218 14.398438-14.402343 14.398438zm0 0" fill="#f49e21"/><path d="m424.800781 318.808594h-417.601562c-3.976563 0-7.199219-3.222656-7.199219-7.199219 0-3.980469 3.222656-7.203125 7.199219-7.203125h417.601562c3.976563 0 7.199219 3.222656 7.199219 7.203125 0 3.976563-3.222656 7.199219-7.199219 7.199219zm0 0" fill="#195c85"/><path d="m129.601562 182.007812c-3.976562 0-7.199218-3.21875-7.203124-7.191406 0-.003906 0-.003906 0-.007812.023437-19.875 16.128906-35.976563 36-36 3.980468 0 7.203124 3.222656 7.203124 7.199218 0 3.976563-3.222656 7.199219-7.203124 7.199219-11.921876.015625-21.585938 9.675781-21.597657 21.601563 0 3.972656-3.21875 7.199218-7.191406 7.199218-.003906 0-.007813 0-.007813 0zm0 0" fill="#fff"/><g fill="#e9686a"><path d="m64.800781 131.609375c-1.910156 0-3.742187-.757813-5.089843-2.113281l-28.800782-28.796875c-2.785156-2.835938-2.746094-7.394531.089844-10.183594 2.800781-2.75 7.289062-2.75 10.089844 0l28.800781 28.800781c2.8125 2.8125 2.808594 7.371094-.003906 10.183594-1.347657 1.347656-3.175781 2.105469-5.085938 2.109375zm0 0"/><path d="m64.800781 160.40625h-28.800781c-3.976562 0-7.199219-3.222656-7.199219-7.199219 0-3.976562 3.222657-7.199219 7.199219-7.199219h28.800781c3.976563 0 7.199219 3.222657 7.199219 7.199219 0 3.976563-3.222656 7.199219-7.199219 7.199219zm0 0"/><path d="m367.199219 131.609375c-3.976563-.003906-7.199219-3.226563-7.195313-7.203125 0-1.910156.757813-3.738281 2.105469-5.089844l28.800781-28.796875c2.785156-2.835937 7.34375-2.878906 10.179688-.09375 2.835937 2.789063 2.878906 7.347657.09375 10.183594-.03125.03125-.0625.058594-.09375.089844l-28.796875 28.800781c-1.351563 1.351562-3.183594 2.109375-5.09375 2.109375zm0 0"/><path d="m396 160.40625h-28.800781c-3.976563 0-7.199219-3.222656-7.199219-7.199219 0-3.976562 3.222656-7.199219 7.199219-7.199219h28.800781c3.976562 0 7.199219 3.222657 7.199219 7.199219 0 3.976563-3.222657 7.199219-7.199219 7.199219zm0 0"/></g><path d="m334.417969 66.050781-6.4375-12.886719 10.417969-5.207031v-37.445312l50.402343-10.085938v49.230469l-18.382812 9.195312-6.4375-12.886718 10.417969-5.207032v-22.765624l-21.597657 4.3125v34.550781zm0 0" fill="#195c85"/><path d="m82.417969 58.851562-6.4375-12.886718 10.417969-5.207032v-28.800781l18.382812-9.191406 6.4375 12.886719-10.417969 5.203125v28.800781zm0 0" fill="#195c85"/><path d="m424.800781 304.410156h-46.546875l-26.664062-39.996094c-1.335938-2.003906-3.582032-3.207031-5.988282-3.207031h-14.402343v-14.398437h14.402343c3.972657 0 7.195313-3.21875 7.199219-7.195313 0 0 0-.003906 0-.007812v-43.199219c-.066406-59.617188-48.378906-107.933594-108-108h-7.199219v-21.597656h21.597657c11.929687 0 21.601562-9.671875 21.601562-21.601563 0-11.929687-9.671875-21.601562-21.601562-21.601562h-86.398438c-11.929687 0-21.601562 9.671875-21.601562 21.601562 0 11.929688 9.671875 21.601563 21.601562 21.601563h21.601563v21.597656h-7.203125c-59.617188.066406-107.933594 48.382812-108 108v43.199219c0 3.976562 3.21875 7.199219 7.195312 7.203125h.007813 14.398437v14.398437h-14.402343c-2.40625 0-4.652344 1.203125-5.988282 3.207031l-26.664062 39.996094h-46.546875c-3.976563 0-7.199219 3.222656-7.199219 7.199219s3.222656 7.199219 7.199219 7.199219h417.601562c3.976563 0 7.199219-3.222656 7.199219-7.199219s-3.222656-7.199219-7.199219-7.199219zm-259.199219-259.203125c0-3.976562 3.222657-7.195312 7.199219-7.199219h86.398438c3.976562 0 7.199219 3.222657 7.199219 7.199219 0 3.976563-3.222657 7.199219-7.199219 7.199219h-86.398438c-3.976562 0-7.199219-3.222656-7.199219-7.199219zm43.199219 21.601563h14.398438v21.601562h-14.398438zm-115.199219 129.601562c.058594-51.671875 41.929688-93.542968 93.597657-93.601562h57.601562c51.667969.058594 93.539063 41.929687 93.597657 93.601562v36h-244.796876zm21.597657 50.398438h201.601562v14.398437h-201.601562zm-44.148438 57.601562 19.203125-28.800781h251.492188l19.203125 28.800781zm0 0"/><path d="m129.601562 182.007812c3.972657 0 7.195313-3.21875 7.199219-7.191406 0-.003906 0-.007812 0-.007812.011719-11.925782 9.675781-21.589844 21.601563-21.601563 3.976562 0 7.199218-3.222656 7.199218-7.199219 0-3.976562-3.222656-7.203124-7.199218-7.203124-19.875.027343-35.976563 16.128906-36 36.003906-.003906 3.972656 3.214844 7.195312 7.191406 7.199218zm0 0"/><path d="m59.710938 129.496094c2.8125 2.808594 7.371093 2.804687 10.179687-.011719 2.800781-2.808594 2.800781-7.359375 0-10.167969l-28.800781-28.800781c-2.8125-2.804687-7.371094-2.796875-10.179688.015625-2.800781 2.808594-2.800781 7.355469 0 10.167969zm0 0"/><path d="m36 160.40625h28.800781c3.976563 0 7.199219-3.222656 7.199219-7.199219 0-3.976562-3.222656-7.199219-7.199219-7.199219h-28.800781c-3.976562 0-7.199219 3.222657-7.199219 7.199219 0 3.976563 3.222657 7.199219 7.199219 7.199219zm0 0"/><path d="m401.089844 90.515625c-2.808594-2.808594-7.363282-2.8125-10.175782-.003906 0 .003906-.003906.003906-.003906.003906l-28.800781 28.800781c-2.8125 2.808594-2.820313 7.367188-.011719 10.179688 2.808594 2.816406 7.367188 2.820312 10.183594.011718.003906-.003906.007812-.007812.011719-.011718l28.796875-28.796875c2.8125-2.808594 2.816406-7.367188.003906-10.179688 0 0 0 0-.003906-.003906zm0 0"/><path d="m367.199219 146.007812c-3.976563 0-7.199219 3.222657-7.199219 7.199219 0 3.976563 3.222656 7.203125 7.199219 7.203125h28.800781c3.976562 0 7.199219-3.226562 7.199219-7.203125 0-3.976562-3.222657-7.199219-7.199219-7.199219zm0 0"/><path d="m338.398438 47.957031-10.417969 5.207031 6.4375 12.886719 18.382812-9.195312v-34.550781l21.597657-4.3125v22.765624l-10.417969 5.207032 6.4375 12.886718 18.382812-9.195312v-49.230469l-50.402343 10.085938zm0 0"/><path d="m100.800781 49.65625v-28.800781l10.417969-5.203125-6.4375-12.886719-18.382812 9.191406v28.800781l-10.417969 5.207032 6.4375 12.886718zm0 0"/></svg>