<svg height="431pt" viewBox="-14 1 431 431.795" width="431pt" xmlns="http://www.w3.org/2000/svg"><path d="m50.804688 295.203125h72v129.597656h-72zm0 0" fill="#3c89af"/><path d="m166.003906 201.601562c0-67.597656-35.457031-122.398437-79.199218-122.398437-43.742188 0-79.199219 54.800781-79.199219 122.398437 0 67.601563 35.457031 122.402344 79.199219 122.402344 43.742187 0 79.199218-54.800781 79.199218-122.402344zm0 0" fill="#195c85"/><path d="m266.804688 295.203125h72v129.597656h-72zm0 0" fill="#3c89af"/><path d="m374.804688 86.402344c-11.929688 0-21.601563 9.667968-21.601563 21.597656v.003906 136.796875h-28.800781v-136.796875c0-11.933594-9.667969-21.601562-21.597656-21.601562-11.929688 0-21.601563 9.667968-21.601563 21.601562v136.796875h-28.800781v-136.796875c0-11.933594-9.671875-21.601562-21.601563-21.601562-11.929687 0-21.597656 9.667968-21.597656 21.601562v158.398438c0 15.90625 12.894531 28.800781 28.796875 28.800781h129.601562c15.90625 0 28.800782-12.894531 28.800782-28.800781v-158.398438c0-11.933594-9.667969-21.601562-21.597656-21.601562zm0 0" fill="#195c85"/><g fill="#fcf05a"><path d="m180.402344 43.203125c-19.871094-.023437-35.972656-16.128906-36-36 0-3.980469 3.226562-7.203125 7.203125-7.203125 3.976562 0 7.199219 3.222656 7.199219 7.203125.011718 11.921875 9.675781 21.585937 21.601562 21.597656 3.976562 0 7.199219 3.226563 7.199219 7.203125 0 3.976563-3.226563 7.199219-7.203125 7.199219zm0 0"/><path d="m180.402344 43.203125c-19.871094-.023437-35.972656-16.128906-36-36 0-3.980469 3.226562-7.203125 7.203125-7.203125 3.976562 0 7.199219 3.222656 7.199219 7.203125.011718 11.921875 9.675781 21.585937 21.601562 21.597656 3.976562 0 7.199219 3.226563 7.199219 7.203125 0 3.976563-3.226563 7.199219-7.203125 7.199219zm0 0"/><path d="m122.804688 43.203125c-3.976563 0-7.203126-3.226563-7.203126-7.203125s3.226563-7.199219 7.203126-7.199219c11.921874-.011719 21.585937-9.675781 21.597656-21.601562 0-3.976563 3.226562-7.199219 7.203125-7.199219 3.976562 0 7.199219 3.222656 7.199219 7.199219-.023438 19.875-16.128907 35.980469-36 36.003906zm0 0"/><path d="m151.601562 72c-3.976562 0-7.199218-3.222656-7.199218-7.199219.023437-19.871093 16.128906-35.976562 36-36 3.976562 0 7.203125 3.222657 7.203125 7.199219s-3.226563 7.203125-7.203125 7.203125c-11.921875.011719-21.585938 9.675781-21.601563 21.597656.003907 3.976563-3.21875 7.199219-7.199219 7.199219zm0 0"/><path d="m151.601562 72c-3.976562 0-7.199218-3.222656-7.199218-7.199219.023437-19.871093 16.128906-35.976562 36-36 3.976562 0 7.203125 3.222657 7.203125 7.199219s-3.226563 7.203125-7.203125 7.203125c-11.921875.011719-21.585938 9.675781-21.601563 21.597656.003907 3.976563-3.21875 7.199219-7.199219 7.199219zm0 0"/><path d="m151.601562 72c-3.976562 0-7.199218-3.222656-7.199218-7.199219-.011719-11.921875-9.675782-21.585937-21.601563-21.601562-3.976562 0-7.199219-3.222657-7.199219-7.199219s3.222657-7.199219 7.199219-7.199219c19.875.023438 35.976563 16.125 36 36 .003907 3.976563-3.21875 7.199219-7.199219 7.199219zm0 0"/></g><path d="m43.601562 172.800781c-3.976562 0-7.199218-3.222656-7.199218-7.199219 0-28.734374 12.382812-50.398437 28.800781-50.398437 3.976563 0 7.199219 3.222656 7.199219 7.199219 0 3.976562-3.222656 7.199218-7.199219 7.199218-5.871094 0-14.402344 14.023438-14.402344 36 .003907 3.976563-3.21875 7.199219-7.199219 7.199219zm0 0" fill="#fff"/><path d="m43.601562 313.667969v111.132812c0 3.976563 3.226563 7.203125 7.203126 7.203125h72c3.972656 0 7.199218-3.222656 7.199218-7.203125v-111.132812c25.78125-22.453125 43.199219-64.222657 43.199219-112.066407 0-71.460937-38.757813-129.601562-86.398437-129.601562-47.640626 0-86.398438 58.140625-86.398438 129.601562-.003906 47.84375 17.417969 89.613282 43.195312 112.066407zm72.003907 103.933593h-57.601563v-93.960937c8.824219 4.863281 18.722656 7.460937 28.800782 7.5625 10.078124-.101563 19.972656-2.699219 28.796874-7.5625v93.960937zm-28.800781-331.199218c39.703124 0 72 51.679687 72 115.199218 0 63.519532-32.296876 115.199219-72 115.199219-39.703126 0-72-51.679687-72-115.199219 0-63.519531 32.296874-115.199218 72-115.199218zm0 0"/><path d="m238.003906 302.402344h21.601563v122.398437c0 3.976563 3.222656 7.203125 7.199219 7.203125h72c3.976562 0 7.199218-3.222656 7.199218-7.203125v-122.398437h21.601563c19.871093-.023438 35.976562-16.128906 36-36v-158.398438c0-15.90625-12.894531-28.800781-28.800781-28.800781s-28.800782 12.894531-28.800782 28.800781v129.597656h-14.398437v-129.597656c0-15.90625-12.894531-28.800781-28.800781-28.800781s-28.796876 12.894531-28.796876 28.800781v129.597656h-14.402343v-129.597656c0-15.90625-12.894531-28.800781-28.800781-28.800781-15.902344 0-28.796876 12.894531-28.796876 28.800781v158.398438c.019532 19.871094 16.125 35.976562 35.996094 36zm93.601563 115.199218h-57.601563v-115.199218h57.601563zm-115.203125-309.597656c0-7.953125 6.449218-14.402344 14.402344-14.402344 7.953124 0 14.398437 6.449219 14.398437 14.402344v136.796875c0 3.976563 3.222656 7.199219 7.199219 7.203125h28.800781c3.976563 0 7.199219-3.226562 7.199219-7.203125v-136.796875c0-7.953125 6.449218-14.402344 14.402344-14.402344 7.953124 0 14.398437 6.449219 14.398437 14.402344v136.796875c0 3.976563 3.222656 7.199219 7.203125 7.203125h28.796875c3.976563 0 7.199219-3.226562 7.203125-7.203125v-136.796875c0-7.953125 6.445312-14.402344 14.398438-14.402344 7.953124 0 14.398437 6.449219 14.398437 14.402344v158.398438c-.011719 11.921875-9.675781 21.585937-21.597656 21.601562h-129.601563c-11.921875-.015625-21.585937-9.675781-21.601562-21.601562zm0 0"/><path d="m122.804688 43.203125c11.921874.011719 21.585937 9.675781 21.597656 21.597656 0 3.976563 3.226562 7.203125 7.203125 7.203125 3.976562 0 7.199219-3.226562 7.199219-7.203125.011718-11.921875 9.675781-21.585937 21.601562-21.597656 3.976562 0 7.199219-3.226563 7.199219-7.203125s-3.222657-7.199219-7.199219-7.199219c-11.925781-.011719-21.589844-9.675781-21.601562-21.601562 0-3.976563-3.222657-7.199219-7.199219-7.199219-3.976563 0-7.203125 3.222656-7.203125 7.199219-.011719 11.925781-9.675782 21.589843-21.597656 21.601562-3.976563 0-7.203126 3.222657-7.203126 7.199219s3.226563 7.203125 7.203126 7.203125zm28.796874-14.625c2.101563 2.824219 4.601563 5.324219 7.425782 7.425781-2.824219 2.097656-5.324219 4.597656-7.425782 7.421875-2.097656-2.824219-4.597656-5.324219-7.421874-7.421875 2.824218-2.101562 5.324218-4.601562 7.421874-7.425781zm0 0"/><path d="m50.804688 165.601562c0-21.976562 8.527343-36 14.398437-36 3.976563 0 7.199219-3.222656 7.199219-7.199218 0-3.976563-3.222656-7.203125-7.199219-7.203125-16.417969 0-28.800781 21.667969-28.800781 50.402343 0 3.976563 3.226562 7.199219 7.203125 7.199219 3.976562 0 7.199219-3.222656 7.199219-7.199219zm0 0"/></svg>