<svg height="431pt" viewBox="1 -43 431.792 431" width="431pt" xmlns="http://www.w3.org/2000/svg"><path d="m7.199219 7.617188h417.601562v302.402343h-417.601562zm0 0" fill="#195c85"/><path d="m36 310.019531h86.398438v28.796875h-86.398438zm0 0" fill="#143441"/><path d="m309.601562 310.019531h86.398438v28.796875h-86.398438zm0 0" fill="#143441"/><path d="m50.398438 36.417969h331.203124v244.800781h-331.203124zm0 0" fill="#cfdfe8"/><path d="m36 65.21875h28.800781v64.796875h-28.800781zm0 0" fill="#f49e21"/><path d="m36 187.617188h28.800781v64.800781h-28.800781zm0 0" fill="#f49e21"/><path d="m295.199219 79.617188h57.601562v115.199218h-57.601562zm0 0" fill="#f4f4e6"/><path d="m316.800781 158.816406h14.398438v14.402344h-14.398438zm0 0" fill="#195c85"/><path d="m316.800781 130.015625h14.398438v14.402344h-14.398438zm0 0" fill="#195c85"/><path d="m316.800781 101.21875h14.398438v14.398438h-14.398438zm0 0" fill="#195c85"/><path d="m237.601562 130.015625h57.597657v43.203125h-57.597657zm0 0" fill="#394d5c"/><path d="m352.800781 230.816406h-57.601562c-3.976563 0-7.199219-3.222656-7.199219-7.199218 0-3.976563 3.222656-7.199219 7.199219-7.199219h57.601562c3.976563 0 7.199219 3.222656 7.199219 7.199219 0 3.976562-3.222656 7.199218-7.199219 7.199218zm0 0" fill="#195c85"/><g fill="#7d8d9c"><path d="m216 108.417969c-3.976562 0-7.199219-3.222657-7.199219-7.199219 0 0 0 0 0-.003906v-21.597656c0-3.976563 3.222657-7.203126 7.199219-7.203126s7.199219 3.226563 7.199219 7.203126v21.597656c.003906 3.976562-3.21875 7.199218-7.195313 7.203125zm0 0"/><path d="m216 230.816406c-3.976562.003906-7.199219-3.21875-7.199219-7.195312v-.003906-21.601563c0-3.976563 3.222657-7.199219 7.199219-7.199219s7.199219 3.222656 7.199219 7.199219v21.601563c.003906 3.976562-3.21875 7.199218-7.195313 7.199218zm0 0"/><path d="m165.601562 158.816406h-21.601562c-3.976562 0-7.199219-3.222656-7.199219-7.199218 0-3.976563 3.222657-7.199219 7.199219-7.199219h21.601562c3.976563 0 7.199219 3.222656 7.199219 7.199219 0 3.976562-3.222656 7.199218-7.199219 7.199218zm0 0"/><path d="m266.398438 151.617188c0 27.835937-22.5625 50.402343-50.398438 50.402343s-50.398438-22.566406-50.398438-50.402343c0-27.835938 22.5625-50.398438 50.398438-50.398438s50.398438 22.5625 50.398438 50.398438zm0 0"/><path d="m216 209.21875c-31.8125 0-57.601562-25.789062-57.601562-57.601562s25.789062-57.597657 57.601562-57.597657 57.601562 25.785157 57.601562 57.597657c-.039062 31.796874-25.804687 57.5625-57.601562 57.601562zm0-100.800781c-23.859375 0-43.199219 19.339843-43.199219 43.199219 0 23.859374 19.339844 43.199218 43.199219 43.199218s43.199219-19.339844 43.199219-43.199218c-.027344-23.847657-19.351563-43.175782-43.199219-43.199219zm0 0"/></g><path d="m237.601562 151.617188c0 11.929687-9.671874 21.601562-21.601562 21.601562s-21.601562-9.671875-21.601562-21.601562c0-11.929688 9.671874-21.601563 21.601562-21.601563s21.601562 9.671875 21.601562 21.601563zm0 0" fill="#cfdfe8"/><path d="m424.800781.417969h-417.601562c-3.976563-.003907-7.199219 3.21875-7.199219 7.195312v.003907 302.402343c0 3.972657 3.222656 7.199219 7.195312 7.199219h.003907 21.601562v21.601562c0 3.972657 3.21875 7.199219 7.195313 7.199219h.003906 86.398438c3.976562 0 7.199218-3.222656 7.199218-7.199219v-21.601562h172.800782v21.601562c0 3.972657 3.222656 7.199219 7.199218 7.199219h86.402344c3.972656 0 7.199219-3.222656 7.199219-7.199219v-21.601562h21.601562c3.976563 0 7.199219-3.222656 7.199219-7.199219v-302.402343c0-3.976563-3.222656-7.199219-7.199219-7.199219zm-309.601562 331.199219h-72v-14.398438h72zm273.601562 0h-72v-14.398438h72zm28.800781-28.800782h-403.203124v-288h403.203124zm0 0"/><path d="m36 259.617188h7.199219v21.601562c0 3.976562 3.222656 7.199219 7.199219 7.199219h331.203124c3.976563 0 7.199219-3.222657 7.199219-7.195313 0-.003906 0-.003906 0-.003906v-244.800781c0-3.976563-3.222656-7.199219-7.195312-7.203125-.003907 0-.003907 0-.003907 0h-331.203124c-3.972657 0-7.199219 3.222656-7.199219 7.199218v.003907 21.597656h-7.199219c-3.976562 0-7.199219 3.222656-7.199219 7.199219v64.800781c-.003906 3.976563 3.21875 7.199219 7.195313 7.199219h.003906 7.199219v43.203125h-7.199219c-3.976562-.003907-7.199219 3.21875-7.203125 7.195312v.003907 64.800781c0 3.972656 3.222656 7.199219 7.199219 7.199219zm7.199219-187.199219h14.402343v50.398437h-14.402343zm14.402343 64.800781h7.199219c3.976563 0 7.199219-3.222656 7.199219-7.199219 0 0 0 0 0-.003906v-64.796875c0-3.976562-3.222656-7.203125-7.195312-7.203125-.003907 0-.003907 0-.003907 0h-7.199219v-14.398437h316.796876v230.398437h-316.796876v-14.398437h7.199219c3.976563 0 7.199219-3.222657 7.199219-7.199219v-64.800781c0-3.976563-3.222656-7.199219-7.195312-7.203126-.003907 0-.003907 0-.003907 0h-7.199219zm-14.402343 57.597656h14.402343v50.402344h-14.402343zm0 0"/><path d="m316.800781 158.816406h14.398438v14.402344h-14.398438zm0 0"/><path d="m316.800781 130.015625h14.398438v14.402344h-14.398438zm0 0"/><path d="m316.800781 101.21875h14.398438v14.398438h-14.398438zm0 0"/><path d="m216 180.417969c15.90625 0 28.800781-12.894531 28.800781-28.800781s-12.894531-28.800782-28.800781-28.800782-28.800781 12.894532-28.800781 28.800782c.019531 15.898437 12.902343 28.785156 28.800781 28.800781zm0-43.199219c7.953125 0 14.398438 6.445312 14.398438 14.398438 0 7.953124-6.445313 14.398437-14.398438 14.398437s-14.398438-6.445313-14.398438-14.398437c.007813-7.949219 6.449219-14.390626 14.398438-14.398438zm0 0"/><path d="m352.800781 216.417969h-57.601562c-3.976563 0-7.199219 3.222656-7.199219 7.199219 0 3.976562 3.222656 7.199218 7.199219 7.199218h57.601562c3.976563 0 7.199219-3.222656 7.199219-7.199218 0-3.976563-3.222656-7.199219-7.199219-7.199219zm0 0"/><path d="m144 158.816406h14.902344c3.320312 26.058594 23.835937 46.578125 49.898437 49.902344v14.898438c0 3.976562 3.222657 7.199218 7.199219 7.199218s7.203125-3.222656 7.203125-7.199218v-14.898438c17.839844-2.273438 33.59375-12.738281 42.605469-28.300781h22.191406v14.398437c0 3.976563 3.222656 7.199219 7.195312 7.203125h.003907 57.601562c3.976563 0 7.199219-3.222656 7.199219-7.199219 0 0 0 0 0-.003906v-115.199218c0-3.976563-3.222656-7.199219-7.195312-7.199219-.003907 0-.003907 0-.003907 0h-57.601562c-3.976563-.003907-7.199219 3.21875-7.199219 7.195312v.003907 43.199218h-22.195312c-9.007813-15.5625-24.765626-26.03125-42.605469-28.300781v-14.898437c0-3.976563-3.222657-7.203126-7.199219-7.203126s-7.199219 3.226563-7.199219 7.203126v14.898437c-26.0625 3.320313-46.582031 23.839844-49.902343 49.902344h-14.898438c-3.976562 0-7.199219 3.222656-7.199219 7.199219 0 3.976562 3.222657 7.199218 7.199219 7.199218zm158.402344-72h43.199218v100.800782h-43.199218zm-14.402344 50.402344v28.796875h-16.296875c2.53125-9.429687 2.53125-19.363281 0-28.796875zm-72-28.800781c23.859375 0 43.199219 19.339843 43.199219 43.199219 0 23.859374-19.339844 43.199218-43.199219 43.199218s-43.199219-19.339844-43.199219-43.199218c.027344-23.847657 19.351563-43.175782 43.199219-43.199219zm0 0"/></svg>