<svg height="431pt" viewBox="-14 1 431 431.793" width="431pt" xmlns="http://www.w3.org/2000/svg"><path d="m382.003906 155.066406v-147.867187h-57.597656v147.867187c-17.785156 15.902344-19.308594 43.214844-3.402344 60.996094 15.90625 17.785156 43.214844 19.308594 61 3.402344s19.304688-43.21875 3.398438-61c-1.066406-1.195313-2.203125-2.332032-3.398438-3.398438zm0 0" fill="#fff69a"/><path d="m7.605469 122.398438h144v302.402343h-144zm0 0" fill="#f49e21"/><path d="m209.203125 324h172.800781v43.199219h-172.800781zm0 0" fill="#f49e21"/><path d="m230.804688 367.199219h28.796874v57.601562h-28.796874zm0 0" fill="#d3843d"/><path d="m331.605469 367.199219h28.796875v57.601562h-28.796875zm0 0" fill="#d3843d"/><path d="m353.203125 180c-3.976563 0-7.199219-3.21875-7.199219-7.195312v-.003907-136.800781c0-3.976562 3.222656-7.199219 7.199219-7.199219s7.203125 3.222657 7.203125 7.199219v136.800781c0 3.976563-3.222656 7.199219-7.199219 7.199219 0 0 0 0-.003906 0zm0 0" fill="#394d5c"/><path d="m367.605469 187.199219c0 7.953125-6.449219 14.402343-14.402344 14.402343s-14.398437-6.449218-14.398437-14.402343 6.445312-14.398438 14.398437-14.398438 14.402344 6.445313 14.402344 14.398438zm0 0" fill="#dd3e46"/><path d="m353.203125 208.800781c-11.929687 0-21.597656-9.671875-21.597656-21.601562 0-11.929688 9.667969-21.597657 21.597656-21.597657s21.601563 9.667969 21.601563 21.597657c-.015626 11.925781-9.675782 21.589843-21.601563 21.601562zm0-28.800781c-3.976563 0-7.199219 3.222656-7.199219 7.199219 0 3.980469 3.222656 7.203125 7.199219 7.203125s7.203125-3.222656 7.203125-7.203125c-.007812-3.972657-3.226562-7.195313-7.203125-7.199219zm0 0" fill="#dd3e46"/><path d="m130.003906 266.398438c0 7.953124-6.445312 14.402343-14.398437 14.402343s-14.402344-6.449219-14.402344-14.402343c0-7.949219 6.449219-14.398438 14.402344-14.398438s14.398437 6.449219 14.398437 14.398438zm0 0" fill="#fff69a"/><path d="m115.605469 288c-11.929688 0-21.601563-9.671875-21.601563-21.601562 0-11.929688 9.671875-21.597657 21.601563-21.597657 11.929687 0 21.597656 9.667969 21.597656 21.597657-.011719 11.925781-9.675781 21.589843-21.597656 21.601562zm0-28.800781c-3.976563 0-7.203125 3.222656-7.203125 7.199219 0 3.980468 3.226562 7.203124 7.203125 7.203124 3.976562 0 7.199219-3.222656 7.199219-7.203124-.003907-3.972657-3.226563-7.195313-7.199219-7.199219zm0 0" fill="#fff69a"/><g fill="#e9686a"><path d="m202.003906 259.199219c-3.976562 0-7.199218-3.21875-7.199218-7.195313v-.003906c0-2.804688-1.164063-4.058594-4.746094-7.199219-9.957032-6.628906-12.652344-20.070312-6.027344-30.023437 1.589844-2.390625 3.640625-4.4375 6.03125-6.027344 3.582031-3.144531 4.742188-4.394531 4.742188-7.191406 0-2.792969-1.160157-4.042969-4.742188-7.171875-9.945312-6.605469-12.65625-20.023438-6.050781-29.96875 1.59375-2.402344 3.652343-4.460938 6.050781-6.054688 3.582031-3.128906 4.742188-4.371093 4.742188-7.164062 0-3.976563 3.222656-7.199219 7.199218-7.199219 3.976563 0 7.199219 3.222656 7.199219 7.199219-.207031 7.1875-3.785156 13.859375-9.660156 18.007812-3.582031 3.128907-4.738281 4.371094-4.738281 7.164063 0 2.792968 1.15625 4.042968 4.738281 7.171875 9.953125 6.613281 12.660156 20.042969 6.046875 29.992187-1.59375 2.394532-3.644532 4.449219-6.039063 6.042969-3.585937 3.140625-4.746093 4.394531-4.746093 7.199219 0 2.796875 1.160156 4.050781 4.742187 7.191406 5.875 4.15625 9.449219 10.835938 9.65625 18.03125 0 3.972656-3.21875 7.195312-7.195313 7.199219zm0 0"/><path d="m238.003906 259.199219c-3.976562 0-7.199218-3.21875-7.199218-7.195313v-.003906c0-2.804688-1.160157-4.058594-4.746094-7.199219-9.957032-6.628906-12.652344-20.070312-6.027344-30.023437 1.589844-2.390625 3.640625-4.4375 6.027344-6.027344 3.585937-3.144531 4.742187-4.394531 4.742187-7.191406 0-2.792969-1.15625-4.042969-4.738281-7.171875-9.945312-6.605469-12.65625-20.023438-6.050781-29.96875 1.59375-2.402344 3.648437-4.460938 6.050781-6.054688 3.582031-3.128906 4.738281-4.371093 4.738281-7.164062 0-3.976563 3.226563-7.199219 7.203125-7.199219 3.976563 0 7.199219 3.222656 7.199219 7.199219-.207031 7.1875-3.785156 13.859375-9.660156 18.007812-3.582031 3.128907-4.738281 4.371094-4.738281 7.164063 0 2.792968 1.15625 4.042968 4.738281 7.171875 9.953125 6.613281 12.660156 20.042969 6.042969 29.992187-1.589844 2.394532-3.640626 4.449219-6.035157 6.042969-3.585937 3.140625-4.746093 4.394531-4.746093 7.199219 0 2.796875 1.160156 4.050781 4.742187 7.191406 5.875 4.15625 9.449219 10.835938 9.65625 18.03125 0 3.972656-3.21875 7.195312-7.195313 7.199219-.003906 0-.003906 0-.003906 0zm0 0"/><path d="m274.003906 259.199219c-3.976562 0-7.199218-3.21875-7.199218-7.195313v-.003906c0-2.804688-1.160157-4.058594-4.746094-7.199219-9.953125-6.628906-12.652344-20.070312-6.027344-30.023437 1.589844-2.390625 3.640625-4.4375 6.027344-6.027344 3.585937-3.144531 4.742187-4.394531 4.742187-7.191406 0-2.792969-1.15625-4.042969-4.738281-7.171875-9.945312-6.605469-12.65625-20.023438-6.050781-29.96875 1.59375-2.402344 3.652343-4.460938 6.050781-6.054688 3.582031-3.128906 4.738281-4.371093 4.738281-7.164062 0-3.976563 3.226563-7.199219 7.203125-7.199219 3.976563 0 7.199219 3.222656 7.199219 7.199219-.207031 7.1875-3.785156 13.859375-9.660156 18.007812-3.582031 3.128907-4.738281 4.371094-4.738281 7.164063 0 2.792968 1.15625 4.042968 4.738281 7.171875 9.953125 6.613281 12.660156 20.042969 6.046875 29.992187-1.59375 2.394532-3.644532 4.449219-6.039063 6.042969-3.585937 3.140625-4.746093 4.394531-4.746093 7.199219 0 2.796875 1.160156 4.050781 4.742187 7.191406 5.875 4.15625 9.449219 10.835938 9.65625 18.03125 0 3.972656-3.21875 7.195312-7.195313 7.199219zm0 0"/></g><path d="m7.605469 7.199219h288v28.800781h-288zm0 0" fill="#fcf05a"/><path d="m216.402344 64.800781h-129.597656c-15.90625 0-28.800782-12.894531-28.800782-28.800781h187.199219c0 15.90625-12.894531 28.800781-28.800781 28.800781zm0 0" fill="#fff69a"/><path d="m.402344 424.800781c0 3.976563 3.222656 7.199219 7.199218 7.199219h144c3.976563.003906 7.199219-3.21875 7.203126-7.195312 0-.003907 0-.003907 0-.003907v-302.402343c0-3.972657-3.222657-7.199219-7.199219-7.199219 0 0 0 0-.003907 0h-143.996093c-3.976563 0-7.199219 3.222656-7.203125 7.195312v.003907zm14.402344-295.199219h129.597656v288h-129.597656zm0 0"/><path d="m331.605469 432h28.796875c3.976562 0 7.199218-3.222656 7.203125-7.199219v-50.402343h14.398437c3.976563.003906 7.199219-3.21875 7.199219-7.195313v-.003906-43.199219c.003906-3.976562-3.21875-7.199219-7.195313-7.199219h-.003906-172.800781c-3.976563-.003906-7.199219 3.21875-7.199219 7.195313v.003906 43.199219c0 3.976562 3.222656 7.199219 7.195313 7.199219h.003906 14.402344v50.402343c-.003907 3.976563 3.21875 7.199219 7.195312 7.199219h.003907 28.800781c3.976562.003906 7.199219-3.21875 7.199219-7.195312 0-.003907 0-.003907 0-.003907v-50.402343h57.601562v50.402343c-.003906 3.976563 3.21875 7.199219 7.195312 7.199219zm21.597656-14.398438h-14.398437v-43.203124h14.398437zm-136.800781-86.402343h158.402344v28.800781h-158.402344zm36 86.402343h-14.398438v-43.203124h14.398438zm0 0"/><path d="m382.003906 0h-57.597656c-3.976562 0-7.203125 3.222656-7.203125 7.199219v144.804687c-19.480469 19.878906-19.15625 51.789063.726563 71.269532 19.882812 19.480468 51.792968 19.15625 71.273437-.726563 19.199219-19.597656 19.199219-50.949219 0-70.542969v-144.804687c0-3.976563-3.222656-7.199219-7.195313-7.199219zm-28.800781 223.199219c-19.855469.027343-35.972656-16.050781-36-35.90625-.011719-10.257813 4.359375-20.035157 12.011719-26.867188 1.519531-1.363281 2.390625-3.3125 2.390625-5.359375v-140.667968h43.199219v140.667968c-.003907 2.046875.867187 3.992188 2.390624 5.359375 14.8125 13.222657 16.097657 35.953125 2.875 50.765625-6.832031 7.652344-16.609374 12.023438-26.867187 12.007813zm0 0"/><path d="m360.402344 166.925781v-130.925781c0-3.976562-3.222656-7.199219-7.199219-7.199219s-7.199219 3.222657-7.199219 7.199219v130.925781c-11.25 3.976563-17.140625 16.320313-13.164062 27.566407 3.976562 11.246093 16.316406 17.140624 27.5625 13.164062s17.140625-16.316406 13.164062-27.566406c-2.171875-6.148438-7.011718-10.988282-13.164062-13.164063zm-7.199219 27.476563c-3.976563 0-7.199219-3.226563-7.199219-7.203125 0-3.976563 3.222656-7.199219 7.199219-7.199219s7.203125 3.222656 7.203125 7.199219c-.007812 3.976562-3.226562 7.199219-7.203125 7.203125zm0 0"/><path d="m115.605469 244.800781c-11.929688 0-21.601563 9.667969-21.601563 21.597657 0 11.929687 9.671875 21.601562 21.601563 21.601562 11.929687 0 21.597656-9.671875 21.597656-21.601562-.011719-11.921876-9.675781-21.585938-21.597656-21.597657zm0 28.800781c-3.976563 0-7.203125-3.222656-7.203125-7.203124 0-3.976563 3.226562-7.199219 7.203125-7.199219 3.976562 0 7.199219 3.222656 7.199219 7.199219-.003907 3.976562-3.226563 7.199218-7.199219 7.203124zm0 0"/><path d="m190.0625 208.75c-9.957031 6.625-12.65625 20.066406-6.035156 30.019531 1.589844 2.390625 3.640625 4.441407 6.03125 6.03125 3.585937 3.140625 4.746094 4.394531 4.746094 7.199219 0 3.976562 3.222656 7.199219 7.199218 7.199219 3.976563 0 7.199219-3.222657 7.199219-7.199219-.203125-7.191406-3.78125-13.871094-9.65625-18.027344-3.582031-3.140625-4.742187-4.394531-4.742187-7.191406 0-2.808594 1.160156-4.058594 4.746093-7.203125 9.949219-6.617187 12.652344-20.046875 6.03125-29.996094-1.589843-2.394531-3.644531-4.445312-6.039062-6.039062-3.582031-3.128907-4.738281-4.378907-4.738281-7.171875 0-2.789063 1.15625-4.035156 4.738281-7.164063 5.875-4.148437 9.453125-10.816406 9.660156-18.007812 0-3.976563-3.222656-7.199219-7.199219-7.199219-3.976562 0-7.203125 3.222656-7.203125 7.199219 0 2.792969-1.15625 4.039062-4.738281 7.167969-9.945312 6.601562-12.65625 20.019531-6.050781 29.964843 1.59375 2.402344 3.648437 4.460938 6.050781 6.054688 3.582031 3.128906 4.738281 4.378906 4.738281 7.171875.003907 2.796875-1.15625 4.050781-4.738281 7.191406zm0 0"/><path d="m226.0625 208.75c-9.957031 6.625-12.65625 20.066406-6.035156 30.019531 1.589844 2.390625 3.640625 4.441407 6.03125 6.03125 3.585937 3.140625 4.746094 4.394531 4.746094 7.199219 0 3.976562 3.222656 7.199219 7.199218 7.199219 3.976563 0 7.199219-3.222657 7.199219-7.199219-.203125-7.191406-3.78125-13.871094-9.65625-18.027344-3.582031-3.140625-4.742187-4.394531-4.742187-7.191406 0-2.808594 1.160156-4.058594 4.746093-7.203125 9.949219-6.617187 12.652344-20.046875 6.03125-29.996094-1.589843-2.394531-3.644531-4.445312-6.039062-6.039062-3.582031-3.128907-4.738281-4.378907-4.738281-7.171875 0-2.789063 1.15625-4.035156 4.738281-7.164063 5.875-4.148437 9.453125-10.816406 9.660156-18.007812 0-3.976563-3.222656-7.199219-7.199219-7.199219-3.976562 0-7.203125 3.222656-7.203125 7.199219 0 2.792969-1.15625 4.039062-4.738281 7.167969-9.945312 6.601562-12.65625 20.019531-6.050781 29.964843 1.59375 2.402344 3.648437 4.460938 6.050781 6.054688 3.582031 3.128906 4.738281 4.378906 4.738281 7.171875.003907 2.796875-1.15625 4.050781-4.738281 7.191406zm0 0"/><path d="m262.0625 208.75c-9.957031 6.625-12.65625 20.066406-6.03125 30.019531 1.589844 2.390625 3.636719 4.441407 6.027344 6.03125 3.585937 3.140625 4.746094 4.394531 4.746094 7.199219 0 3.976562 3.222656 7.199219 7.199218 7.199219 3.976563 0 7.199219-3.222657 7.199219-7.199219-.203125-7.191406-3.78125-13.871094-9.65625-18.027344-3.582031-3.140625-4.742187-4.394531-4.742187-7.191406 0-2.808594 1.160156-4.058594 4.746093-7.203125 9.949219-6.617187 12.652344-20.046875 6.03125-29.996094-1.589843-2.394531-3.644531-4.445312-6.039062-6.039062-3.582031-3.128907-4.738281-4.378907-4.738281-7.171875 0-2.789063 1.15625-4.035156 4.738281-7.164063 5.875-4.148437 9.453125-10.816406 9.660156-18.007812 0-3.976563-3.222656-7.199219-7.199219-7.199219-3.976562 0-7.203125 3.222656-7.203125 7.199219 0 2.792969-1.15625 4.039062-4.738281 7.167969-9.945312 6.601562-12.65625 20.019531-6.050781 29.964843 1.59375 2.402344 3.652343 4.460938 6.050781 6.054688 3.582031 3.128906 4.738281 4.378906 4.738281 7.171875.003907 2.796875-1.15625 4.050781-4.738281 7.191406zm0 0"/><path d="m295.605469 0h-288c-3.976563 0-7.199219 3.21875-7.203125 7.195312v.003907 28.800781c0 3.976562 3.222656 7.199219 7.199218 7.199219h43.929688c3.441406 16.75 18.171875 28.777343 35.273438 28.800781h129.597656c17.097656-.023438 31.832031-12.050781 35.273437-28.800781h43.929688c3.972656 0 7.199219-3.222657 7.199219-7.195313 0-.003906 0-.003906 0-.003906v-28.800781c0-3.976563-3.222657-7.199219-7.199219-7.199219zm-79.203125 57.601562h-129.597656c-9.152344-.011718-17.304688-5.777343-20.367188-14.402343h170.332031c-3.058593 8.625-11.214843 14.390625-20.367187 14.402343zm72-28.800781h-273.597656v-14.402343h273.597656zm0 0"/></svg>