<svg height="431pt" viewBox="1 -35 431.796 431" width="431pt" xmlns="http://www.w3.org/2000/svg"><path d="m266.398438 180.414062h-259.199219v-144c11.25-11.246093 17.554687-17.550781 28.800781-28.796874h230.398438zm0 0" fill="#cfdfe8"/><path d="m266.398438 7.617188h158.402343v43.199218h-158.402343zm0 0" fill="#aabece"/><path d="m266.398438 50.816406h100.800781v129.597656h-100.800781zm0 0" fill="#394d5c"/><path d="m93.601562 180.414062h129.597657v43.203126h-129.597657zm0 0" fill="#7d8d9c"/><path d="m122.398438 223.617188h72v129.597656h-72zm0 0" fill="#aabece"/><path d="m295.199219 79.617188h43.199219v72h-43.199219zm0 0" fill="#f4f4e6"/><path d="m237.601562 43.617188h-21.601562c-3.976562 0-7.199219-3.222657-7.199219-7.203126 0-3.976562 3.222657-7.199218 7.199219-7.199218h21.601562c3.976563 0 7.199219 3.222656 7.199219 7.199218 0 3.980469-3.222656 7.203126-7.199219 7.203126zm0 0" fill="#394d5c"/><path d="m237.601562 72.414062h-21.601562c-3.976562 0-7.199219-3.222656-7.199219-7.199218 0-3.976563 3.222657-7.199219 7.199219-7.199219h21.601562c3.976563 0 7.199219 3.222656 7.199219 7.199219 0 3.976562-3.222656 7.199218-7.199219 7.199218zm0 0" fill="#394d5c"/><path d="m396 245.214844c-3.972656.003906-7.195312-3.214844-7.199219-7.191406 0 0 0-.003907 0-.007813-.011719-11.921875-9.675781-21.585937-21.601562-21.597656-3.976563 0-7.199219-3.226563-7.199219-7.203125 0-3.976563 3.222656-7.199219 7.199219-7.199219 11.925781-.011719 21.589843-9.675781 21.601562-21.601563 0-3.976562 3.222657-7.199218 7.199219-7.199218s7.199219 3.222656 7.199219 7.199218c.015625 11.925782 9.675781 21.589844 21.601562 21.601563 3.976563 0 7.203125 3.222656 7.203125 7.199219 0 3.976562-3.226562 7.203125-7.203125 7.203125-11.921875.011719-21.585937 9.675781-21.601562 21.597656.003906 3.976563-3.214844 7.199219-7.191407 7.203125-.003906-.003906-.003906-.003906-.007812-.003906zm-7.222656-36c2.738281 2.054687 5.167968 4.484375 7.222656 7.222656 2.054688-2.738281 4.484375-5.167969 7.222656-7.222656-2.738281-2.054688-5.167968-4.484375-7.222656-7.21875-2.054688 2.734375-4.484375 5.164062-7.222656 7.21875zm0 0" fill="#fcf05a"/><path d="m144 245.214844h14.398438v108h-14.398438zm0 0" fill="#7d8d9c"/><path d="m424.800781.417969h-388.800781c-1.910156 0-3.742188.757812-5.089844 2.109375l-28.800781 28.796875c-1.351563 1.351562-2.109375 3.183593-2.109375 5.089843v144c-.00390625 3.976563 3.21875 7.199219 7.191406 7.203126h.007813 79.203125v36c-.003906 3.972656 3.214844 7.195312 7.191406 7.199218h.007812 21.601563v122.402344c-.003906 3.972656 3.214844 7.195312 7.191406 7.199219h.007813 72c3.972656 0 7.195312-3.21875 7.199218-7.191407 0-.003906 0-.007812 0-.007812v-122.402344h21.601563c3.972656 0 7.195313-3.21875 7.199219-7.191406 0-.003906 0-.007812 0-.007812v-36h136.800781c3.972656 0 7.195313-3.21875 7.199219-7.195313 0 0 0-.003906 0-.007813v-122.398437h50.402344c3.972656.003906 7.195312-3.21875 7.199218-7.191406 0-.003907 0-.003907 0-.007813v-43.199218c.003906-3.976563-3.21875-7.199219-7.191406-7.203126-.007812.003907-.011719.003907-.011719.003907zm-410.402343 38.980469 24.582031-24.582032h220.21875v158.398438h-244.800781zm172.800781 306.617187h-28.800781v-100.800781h-14.398438v100.800781h-14.398438v-115.199219h57.597657zm28.800781-129.597656h-115.199219v-28.800781h115.199219zm144-43.203125h-86.398438v-115.199219h86.398438zm57.601562-129.597656h-144v-28.800782h144zm0 0"/><path d="m295.199219 158.816406h43.199219c3.976562.003906 7.199218-3.21875 7.203124-7.191406 0-.003906 0-.007812 0-.007812v-72c0-3.972657-3.21875-7.195313-7.195312-7.199219 0 0-.003906 0-.007812 0h-43.199219c-3.972657-.003907-7.195313 3.214843-7.199219 7.191406v.007813 72c-.003906 3.972656 3.21875 7.199218 7.191406 7.199218zm7.203125-72h28.796875v57.597656h-28.796875zm0 0"/><path d="m216 43.617188h21.601562c3.976563 0 7.199219-3.222657 7.199219-7.203126 0-3.976562-3.222656-7.199218-7.199219-7.199218h-21.601562c-3.976562 0-7.199219 3.222656-7.199219 7.199218 0 3.980469 3.222657 7.203126 7.199219 7.203126zm0 0"/><path d="m216 72.414062h21.601562c3.976563 0 7.199219-3.222656 7.199219-7.199218 0-3.976563-3.222656-7.199219-7.199219-7.199219h-21.601562c-3.976562 0-7.199219 3.222656-7.199219 7.199219 0 3.976562 3.222657 7.199218 7.199219 7.199218zm0 0"/><path d="m424.800781 202.015625c-11.925781-.011719-21.585937-9.675781-21.601562-21.601563 0-3.976562-3.222657-7.199218-7.199219-7.199218s-7.199219 3.222656-7.199219 7.199218c-.015625 11.925782-9.675781 21.589844-21.601562 21.601563-3.976563 0-7.199219 3.222656-7.199219 7.203125 0 3.976562 3.222656 7.199219 7.199219 7.199219 11.921875.011719 21.585937 9.675781 21.601562 21.601562 0 3.976563 3.222657 7.199219 7.199219 7.199219s7.199219-3.222656 7.199219-7.199219c.015625-11.925781 9.675781-21.589843 21.601562-21.601562 3.976563 0 7.199219-3.222657 7.199219-7.199219 0-3.980469-3.222656-7.203125-7.199219-7.203125zm-28.800781 14.421875c-2.054688-2.734375-4.484375-5.167969-7.21875-7.21875 2.734375-2.054688 5.164062-4.488281 7.21875-7.222656 2.054688 2.734375 4.484375 5.167968 7.222656 7.222656-2.738281 2.050781-5.167968 4.480469-7.222656 7.21875zm0 0"/></svg>