<svg height="431pt" viewBox="-68 1 431 431.793" width="431pt" xmlns="http://www.w3.org/2000/svg"><path d="m194.828125 86.398438h43.203125c27.835938 0 50.398438 22.566406 50.398438 50.402343v28.800781h-144v-28.800781c0-27.835937 22.566406-50.402343 50.398437-50.402343zm0 0" fill="#aabece"/><path d="m7.628906 36v388.800781h43.199219v-367.199219c0-7.953124 6.449219-14.402343 14.402344-14.402343h172.800781v-36h-201.601562c-15.90625 0-28.800782 12.894531-28.800782 28.800781zm0 0" fill="#195c85"/><path d="m194.828125 43.199219h43.203125v43.199219h-43.203125zm0 0" fill="#cfdfe8"/><path d="m50.828125 273.601562h28.800781v28.800782h-28.800781zm0 0" fill="#cfdfe8"/><path d="m79.628906 252h28.800782v72h-28.800782zm0 0" fill="#195c85"/><g fill="#36afad"><path d="m158.828125 216c-3.972656.003906-7.195313-3.21875-7.199219-7.191406 0-.003906 0-.003906 0-.007813v-14.398437c0-3.980469 3.222656-7.203125 7.199219-7.203125s7.203125 3.222656 7.203125 7.203125v14.398437c0 3.972657-3.21875 7.195313-7.191406 7.199219-.003906 0-.007813 0-.011719 0zm0 0"/><path d="m158.828125 259.199219c-3.972656.003906-7.195313-3.21875-7.199219-7.191407 0-.003906 0-.003906 0-.007812v-14.398438c0-3.976562 3.222656-7.203124 7.199219-7.203124s7.203125 3.226562 7.203125 7.203124v14.398438c0 3.972656-3.21875 7.199219-7.191406 7.199219-.003906 0-.007813 0-.011719 0zm0 0"/><path d="m158.828125 302.402344c-3.972656 0-7.195313-3.21875-7.199219-7.191406 0-.003907 0-.007813 0-.011719v-14.398438c0-3.976562 3.222656-7.199219 7.199219-7.199219s7.203125 3.222657 7.203125 7.199219v14.398438c0 3.976562-3.21875 7.199219-7.191406 7.203125-.003906 0-.007813 0-.011719 0zm0 0"/><path d="m158.828125 345.601562c-3.972656 0-7.195313-3.21875-7.199219-7.191406 0-.003906 0-.007812 0-.007812v-14.402344c0-3.976562 3.222656-7.199219 7.199219-7.199219s7.203125 3.222657 7.203125 7.199219v14.402344c0 3.972656-3.21875 7.195312-7.191406 7.199218-.003906 0-.007813 0-.011719 0zm0 0"/><path d="m187.628906 244.800781c-3.972656 0-7.195312-3.21875-7.199218-7.191406 0-.003906 0-.007813 0-.007813v-14.402343c0-3.976563 3.222656-7.199219 7.199218-7.199219 3.976563 0 7.199219 3.222656 7.199219 7.199219v14.402343c.003906 3.972657-3.214844 7.195313-7.191406 7.199219 0 0-.003907 0-.007813 0zm0 0"/><path d="m187.628906 288c-3.972656.003906-7.195312-3.21875-7.199218-7.191406 0-.003906 0-.003906 0-.007813v-14.398437c0-3.976563 3.222656-7.203125 7.199218-7.203125 3.976563 0 7.199219 3.226562 7.199219 7.203125v14.398437c.003906 3.972657-3.214844 7.199219-7.191406 7.199219 0 0-.003907 0-.007813 0zm0 0"/><path d="m187.628906 331.199219c-3.972656.003906-7.195312-3.214844-7.199218-7.191407 0 0 0-.003906 0-.007812v-14.398438c0-3.976562 3.222656-7.199218 7.199218-7.199218 3.976563 0 7.199219 3.222656 7.199219 7.199218v14.398438c.003906 3.976562-3.214844 7.199219-7.191406 7.203125 0-.003906-.003907-.003906-.007813-.003906zm0 0"/><path d="m187.628906 374.398438c-3.972656.003906-7.195312-3.214844-7.199218-7.191407 0 0 0-.003906 0-.007812v-14.398438c0-3.976562 3.222656-7.199219 7.199218-7.199219 3.976563 0 7.199219 3.222657 7.199219 7.199219v14.398438c.003906 3.976562-3.214844 7.199219-7.191406 7.203125 0-.003906-.003907-.003906-.007813-.003906zm0 0"/><path d="m245.230469 216c-3.972657.003906-7.199219-3.21875-7.199219-7.191406 0-.003906 0-.003906 0-.007813v-14.398437c0-3.980469 3.222656-7.203125 7.199219-7.203125 3.976562 0 7.199219 3.222656 7.199219 7.203125v14.398437c.003906 3.972657-3.214844 7.195313-7.191407 7.199219-.003906 0-.007812 0-.007812 0zm0 0"/><path d="m245.230469 259.199219c-3.972657.003906-7.199219-3.21875-7.199219-7.191407 0-.003906 0-.003906 0-.007812v-14.398438c0-3.976562 3.222656-7.203124 7.199219-7.203124 3.976562 0 7.199219 3.226562 7.199219 7.203124v14.398438c.003906 3.972656-3.214844 7.199219-7.191407 7.199219-.003906 0-.007812 0-.007812 0zm0 0"/><path d="m245.230469 302.402344c-3.972657 0-7.199219-3.21875-7.199219-7.191406 0-.003907 0-.007813 0-.011719v-14.398438c0-3.976562 3.222656-7.199219 7.199219-7.199219 3.976562 0 7.199219 3.222657 7.199219 7.199219v14.398438c.003906 3.976562-3.214844 7.199219-7.191407 7.203125-.003906 0-.007812 0-.007812 0zm0 0"/><path d="m245.230469 345.601562c-3.972657 0-7.199219-3.21875-7.199219-7.191406 0-.003906 0-.007812 0-.007812v-14.402344c0-3.976562 3.222656-7.199219 7.199219-7.199219 3.976562 0 7.199219 3.222657 7.199219 7.199219v14.402344c.003906 3.972656-3.214844 7.195312-7.191407 7.199218-.003906 0-.007812 0-.007812 0zm0 0"/><path d="m274.03125 244.800781c-3.976562 0-7.199219-3.21875-7.203125-7.191406 0-.003906 0-.007813 0-.007813v-14.402343c0-3.976563 3.226563-7.199219 7.203125-7.199219s7.199219 3.222656 7.199219 7.199219v14.402343c.003906 3.972657-3.21875 7.195313-7.191407 7.199219-.003906 0-.007812 0-.007812 0zm0 0"/><path d="m274.03125 288c-3.976562.003906-7.199219-3.21875-7.203125-7.191406 0-.003906 0-.003906 0-.007813v-14.398437c0-3.976563 3.226563-7.203125 7.203125-7.203125s7.199219 3.226562 7.199219 7.203125v14.398437c.003906 3.972657-3.21875 7.199219-7.191407 7.199219-.003906 0-.007812 0-.007812 0zm0 0"/><path d="m274.03125 331.199219c-3.976562.003906-7.199219-3.214844-7.203125-7.191407 0 0 0-.003906 0-.007812v-14.398438c0-3.976562 3.226563-7.199218 7.203125-7.199218s7.199219 3.222656 7.199219 7.199218v14.398438c.003906 3.976562-3.21875 7.199219-7.191407 7.203125-.003906-.003906-.007812-.003906-.007812-.003906zm0 0"/><path d="m274.03125 374.398438c-3.976562.003906-7.199219-3.214844-7.203125-7.191407 0 0 0-.003906 0-.007812v-14.398438c0-3.976562 3.226563-7.199219 7.203125-7.199219s7.199219 3.222657 7.199219 7.199219v14.398438c.003906 3.976562-3.21875 7.199219-7.191407 7.203125-.003906-.003906-.007812-.003906-.007812-.003906zm0 0"/></g><path d="m245.230469 79.699219v-72.5c0-3.972657-3.21875-7.19531275-7.191407-7.199219-.003906 0-.007812 0-.007812 0h-201.601562c-19.871094.0234375-35.976563 16.128906-36 36v388.800781c-.003907 3.972657 3.21875 7.195313 7.191406 7.199219h.007812 43.199219c3.976563.003906 7.199219-3.21875 7.203125-7.191406 0-.003906 0-.003906 0-.007813v-115.199219h14.398438v14.398438c0 3.972656 3.21875 7.199219 7.191406 7.199219h.007812 28.800782c3.976562.003906 7.199218-3.21875 7.203124-7.191407 0-.003906 0-.003906 0-.007812v-72c0-3.972656-3.21875-7.195312-7.195312-7.199219 0 0-.003906 0-.007812 0h-28.796876c-3.976562-.003906-7.199218 3.214844-7.203124 7.191407v.007812 14.398438h-14.398438v-208.796876c0-3.976562 3.222656-7.199218 7.199219-7.203124h122.402343v29.300781c-28.773437 3.648437-50.355468 28.097656-50.402343 57.101562v28.796875c0 3.976563 3.21875 7.199219 7.191406 7.203125h.011719 144c3.972656 0 7.195312-3.21875 7.199218-7.195312v-.003907-28.800781c-.050781-29-21.632812-53.453125-50.402343-57.101562zm-158.402344 179.5h14.402344v57.601562h-14.402344zm-14.398437 21.601562v14.398438h-14.398438v-14.398438zm-28.800782-223.199219v360h-28.800781v-381.601562c.015625-11.921875 9.675781-21.585938 21.601563-21.601562h194.402343v21.601562h-165.601562c-11.925781.011719-21.589844 9.675781-21.601563 21.601562zm187.199219-7.203124v28.800781h-28.796875v-28.800781zm50.402344 108h-129.601563v-21.597657c.027344-23.847656 19.355469-43.175781 43.199219-43.199219h43.203125c23.847656.023438 43.171875 19.351563 43.199219 43.199219zm0 0"/><path d="m158.828125 216c3.976563.003906 7.199219-3.21875 7.203125-7.191406 0-.003906 0-.007813 0-.007813v-14.398437c0-3.980469-3.226562-7.203125-7.203125-7.203125s-7.199219 3.222656-7.199219 7.203125v14.398437c0 3.972657 3.21875 7.195313 7.191406 7.199219zm0 0"/><path d="m151.628906 252c0 3.976562 3.226563 7.199219 7.203125 7.199219 3.976563 0 7.199219-3.222657 7.199219-7.199219v-14.398438c0-3.976562-3.222656-7.203124-7.199219-7.203124-3.976562 0-7.203125 3.226562-7.203125 7.203124zm0 0"/><path d="m151.628906 295.199219c0 3.976562 3.226563 7.203125 7.203125 7.203125 3.976563 0 7.199219-3.226563 7.199219-7.203125v-14.398438c0-3.976562-3.222656-7.199219-7.199219-7.199219-3.976562 0-7.203125 3.222657-7.203125 7.199219zm0 0"/><path d="m151.628906 338.398438c0 3.976562 3.226563 7.203124 7.203125 7.203124 3.976563 0 7.199219-3.226562 7.199219-7.203124v-14.398438c0-3.976562-3.222656-7.199219-7.199219-7.199219-3.976562 0-7.203125 3.222657-7.203125 7.199219zm0 0"/><path d="m187.628906 244.800781c3.972656 0 7.199219-3.21875 7.199219-7.195312v-.003907-14.402343c0-3.976563-3.222656-7.199219-7.199219-7.199219-3.976562 0-7.199218 3.222656-7.199218 7.199219v14.402343c-.003907 3.972657 3.21875 7.195313 7.191406 7.199219zm0 0"/><path d="m180.429688 280.800781c0 3.976563 3.222656 7.199219 7.199218 7.199219 3.980469 0 7.203125-3.222656 7.203125-7.199219v-14.402343c0-3.976563-3.222656-7.199219-7.203125-7.199219-3.976562 0-7.199218 3.222656-7.199218 7.199219zm0 0"/><path d="m180.429688 324c0 3.976562 3.222656 7.199219 7.199218 7.199219 3.980469 0 7.203125-3.222657 7.203125-7.199219v-14.398438c0-3.976562-3.222656-7.203124-7.203125-7.203124-3.976562 0-7.199218 3.226562-7.199218 7.203124zm0 0"/><path d="m180.429688 367.199219c0 3.976562 3.222656 7.203125 7.199218 7.203125 3.980469 0 7.203125-3.226563 7.203125-7.203125v-14.398438c0-3.976562-3.222656-7.199219-7.203125-7.199219-3.976562 0-7.199218 3.222657-7.199218 7.199219zm0 0"/><path d="m245.230469 216c3.972656.003906 7.199219-3.21875 7.199219-7.191406 0-.003906 0-.007813 0-.007813v-14.398437c0-3.980469-3.222657-7.203125-7.199219-7.203125-3.976563 0-7.199219 3.222656-7.199219 7.203125v14.398437c-.003906 3.972657 3.214844 7.195313 7.191406 7.199219zm0 0"/><path d="m238.03125 252c0 3.976562 3.222656 7.199219 7.199219 7.199219 3.976562 0 7.199219-3.222657 7.199219-7.199219v-14.398438c0-3.976562-3.222657-7.203124-7.199219-7.203124-3.976563 0-7.199219 3.226562-7.199219 7.203124zm0 0"/><path d="m238.03125 295.199219c0 3.976562 3.222656 7.203125 7.199219 7.203125 3.976562 0 7.199219-3.226563 7.199219-7.203125v-14.398438c0-3.976562-3.222657-7.199219-7.199219-7.199219-3.976563 0-7.199219 3.222657-7.199219 7.199219zm0 0"/><path d="m238.03125 338.398438c0 3.976562 3.222656 7.203124 7.199219 7.203124 3.976562 0 7.199219-3.226562 7.199219-7.203124v-14.398438c0-3.976562-3.222657-7.199219-7.199219-7.199219-3.976563 0-7.199219 3.222657-7.199219 7.199219zm0 0"/><path d="m274.03125 216c-3.976562-.003906-7.199219 3.21875-7.203125 7.191406v.007813 14.402343c0 3.976563 3.226563 7.199219 7.203125 7.199219s7.199219-3.222656 7.199219-7.199219v-14.402343c.003906-3.972657-3.21875-7.195313-7.191407-7.199219-.003906 0-.007812 0-.007812 0zm0 0"/><path d="m274.03125 259.199219c-3.976562 0-7.199219 3.21875-7.203125 7.191406v.007813 14.402343c0 3.976563 3.226563 7.199219 7.203125 7.199219s7.199219-3.222656 7.199219-7.199219v-14.402343c.003906-3.972657-3.21875-7.195313-7.191407-7.199219-.003906 0-.007812 0-.007812 0zm0 0"/><path d="m274.03125 302.402344c-3.976562-.003906-7.199219 3.214844-7.203125 7.191406v.007812 14.398438c0 3.976562 3.226563 7.203125 7.203125 7.203125s7.199219-3.226563 7.199219-7.203125v-14.398438c.003906-3.972656-3.21875-7.199218-7.191407-7.199218-.003906 0-.007812 0-.007812 0zm0 0"/><path d="m274.03125 345.601562c-3.976562-.003906-7.199219 3.214844-7.203125 7.191407v.007812 14.398438c0 3.976562 3.226563 7.203125 7.203125 7.203125s7.199219-3.226563 7.199219-7.203125v-14.398438c.003906-3.976562-3.21875-7.199219-7.191407-7.199219-.003906 0-.007812 0-.007812 0zm0 0"/></svg>