<svg height="431pt" viewBox="0 0 431.79403 431" width="431pt" xmlns="http://www.w3.org/2000/svg"><path d="m324 180.394531v57.601563h-100.800781v57.601562h-100.796875v57.597656h-115.199219v72h417.597656v-244.800781zm0 0" fill="#36afad"/><path d="m79.203125 7.597656h57.597656v43.199219h-57.597656zm0 0" fill="#ffd782"/><path d="m144 79.597656h86.402344v28.800782h-86.402344zm0 0" fill="#ffd782"/><path d="m345.601562 7.597656h79.199219v79.199219h-28.800781v-50.398437h-50.398438zm0 0" fill="#e9686a"/><path d="m266.398438 144.398438 86.398437-86.398438 21.597656 21.597656-86.398437 86.398438zm0 0" fill="#e9686a"/><path d="m21.601562 324.394531h50.398438c3.976562 0 7.203125 3.222657 7.203125 7.203125v21.597656h-57.601563zm0 0" fill="#5a6470"/><path d="m136.800781 266.796875h50.402344c3.976563 0 7.199219 3.222656 7.199219 7.199219v21.601562h-57.601563zm0 0" fill="#5a6470"/><path d="m57.601562 324.394531h-28.800781l43.199219-115.199219h28.800781zm0 0" fill="#aabece"/><path d="m144 209.195312h28.800781v57.601563h-28.800781zm0 0" fill="#aabece"/><path d="m72 180.394531h100.800781v28.800781h-100.800781zm0 0" fill="#81a7c1"/><path d="m72 79.597656h72v100.800782h-72zm0 0" fill="#f49e21"/><path d="m309.601562 381.996094h93.597657v14.398437h-93.597657zm0 0" fill="#fff"/><path d="m36 201.996094h-28.796875l64.796875-122.398438h28.800781zm0 0" fill="#ffd782"/><path d="m316.800781 230.796875h-100.800781v57.597656h-14.398438v-14.398437c-.007812-7.949219-6.449218-14.390625-14.398437-14.402344h-7.203125v-79.199219c0-3.972656-3.222656-7.199219-7.199219-7.199219h-21.601562v-57.597656h79.199219c3.976562 0 7.199218-3.226562 7.203124-7.203125v-28.796875c0-3.976562-3.226562-7.199218-7.203124-7.203125h-158.398438c-.851562.019531-1.695312.1875-2.488281.503907-.210938.078124-.40625.167968-.609375.261718-.648438.308594-1.25.714844-1.777344 1.199219-.082031.078125-.179688.128906-.253906.207031-.492188.488282-.90625 1.050782-1.234375 1.660156l-64.796875 122.402344c-1.863282 3.511719-.523438 7.871094 2.992187 9.730469 1.039063.550781 2.195313.835937 3.371094.835937h28.796875c2.667969 0 5.117188-1.472656 6.363281-3.832031l22.4375-42.378906v44.902344l-40.992187 109.308593h-9.40625v28.800782h-14.39843775v86.398437h431.99609375v-259.199219h-115.199219zm-129.597656 57.597656h-43.203125v-14.398437h43.203125zm-115.203125 28.800781h-4.007812l37.800781-100.800781h31.007812v43.199219h-7.199219v28.800781h-14.402343v57.601563h-28.796875v-14.402344c-.007813-7.949219-6.453125-14.390625-14.402344-14.398438zm79.199219-57.601562v-43.199219h14.402343v43.199219zm14.402343-57.597656h-86.398437v-14.398438h86.398437zm57.597657-100.800782h-72v-14.398437h72zm-191.53125 93.601563h-12.507813l57.175782-108h12.503906zm73.46875-108h31.664062v86.398437h-57.597656v-37.414062zm-28.144531 129.597656h13.421874l-37.800781 100.800781h-13.421875zm-48.191407 115.203125h43.199219v14.398438h-43.199219zm302.398438-144h86.402343v230.398438h-403.199218v-57.601563h115.199218v-57.597656h100.800782v-57.601563h100.800781v-57.597656zm0 0"/><path d="m338.402344 43.597656h50.398437v50.398438h43.199219v-93.597656h-93.597656zm14.398437-28.800781h64.800781v64.800781h-14.402343v-50.402344h-50.398438zm0 0"/><path d="m288 176.179688 96.582031-96.582032-31.78125-31.78125-96.582031 96.582032zm76.21875-96.582032-76.21875 76.21875-11.417969-11.417968 76.21875-76.21875zm0 0"/><path d="m136.800781.398438h-57.597656c-3.976563 0-7.199219 3.222656-7.203125 7.199218v43.199219c0 3.976563 3.226562 7.199219 7.203125 7.199219h57.597656c3.976563 0 7.199219-3.222656 7.199219-7.199219v-43.199219c0-3.976562-3.222656-7.199218-7.199219-7.199218zm-7.199219 43.199218h-43.199218v-28.800781h43.199218zm0 0"/><path d="m309.601562 381.996094h93.597657v14.398437h-93.597657zm0 0"/></svg>