<svg height="431pt" viewBox="1 -10 431.793 431" width="431pt" xmlns="http://www.w3.org/2000/svg"><path d="m43.199219 94.003906h345.601562c19.882813 0 36 16.117188 36 36v180c0 19.882813-16.117187 36-36 36h-345.601562c-19.882813 0-36-16.117187-36-36v-180c0-19.882812 16.117187-36 36-36zm0 0" fill="#f49e21"/><g fill="#7d8d9c"><path d="m108 374.804688c0 15.902343-12.894531 28.796874-28.800781 28.796874s-28.800781-12.894531-28.800781-28.796874c0-15.90625 12.894531-28.800782 28.800781-28.800782s28.800781 12.894532 28.800781 28.800782zm0 0"/><path d="m79.199219 410.804688c-19.882813 0-36-16.121094-36-36 0-19.882813 16.117187-36.003907 36-36.003907 19.882812 0 36 16.121094 36 36.003907-.023438 19.871093-16.125 35.972656-36 36zm0-57.601563c-11.929688 0-21.597657 9.671875-21.597657 21.601563 0 11.929687 9.667969 21.597656 21.597657 21.597656 11.929687 0 21.601562-9.667969 21.601562-21.597656-.011719-11.925782-9.675781-21.589844-21.601562-21.601563zm0 0"/><path d="m381.601562 374.804688c0 15.902343-12.894531 28.796874-28.800781 28.796874s-28.800781-12.894531-28.800781-28.796874c0-15.90625 12.894531-28.800782 28.800781-28.800782s28.800781 12.894532 28.800781 28.800782zm0 0"/><path d="m352.800781 410.804688c-19.882812 0-36-16.121094-36-36 0-19.882813 16.117188-36.003907 36-36.003907 19.882813 0 36 16.121094 36 36.003907-.023437 19.871093-16.128906 35.972656-36 36zm0-57.601563c-11.929687 0-21.601562 9.671875-21.601562 21.601563 0 11.929687 9.671875 21.597656 21.601562 21.597656 11.929688 0 21.597657-9.667969 21.597657-21.597656-.011719-11.925782-9.675782-21.589844-21.597657-21.601563zm0 0"/></g><path d="m57.601562 94.003906h43.199219v252h-43.199219zm0 0" fill="#ffd782"/><path d="m331.199219 94.003906h43.199219v252h-43.199219zm0 0" fill="#ffd782"/><path d="m108 65.203125h57.601562v28.800781h-57.601562zm0 0" fill="#d3843d"/><path d="m266.398438 65.203125h57.601562v28.800781h-57.601562zm0 0" fill="#d3843d"/><path d="m122.398438 7.601562v57.601563h28.800781v-28.800781h129.601562v28.800781h28.800781v-57.601563zm0 0" fill="#195c85"/><path d="m144 151.601562h50.402344v50.402344h-50.402344zm0 0" fill="#ffd782"/><path d="m244.800781 212.804688c0 13.914062-11.28125 25.199218-25.199219 25.199218-13.917968 0-25.199218-11.285156-25.199218-25.199218 0-13.917969 11.28125-25.203126 25.199218-25.203126 13.917969 0 25.199219 11.285157 25.199219 25.203126zm0 0" fill="#e9686a"/><path d="m266.398438 274.003906 7.203124 43.199219 36-43.199219zm0 0" fill="#fff69a"/><path d="m72 367.601562h14.398438v14.402344h-14.398438zm0 0" fill="#fff"/><path d="m345.601562 367.601562h14.398438v14.402344h-14.398438zm0 0" fill="#fff"/><path d="m388.800781 86.800781h-57.601562v-21.597656c.003906-3.976563-3.21875-7.199219-7.195313-7.203125h-.003906-7.199219v-50.398438c0-3.976562-3.222656-7.199218-7.199219-7.199218 0 0 0 0-.003906 0h-187.199218c-3.976563 0-7.199219 3.222656-7.199219 7.195312v.003906 50.402344h-7.203125c-3.972656-.003906-7.199219 3.21875-7.199219 7.195313v.003906 21.601563h-57.597656c-23.847657.023437-43.1718752 19.351562-43.199219 43.199218v180c.0273438 23.847656 19.351562 43.171875 43.199219 43.199219h7.386719c-4.765626 6.195313-7.359376 13.785156-7.386719 21.601563 0 19.882812 16.117187 36 36 36 19.882812 0 36-16.117188 36-36-.027344-7.816407-2.621094-15.40625-7.382813-21.601563h216.367188c-4.761719 6.195313-7.355469 13.785156-7.382813 21.601563 0 19.882812 16.117188 36 36 36 19.882813 0 36-16.117188 36-36-.027343-7.816407-2.621093-15.40625-7.382812-21.601563h7.382812c23.847657-.027344 43.175781-19.351563 43.199219-43.199219v-180c-.027344-23.847656-19.351562-43.175781-43.199219-43.203125zm-21.601562 14.402344v237.597656h-28.796875v-237.597656zm-43.199219 0v237.597656h-216v-237.597656zm-158.398438-43.199219h-7.203124v-14.402344h115.203124v14.402344h-7.203124c-3.976563-.003906-7.199219 3.21875-7.199219 7.195313v.003906 21.601563h-86.398438v-21.601563c0-3.976563-3.222656-7.199219-7.199219-7.199219zm108 28.796875v-14.398437h43.199219v14.398437zm-144-72h172.800782v43.203125h-14.402344v-21.601562c0-3.976563-3.222656-7.199219-7.195312-7.199219-.003907 0-.003907 0-.003907 0h-129.601562c-3.976563-.003906-7.199219 3.21875-7.199219 7.195313v.003906 21.601562h-14.402344v-43.203125zm-14.402343 57.601563h43.199219v14.398437h-43.199219zm-21.597657 28.800781v237.597656h-28.800781v-237.597656zm-79.203124 208.800781v-180c.019531-15.898437 12.902343-28.785156 28.800781-28.800781h7.199219v237.601563h-7.199219c-15.898438-.019532-28.78125-12.902344-28.800781-28.800782zm64.800781 86.398438c-11.929688 0-21.597657-9.667969-21.597657-21.597656 0-11.929688 9.667969-21.601563 21.597657-21.601563 11.929687 0 21.601562 9.671875 21.601562 21.601563-.011719 11.921874-9.675781 21.585937-21.601562 21.597656zm273.601562 0c-11.929687 0-21.601562-9.667969-21.601562-21.597656 0-11.929688 9.671875-21.601563 21.601562-21.601563 11.929688 0 21.597657 9.671875 21.597657 21.601563-.011719 11.921874-9.675782 21.585937-21.597657 21.597656zm64.800781-86.398438c-.019531 15.898438-12.902343 28.78125-28.800781 28.796875h-7.199219v-237.597656h7.199219c15.898438.015625 28.78125 12.898437 28.800781 28.800781zm0 0"/><path d="m144 209.203125h43.5625c-.1875 1.191406-.308594 2.394531-.363281 3.601563-.027344 17.921874 14.476562 32.476562 32.402343 32.507812 17.921876.027344 32.476563-14.476562 32.507813-32.402344.027344-17.921875-14.476563-32.476562-32.402344-32.507812-6.445312-.011719-12.75 1.898437-18.105469 5.484375v-34.285157c0-3.976562-3.222656-7.199218-7.195312-7.199218-.003906 0-.003906 0-.003906 0h-50.402344c-3.972656 0-7.199219 3.222656-7.199219 7.195312v.003906 50.402344c0 3.976563 3.222657 7.199219 7.199219 7.199219zm75.601562-14.402344c9.941407 0 18 8.058594 18 18 0 9.941407-8.058593 18-18 18-9.941406 0-18-8.058593-18-18 .007813-9.933593 8.0625-17.988281 18-18zm-68.402343-35.996093h36v36h-36zm0 0"/><path d="m271.714844 324.148438c2.714844.742187 5.613281-.171876 7.414062-2.332032l36-43.199218c2.550782-3.054688 2.136719-7.597657-.917968-10.144532-1.292969-1.078125-2.925782-1.667968-4.609376-1.667968h-43.203124c-3.972657-.003907-7.195313 3.214843-7.199219 7.191406 0 .398437.035156.792968.101562 1.1875l7.199219 43.199218c.457031 2.78125 2.496094 5.035157 5.214844 5.765626zm22.511718-42.945313-16.105468 19.328125-3.21875-19.328125zm0 0"/><path d="m72 367.601562h14.398438v14.402344h-14.398438zm0 0"/><path d="m345.601562 367.601562h14.398438v14.402344h-14.398438zm0 0"/></svg>