<svg height="431pt" viewBox="1 -28 431.794 431" width="431pt" xmlns="http://www.w3.org/2000/svg"><path d="m7.203125 79.609375h417.597656v295.203125h-417.597656zm0 0" fill="#d2fffd"/><path d="m86.402344 36.410156h28.796875v158.402344h-28.796875zm0 0" fill="#fdbd40"/><path d="m115.203125 65.210938h57.597656v28.800781h-57.597656zm0 0" fill="#f4a519"/><path d="m115.203125 122.8125h57.597656v28.796875h-57.597656zm0 0" fill="#f4a519"/><path d="m172.800781 36.410156h28.800781v158.402344h-28.800781zm0 0" fill="#fdbd40"/><path d="m424.800781 216.410156c-34.816406 0-34.816406 28.800782-69.632812 28.800782-34.816407 0-34.816407-28.800782-69.628907-28.800782-34.792968 0-34.792968 28.800782-69.585937 28.800782-34.804687 0-34.804687-28.800782-69.605469-28.800782-34.792968 0-34.792968 28.800782-69.582031 28.800782-34.785156 0-34.785156-28.800782-69.566406-28.800782v-64.800781c34.78125 0 34.78125 28.800781 69.566406 28.800781 34.789063 0 34.789063-28.800781 69.582031-28.800781 34.800782 0 34.800782 28.800781 69.605469 28.800781 34.792969 0 34.792969-28.800781 69.585937-28.800781 34.816407 0 34.816407 28.800781 69.628907 28.800781 34.816406 0 34.816406-28.800781 69.632812-28.800781zm0 0" fill="#a2dbf2"/><path d="m355.171875 317.210938c-14.742187.074218-28.914063-5.699219-39.410156-16.050782-16.253907-16.6875-42.957031-17.039062-59.644531-.785156-.265626.257812-.523438.519531-.785157.785156-21.898437 21.402344-56.878906 21.402344-78.777343 0-16.238282-16.679687-42.925782-17.039062-59.605469-.800781-.269531.265625-.535157.53125-.796875.800781-21.890625 21.402344-56.867188 21.402344-78.757813 0-7.917969-8.171875-18.816406-12.773437-30.191406-12.75-3.980469 0-7.203125-3.222656-7.203125-7.199218 0-3.976563 3.222656-7.203126 7.203125-7.203126 14.730469-.070312 28.890625 5.703126 39.375 16.054688 16.230469 16.675781 42.90625 17.039062 59.582031.808594.273438-.265625.542969-.535156.808594-.808594 21.894531-21.402344 56.875-21.402344 78.769531 0 16.246094 16.683594 42.9375 17.035156 59.621094.792969.269531-.261719.53125-.527344.792969-.792969 21.902344-21.402344 56.886718-21.402344 78.792968 0 16.265626 16.691406 42.984376 17.035156 59.679688.769531.257812-.253906.511719-.511719.765625-.769531 10.496094-10.355469 24.667969-16.125 39.410156-16.054688 3.976563 0 7.203125 3.226563 7.203125 7.203126 0 3.976562-3.226562 7.199218-7.203125 7.199218-11.386719-.027344-22.296875 4.574219-30.226562 12.75-10.496094 10.351563-24.664063 16.125-39.402344 16.050782zm0 0" fill="#a2dbf2"/><path d="m28.800781 7.613281h86.398438v28.796875h-86.398438zm0 0" fill="#7d8d9c"/><g fill="#5a6470"><path d="m115.203125 7.613281h86.398437v28.796875h-86.398437zm0 0"/><path d="m57.601562 86.8125h-50.398437c-3.980469 0-7.203125-3.222656-7.203125-7.203125 0-3.976563 3.222656-7.199219 7.203125-7.199219h50.398437c3.976563 0 7.199219 3.222656 7.199219 7.199219 0 3.980469-3.222656 7.203125-7.199219 7.203125zm0 0"/><path d="m424.800781 86.8125h-194.398437c-3.976563 0-7.203125-3.222656-7.203125-7.203125 0-3.976563 3.226562-7.199219 7.203125-7.199219h194.398437c3.976563 0 7.203125 3.222656 7.203125 7.199219-.003906 3.980469-3.226562 7.203125-7.203125 7.203125zm0 0"/></g><path d="m295.199219 122.8125h72v71.996094h-72zm0 0" fill="#ffd782"/><path d="m280.800781 223.613281h100.800781v50.398438h-100.800781zm0 0" fill="#ffd782"/><path d="m309.601562 281.210938c-3.972656.003906-7.199218-3.21875-7.199218-7.191407 0-.003906 0-.003906 0-.007812v-21.601563c0-3.976562 3.222656-7.199218 7.199218-7.199218 3.976563 0 7.199219 3.222656 7.199219 7.199218v21.601563c.003907 3.972656-3.214843 7.199219-7.191406 7.199219-.003906 0-.003906 0-.007813 0zm0 0" fill="#ed917e"/><path d="m352.800781 281.210938c-3.972656.003906-7.199219-3.21875-7.199219-7.191407 0-.003906 0-.003906 0-.007812v-21.601563c0-3.976562 3.222657-7.199218 7.199219-7.199218 3.976563 0 7.199219 3.222656 7.199219 7.199218v21.601563c.003906 3.972656-3.214844 7.199219-7.191406 7.199219 0 0-.003906 0-.007813 0zm0 0" fill="#ed917e"/><path d="m388.800781 302.8125h-115.199219c-7.953124 0-14.398437-6.449219-14.398437-14.402344s6.445313-14.398437 14.398437-14.398437h115.199219c7.953125 0 14.402344 6.445312 14.402344 14.398437-.003906 7.953125-6.449219 14.402344-14.402344 14.402344zm0 0" fill="#dd3e46"/><path d="m424.800781 144.410156c-14.738281-.074218-28.90625 5.699219-39.394531 16.054688l-1.175781.96875c-3.074219 2.519531-3.523438 7.054687-1.003907 10.128906 2.519532 3.074219 7.054688 3.523438 10.128907 1.003906.011719-.007812.019531-.015625.03125-.023437l1.195312-.984375c7.925781-8.171875 18.835938-12.773438 30.21875-12.746094 3.976563 0 7.203125-3.222656 7.203125-7.199219 0-3.980469-3.226562-7.203125-7.203125-7.203125zm0 0"/><path d="m7.203125 158.8125c11.375-.027344 22.273437 4.574219 30.191406 12.746094 21.890625 21.402344 56.867188 21.402344 78.757813 0 16.238281-16.679688 42.925781-17.039063 59.605468-.796875.269532.261719.535157.527343.796876.796875 21.898437 21.402344 56.882812 21.402344 78.777343 0 5.660157-5.519532 12.609375-9.535156 20.214844-11.6875 3.871094-.914063 6.265625-4.792969 5.351563-8.660156-.910157-3.855469-4.765626-6.25-8.625-5.359376-9.78125 2.632813-18.757813 7.65625-26.121094 14.613282-7.921875 8.167968-18.820313 12.769531-30.199219 12.746094-2.394531-.007813-4.785156-.203126-7.152344-.589844v-165.007813c.003907-3.976562-3.21875-7.199219-7.191406-7.203125-.003906 0-.003906 0-.007813 0h-172.800781c-3.972656 0-7.199219 3.21875-7.199219 7.191406v.011719 28.796875c-.003906 3.976563 3.214844 7.199219 7.191407 7.203125h.007812 50.398438v129.472657c-.8125.039062-1.566407.125-2.429688.125-11.378906.023437-22.277343-4.574219-30.191406-12.746094-10.484375-10.351563-24.644531-16.125-39.375-16.054688-3.980469 0-7.203125 3.222656-7.203125 7.203125 0 3.976563 3.222656 7.199219 7.203125 7.199219zm158.398437-43.199219h-43.199218v-14.402343h43.199218zm0-28.800781h-43.199218v-14.402344h43.199218zm-43.199218 57.597656v-14.398437h43.199218v14.398437zm43.199218-86.398437h-43.199218v-14.402344h43.199218zm20.136719 102.453125c-1.828125-1.515625-3.742187-3.0625-5.738281-4.578125v-112.277344h14.402344v123.46875c-3.011719-2.039063-5.90625-4.246094-8.664063-6.613281zm8.664063-131.253906h-72v-14.398438h72zm-158.402344-14.398438h72v14.398438h-72zm57.601562 28.796875h14.398438v116.007813c-.339844.28125-.695312.566406-1.03125.847656-4.046875 3.636718-8.535156 6.746094-13.367188 9.246094zm0 0"/><path d="m424.800781 209.210938c-8.675781-.167969-17.257812 1.828124-24.96875 5.808593-3.511719 1.863281-4.847656 6.226563-2.984375 9.738281 1.859375 3.5 6.199219 4.84375 9.707032 3.003907 5.636718-2.898438 11.910156-4.328125 18.246093-4.148438 3.976563 0 7.203125-3.226562 7.203125-7.203125-.003906-3.976562-3.226562-7.199218-7.203125-7.199218zm0 0"/><path d="m7.203125 223.613281c11.375-.027343 22.273437 4.574219 30.191406 12.746094 21.890625 21.402344 56.867188 21.402344 78.757813 0 16.238281-16.683594 42.925781-17.039063 59.605468-.796875.269532.261719.535157.527344.796876.796875 21.902343 21.402344 56.886718 21.402344 78.785156 0 2.667968-2.207031 5.183594-4.296875 7.898437-6.140625 3.289063-2.234375 4.140625-6.714844 1.90625-10.003906-2.238281-3.289063-6.71875-4.140625-10.007812-1.90625-3.269531 2.226562-6.171875 4.628906-8.976563 6.953125-16.25 16.683593-42.949218 17.039062-59.632812.789062-.265625-.261719-.527344-.523437-.789063-.789062-21.894531-21.402344-56.875-21.402344-78.769531 0-16.230469 16.675781-42.910156 17.039062-59.585938.808593-.273437-.265624-.539062-.535156-.804687-.808593-10.484375-10.351563-24.644531-16.125-39.375-16.050781-3.980469 0-7.203125 3.222656-7.203125 7.199218 0 3.976563 3.222656 7.203125 7.203125 7.203125zm0 0"/><path d="m7.203125 288.410156c11.375-.023437 22.273437 4.578125 30.191406 12.75 21.890625 21.402344 56.867188 21.402344 78.757813 0 16.238281-16.683594 42.925781-17.039062 59.605468-.796875.269532.261719.535157.527344.796876.796875 10.492187 10.351563 24.65625 16.125 39.398437 16.050782 8.253906.15625 16.433594-1.644532 23.863281-5.253907 3.558594-1.769531 5.011719-6.089843 3.242188-9.652343-1.773438-3.558594-6.09375-5.011719-9.65625-3.242188-5.433594 2.625-11.417969 3.910156-17.449219 3.75-11.382813.023438-22.289063-4.578125-30.214844-12.75-21.894531-21.402344-56.875-21.402344-78.773437 0-16.230469 16.679688-42.90625 17.039062-59.582032.808594-.273437-.265625-.542968-.535156-.808593-.808594-10.480469-10.347656-24.640625-16.121094-39.375-16.050781-3.976563 0-7.199219 3.222656-7.199219 7.199219 0 3.976562 3.222656 7.199218 7.203125 7.199218zm0 0"/><path d="m7.203125 86.8125h50.398437c3.976563 0 7.199219-3.222656 7.199219-7.203125 0-3.976563-3.222656-7.199219-7.199219-7.199219h-50.398437c-3.980469 0-7.203125 3.222656-7.203125 7.199219 0 3.980469 3.222656 7.203125 7.203125 7.203125zm0 0"/><path d="m424.800781 72.410156h-194.398437c-3.976563 0-7.203125 3.226563-7.203125 7.203125 0 3.976563 3.226562 7.199219 7.203125 7.199219h194.398437c3.976563 0 7.203125-3.222656 7.203125-7.199219-.003906-3.976562-3.226562-7.203125-7.203125-7.203125zm0 0"/><path d="m367.203125 202.011719c3.972656 0 7.195313-3.21875 7.199219-7.191407 0-.003906 0-.007812 0-.007812v-72c0-3.976562-3.21875-7.199219-7.191406-7.199219-.003907 0-.007813 0-.007813 0h-72c-3.976563-.003906-7.199219 3.214844-7.203125 7.191407v.007812 72c0 3.972656 3.21875 7.195312 7.195312 7.199219h.007813zm-64.800781-72h57.597656v57.597656h-57.597656zm0 0"/><path d="m273.601562 223.613281v43.199219c-11.929687 0-21.601562 9.667969-21.601562 21.597656 0 11.929688 9.671875 21.601563 21.601562 21.601563h115.199219c11.929688 0 21.601563-9.671875 21.601563-21.601563 0-11.929687-9.671875-21.597656-21.601563-21.597656v-43.199219c.003907-3.976562-3.21875-7.199219-7.191406-7.203125-.003906 0-.003906 0-.007813 0h-100.800781c-3.972656 0-7.195312 3.21875-7.199219 7.191406zm122.398438 64.796875c0 3.976563-3.222656 7.199219-7.199219 7.203125h-115.199219c-3.976562 0-7.199218-3.226562-7.199218-7.203125 0-3.976562 3.222656-7.199218 7.199218-7.199218h115.199219c3.976563.003906 7.199219 3.226562 7.199219 7.199218zm-108-57.597656h86.402344v36h-14.402344v-14.402344c0-3.976562-3.222656-7.199218-7.199219-7.199218-3.976562 0-7.199219 3.222656-7.199219 7.199218v14.402344h-28.800781v-14.402344c0-3.976562-3.222656-7.199218-7.199219-7.199218-3.976562 0-7.203124 3.222656-7.203124 7.199218v14.402344h-14.398438zm0 0"/></svg>