<svg height="431pt" viewBox="1 -43 431.794 431" width="431pt" xmlns="http://www.w3.org/2000/svg"><path d="m7.199219 7.617188h417.601562v259.199218h-417.601562zm0 0" fill="#195c85"/><path d="m36 36.417969h360v172.800781h-360zm0 0" fill="#cfdfe8"/><path d="m388.800781 245.21875h-43.199219c-3.976562 0-7.203124-3.222656-7.203124-7.199219 0-3.976562 3.226562-7.203125 7.203124-7.203125h43.199219c3.976563 0 7.199219 3.226563 7.199219 7.203125 0 3.976563-3.222656 7.199219-7.199219 7.199219zm0 0" fill="#cfdfe8"/><path d="m316.800781 245.21875h-14.398437c-3.980469 0-7.203125-3.222656-7.203125-7.199219 0-3.976562 3.222656-7.203125 7.203125-7.203125h14.398437c3.976563 0 7.199219 3.226563 7.199219 7.203125 0 3.976563-3.222656 7.199219-7.199219 7.199219zm0 0" fill="#cfdfe8"/><path d="m144 266.816406h144v43.203125h-144zm0 0" fill="#36afad"/><g fill="#195c85"><path d="m338.398438 338.820312h-244.796876c0-15.90625 12.894532-28.800781 28.796876-28.800781h187.203124c15.902344 0 28.796876 12.890625 28.796876 28.800781zm0 0"/><path d="m316.800781 79.617188c-3.976562 0-7.199219-3.226563-7.199219-7.199219 0-1.910157.757813-3.742188 2.109376-5.089844l36-36c2.785156-2.835937 7.34375-2.878906 10.179687-.089844 2.835937 2.785157 2.878906 7.34375.089844 10.179688-.027344.03125-.058594.0625-.089844.089843l-36 36c-1.347656 1.355469-3.179687 2.113282-5.089844 2.109376zm0 0"/><path d="m324 115.617188c-3.976562 0-7.199219-3.222657-7.199219-7.199219 0-1.910157.757813-3.738281 2.109375-5.089844l72-72c2.785156-2.835937 7.34375-2.875 10.179688-.089844 2.835937 2.785157 2.878906 7.34375.089844 10.179688-.027344.03125-.058594.0625-.089844.089843l-72 72c-1.347656 1.351563-3.179688 2.113282-5.089844 2.109376zm0 0"/></g><path d="m424.800781.417969h-417.601562c-3.976563 0-7.199219 3.222656-7.199219 7.199219v259.199218c0 3.976563 3.222656 7.199219 7.199219 7.203125h129.601562v28.800781h-14.398437c-19.875.023438-35.976563 16.125-36 36 0 3.972657 3.222656 7.199219 7.199218 7.199219h244.800782c3.972656 0 7.199218-3.222656 7.199218-7.199219-.023437-19.875-16.128906-35.976562-36-36h-14.402343v-28.800781h129.601562c3.976563 0 7.199219-3.222656 7.203125-7.203125v-259.199218c-.003906-3.976563-3.226562-7.199219-7.203125-7.199219zm-94.835937 331.199219h-227.929688c3.058594-8.625 11.214844-14.390626 20.363282-14.398438h187.203124c9.148438.007812 17.304688 5.773438 20.363282 14.398438zm-49.164063-28.796876h-129.601562v-28.800781h129.601562zm136.800781-43.203124h-403.203124v-244.800782h403.203124zm0 0"/><path d="m36 216.417969h360c3.976562 0 7.199219-3.222657 7.199219-7.199219v-172.800781c-.015625-3.96875-3.230469-7.183594-7.199219-7.199219h-360c-3.976562 0-7.199219 3.222656-7.199219 7.199219v172.800781c0 3.976562 3.222657 7.199219 7.199219 7.199219zm7.199219-172.800781h292.21875l-23.707031 23.710937c-2.816407 2.808594-2.820313 7.367187-.011719 10.179687 2.808593 2.816407 7.367187 2.820313 10.179687.011719.003906-.003906.007813-.007812.011719-.011719l33.890625-33.890624h22.839844l-59.710938 59.710937c-2.8125 2.808594-2.820312 7.367187-.011718 10.179687 2.808593 2.816407 7.367187 2.820313 10.183593.011719.003907-.003906.007813-.007812.007813-.011719l59.710937-59.707031v148.21875h-345.601562zm0 0"/><path d="m388.800781 230.820312h-43.199219c-3.976562 0-7.203124 3.222657-7.203124 7.199219 0 3.976563 3.226562 7.199219 7.203124 7.199219h43.199219c3.976563 0 7.199219-3.222656 7.199219-7.199219 0-3.976562-3.222656-7.199219-7.199219-7.199219zm0 0"/><path d="m316.800781 230.820312h-14.398437c-3.980469 0-7.203125 3.222657-7.203125 7.199219 0 3.976563 3.222656 7.199219 7.203125 7.199219h14.398437c3.976563 0 7.199219-3.222656 7.199219-7.199219 0-3.976562-3.222656-7.199219-7.199219-7.199219zm0 0"/></svg>