<svg height="431pt" viewBox="-35 1 431 431.792" width="431pt" xmlns="http://www.w3.org/2000/svg"><path d="m29.214844 79.199219h302.398437v302.402343h-302.398437zm0 0" fill="#36afad"/><g fill="#195c85"><path d="m7.613281 381.601562h345.601563v43.199219h-345.601563zm0 0"/><path d="m29.214844 7.199219h302.398437v72h-302.398437zm0 0"/><path d="m288.414062 230.398438c0 59.648437-48.351562 108-108 108-59.648437 0-108-48.351563-108-108 0-59.644532 48.351563-108 108-108 59.648438 0 108 48.355468 108 108zm0 0"/></g><path d="m252.414062 230.398438c0 39.765624-32.234374 72-72 72-39.765624 0-72-32.234376-72-72 0-39.761719 32.234376-72 72-72 39.765626 0 72 32.238281 72 72zm0 0" fill="#cfdfe8"/><path d="m72.414062 43.199219h-14.398437c-3.976563 0-7.203125-3.222657-7.203125-7.199219s3.226562-7.199219 7.203125-7.199219h14.398437c3.976563 0 7.199219 3.222657 7.199219 7.199219s-3.222656 7.199219-7.199219 7.199219zm0 0" fill="#fdbd40"/><path d="m115.613281 43.199219h-14.398437c-3.976563 0-7.203125-3.222657-7.203125-7.199219s3.226562-7.199219 7.203125-7.199219h14.398437c3.976563 0 7.199219 3.222657 7.199219 7.199219s-3.222656 7.199219-7.199219 7.199219zm0 0" fill="#fdbd40"/><path d="m245.214844 43.199219h-43.199219c-3.976563 0-7.203125-3.222657-7.203125-7.199219s3.226562-7.199219 7.203125-7.199219h43.199219c3.976562 0 7.199218 3.222657 7.199218 7.199219s-3.222656 7.199219-7.199218 7.199219zm0 0" fill="#fdbd40"/><path d="m144.414062 223.199219c-3.976562.003906-7.199218-3.21875-7.199218-7.195313v-.003906c.015625-15.898438 12.902344-28.78125 28.800781-28.800781 3.976563 0 7.199219 3.222656 7.199219 7.203125 0 3.976562-3.222656 7.199218-7.199219 7.199218-7.949219.007813-14.390625 6.449219-14.402344 14.398438 0 3.976562-3.21875 7.199219-7.195312 7.203125 0-.003906-.003907-.003906-.003907-.003906zm0 0" fill="#195c85"/><path d="m274.015625 201.601562h28.796875v57.597657h-28.796875zm0 0" fill="#fdbd40"/><path d="m302.8125 43.199219c0 7.953125-6.445312 14.402343-14.398438 14.402343-7.953124 0-14.398437-6.449218-14.398437-14.402343s6.445313-14.398438 14.398437-14.398438c7.953126 0 14.398438 6.445313 14.398438 14.398438zm0 0" fill="#36afad"/><path d="m338.8125 7.199219c.003906-3.976563-3.21875-7.199219-7.195312-7.199219 0 0 0 0-.003907 0h-302.398437c-3.976563 0-7.199219 3.222656-7.199219 7.195312v.003907 367.199219h-14.402344c-3.976562 0-7.199219 3.222656-7.199219 7.199218v.003906 43.199219c0 3.976563 3.222657 7.199219 7.195313 7.199219h.003906 345.601563c3.972656 0 7.199218-3.222656 7.199218-7.199219v-43.199219c0-3.976562-3.222656-7.203124-7.199218-7.203124h-14.402344zm-302.398438 7.199219h288v57.601562h-288zm309.601563 403.203124h-331.203125v-28.800781h331.203125zm-309.601563-43.203124v-288h288v288zm0 0"/><path d="m180.414062 151.199219c-43.742187 0-79.199218 35.460937-79.199218 79.199219 0 43.742187 35.457031 79.203124 79.199218 79.203124 43.742188 0 79.199219-35.460937 79.199219-79.203124-.046875-43.71875-35.476562-79.148438-79.199219-79.199219zm0 144c-35.789062 0-64.800781-29.011719-64.800781-64.800781 0-35.785157 29.011719-64.796876 64.800781-64.796876 35.789063 0 64.800782 29.011719 64.800782 64.796876-.039063 35.773437-29.03125 64.761718-64.800782 64.800781zm0 0"/><path d="m72.414062 28.800781h-14.398437c-3.976563 0-7.203125 3.222657-7.203125 7.199219s3.226562 7.199219 7.203125 7.199219h14.398437c3.976563 0 7.199219-3.222657 7.199219-7.199219s-3.222656-7.199219-7.199219-7.199219zm0 0"/><path d="m115.613281 28.800781h-14.398437c-3.976563 0-7.203125 3.222657-7.203125 7.199219s3.226562 7.199219 7.203125 7.199219h14.398437c3.976563 0 7.199219-3.222657 7.199219-7.199219s-3.222656-7.199219-7.199219-7.199219zm0 0"/><path d="m245.214844 28.800781h-43.199219c-3.976563 0-7.203125 3.222657-7.203125 7.199219s3.226562 7.199219 7.203125 7.199219h43.199219c3.976562 0 7.199218-3.222657 7.199218-7.199219s-3.222656-7.199219-7.199218-7.199219zm0 0"/><path d="m166.015625 187.199219c-15.898437.019531-28.785156 12.902343-28.800781 28.800781 0 3.976562 3.222656 7.199219 7.199218 7.199219 3.976563 0 7.199219-3.222657 7.199219-7.199219.011719-7.949219 6.453125-14.390625 14.402344-14.398438 3.976563 0 7.199219-3.226562 7.199219-7.203124 0-3.976563-3.222656-7.199219-7.199219-7.199219zm0 0"/><path d="m302.8125 194.402344h-13.039062c-19.882813-60.4375-84.996094-93.316406-145.433594-73.433594-60.433594 19.882812-93.3125 84.996094-73.429688 145.433594 19.882813 60.4375 84.996094 93.3125 145.433594 73.429687 34.746094-11.429687 62-38.683593 73.429688-73.429687h13.039062c3.976562 0 7.199219-3.222656 7.203125-7.199219 0 0 0 0 0-.003906v-57.597657c0-3.976562-3.222656-7.199218-7.199219-7.199218 0 0 0 0-.003906 0zm-122.398438 136.796875c-55.671874.007812-100.804687-45.117188-100.8125-100.785157-.007812-55.671874 45.117188-100.808593 100.785157-100.816406 41.785156-.003906 79.242187 25.773438 94.167969 64.800782h-.539063c-3.976563 0-7.199219 3.222656-7.203125 7.199218v57.601563c0 3.976562 3.222656 7.199219 7.199219 7.199219h.539062c-14.984375 38.96875-52.386719 64.714843-94.136719 64.800781zm115.199219-79.199219h-14.398437v-43.199219h14.398437zm0 0"/><path d="m288.414062 21.601562c-11.929687 0-21.601562 9.667969-21.601562 21.597657 0 11.929687 9.671875 21.601562 21.601562 21.601562 11.929688 0 21.601563-9.671875 21.601563-21.601562-.015625-11.921875-9.675781-21.585938-21.601563-21.597657zm0 28.796876c-3.976562 0-7.199218-3.222657-7.199218-7.199219 0-3.976563 3.222656-7.199219 7.199218-7.199219 3.976563 0 7.199219 3.222656 7.199219 7.199219-.003906 3.976562-3.222656 7.195312-7.199219 7.199219zm0 0"/></svg>