<svg height="431pt" viewBox="-25 1 431 431.79489" width="431pt" xmlns="http://www.w3.org/2000/svg"><path d="m7.609375 223.199219h100.800781v100.800781h-100.800781zm0 0" fill="#195c85"/><path d="m346.007812 324h-100.796874l14.398437-100.800781h72zm0 0" fill="#195c85"/><path d="m36.410156 223.199219h43.199219v28.800781h-43.199219zm0 0" fill="#ffd782"/><path d="m58.011719 194.398438c-27.835938 0-50.402344-22.5625-50.402344-50.398438v-57.601562c0-27.835938 22.566406-50.398438 50.402344-50.398438 27.832031 0 50.398437 22.5625 50.398437 50.398438v57.601562c0 27.835938-22.566406 50.398438-50.398437 50.398438zm0 0" fill="#ffd782"/><path d="m295.609375 194.398438c-27.835937 0-50.398437-22.5625-50.398437-50.398438v-57.601562c0-27.835938 22.5625-50.398438 50.398437-50.398438s50.398437 22.5625 50.398437 50.398438v57.601562c0 27.835938-22.5625 50.398438-50.398437 50.398438zm0 0" fill="#ffd782"/><path d="m29.210938 108h14.398437v14.398438h-14.398437zm0 0" fill="#5a6470"/><path d="m72.410156 108h14.398438v14.398438h-14.398438zm0 0" fill="#5a6470"/><path d="m29.210938 273.597656h14.398437v14.402344h-14.398437zm0 0" fill="#cfdfe8"/><path d="m72.410156 273.597656h14.398438v14.402344h-14.398438zm0 0" fill="#cfdfe8"/><path d="m266.808594 108h14.402344v14.398438h-14.402344zm0 0" fill="#5a6470"/><path d="m310.007812 108h14.402344v14.398438h-14.402344zm0 0" fill="#5a6470"/><path d="m173.210938 352.796875c-7.953126 0-14.402344-6.445313-14.402344-14.398437v-316.796876c0-7.953124 6.449218-14.402343 14.402344-14.402343 7.953124 0 14.398437 6.449219 14.398437 14.402343v316.796876c0 7.953124-6.445313 14.398437-14.398437 14.398437zm0 0" fill="#36afad"/><g fill="#394d5c"><path d="m374.808594 194.398438c0 7.953124-6.445313 14.402343-14.398438 14.402343s-14.402344-6.449219-14.402344-14.402343c0-7.953126 6.449219-14.398438 14.402344-14.398438s14.398438 6.445312 14.398438 14.398438zm0 0"/><path d="m245.210938 194.398438c0 7.953124-6.449219 14.402343-14.402344 14.402343s-14.398438-6.449219-14.398438-14.402343c0-7.953126 6.445313-14.398438 14.398438-14.398438s14.402344 6.445312 14.402344 14.398438zm0 0"/><path d="m58.011719 36c-27.835938 0-50.402344 22.566406-50.402344 50.398438h100.800781c0-27.832032-22.566406-50.398438-50.398437-50.398438zm0 0"/><path d="m295.609375 64.800781 14.398437 14.398438h35.429688c-3.941406-27.519531-29.445312-46.632813-56.964844-42.691407-22.132812 3.171876-39.519531 20.558594-42.691406 42.691407h35.429688zm0 0"/></g><path d="m58.011719 172.800781c-1.421875 0-2.8125-.421875-3.996094-1.210937l-21.601563-14.398438c-3.285156-2.238281-4.136718-6.71875-1.898437-10.003906 2.207031-3.242188 6.601563-4.121094 9.886719-1.976562l17.609375 11.738281 17.605469-11.738281c3.328124-2.175782 7.789062-1.238282 9.964843 2.09375 2.144531 3.28125 1.261719 7.679687-1.976562 9.886718l-21.601563 14.398438c-1.183594.789062-2.574218 1.210937-3.992187 1.210937zm0 0" fill="#5a6470"/><path d="m295.609375 172.800781c-1.421875 0-2.8125-.421875-3.992187-1.210937l-21.601563-14.398438c-3.332031-2.175781-4.265625-6.636718-2.09375-9.964844 2.171875-3.332031 6.636719-4.265624 9.964844-2.09375.039062.023438.078125.050782.113281.078126l17.609375 11.738281 17.605469-11.738281c3.289062-2.238282 7.765625-1.386719 10.003906 1.898437 2.238281 3.289063 1.386719 7.765625-1.902344 10.003906-.035156.027344-.074218.050781-.113281.078125l-21.601563 14.398438c-1.179687.789062-2.570312 1.210937-3.992187 1.210937zm0 0" fill="#5a6470"/><path d="m144.410156 431.996094c-3.097656 0-5.851562-1.980469-6.832031-4.917969l-7.570313-22.710937-7.566406 22.710937c-1.261718 3.769531-5.339844 5.808594-9.113281 4.550781-2.148437-.71875-3.832031-2.402344-4.550781-4.550781l-14.398438-43.199219c-1.257812-3.773437.78125-7.851562 4.550782-9.109375 3.773437-1.261719 7.851562.777344 9.109374 4.550781l7.570313 22.710938 7.570313-22.710938c1.257812-3.773437 5.335937-5.808593 9.109374-4.550781 2.148438.71875 3.835938 2.402344 4.550782 4.550781l7.570312 22.710938 7.570313-22.710938c1.257812-3.773437 5.335937-5.808593 9.109375-4.550781 3.773437 1.257813 5.8125 5.335938 4.554687 9.109375l-14.402343 43.199219c-.980469 2.9375-3.734376 4.921875-6.832032 4.917969zm0 0" fill="#36afad"/><path d="m223.609375 431.996094h-36c-3.976563 0-7.199219-3.222656-7.199219-7.199219v-43.199219c0-3.976562 3.222656-7.199218 7.199219-7.199218h36c3.976563 0 7.199219 3.222656 7.199219 7.199218 0 3.976563-3.222656 7.199219-7.199219 7.199219h-28.800781v28.800781h28.800781c3.976563 0 7.199219 3.222656 7.199219 7.199219 0 3.980469-3.222656 7.199219-7.199219 7.199219zm0 0" fill="#36afad"/><path d="m288.410156 244.796875h14.398438v14.402344h-14.398438zm0 0" fill="#cfdfe8"/><path d="m288.410156 273.597656h14.398438v14.402344h-14.398438zm0 0" fill="#cfdfe8"/><path d="m.410156 324c0 3.972656 3.222656 7.199219 7.199219 7.199219h100.800781c3.976563 0 7.199219-3.222657 7.203125-7.199219v-100.800781c0-3.976563-3.226562-7.199219-7.203125-7.199219h-100.800781c-3.976563 0-7.199219 3.222656-7.199219 7.199219zm72-93.601562v14.398437h-28.800781v-14.398437zm-57.601562 0h14.402344v21.601562c0 3.976562 3.222656 7.199219 7.199218 7.199219h43.199219c3.976563 0 7.199219-3.222657 7.203125-7.199219v-21.601562h14.398438v86.398437h-86.402344zm0 0"/><path d="m29.210938 108h14.398437v14.398438h-14.398437zm0 0"/><path d="m72.410156 108h14.398438v14.398438h-14.398438zm0 0"/><path d="m29.210938 273.597656h14.398437v14.402344h-14.398437zm0 0"/><path d="m72.410156 273.597656h14.398438v14.402344h-14.398438zm0 0"/><path d="m351.449219 328.714844c1.367187-1.574219 1.980469-3.667969 1.683593-5.734375l-14.398437-100.800781c-.503906-3.546876-3.542969-6.183594-7.125-6.183594h-72c-3.582031 0-6.621094 2.636718-7.125 6.183594l-14.398437 100.800781c-.566407 3.933593 2.164062 7.582031 6.101562 8.144531.339844.050781.679688.074219 1.023438.074219h100.800781c2.085937 0 4.070312-.90625 5.4375-2.484375zm-97.941407-11.914063 12.34375-86.402343h59.515626l12.34375 86.402343zm0 0"/><path d="m266.808594 108h14.402344v14.398438h-14.402344zm0 0"/><path d="m310.007812 108h14.402344v14.398438h-14.402344zm0 0"/><path d="m173.210938 0c-11.925782.0117188-21.589844 9.675781-21.601563 21.601562v316.796876c0 11.929687 9.671875 21.601562 21.601563 21.601562 11.929687 0 21.597656-9.671875 21.597656-21.601562v-316.796876c-.011719-11.925781-9.675782-21.5898432-21.597656-21.601562zm7.199218 338.398438c0 3.976562-3.222656 7.199218-7.203125 7.199218-3.976562 0-7.199219-3.222656-7.199219-7.199218v-316.796876c0-3.976562 3.222657-7.203124 7.199219-7.203124 3.980469 0 7.203125 3.226562 7.203125 7.203124zm0 0"/><path d="m382.007812 194.398438c0-11.929688-9.667968-21.597657-21.597656-21.597657-11.929687 0-21.601562 9.667969-21.601562 21.597657 0 11.929687 9.671875 21.601562 21.601562 21.601562 11.921875-.015625 21.585938-9.675781 21.597656-21.601562zm-28.800781 0c0-3.976563 3.226563-7.199219 7.203125-7.199219 3.976563 0 7.199219 3.222656 7.199219 7.199219 0 3.976562-3.222656 7.203124-7.199219 7.203124-3.976562-.007812-7.195312-3.226562-7.203125-7.203124zm0 0"/><path d="m209.210938 194.398438c0 11.929687 9.667968 21.601562 21.597656 21.601562 11.929687 0 21.601562-9.671875 21.601562-21.601562 0-11.929688-9.671875-21.597657-21.601562-21.597657-11.921875.011719-21.585938 9.675781-21.597656 21.597657zm28.796874 0c0 3.976562-3.222656 7.203124-7.199218 7.203124-3.976563 0-7.199219-3.226562-7.199219-7.203124 0-3.976563 3.222656-7.199219 7.199219-7.199219 3.976562.003906 7.195312 3.226562 7.199218 7.199219zm0 0"/><path d="m30.417969 147.207031c-2.203125 3.308594-1.308594 7.777344 2 9.980469l21.597656 14.402344c2.417969 1.613281 5.570313 1.613281 7.988281 0l21.601563-14.402344c3.289062-2.234375 4.140625-6.710938 1.90625-10-2.207031-3.246094-6.609375-4.125-9.894531-1.980469l-17.605469 11.738281-17.605469-11.734374c-3.300781-2.210938-7.765625-1.324219-9.972656 1.972656-.003906.007812-.007813.015625-.015625.023437zm0 0"/><path d="m313.214844 145.210938-17.605469 11.738281-17.605469-11.738281c-3.328125-2.175782-7.792968-1.242188-9.96875 2.085937-2.144531 3.285156-1.265625 7.6875 1.980469 9.894531l21.601563 14.398438c2.417968 1.613281 5.566406 1.613281 7.984374 0l21.601563-14.398438c3.289063-2.238281 4.140625-6.714844 1.90625-10.003906-2.207031-3.246094-6.609375-4.125-9.894531-1.976562zm0 0"/><path d="m136.839844 379.320312c-1.257813-3.773437-5.335938-5.808593-9.109375-4.550781-2.148438.714844-3.835938 2.402344-4.550781 4.550781l-7.570313 22.710938-7.570313-22.710938c-1.257812-3.773437-5.335937-5.808593-9.109374-4.550781-3.769532 1.257813-5.808594 5.335938-4.550782 9.109375l14.398438 43.199219c1.261718 3.769531 5.339844 5.808594 9.109375 4.550781 2.152343-.714844 3.835937-2.402344 4.554687-4.550781l7.570313-22.710937 7.566406 22.710937c1.261719 3.769531 5.339844 5.808594 9.109375 4.550781 2.152344-.714844 3.835938-2.402344 4.554688-4.550781l14.398437-43.199219c1.257813-3.773437-.78125-7.851562-4.550781-9.109375-3.773438-1.257812-7.851563.78125-9.109375 4.550781l-7.570313 22.710938zm0 0"/><path d="m180.410156 381.597656v43.199219c0 3.976563 3.222656 7.199219 7.199219 7.203125h36c3.976563 0 7.199219-3.222656 7.199219-7.203125 0-3.976563-3.222656-7.199219-7.199219-7.199219h-28.800781v-28.800781h28.800781c3.976563 0 7.199219-3.222656 7.199219-7.199219 0-3.976562-3.222656-7.199218-7.199219-7.199218h-36c-3.976563 0-7.199219 3.222656-7.199219 7.199218zm0 0"/><path d="m288.410156 244.796875h14.398438v14.402344h-14.398438zm0 0"/><path d="m288.410156 273.597656h14.398438v14.402344h-14.398438zm0 0"/><path d="m58.011719 201.597656c31.792969-.035156 57.5625-25.800781 57.597656-57.597656v-57.601562c0-31.808594-25.789063-57.597657-57.597656-57.597657-31.8125 0-57.601563 25.789063-57.601563 57.597657v57.601562c.035156 31.796875 25.804688 57.5625 57.601563 57.597656zm7.25-157.738281c.285156.046875.574219.078125.859375.128906 2.203125.429688 4.367187 1.03125 6.476562 1.800781.355469.128907.714844.253907 1.070313.390626 2.027343.792968 3.992187 1.738281 5.878906 2.824218.316406.183594.621094.378906.933594.570313 1.882812 1.140625 3.675781 2.425781 5.363281 3.839843.183594.15625.355469.328126.539062.488282 1.726563 1.496094 3.335938 3.125 4.804688 4.875l.082031.089844c1.449219 1.769531 2.757813 3.652343 3.914063 5.628906.148437.253906.308594.496094.453125.75 1.078125 1.925781 2.007812 3.929687 2.777343 5.996094.132813.355468.265626.707031.386719 1.0625.730469 2.101562 1.296875 4.253906 1.691407 6.445312.027343.148438.042968.300781.070312.449219h-85.101562c.023437-.148438.042968-.300781.070312-.449219.394531-2.191406.957031-4.34375 1.6875-6.445312.125-.355469.257812-.710938.390625-1.0625.769531-2.066407 1.695313-4.070313 2.773437-5.996094.144532-.253906.308594-.496094.457032-.75 1.152344-1.976563 2.460937-3.859375 3.910156-5.628906l.082031-.089844c1.472657-1.75 3.078125-3.378906 4.808594-4.875.179687-.160156.351563-.332032.535156-.488282 1.691407-1.414062 3.484375-2.699218 5.367188-3.839843.308593-.191407.617187-.386719.933593-.570313 1.886719-1.085937 3.851563-2.03125 5.878907-2.824218.351562-.136719.710937-.261719 1.070312-.390626 2.105469-.769531 4.273438-1.371093 6.472657-1.800781.285156-.050781.578124-.082031.863281-.128906 4.792969-.878906 9.707031-.878906 14.5 0zm-50.453125 49.742187h86.402344v50.398438c0 23.859375-19.34375 43.199219-43.199219 43.199219-23.859375 0-43.203125-19.339844-43.203125-43.199219zm0 0"/><path d="m238.007812 144c0 31.8125 25.789063 57.597656 57.601563 57.597656s57.597656-25.785156 57.597656-57.597656v-57.601562c-.019531-2.738282-.238281-5.472657-.648437-8.179688l.003906-.042969-.050781-.253906c-.242188-1.652344-.550781-3.285156-.933594-4.890625l-.039063-.148438c-4.074218-16.71875-15.394531-30.75-30.871093-38.265624l-.140625-.070313c-1.417969-.683594-2.863282-1.308594-4.335938-1.882813-.246094-.09375-.496094-.179687-.746094-.273437-1.316406-.484375-2.648437-.9375-4.011718-1.328125-.488282-.144531-.988282-.253906-1.484375-.382812-1.167969-.300782-2.335938-.601563-3.53125-.828126-.851563-.167968-1.714844-.269531-2.574219-.394531-.898438-.132812-1.789062-.292969-2.703125-.378906-1.824219-.179687-3.667969-.28125-5.53125-.28125-1.859375 0-3.703125.101563-5.527344.28125-.914062.085937-1.804687.246094-2.703125.378906-.859375.125-1.722656.226563-2.574218.394531-1.195313.226563-2.363282.527344-3.53125.828126-.496094.128906-.996094.238281-1.484376.382812-1.363281.390625-2.695312.84375-4.011718 1.328125-.25.09375-.5.179687-.746094.273437-1.476562.570313-2.921875 1.199219-4.335938 1.882813l-.140624.070313c-15.480469 7.515624-26.796876 21.546874-30.875 38.265624l-.035157.148438c-.382812 1.605469-.691406 3.234375-.933593 4.890625l-.050782.253906.003906.042969c-.410156 2.707031-.628906 5.441406-.648437 8.179688v57.601562zm100.800782 0c0 23.859375-19.339844 43.199219-43.199219 43.199219s-43.199219-19.339844-43.199219-43.199219v-57.601562h28.800782c1.90625 0 3.738281-.757813 5.089843-2.109376l9.308594-9.308593 9.308594 9.308593c1.351562 1.351563 3.183593 2.109376 5.089843 2.109376h28.800782zm-49.398438-100.304688c4.105469-.660156 8.292969-.660156 12.398438 0 .359375.054688.722656.105469 1.082031.167969 15.375 2.707031 28.117187 13.445313 33.390625 28.136719h-23.289062l-12.292969-12.289062c-2.808594-2.8125-7.363281-2.8125-10.175781-.003907 0 0-.003907.003907-.003907.003907l-12.292969 12.289062h-23.289062c5.273438-14.691406 18.019531-25.429688 33.390625-28.136719.359375-.0625.722656-.113281 1.082031-.167969zm0 0"/></svg>