<svg height="432pt" viewBox="-29 0 432 432.09517" width="432pt" xmlns="http://www.w3.org/2000/svg"><path d="m280.644531 345.355469h86.339844v28.78125h-86.339844zm0 0" fill="#195c85"/><path d="m79.1875 7.195312h35.972656v287.796876h-35.972656zm0 0" fill="#3c89af"/><g fill="#195c85"><path d="m79.1875 50.363281h-57.5625c-7.945312 0-14.386719-6.441406-14.386719-14.386719 0-7.949218 6.441407-14.390624 14.386719-14.390624h57.5625zm0 0"/><path d="m115.160156 100.730469h158.289063v43.167969h-158.289063zm0 0"/><path d="m115.160156 215.847656h165.484375v28.78125h-165.484375zm0 0"/></g><path d="m280.644531 215.847656h28.777344v158.289063h-28.777344zm0 0" fill="#3c89af"/><path d="m316.617188 402.917969c0 11.917969-9.664063 21.582031-21.582032 21.582031-11.921875 0-21.585937-9.664062-21.585937-21.582031 0-11.921875 9.664062-21.585938 21.585937-21.585938 11.917969 0 21.582032 9.664063 21.582032 21.585938zm0 0" fill="#5a6470"/><path d="m295.035156 431.695312c-15.894531 0-28.78125-12.882812-28.78125-28.777343s12.886719-28.78125 28.78125-28.78125c15.894532 0 28.777344 12.886719 28.777344 28.78125-.015625 15.886719-12.890625 28.761719-28.777344 28.777343zm0-43.167968c-7.949218 0-14.390625 6.441406-14.390625 14.390625 0 7.945312 6.441407 14.386719 14.390625 14.386719 7.945313 0 14.386719-6.441407 14.386719-14.386719-.007813-7.945313-6.445313-14.382813-14.386719-14.390625zm0 0" fill="#5a6470"/><path d="m230.277344 143.898438h28.78125v71.949218h-28.78125zm0 0" fill="#3c89af"/><path d="m237.472656 323.773438c0 55.628906-45.097656 100.726562-100.726562 100.726562-55.632813 0-100.730469-45.097656-100.730469-100.726562 0-55.632813 45.097656-100.730469 100.730469-100.730469 55.628906 0 100.726562 45.097656 100.726562 100.730469zm0 0" fill="#5a6470"/><path d="m208.695312 323.773438c0 39.734374-32.214843 71.949218-71.949218 71.949218-39.738282 0-71.949219-32.214844-71.949219-71.949218 0-39.738282 32.210937-71.949219 71.949219-71.949219 39.734375 0 71.949218 32.210937 71.949218 71.949219zm0 0" fill="#f4f4e6"/><path d="m172.71875 323.773438c-3.972656 0-7.195312-3.21875-7.195312-7.191407 0-.003906 0-.003906 0-.003906 0-11.699219-6.589844-21.585937-14.390626-21.585937-3.972656 0-7.195312-3.222657-7.195312-7.195313 0-3.976563 3.222656-7.195313 7.195312-7.195313 15.875 0 28.78125 16.136719 28.78125 35.972657 0 3.972656-3.21875 7.195312-7.191406 7.195312 0 .003907 0 .003907-.003906.003907zm0 0" fill="#5a6470"/><path d="m136.746094 244.628906c-43.710938 0-79.144532 35.433594-79.144532 79.144532 0 43.707031 35.433594 79.144531 79.144532 79.144531 43.707031 0 79.144531-35.4375 79.144531-79.144531-.050781-43.691407-35.457031-79.097657-79.144531-79.144532zm0 143.898438c-35.765625 0-64.757813-28.992188-64.757813-64.753906 0-35.765626 28.992188-64.757813 64.757813-64.757813 35.761718 0 64.753906 28.992187 64.753906 64.757813-.039062 35.746093-29.007812 64.714843-64.753906 64.753906zm0 0"/><path d="m21.625 57.558594h50.367188v180.078125c-47.71875 35.746093-57.425782 103.40625-21.679688 151.125s103.410156 57.421875 151.125 21.675781c47.71875-35.746094 57.425781-103.40625 21.679688-151.125-1.941407-2.585938-3.996094-5.085938-6.160157-7.488281h56.492188v122.3125c.019531 2.648437 1.511719 5.0625 3.867187 6.273437-12.53125 9.785156-14.753906 27.875-4.96875 40.402344s27.871094 14.75 40.398438 4.96875c12.53125-9.785156 14.753906-27.875 4.96875-40.402344-1.148438-1.46875-2.4375-2.824218-3.847656-4.046875h53.117187c3.972656 0 7.191406-3.21875 7.195313-7.191406v-.003906-28.78125c0-3.972657-3.222657-7.191407-7.195313-7.195313h-50.367187v-122.3125c0-3.972656-3.21875-7.195312-7.191407-7.195312h-.003906-43.167969v-57.558594h7.195313c3.972656 0 7.195312-3.21875 7.195312-7.191406 0-.003906 0-.003906 0-.003906v-43.167969c0-3.976563-3.21875-7.195313-7.191406-7.195313h-.003906-151.09375v-86.339844c0-3.972656-3.21875-7.195312-7.191407-7.195312h-.003906-35.972656c-3.976562 0-7.195312 3.21875-7.199219 7.191406v.003906 7.195313h-50.363281c-11.921875 0-21.5820312 9.664063-21.5820312 21.585937 0 11.921876 9.6601562 21.582032 21.5820312 21.582032zm115.121094 359.746094c-51.660156 0-93.535156-41.875-93.535156-93.53125 0-51.660157 41.875-93.535157 93.535156-93.535157 51.65625 0 93.53125 41.875 93.53125 93.535157-.054688 51.632812-41.898438 93.476562-93.53125 93.53125zm-14.390625-208.652344v-57.558594h100.730469v57.558594zm172.679687 208.652344c-7.949218 0-14.390625-6.441407-14.390625-14.386719 0-7.949219 6.441407-14.390625 14.390625-14.390625 7.945313 0 14.386719 6.441406 14.386719 14.390625-.007813 7.941406-6.445313 14.378906-14.386719 14.386719zm64.753906-64.753907v14.390625h-43.171874v-14.390625zm-57.558593 14.390625h-14.390625v-143.898437h14.390625zm-28.78125-129.507812h-71.050781c-.3125.039062-.621094.101562-.925782.1875-8.042968-6.066406-16.898437-10.972656-26.304687-14.578125h98.28125zm-21.585938-28.78125h-14.390625v-57.558594h14.390625zm14.390625-100.726563v28.777344h-143.898437v-28.777344zm-179.875-93.535156h21.585938v205.472656c-7.480469 2.054688-14.71875 4.914063-21.585938 8.527344zm-64.753906 14.390625h50.367188v14.386719h-50.367188c-3.972656 0-7.195312-3.21875-7.195312-7.195313 0-3.972656 3.222656-7.191406 7.195312-7.191406zm0 0"/><path d="m151.132812 280.601562c-3.972656 0-7.195312 3.222657-7.195312 7.195313 0 3.976563 3.222656 7.195313 7.195312 7.195313 7.800782 0 14.390626 9.886718 14.390626 21.585937 0 3.976563 3.222656 7.195313 7.195312 7.195313 3.976562 0 7.195312-3.21875 7.195312-7.195313 0-19.835937-12.90625-35.976563-28.78125-35.976563zm0 0"/></svg>