<svg height="431pt" viewBox="-28 1 431 431.793" width="431pt" xmlns="http://www.w3.org/2000/svg"><path d="m216.410156 352.800781h-57.597656l14.398438-201.601562h28.800781zm0 0" fill="#195c85"/><path d="m94.011719 352.800781h187.199219v72h-187.199219zm0 0" fill="#f49e21"/><path d="m223.613281 136.800781c0 19.882813-16.121093 36-36 36-19.882812 0-36.003906-16.117187-36.003906-36 0-19.882812 16.121094-36 36.003906-36 19.878907 0 36 16.117188 36 36zm0 0" fill="#f49e21"/><g fill="#fcf05a"><path d="m94.011719 144c-3.976563 0-7.199219-3.222656-7.199219-7.199219.046875-43.722656 35.476562-79.152343 79.199219-79.199219 3.976562 0 7.199219 3.222657 7.199219 7.199219 0 3.976563-3.222657 7.199219-7.199219 7.199219-35.773438.042969-64.757813 29.03125-64.800781 64.800781 0 3.976563-3.222657 7.199219-7.199219 7.199219zm0 0"/><path d="m65.210938 115.199219c-3.976563 0-7.199219-3.222657-7.199219-7.199219.046875-43.71875 35.476562-79.152344 79.199219-79.199219 3.976562 0 7.199218 3.222657 7.199218 7.199219s-3.222656 7.199219-7.199218 7.199219c-35.769532.042969-64.757813 29.03125-64.800782 64.800781 0 3.976562-3.222656 7.199219-7.199218 7.199219zm0 0"/><path d="m36.410156 86.398438c-3.976562 0-7.199218-3.222657-7.199218-7.199219.050781-43.71875 35.480468-79.1484378 79.199218-79.199219 3.976563 0 7.203125 3.222656 7.203125 7.199219 0 3.976562-3.226562 7.203125-7.203125 7.203125-35.769531.039062-64.757812 29.027344-64.800781 64.796875 0 3.976562-3.222656 7.199219-7.199219 7.199219zm0 0"/><path d="m281.210938 144c-3.976563 0-7.199219-3.222656-7.199219-7.199219-.042969-35.773437-29.03125-64.757812-64.800781-64.800781-3.976563 0-7.199219-3.222656-7.199219-7.199219 0-3.976562 3.222656-7.203125 7.199219-7.203125 43.71875.050782 79.152343 35.480469 79.199218 79.203125 0 3.976563-3.222656 7.199219-7.199218 7.199219zm0 0"/><path d="m310.011719 115.199219c-3.976563 0-7.199219-3.222657-7.199219-7.199219-.042969-35.769531-29.03125-64.757812-64.800781-64.800781-3.976563 0-7.203125-3.222657-7.203125-7.199219s3.226562-7.199219 7.203125-7.199219c43.71875.046875 79.148437 35.476563 79.199219 79.199219 0 3.976562-3.222657 7.199219-7.199219 7.199219zm0 0"/><path d="m338.8125 86.398438c-3.976562 0-7.199219-3.222657-7.199219-7.199219-.042969-35.769531-29.03125-64.757813-64.800781-64.800781-3.976562 0-7.203125-3.222657-7.203125-7.199219 0-3.976563 3.226563-7.199219 7.203125-7.199219 43.71875.0507812 79.148438 35.480469 79.199219 79.199219 0 3.976562-3.222657 7.199219-7.199219 7.199219zm0 0"/><path d="m137.210938 244.800781c-43.71875-.050781-79.152344-35.480469-79.199219-79.199219 0-3.980468 3.222656-7.203124 7.199219-7.203124 3.976562 0 7.199218 3.222656 7.199218 7.203124.042969 35.769532 29.03125 64.757813 64.800782 64.796876 3.976562 0 7.203124 3.226562 7.203124 7.203124 0 3.976563-3.226562 7.199219-7.203124 7.199219zm0 0"/><path d="m108.410156 273.601562c-43.71875-.050781-79.148437-35.480468-79.199218-79.199218 0-3.980469 3.222656-7.203125 7.199218-7.203125 3.976563 0 7.203125 3.222656 7.203125 7.203125.039063 35.769531 29.027344 64.757812 64.800781 64.796875 3.976563 0 7.199219 3.226562 7.199219 7.203125 0 3.976562-3.226562 7.199218-7.203125 7.199218zm0 0"/><path d="m79.613281 302.402344c-43.722656-.050782-79.152343-35.480469-79.203125-79.203125 0-3.976563 3.226563-7.199219 7.203125-7.199219 3.976563 0 7.199219 3.222656 7.199219 7.199219.042969 35.773437 29.027344 64.757812 64.800781 64.800781 3.976563 0 7.199219 3.222656 7.199219 7.199219 0 3.976562-3.222656 7.203125-7.199219 7.203125zm0 0"/><path d="m238.011719 244.800781c-3.976563 0-7.199219-3.222656-7.199219-7.203125 0-3.976562 3.222656-7.199218 7.199219-7.199218 35.769531-.042969 64.757812-29.027344 64.800781-64.800782 0-3.976562 3.222656-7.199218 7.199219-7.199218 3.976562 0 7.203125 3.222656 7.203125 7.199218-.050782 43.722656-35.484375 79.152344-79.203125 79.203125zm0 0"/><path d="m266.8125 273.601562c-3.976562 0-7.203125-3.222656-7.203125-7.203124 0-3.976563 3.226563-7.199219 7.203125-7.199219 35.769531-.042969 64.757812-29.027344 64.800781-64.800781 0-3.976563 3.222657-7.199219 7.199219-7.199219s7.199219 3.222656 7.199219 7.199219c-.050781 43.722656-35.480469 79.152343-79.199219 79.203124zm0 0"/><path d="m295.613281 302.402344c-3.980469 0-7.203125-3.226563-7.203125-7.203125 0-3.976563 3.222656-7.199219 7.203125-7.199219 35.769531-.042969 64.757813-29.03125 64.796875-64.800781 0-3.976563 3.226563-7.199219 7.203125-7.199219 3.976563 0 7.199219 3.222656 7.199219 7.199219-.050781 43.722656-35.480469 79.152343-79.199219 79.203125zm0 0"/></g><path d="m252.410156 403.199219h-14.398437c-3.976563 0-7.199219-3.222657-7.199219-7.199219s3.222656-7.199219 7.199219-7.199219h14.398437c3.976563 0 7.203125 3.222657 7.203125 7.199219s-3.226562 7.199219-7.203125 7.199219zm0 0" fill="#fff"/><path d="m209.210938 403.199219h-14.398438c-3.976562 0-7.199219-3.222657-7.199219-7.199219s3.222657-7.199219 7.199219-7.199219h14.398438c3.976562 0 7.203124 3.222657 7.203124 7.199219s-3.226562 7.199219-7.203124 7.199219zm0 0" fill="#fff"/><path d="m144.410156 136.800781c.015625 14.75 7.5625 28.472657 20.011719 36.386719l-12.316406 172.414062h-58.09375c-3.976563 0-7.199219 3.222657-7.199219 7.199219v72c0 3.976563 3.222656 7.199219 7.199219 7.199219h187.199219c3.976562 0 7.199218-3.222656 7.203124-7.199219v-72c0-3.976562-3.222656-7.199219-7.203124-7.203125h-58.09375l-12.3125-172.410156c20.109374-12.820312 26.015624-39.511719 13.195312-59.621094-12.820312-20.105468-39.511719-26.015625-59.621094-13.195312-12.445312 7.933594-19.972656 21.671875-19.96875 36.429687zm129.601563 280.800781h-172.800781v-57.601562h172.800781zm-65.332031-72h-42.136719l11.902343-166.601562c6.039063 1.332031 12.296876 1.332031 18.335938 0zm-21.066407-237.601562c15.902344 0 28.796875 12.894531 28.796875 28.800781s-12.894531 28.800781-28.796875 28.800781c-15.90625 0-28.800781-12.894531-28.800781-28.800781.015625-15.898437 12.902344-28.78125 28.800781-28.800781zm0 0"/><path d="m86.8125 136.800781c0 3.976563 3.222656 7.199219 7.199219 7.199219 3.976562 0 7.203125-3.222656 7.203125-7.199219.039062-35.773437 29.027344-64.757812 64.796875-64.800781 3.976562 0 7.203125-3.222656 7.203125-7.199219 0-3.976562-3.226563-7.203125-7.203125-7.203125-43.71875.050782-79.152344 35.480469-79.199219 79.203125zm0 0"/><path d="m58.011719 108c0 3.976562 3.222656 7.199219 7.199219 7.199219 3.976562 0 7.199218-3.222657 7.199218-7.199219.042969-35.769531 29.03125-64.757812 64.800782-64.800781 3.976562 0 7.203124-3.222657 7.203124-7.199219s-3.226562-7.199219-7.203124-7.199219c-43.71875.050781-79.148438 35.480469-79.199219 79.199219zm0 0"/><path d="m36.410156 86.398438c3.976563 0 7.199219-3.222657 7.203125-7.199219.039063-35.769531 29.027344-64.757813 64.800781-64.800781 3.976563 0 7.199219-3.222657 7.199219-7.199219 0-3.976563-3.226562-7.199219-7.203125-7.199219-43.71875.0507812-79.148437 35.480469-79.199218 79.199219 0 3.976562 3.226562 7.199219 7.199218 7.199219zm0 0"/><path d="m209.210938 72c35.773437.042969 64.757812 29.027344 64.800781 64.800781 0 3.976563 3.222656 7.199219 7.199219 7.199219 3.980468 0 7.203124-3.222656 7.203124-7.199219-.050781-43.722656-35.480468-79.152343-79.199218-79.199219-3.980469 0-7.203125 3.222657-7.203125 7.199219 0 3.976563 3.222656 7.199219 7.199219 7.199219zm0 0"/><path d="m238.011719 43.199219c35.769531.042969 64.757812 29.03125 64.800781 64.800781 0 3.976562 3.222656 7.199219 7.199219 7.199219 3.976562 0 7.203125-3.222657 7.203125-7.199219-.050782-43.71875-35.480469-79.148438-79.203125-79.199219-3.976563 0-7.199219 3.222657-7.199219 7.199219s3.222656 7.199219 7.199219 7.199219zm0 0"/><path d="m266.8125 14.398438c35.769531.042968 64.757812 29.03125 64.800781 64.800781 0 3.976562 3.222657 7.203125 7.199219 7.203125s7.199219-3.226563 7.199219-7.203125c-.050781-43.71875-35.480469-79.1484378-79.199219-79.199219-3.976562 0-7.203125 3.222656-7.203125 7.199219 0 3.976562 3.226563 7.199219 7.203125 7.199219zm0 0"/><path d="m137.210938 230.398438c-35.769532-.039063-64.757813-29.027344-64.800782-64.796876 0-3.980468-3.222656-7.203124-7.199218-7.203124-3.976563 0-7.199219 3.222656-7.199219 7.203124.046875 43.71875 35.476562 79.148438 79.199219 79.199219 3.976562 0 7.199218-3.222656 7.199218-7.203125 0-3.976562-3.222656-7.199218-7.199218-7.199218zm0 0"/><path d="m108.410156 273.601562c3.976563 0 7.203125-3.222656 7.203125-7.203124 0-3.976563-3.226562-7.199219-7.203125-7.199219-35.769531-.042969-64.757812-29.027344-64.800781-64.800781 0-3.976563-3.222656-7.199219-7.199219-7.199219-3.976562 0-7.199218 3.222656-7.199218 7.199219.050781 43.722656 35.480468 79.152343 79.199218 79.203124zm0 0"/><path d="m79.613281 302.402344c3.976563 0 7.199219-3.226563 7.199219-7.203125 0-3.976563-3.222656-7.199219-7.199219-7.199219-35.773437-.042969-64.761719-29.03125-64.800781-64.800781 0-3.976563-3.226562-7.199219-7.203125-7.199219s-7.199219 3.222656-7.199219 7.199219c.050782 43.722656 35.480469 79.152343 79.203125 79.203125zm0 0"/><path d="m317.210938 165.601562c0-3.980468-3.222657-7.203124-7.199219-7.203124-3.976563 0-7.199219 3.222656-7.199219 7.203124-.042969 35.769532-29.03125 64.757813-64.800781 64.796876-3.976563 0-7.203125 3.226562-7.203125 7.203124 0 3.976563 3.226562 7.199219 7.203125 7.199219 43.71875-.050781 79.148437-35.480469 79.199219-79.199219zm0 0"/><path d="m266.8125 273.601562c43.71875-.050781 79.148438-35.480468 79.199219-79.199218 0-3.980469-3.222657-7.203125-7.199219-7.203125s-7.203125 3.222656-7.203125 7.203125c-.039063 35.769531-29.027344 64.757812-64.796875 64.796875-3.980469 0-7.203125 3.226562-7.203125 7.203125.003906 3.976562 3.226563 7.199218 7.203125 7.199218zm0 0"/><path d="m295.613281 288c-3.980469 0-7.203125 3.222656-7.203125 7.199219 0 3.980469 3.222656 7.203125 7.203125 7.203125 43.71875-.050782 79.148438-35.480469 79.199219-79.199219 0-3.980469-3.222656-7.203125-7.203125-7.203125-3.976563 0-7.199219 3.222656-7.199219 7.203125-.039062 35.765625-29.027344 64.753906-64.796875 64.796875zm0 0"/><path d="m238.011719 403.199219h14.398437c3.976563 0 7.203125-3.222657 7.203125-7.199219s-3.226562-7.199219-7.203125-7.199219h-14.398437c-3.976563 0-7.199219 3.222657-7.199219 7.199219s3.222656 7.199219 7.199219 7.199219zm0 0"/><path d="m209.210938 388.800781h-14.398438c-3.976562 0-7.199219 3.222657-7.199219 7.199219s3.222657 7.199219 7.199219 7.199219h14.398438c3.976562 0 7.203124-3.222657 7.203124-7.199219s-3.226562-7.199219-7.203124-7.199219zm0 0"/></svg>