<svg id="Capa_1" enable-background="new 0 0 512.002 512.002" height="512" viewBox="0 0 512.002 512.002" width="512" xmlns="http://www.w3.org/2000/svg"><path d="m114.59 236.827h-16.121c-4.142 0-7.5 3.358-7.5 7.5s3.358 7.5 7.5 7.5h16.121c4.142 0 7.5-3.358 7.5-7.5 0-4.143-3.357-7.5-7.5-7.5zm60.981 42.079h-16.121c-4.142 0-7.5 3.358-7.5 7.5s3.358 7.5 7.5 7.5h16.121c4.142 0 7.5-3.358 7.5-7.5s-3.358-7.5-7.5-7.5zm-60.981 0h-16.121c-4.142 0-7.5 3.358-7.5 7.5s3.358 7.5 7.5 7.5h16.121c4.142 0 7.5-3.358 7.5-7.5s-3.357-7.5-7.5-7.5zm261.814 72.165c-3.123-2.721-7.86-2.397-10.582.727-1.987 2.28-4.449 4.032-7.17 5.172v-11.853h.794c4.142 0 7.5-3.358 7.5-7.5s-3.358-7.5-7.5-7.5h-.794v-.352c0-4.142-3.358-7.5-7.5-7.5s-7.5 3.358-7.5 7.5v.352h-.793c-4.142 0-7.5 3.358-7.5 7.5s3.358 7.5 7.5 7.5h.793v11.853c-2.721-1.14-5.183-2.892-7.17-5.172-2.721-3.124-7.459-3.448-10.582-.727s-3.448 7.459-.727 10.582c6.553 7.52 16.021 11.832 25.978 11.832 9.958 0 19.426-4.313 25.979-11.832 2.723-3.123 2.397-7.861-.726-10.582zm78.909-96.617c-4.142 0-7.5 3.358-7.5 7.5v7.064c0 4.142 3.358 7.5 7.5 7.5s7.5-3.358 7.5-7.5v-7.064c0-4.142-3.358-7.5-7.5-7.5zm-26.404 9.223c-3.122-2.722-7.86-2.397-10.582.726-1.406 1.613-3.435 2.539-5.565 2.539s-4.158-.925-5.564-2.539c-2.722-3.123-7.46-3.448-10.581-.726-3.123 2.722-3.448 7.459-.726 10.582 4.256 4.883 10.405 7.683 16.872 7.683s12.616-2.8 16.872-7.683c2.722-3.123 2.396-7.86-.726-10.582zm-253.338-26.85h-16.121c-4.142 0-7.5 3.358-7.5 7.5s3.358 7.5 7.5 7.5h16.121c4.142 0 7.5-3.358 7.5-7.5 0-4.143-3.358-7.5-7.5-7.5zm330.724-19.384c-5.203-6.732-13.067-10.593-21.576-10.593h-30.504v-35.247h7.793c8.75 0 15.868-7.118 15.868-15.868v-13.273c0-8.749-7.119-15.868-15.868-15.868h-7.793v-13.382c0-8.411-6.842-15.253-15.253-15.253h-11.545c-8.411 0-15.253 6.842-15.253 15.253v13.382h-7.793c-8.75 0-15.868 7.118-15.868 15.868v13.273c0 8.749 7.119 15.868 15.868 15.868h7.793v35.247h-30.287c-26.568 0-49.802 17.956-56.5 43.666l-14.173 54.396c-1.407 5.402-6.289 9.175-11.872 9.175h-23.885v-46.117h9.076c9.512 0 17.25-7.739 17.25-17.25v-12.784c0-9.512-7.739-17.251-17.25-17.251h-9.076v-16.828h.119c10.854 0 19.684-8.83 19.684-19.683v-22.849c0-10.854-8.83-19.683-19.684-19.683h-86.803v-9.247c0-9.921-8.071-17.992-17.993-17.992h-20.606v-6.318h8.661c4.142 0 7.5-3.358 7.5-7.5s-3.358-7.5-7.5-7.5h-8.661v-5.587h15.378c4.142 0 7.5-3.358 7.5-7.5s-3.358-7.5-7.5-7.5h-15.378v-5.675c0-4.142-3.358-7.5-7.5-7.5s-7.5 3.358-7.5 7.5v5.675h-15.377c-4.142 0-7.5 3.358-7.5 7.5s3.358 7.5 7.5 7.5h15.377v5.587h-8.661c-4.142 0-7.5 3.358-7.5 7.5s3.358 7.5 7.5 7.5h8.661v6.318h-20.606c-9.921 0-17.993 8.071-17.993 17.992v9.247h-24.78c-4.142 0-7.5 3.358-7.5 7.5s3.358 7.5 7.5 7.5h203.782c2.583 0 4.684 2.101 4.684 4.683v22.849c0 2.582-2.101 4.683-4.684 4.683h-216.112c-2.583 0-4.684-2.101-4.684-4.683v-18.674c0-4.142-3.358-7.5-7.5-7.5s-7.5 3.358-7.5 7.5v18.673c0 10.854 8.83 19.683 19.684 19.683h.119v110.23h-32.301c-8.197 0-15.88 3.634-21.08 9.971-5.199 6.336-7.264 14.582-5.663 22.621l9.708 48.769c.138.693.301 1.377.458 2.062.009.044.019.087.029.13 7.434 32.023 36.199 55.041 69.261 55.041h306.124c4.142 0 7.5-3.358 7.5-7.5s-3.358-7.5-7.5-7.5h-306.124c-22.763 0-42.944-13.829-51.617-34.139h424.234c-6.154 14.484-18.124 25.818-33.258 31.059-3.914 1.355-5.988 5.627-4.633 9.541 1.355 3.915 5.627 5.99 9.541 4.633 22.518-7.798 39.549-26.22 45.557-49.28l41.296-158.501c2.146-8.234.392-16.818-4.811-23.55zm-332.531-75.802h-62.198v-9.247c0-1.65 1.342-2.992 2.993-2.992h56.212c1.65 0 2.993 1.342 2.993 2.992zm253.4-28.429c0-.14.113-.253.253-.253h11.545c.14 0 .253.113.253.253v13.382h-12.051zm-22.793 43.39c-.479 0-.868-.389-.868-.868v-13.273c0-.479.39-.868.868-.868h57.638c.479 0 .868.389.868.868v13.273c0 .479-.39.868-.868.868zm34.844 15v35.247h-12.051v-35.247zm-154.691 64.082c1.241 0 2.25 1.01 2.25 2.251v12.784c0 1.241-1.01 2.251-2.25 2.251h-62.438c-1.241 0-2.251-1.01-2.251-2.251v-12.784c0-1.241 1.01-2.251 2.251-2.251zm-209.95-31.828h185.874v16.828h-38.361c-9.512 0-17.251 7.739-17.251 17.251v12.784c0 9.512 7.739 17.25 17.251 17.25h38.361v46.117h-185.874zm422.017 33.355-39.428 151.33h-433.006l-8.916-44.792c-.72-3.617.209-7.326 2.548-10.177s5.796-4.486 9.484-4.486h272.06c12.408 0 23.259-8.386 26.387-20.393l14.173-54.396c4.978-19.105 22.242-32.448 41.985-32.448h102.842c3.828 0 7.366 1.737 9.707 4.766s3.13 6.892 2.164 10.596zm-260.039 41.695h-16.121c-4.142 0-7.5 3.358-7.5 7.5s3.358 7.5 7.5 7.5h16.121c4.142 0 7.5-3.358 7.5-7.5s-3.358-7.5-7.5-7.5zm-116.764 77.213h-46.518c-4.142 0-7.5 3.358-7.5 7.5s3.358 7.5 7.5 7.5h46.518c4.142 0 7.5-3.358 7.5-7.5s-3.358-7.5-7.5-7.5zm250.425-79.601c4.142 0 7.5-3.358 7.5-7.5v-7.064c0-4.142-3.358-7.5-7.5-7.5s-7.5 3.358-7.5 7.5v7.064c0 4.142 3.358 7.5 7.5 7.5z"/></svg>