<svg id="Capa_1" enable-background="new 0 0 512.038 512.038" height="512" viewBox="0 0 512.038 512.038" width="512" xmlns="http://www.w3.org/2000/svg"><path d="m241.149 81.064c2.934-2.934 2.934-7.691 0-10.626-2.934-2.934-7.691-2.934-10.626 0-2.934 2.934-2.934 7.692 0 10.626s7.692 2.934 10.626 0zm-90.669 69.417c-2.934 2.934-2.934 7.692 0 10.626s7.691 2.934 10.626 0c2.934-2.934 2.934-7.691 0-10.626-2.934-2.934-7.691-2.934-10.626 0zm-80.042 80.043c-2.934 2.934-2.934 7.691 0 10.626 2.934 2.934 7.691 2.934 10.626 0 2.934-2.934 2.934-7.691 0-10.626-2.935-2.934-7.692-2.934-10.626 0zm200.451 200.451c-2.934 2.934-2.934 7.691 0 10.626 2.934 2.934 7.691 2.934 10.626 0 2.934-2.934 2.934-7.691 0-10.626s-7.692-2.934-10.626 0zm80.043-80.043c-2.934 2.934-2.934 7.691 0 10.626 2.934 2.934 7.691 2.934 10.626 0 2.934-2.934 2.934-7.691 0-10.626-2.935-2.934-7.692-2.934-10.626 0zm-64.908-149.352c1.464 1.465 3.384 2.197 5.303 2.197s3.839-.732 5.303-2.197c2.929-2.929 2.929-7.678 0-10.606l-8.022-8.021c-2.93-2.93-7.677-2.929-10.607 0-2.929 2.929-2.928 7.678 0 10.606zm214.715 50.649 3.639-3.639c7.521-7.52 9.727-18.664 5.621-28.39-2.421-5.734-5.011-11.496-7.697-17.124-2.475-5.185-7.329-8.86-12.985-9.832-4.588-.79-9.267.281-13.03 2.884-28.374-53.173-69.113-99.497-118.325-134.408-3.378-2.396-8.059-1.601-10.457 1.778-2.396 3.378-1.6 8.06 1.778 10.457 48.481 34.392 88.415 80.3 115.765 133.009l-59.14 59.14c-43.397-62.78-97.193-116.576-159.973-159.973l59.14-59.14c5.091 2.641 10.149 5.412 15.092 8.271 1.183.685 2.474 1.01 3.749 1.01 2.589 0 5.109-1.343 6.498-3.746 2.074-3.585.85-8.173-2.736-10.248-3.866-2.236-7.803-4.413-11.768-6.528 2.602-3.764 3.671-8.443 2.884-13.028-.971-5.656-4.647-10.511-9.832-12.985-5.622-2.684-11.384-5.273-17.125-7.697-9.727-4.107-20.871-1.901-28.39 5.62l-3.639 3.639c-7.338-2.536-14.735-4.865-22.056-6.916-17.738-4.971-36.853.034-49.879 13.061l-33.356 33.356c-.005.004-.009.009-.014.014l-103.696 103.697c-.001.001-.003.003-.004.004l-33.359 33.359c-13.027 13.027-18.032 32.14-13.061 49.879 2.05 7.317 4.379 14.714 6.916 22.056l-3.639 3.639c-7.52 7.521-9.726 18.664-5.621 28.389 2.42 5.732 5.01 11.493 7.697 17.125 2.475 5.185 7.329 8.86 12.985 9.832.991.17 1.987.254 2.977.254 3.59 0 7.097-1.109 10.047-3.15 28.35 53.133 69.05 99.432 118.212 134.335 1.318.936 2.833 1.385 4.335 1.385 2.347 0 4.66-1.099 6.122-3.159 2.398-3.377 1.604-8.06-1.774-10.458-48.429-34.382-88.323-80.261-115.65-132.927l59.14-59.14c43.397 62.78 97.193 116.576 159.973 159.973l-59.14 59.14c-5.077-2.634-10.118-5.394-15.042-8.242-3.584-2.074-8.174-.849-10.247 2.737-2.074 3.586-.848 8.173 2.737 10.247 3.847 2.225 7.767 4.392 11.716 6.498-2.602 3.764-3.671 8.443-2.884 13.028.971 5.656 4.646 10.51 9.831 12.985 5.621 2.683 11.383 5.273 17.126 7.698 3.249 1.372 6.655 2.038 10.033 2.038 6.732 0 13.348-2.652 18.355-7.66l3.639-3.639c7.342 2.537 14.739 4.866 22.056 6.916 4.533 1.271 9.156 1.889 13.744 1.889 13.366 0 26.438-5.253 36.135-14.95l137.067-137.062c.002-.002.004-.005.007-.007l33.358-33.358c13.027-13.026 18.031-32.139 13.061-49.879-2.05-7.319-4.379-14.716-6.916-22.057zm-302.259-224.178c9.201-9.2 22.699-12.734 35.226-9.224 4.73 1.326 9.495 2.778 14.255 4.321l-50.079 50.079-26.466-18.111zm-37.855 37.856 26.466 18.111-103.073 103.073-18.111-26.466zm-132.575 132.574 27.064-27.064 18.112 26.466-50.079 50.079c-1.544-4.762-2.995-9.527-4.321-14.255-3.51-12.528.025-26.026 9.224-35.226zm73.769 30.552c-.006.006-.012.012-.018.018l-69.163 69.163c-.006.006-.013.013-.019.019l-5.04 5.04c-.843.843-1.815.824-2.319.737-.515-.088-1.458-.402-1.986-1.508-2.589-5.426-5.084-10.977-7.415-16.499-1.72-4.075-.775-8.765 2.408-11.948l70.054-70.054c.004-.004.008-.008.012-.012l185.723-185.722c2.128-2.128 4.928-3.256 7.77-3.256 1.408 0 2.828.277 4.178.848 5.531 2.335 11.082 4.83 16.499 7.416 1.107.528 1.42 1.471 1.509 1.986.087.504.106 1.476-.737 2.319l-5.039 5.039c-.007.007-.014.013-.021.021l-69.163 69.163c-.006.005-.011.011-.016.016zm15.091 6.122 118.245-118.245c63.006 43.146 116.827 96.967 159.973 159.973l-118.245 118.245c-63.006-43.146-116.827-96.967-159.973-159.973zm196.648 248.833c-9.2 9.199-22.696 12.732-35.226 9.224-4.728-1.325-9.493-2.777-14.255-4.321l50.079-50.079 26.466 18.111zm37.855-37.856-26.466-18.111 103.074-103.073 18.111 26.466zm132.575-132.574-27.065 27.064-18.111-26.466 50.079-50.079c1.543 4.761 2.995 9.526 4.32 14.255 3.511 12.528-.023 26.026-9.223 35.226zm9.784-75.575-70.052 70.052c-.005.005-.01.01-.015.015l-115.659 115.659c-.002.002-.004.004-.006.005l-70.058 70.058c-3.183 3.184-7.874 4.13-11.948 2.409-5.533-2.336-11.083-4.831-16.499-7.416-1.107-.528-1.42-1.471-1.509-1.986-.087-.504-.106-1.475.737-2.319l201.454-201.454c.006-.006.012-.012.018-.018l69.162-69.162c.008-.008.016-.016.024-.024l5.037-5.037c.628-.627 1.326-.777 1.85-.777.18 0 .34.018.469.04.515.088 1.458.402 1.986 1.508 2.588 5.423 5.083 10.974 7.415 16.498 1.723 4.076.778 8.766-2.406 11.949zm-62.797 32.907c-2.934 2.934-2.934 7.691 0 10.626 2.934 2.934 7.691 2.934 10.626 0 2.934-2.934 2.934-7.691 0-10.626-2.935-2.934-7.692-2.934-10.626 0zm-160.664-41.321c-15.49-15.49-29.766-1.215-35.861 4.881-6.096 6.096-20.371 20.371-4.881 35.861 6.449 6.449 14.807 9.719 22.915 9.719 7.257 0 14.314-2.621 19.62-7.926 11.233-11.232 10.428-30.314-1.793-42.535zm-8.813 31.929c-5.385 5.384-14.949 4.58-21.322-1.793-3.353-3.353-4.884-4.884 4.881-14.648 5.538-5.538 8.427-7.442 10.503-7.442 1.584 0 2.694 1.11 4.146 2.561 6.371 6.373 7.176 15.938 1.792 21.322zm-67.94 16.505c-2.929-2.93-7.678-2.929-10.607 0s-2.929 7.678 0 10.606l8.022 8.021c1.465 1.465 3.384 2.197 5.303 2.197 1.92 0 3.839-.732 5.304-2.197 2.929-2.929 2.928-7.678-.001-10.606z"/></svg>