<svg id="Capa_1" enable-background="new 0 0 511.987 511.987" height="512" viewBox="0 0 511.987 511.987" width="512" xmlns="http://www.w3.org/2000/svg"><path d="m83.769 281.007c1.464 1.464 3.384 2.197 5.303 2.197 1.92 0 3.839-.732 5.303-2.197 2.929-2.929 2.929-7.678 0-10.606l-19.562-19.562c-2.929-2.929-7.678-2.929-10.606 0-2.929 2.929-2.929 7.678 0 10.606zm314.231-134.649c15.701 0 28.476-12.774 28.476-28.476s-12.774-28.476-28.476-28.476-28.477 12.774-28.477 28.476c.001 15.701 12.775 28.476 28.477 28.476zm0-41.952c7.431 0 13.476 6.045 13.476 13.476s-6.045 13.476-13.476 13.476-13.477-6.045-13.477-13.476c.001-7.431 6.047-13.476 13.477-13.476zm-328.49 259.968c1.919 0 3.839-.732 5.303-2.197l19.562-19.562c2.929-2.929 2.929-7.678 0-10.606-2.929-2.929-7.678-2.929-10.606 0l-19.562 19.562c-2.929 2.929-2.929 7.678 0 10.606 1.464 1.464 3.383 2.197 5.303 2.197zm388.497-141.899c22.876 0 41.487-18.611 41.487-41.487s-18.611-41.488-41.487-41.488-41.487 18.611-41.487 41.487 18.611 41.488 41.487 41.488zm0-67.975c14.605 0 26.487 11.882 26.487 26.487s-11.882 26.487-26.487 26.487-26.487-11.882-26.487-26.487c0-14.604 11.882-26.487 26.487-26.487zm-100.422 136.118v8.192c0 4.142 3.357 7.5 7.5 7.5s7.5-3.358 7.5-7.5v-8.192c0-4.142-3.357-7.5-7.5-7.5-4.142 0-7.5 3.358-7.5 7.5zm-117.934 15.89c0 31.92 11.534 50.227 31.645 50.227 29.121 0 51.708-27 51.708-50.227 0-23.228-22.587-50.228-51.708-50.228-20.111.001-31.645 18.308-31.645 50.228zm68.352 0c0 15.857-16.939 35.227-36.708 35.227-3.965 0-9.671-1.247-13.429-12.031-2.104-6.036-3.216-14.057-3.216-23.196 0-9.14 1.112-17.161 3.216-23.197 3.758-10.784 9.464-12.031 13.429-12.031 19.77.001 36.708 19.371 36.708 35.228zm-30.268 6.093h3.592c4.143 0 7.5-3.358 7.5-7.5s-3.357-7.5-7.5-7.5h-3.592c-4.143 0-7.5 3.358-7.5 7.5s3.357 7.5 7.5 7.5zm144.06-18.355c-1.858 2.132-4.54 3.355-7.358 3.355-2.817 0-5.499-1.223-7.357-3.355-2.723-3.123-7.46-3.448-10.582-.726-3.123 2.721-3.447 7.459-.727 10.582 4.708 5.402 11.512 8.5 18.666 8.5s13.958-3.098 18.666-8.5c2.721-3.123 2.396-7.86-.727-10.582-3.122-2.723-7.859-2.397-10.581.726zm41.996-11.128c-4.143 0-7.5 3.358-7.5 7.5v8.192c0 4.142 3.357 7.5 7.5 7.5s7.5-3.358 7.5-7.5v-8.192c0-4.142-3.358-7.5-7.5-7.5zm35.272-11.015c-31.857-36.259-69.831-52.542-107.957-59.59-9.446-26.728-35.029-45.022-63.833-45.042l-.478-.001c-48.605 0-94.402 9.518-136.121 28.29-9.178 4.13-15.804 12.124-18.178 21.932-2.341 9.67-.153 19.646 6.002 27.369.379.475.774.948 1.164 1.421-9.303 5.446-18.437 11.468-27.412 18.075-13.238-23.128-36.902-44.964-64.988-59.606-3.674-1.915-8.203-.489-10.118 3.183-1.915 3.673-.49 8.203 3.183 10.118 26.399 13.763 48.37 34.233 59.92 55.567-4.875 3.934-9.708 8.027-14.492 12.318-5.785 5.189-9.103 12.614-9.103 20.371 0 7.756 3.318 15.181 9.103 20.37 4.782 4.289 9.612 8.38 14.485 12.313-17.629 32.571-57.445 59.011-87.667 66.372-12.907 3.143-23.344 2.574-28.634-1.563-16.176-12.647-8.17-28.785 6.231-54.069 8.196-14.388 16.671-29.267 16.671-43.423s-8.475-29.035-16.671-43.423c-14.402-25.284-22.408-41.422-6.231-54.069 4.833-3.778 13.789-4.602 25.216-2.321 4.063.808 8.013-1.825 8.823-5.887.811-4.062-1.825-8.012-5.887-8.823-16.012-3.196-28.94-1.393-37.392 5.213-27.206 21.27-10.77 50.125 2.437 73.311 7.23 12.691 14.705 25.815 14.705 35.999s-7.475 23.307-14.704 35.998c-13.207 23.186-29.643 52.041-2.437 73.311 5.752 4.497 13.509 6.765 22.899 6.764 5.618 0 11.821-.813 18.524-2.445 32.405-7.893 75.379-35.219 96.134-71.673 52.092 38.345 109.491 57.077 174.536 57.077 39.338 0 85.258-3.297 127.573-27.756 3.587-2.073 4.813-6.66 2.74-10.246-2.073-3.587-6.66-4.813-10.246-2.74-39.246 22.684-82.719 25.742-120.067 25.742-72.403 0-134.887-24.477-191.022-74.829-2.656-2.382-4.119-5.651-4.119-9.204s1.463-6.822 4.119-9.205c56.135-50.352 118.619-74.829 191.022-74.829 53.751 0 114.913 7.073 161.001 59.529 12.273 13.97 12.273 35.039.001 49.008-4.355 4.956-8.974 9.648-13.727 13.945-3.072 2.778-3.311 7.521-.533 10.593 2.778 3.073 7.52 3.311 10.594.534 5.177-4.681 10.201-9.785 14.935-15.171 17.231-19.612 17.231-49.194-.001-68.808zm-172.27-64.628c-2.213 0-4.414.027-6.609.07-3.92-5.216-9.036-11.209-14.279-15.073-3.333-2.458-8.029-1.746-10.487 1.588-2.457 3.335-1.746 8.03 1.589 10.487 1.322.975 2.8 2.31 4.372 3.93-20.692 1.63-40.595 5.289-59.79 11.008-2.539-2.537-5.044-4.829-7.182-6.781-1.325-1.21-2.47-2.255-3.34-3.103-2.967-2.889-7.715-2.826-10.606.142-2.889 2.968-2.826 7.716.142 10.606 1.042 1.015 2.269 2.134 3.689 3.432.371.339.755.69 1.148 1.049-11.022 4.038-21.805 8.798-32.374 14.264-.983-1.119-1.935-2.248-2.839-3.383-3.247-4.073-4.396-9.354-3.153-14.49 1.276-5.272 4.832-9.567 9.754-11.782 40.33-18.147 82.842-26.969 129.965-26.969l.449.001c19.582.014 37.239 10.845 46.309 27.407-15.862-1.862-31.593-2.403-46.758-2.403z"/></svg>