<svg id="Capa_1" enable-background="new 0 0 512.003 512.003" height="512" viewBox="0 0 512.003 512.003" width="512" xmlns="http://www.w3.org/2000/svg"><path d="m48.363 363.225h-13.895c-4.143 0-7.5 3.358-7.5 7.5s3.357 7.5 7.5 7.5h13.896c4.143 0 7.5-3.358 7.5-7.5s-3.358-7.5-7.501-7.5zm0-45.317h-13.895c-4.143 0-7.5 3.358-7.5 7.5s3.357 7.5 7.5 7.5h13.896c4.143 0 7.5-3.358 7.5-7.5-.001-4.142-3.358-7.5-7.501-7.5zm417.22 79.119c4.037 0 7.31-3.273 7.31-7.31s-3.273-7.31-7.31-7.31-7.31 3.273-7.31 7.31c-.001 4.038 3.272 7.31 7.31 7.31zm-95.742-7.31c0 4.038 3.273 7.31 7.31 7.31s7.31-3.273 7.31-7.31-3.273-7.31-7.31-7.31c-4.038 0-7.31 3.273-7.31 7.31zm135.46-91.046c-6.633-22.866-20.201-42.511-39.238-56.811-19.036-14.299-41.684-21.857-65.492-21.857h-41.288v-15.012c0-12.113-9.854-21.968-21.968-21.968h-20.702v-46.743c0-13.513 10.994-24.507 24.508-24.507h14.907c.272 10.896 9.201 19.681 20.161 19.681h14.737c5.718 0 11.301-1.99 15.721-5.603 3.207-2.622 3.682-7.347 1.06-10.554s-7.348-3.68-10.554-1.06c-1.773 1.45-3.927 2.217-6.227 2.217h-14.737c-2.859 0-5.186-2.327-5.186-5.187v-55.21c0-2.86 2.327-5.186 5.186-5.186h14.737c5.433 0 9.852 4.419 9.852 9.851v27.958c0 4.142 3.357 7.5 7.5 7.5s7.5-3.358 7.5-7.5v-27.956c0-13.703-11.148-24.851-24.852-24.851h-14.737c-10.961 0-19.89 8.786-20.161 19.682h-14.908c-44.514 0-80.727 36.214-80.727 80.727v46.743h-20.703c-12.112 0-21.967 9.854-21.967 21.968v15.012h-40.661c-43.079 0-81.854 25.67-99.307 64.071l-4.776-2.866c-10.678-6.407-22.904-9.793-35.356-9.793h-15.99c-11.929-.001-21.633 9.703-21.633 21.632v110.036c0 11.928 9.704 21.632 21.633 21.632h15.989c12.453 0 24.68-3.386 35.356-9.793l4.766-2.86c1.349 2.973 2.822 5.876 4.421 8.697.176.368.378.722.609 1.054 14.669 25.224 39.108 43.966 68.102 51.133 4.024.994 8.087-1.46 9.081-5.481.993-4.021-1.46-8.087-5.481-9.081-20.688-5.114-38.688-17.062-51.454-33.354h64.292c8.911 7.107 20.186 11.37 32.443 11.37h20.939c12.258 0 23.532-4.263 32.443-11.37h220.213c-17.46 22.226-44.522 36.098-74.009 36.098h-210.567c-4.143 0-7.5 3.358-7.5 7.5s3.357 7.5 7.5 7.5h210.568c39.401 0 75.071-21.353 94.263-54.288.214-.303.403-.624.57-.958 4.414-7.757 7.92-16.142 10.352-25.032l1.476-5.395c8.229-30.089 7.986-61.828-.704-91.786zm-433.969 95.255.763 2.71c.106.377.227.748.337 1.124l-7.17 4.302c-8.347 5.008-17.904 7.655-27.64 7.655h-15.989c-3.657 0-6.633-2.975-6.633-6.632v-110.036c0-3.657 2.976-6.633 6.633-6.633h15.989c9.734 0 19.292 2.647 27.64 7.655l7.174 4.305c-.11.376-.235.744-.341 1.122l-.763 2.709c-8.446 30.001-8.446 61.718 0 91.719zm204.061-257.645c0-36.242 29.485-65.727 65.727-65.727h14.881v26.219h-14.881c-21.785 0-39.508 17.723-39.508 39.507v46.743h-26.22v-46.742zm-42.67 68.711c0-3.842 3.125-6.968 6.967-6.968h97.625c3.842 0 6.968 3.126 6.968 6.968v15.012h-111.56zm25.109 179.275c0 20.476-16.658 37.135-37.135 37.135h-20.939c-20.477 0-37.135-16.659-37.135-37.135v-72.401c0-20.476 16.658-37.135 37.135-37.135h20.939c20.477 0 37.135 16.659 37.135 37.135zm233.704 2.233-1.476 5.395c-1.741 6.366-4.121 12.432-7.057 18.137h-217.011c4.344-7.606 6.84-16.397 6.84-25.765v-72.401c0-28.747-23.388-52.135-52.135-52.135h-20.939c-28.747 0-52.135 23.388-52.135 52.135v72.401c0 9.368 2.496 18.159 6.84 25.765h-61.061c-1.841-3.581-3.456-7.299-4.835-11.132-.06-.194-.129-.385-.206-.576-.666-1.891-1.278-3.808-1.826-5.753l-.763-2.71c-7.698-27.342-7.698-56.247 0-83.59l.763-2.709c.578-2.054 1.241-4.069 1.951-6.058.002-.005.003-.01.005-.015 13.238-37.088 48.776-62.486 88.571-62.486h223.508c20.534 0 40.065 6.519 56.483 18.851 2.467 1.853 4.813 3.822 7.063 5.877h-88.25c-26.422 0-47.918 21.496-47.918 47.918s21.496 47.917 47.918 47.917h120.821c-.66 10.412-2.372 20.776-5.151 30.934zm-115.67-45.934c-18.151 0-32.918-14.767-32.918-32.917 0-18.151 14.767-32.918 32.918-32.918h101.506c5.988 8.463 10.562 17.914 13.522 28.119 3.579 12.337 5.57 25.005 6.003 37.716zm-142.979.001h-1.454c-2.263-6.379-7.326-11.442-13.705-13.705v-1.454c0-4.142-3.357-7.5-7.5-7.5-4.142 0-7.5 3.358-7.5 7.5v1.454c-6.379 2.263-11.442 7.326-13.705 13.705h-1.454c-4.143 0-7.5 3.358-7.5 7.5s3.357 7.5 7.5 7.5h1.454c2.263 6.379 7.325 11.441 13.705 13.704v1.454c0 4.142 3.358 7.5 7.5 7.5 4.143 0 7.5-3.358 7.5-7.5v-1.454c6.379-2.263 11.442-7.325 13.705-13.704h1.454c4.143 0 7.5-3.358 7.5-7.5s-3.358-7.5-7.5-7.5zm-22.66 14.994c-4.133 0-7.495-3.362-7.495-7.495s3.362-7.495 7.495-7.495 7.495 3.362 7.495 7.495c.001 4.133-3.362 7.495-7.495 7.495zm-98.372 26.846c-4.038 0-7.31 3.273-7.31 7.31 0 4.038 3.273 7.31 7.31 7.31s7.31-3.273 7.31-7.31-3.273-7.31-7.31-7.31zm176.864 0c-4.037 0-7.31 3.273-7.31 7.31 0 4.038 3.273 7.31 7.31 7.31s7.31-3.273 7.31-7.31-3.273-7.31-7.31-7.31z"/></svg>