<svg id="Capa_1" enable-background="new 0 0 512 512" height="512" viewBox="0 0 512 512" width="512" xmlns="http://www.w3.org/2000/svg"><path d="m140.305 218.235c-4.142 0-7.5 3.358-7.5 7.5v19.528c0 4.142 3.358 7.5 7.5 7.5s7.5-3.358 7.5-7.5v-19.528c0-4.142-3.358-7.5-7.5-7.5zm358.959 14.812-47.364-29.538 26.248-49.263c4.551-8.54 4.254-18.571-.795-26.832-2.159-3.534-6.776-4.649-10.31-2.489-3.535 2.16-4.649 6.776-2.489 10.31 2.25 3.683 2.383 8.152.356 11.957l-19.567 36.723c-7.791-20.395-18.781-39.219-32.362-55.853l24.725.842c.087.003.174.004.26.004 4.024 0 7.354-3.192 7.491-7.245.141-4.14-3.101-7.61-7.24-7.751l-38.808-1.321-1.899-55.788c-.32-9.393-5.37-17.807-13.51-22.506-8.141-4.699-17.952-4.866-26.245-.447l-49.264 26.25-29.538-47.364c-4.974-7.975-13.555-12.736-22.953-12.736s-17.979 4.761-22.953 12.736l-29.538 47.364-49.263-26.249c-8.295-4.42-18.106-4.253-26.245.446-8.14 4.699-13.19 13.113-13.51 22.506l-1.899 55.788-55.788 1.899c-9.393.32-17.807 5.37-22.506 13.51-4.699 8.139-4.866 17.951-.447 26.245l26.249 49.264-47.364 29.539c-7.975 4.973-12.736 13.554-12.736 22.952s4.761 17.979 12.736 22.953l47.364 29.538-26.249 49.263c-4.42 8.294-4.253 18.105.446 26.245s13.113 13.19 22.506 13.51l55.788 1.899 1.297 38.098c.138 4.053 3.466 7.245 7.491 7.245.086 0 .173-.001.26-.004 4.14-.141 7.381-3.611 7.24-7.751l-.817-24.014c16.634 13.582 35.458 24.572 55.853 32.363l-36.722 19.567c-4.935 2.63-9.864 1.236-12.833-.943-3.338-2.452-8.032-1.735-10.484 1.603-2.453 3.338-1.735 8.032 1.603 10.484 4.788 3.518 10.386 5.304 16.022 5.304 4.344 0 8.711-1.062 12.744-3.21l49.263-26.249 29.538 47.364c4.975 7.974 13.556 12.735 22.954 12.735s17.979-4.761 22.953-12.736l29.539-47.364 49.263 26.249c4.008 2.136 8.37 3.2 12.726 3.2 4.66 0 9.313-1.218 13.519-3.646 8.14-4.699 13.19-13.113 13.51-22.506l1.899-55.788 55.788-1.899c9.393-.32 17.807-5.37 22.506-13.51 4.699-8.139 4.866-17.951.447-26.245l-26.25-49.264 47.364-29.539c7.975-4.973 12.736-13.554 12.736-22.952s-4.761-17.979-12.736-22.953zm-443.297 55.189-35.294-22.011c-3.605-2.248-5.673-5.975-5.673-10.225 0-4.249 2.068-7.977 5.673-10.225l35.294-22.011c-1.686 10.502-2.575 21.266-2.575 32.236s.889 21.734 2.575 32.236zm308.841-241.147c3.751-1.998 8.012-1.925 11.691.199 3.68 2.125 5.874 5.779 6.019 10.026l1.42 41.705c-16.634-13.582-35.458-24.572-55.853-32.362zm-119.033-26.416c2.248-3.605 5.976-5.673 10.225-5.673 4.25 0 7.977 2.068 10.225 5.673l22.011 35.294c-10.502-1.686-21.266-2.575-32.236-2.575s-21.734.889-32.236 2.575zm-116.293 36.641c.145-4.247 2.338-7.901 6.019-10.026 3.679-2.125 7.94-2.197 11.691-.198l36.723 19.567c-20.395 7.791-39.219 18.781-55.852 32.362zm-82.393 89.878c-1.999-3.75-1.926-8.011.199-11.691s5.779-5.874 10.026-6.019l41.705-1.42c-13.582 16.634-24.572 35.458-32.362 55.853zm10.225 235.326c-4.247-.145-7.901-2.338-10.026-6.019-2.125-3.68-2.197-7.941-.198-11.691l19.567-36.723c7.791 20.395 18.781 39.219 32.362 55.853zm208.911 108.809c-2.248 3.605-5.975 5.673-10.225 5.673-4.249 0-7.977-2.068-10.225-5.673l-22.011-35.294c10.502 1.686 21.266 2.575 32.236 2.575s21.734-.889 32.236-2.575zm116.293-36.641c-.145 4.247-2.338 7.901-6.019 10.026-3.679 2.124-7.941 2.197-11.691.198l-36.723-19.567c20.395-7.791 39.219-18.781 55.852-32.362zm-126.518-11.078c-103.447 0-187.608-84.161-187.608-187.608s84.161-187.608 187.608-187.608 187.608 84.161 187.608 187.608-84.161 187.608-187.608 187.608zm208.911-78.8c1.999 3.75 1.926 8.011-.199 11.691s-5.779 5.874-10.026 6.019l-41.705 1.42c13.582-16.634 24.572-35.458 32.362-55.853zm26.416-98.583-35.294 22.011c1.686-10.502 2.575-21.266 2.575-32.236s-.889-21.734-2.575-32.236l35.294 22.011c3.605 2.248 5.673 5.976 5.673 10.225 0 4.25-2.068 7.977-5.673 10.225zm-119.632-47.99c-4.142 0-7.5 3.358-7.5 7.5v19.528c0 4.142 3.358 7.5 7.5 7.5s7.5-3.358 7.5-7.5v-19.528c0-4.142-3.358-7.5-7.5-7.5zm-115.695 9.671c-15.44 0-44.181 0-44.181 32.299 0 26.768 19.819 48.545 44.181 48.545s44.181-21.777 44.181-48.545c0-32.299-28.741-32.299-44.181-32.299zm0 65.844c-16.09 0-29.181-15.048-29.181-33.545 0-13.742 6-17.299 29.181-17.299s29.181 3.557 29.181 17.299c0 18.497-13.091 33.545-29.181 33.545z"/></svg>