<svg id="Capa_1" enable-background="new 0 0 512.007 512.007" height="512" viewBox="0 0 512.007 512.007" width="512" xmlns="http://www.w3.org/2000/svg"><path d="m423.632 248.664h-6.237c-28.655-5.667-41.525-12.288-53.965-18.693-12.796-6.588-24.949-12.844-50.824-17.351.663-5.18-.535-10.449-3.458-14.874-2.284-3.457-6.935-4.408-10.392-2.125s-4.408 6.936-2.125 10.392c.666 1.008 1.664 3.104.864 5.814l-4.631 15.696c-2.562 8.684-6.583 16.683-11.879 23.759-.205.238-.397.487-.57.75-4.154 5.406-9.059 10.26-14.65 14.44-13.1 9.793-28.67 14.97-45.026 14.97-2.162 0-4.145-.993-5.439-2.725-1.295-1.732-1.686-3.915-1.075-5.988l10.735-36.385c3.779-12.809 12.888-23.407 24.989-29.076 3.751-1.757 5.367-6.222 3.61-9.973-1.756-3.75-6.22-5.367-9.973-3.61-9.012 4.222-16.767 10.515-22.713 18.233-29.458 5.629-54.217 17.454-71.721 34.335-21.655 20.884-32.635 49.046-32.635 83.704 0 .011.002.022.002.032.001.229.013.456.034.681.002.019.001.038.003.057.025.245.062.487.111.726.015.073.037.142.053.214.037.16.075.32.122.476.032.105.072.207.109.31.042.119.082.238.13.354.045.11.097.216.147.323.05.106.098.213.152.316.055.104.115.205.175.306.06.102.119.204.184.302.062.095.128.186.194.278.072.1.144.199.221.296.067.084.137.165.208.246.085.098.171.194.261.287.071.074.144.145.218.216.097.092.195.182.297.27.076.066.154.129.233.192.105.083.212.163.321.24.084.06.169.118.256.174.109.07.22.137.332.202.096.055.192.109.29.16.107.055.216.107.327.157.11.051.221.1.333.145.103.041.208.078.313.115.125.044.25.086.378.123.1.029.203.053.305.078.134.033.269.065.406.091.031.006.061.015.092.021 17.61 3.08 31.693 15.648 36.754 32.801l3.408 11.549c.963 3.265 3.951 5.379 7.19 5.379.703 0 1.417-.1 2.126-.309 3.973-1.172 6.243-5.343 5.071-9.316l-3.408-11.549c-5.988-20.296-21.54-35.734-41.437-41.657 6.837-32.303 42.751-46.89 66.804-53.116-.973 5.831.446 11.746 4.053 16.57 4.154 5.557 10.516 8.744 17.453 8.744 19.619 0 38.294-6.209 54.007-17.956 5.834-4.362 11.049-9.334 15.588-14.822h126.304c.007 0 .013.001.02.001s.015-.001.022-.001h6.951c4.142 0 7.5-3.358 7.5-7.5.002-4.141-3.356-7.499-7.498-7.499zm-213.059-16.566-6.641 22.511c-30.047 6.282-49.839 16.846-62.852 28.36 4.554-9.751 10.707-18.418 18.485-25.92 12.972-12.511 30.714-21.922 51.873-27.614-.305.881-.6 1.766-.865 2.663zm89.794 16.566c2.831-5.333 5.139-10.983 6.884-16.896l1.36-4.611c24.585 4.127 35.49 9.734 47.952 16.15 3.376 1.738 6.875 3.538 10.76 5.357zm160.841-76.511h-17.337c-9.135 0-17.716-4.874-22.395-12.72-23.462-39.348-66.495-63.79-112.307-63.79h-16.616c-18.073 0-35.438 1.475-51.998 4.357l-11.245-6.121c-19.058-10.374-40.482-14.219-61.957-11.116-21.475 3.102-40.935 12.851-56.278 28.194-5.278 5.277-7.693 12.541-6.626 19.928s5.439 13.67 11.994 17.239l9.993 5.44c-1.531 1.383-3.047 2.783-4.537 4.213-42.09 40.404-65.372 97.743-67.524 166.109-20.28 5.655-36.702 21.596-42.726 42.015l-10.741 36.415c-1.964 6.658-.707 13.665 3.449 19.225s10.521 8.749 17.463 8.749c27.703 0 53.973-12.975 70.939-34.472 16.966 21.496 43.236 34.472 70.939 34.472 9.075 0 17.296-5.725 20.458-14.246 1.441-3.883-.539-8.2-4.423-9.641-3.882-1.439-8.2.539-9.641 4.423-.764 2.059-2.897 4.464-6.395 4.464-26.263 0-50.982-13.986-64.51-36.5-1.356-2.257-3.796-3.637-6.429-3.637s-5.073 1.38-6.429 3.637c-13.528 22.514-38.247 36.5-64.51 36.5-2.166 0-4.152-.995-5.449-2.73s-1.689-3.921-1.076-5.999l10.744-36.415c5.01-16.982 19.519-29.873 36.963-32.841 3.567-.607 6.192-3.674 6.242-7.292.905-66.875 22.706-122.692 63.045-161.415 3.798-3.646 7.746-7.122 11.832-10.435.059-.044.116-.091.174-.137 26.481-21.417 58.9-35.831 95.821-42.713.304-.033.605-.089.902-.159 16.346-2.987 33.563-4.512 51.537-4.512h16.616c40.556 0 78.653 21.639 99.423 56.473 7.37 12.359 20.888 20.038 35.278 20.038h17.337c19.74 0 35.799 16.06 35.799 35.799 0 14.178-11.534 25.712-25.712 25.712h-12.808c-4.142 0-7.5 3.358-7.5 7.5s3.358 7.5 7.5 7.5h12.808c22.449 0 40.712-18.263 40.712-40.712 0-28.011-22.788-50.799-50.799-50.799zm-322.381-28.925-15.21-8.279c-2.361-1.285-3.936-3.548-4.32-6.209s.485-5.277 2.386-7.178c13.036-13.036 29.57-21.319 47.816-23.955 16.693-2.409 33.348.133 48.464 7.332-29.694 7.896-56.327 20.745-79.136 38.289zm220.463 37.994c0-2.121 1.726-3.847 3.846-3.847 2.121 0 3.847 1.726 3.847 3.847 0 4.142 3.358 7.5 7.5 7.5s7.5-3.358 7.5-7.5c0-10.392-8.455-18.847-18.847-18.847s-18.846 8.455-18.846 18.847c0 4.142 3.358 7.5 7.5 7.5 4.143 0 7.5-3.358 7.5-7.5zm117.158 44.733c2.721-3.123 2.395-7.86-.728-10.582-3.123-2.721-7.86-2.395-10.582.728-.517.593-1.657 1.589-3.482 1.589-1.824 0-2.965-.996-3.482-1.59-2.722-3.122-7.459-3.447-10.582-.727-3.123 2.722-3.448 7.459-.727 10.582 3.73 4.28 9.122 6.735 14.791 6.735 5.671.001 11.062-2.454 14.792-6.735z"/></svg>