<svg id="Capa_1" enable-background="new 0 0 512 512" height="512" viewBox="0 0 512 512" width="512" xmlns="http://www.w3.org/2000/svg"><path d="m354.282 223.35h-25.913c-4.143 0-7.5 3.358-7.5 7.5s3.357 7.5 7.5 7.5h25.913c4.143 0 7.5-3.358 7.5-7.5s-3.357-7.5-7.5-7.5zm115.457-58.288v-3.431c0-14.338-11.665-26.003-26.003-26.003h-11.895c-14.338 0-26.003 11.665-26.003 26.003v12.438h-10.728c-4.142 0-7.5 3.358-7.5 7.5s3.358 7.5 7.5 7.5h10.728v133.861h-125.291c-4.602 0-8.346-3.744-8.346-8.345v-117.17c0-4.602 3.744-8.345 8.346-8.345h79.294c4.143 0 7.5-3.358 7.5-7.5s-3.357-7.5-7.5-7.5h-79.294c-11.863 0-21.68 8.895-23.149 20.365h-101.399c-11.979 0-21.874 9.07-23.191 20.703h-69.456c-2.53-12.383-13.508-21.728-26.628-21.728h-9.547c-14.986-.001-27.177 12.191-27.177 27.176v53.412c0 4.142 3.358 7.5 7.5 7.5s7.5-3.358 7.5-7.5v-53.412c0-6.714 5.462-12.177 12.177-12.177h9.547c6.714 0 12.177 5.462 12.177 12.177v70.828c0 6.714-5.463 12.177-12.177 12.177h-9.547c-2.85 0-5.518-.953-7.715-2.755-3.203-2.629-7.929-2.162-10.555 1.041-2.628 3.202-2.162 7.928 1.04 10.555 4.841 3.972 10.96 6.16 17.23 6.16h9.547c13.12 0 24.098-9.345 26.628-21.728h69.457c1.317 11.633 11.212 20.703 23.191 20.703h101.399c1.469 11.469 11.286 20.365 23.149 20.365h125.292v12.438c0 14.338 11.665 26.003 26.003 26.003h11.895c14.338 0 26.003-11.665 26.003-26.003v-3.431c21.429-15.023 42.259-38.211 42.259-90.939s-20.83-75.916-42.261-90.938zm-337.084 116.801h-68.754v-51.726h68.754zm124.546 20.703h-101.202c-4.601 0-8.345-3.744-8.345-8.345v-76.442c0-4.601 3.744-8.345 8.345-8.345h101.202zm197.538 47.803c0 6.067-4.936 11.003-11.003 11.003h-11.895c-6.067 0-11.003-4.936-11.003-11.003v-188.738c0-6.067 4.936-11.003 11.003-11.003h11.895c6.067 0 11.003 4.936 11.003 11.003zm15-22.409v-143.92c16.732 14.527 27.261 34.476 27.261 71.96s-10.529 57.433-27.261 71.96z"/></svg>