<svg id="Capa_1" enable-background="new 0 0 512 512" height="512" viewBox="0 0 512 512" width="512" xmlns="http://www.w3.org/2000/svg"><path d="m385.788 229.49h-203.299c-49.026 0-88.913 41.069-88.913 91.549s39.887 91.549 88.913 91.549c23.936 0 45.638-14.555 55.286-37.082l9.449-22.062c6.48-15.129 20.97-24.905 36.914-24.905s30.434 9.776 36.913 24.905l9.449 22.063c9.648 22.526 31.35 37.082 55.287 37.082 49.026 0 88.913-41.069 88.913-91.549s-39.885-91.55-88.912-91.55zm0 168.097c-17.928 0-34.217-10.985-41.498-27.987l-9.449-22.063c-8.846-20.654-28.748-33.999-50.702-33.999s-41.855 13.345-50.703 33.999l-9.449 22.063c-7.281 17.001-23.57 27.987-41.497 27.987-40.756 0-73.913-34.34-73.913-76.549s33.157-76.549 73.913-76.549h203.299c40.756 0 73.913 34.34 73.913 76.549s-33.158 76.549-73.914 76.549zm0-206.603h-203.299c-42.4 0-79.984 21.657-102.882 54.798v-124.723c9.115-4.921 15.322-14.562 15.322-25.626v-18.903c0-10.428-8.484-18.913-18.913-18.913h-22.245c-4.143 0-7.5 3.358-7.5 7.5s3.357 7.5 7.5 7.5h22.246c2.157 0 3.913 1.755 3.913 3.913v18.903c0 7.777-6.327 14.104-14.104 14.104h-36.722c-7.776 0-14.104-6.327-14.104-14.104v-18.903c0-2.157 1.756-3.913 3.913-3.913 4.143 0 7.5-3.358 7.5-7.5s-3.357-7.5-7.5-7.5c-10.429 0-18.913 8.484-18.913 18.913v18.903c0 11.065 6.208 20.705 15.322 25.627v155.873c-8.768 2.067-15.322 9.939-15.322 19.33v26.69c0 20.638 16.79 37.427 37.427 37.427h20.075c1.542 0 3.075-.097 4.594-.284 16.133 52.687 64.001 90.996 120.393 90.996 19.132 0 37.645-5.777 53.464-16.451.08.177.151.363.239.53 2.94 5.585 10.322 10.396 21.938 14.298 9.02 3.03 18.984 4.912 26.008 4.912 7.023 0 16.989-1.882 26.008-4.912 11.616-3.903 18.997-8.714 21.938-14.299.088-.167.159-.353.238-.53 15.82 10.674 34.333 16.451 53.466 16.451 21.984 0 43.647-5.94 62.648-17.179 3.566-2.108 4.746-6.708 2.637-10.273-2.107-3.564-6.707-4.746-10.273-2.637-16.689 9.872-35.712 15.09-55.012 15.09-19.755 0-38.75-7.316-53.761-20.616-3.024-13.392-9.984-29.66-16.657-40.714-10.015-16.589-20.522-25.001-31.231-25.001s-21.218 8.412-31.232 25.001c-6.672 11.053-13.632 27.32-16.656 40.711-15.011 13.3-34.006 20.617-53.761 20.617-51.848 0-95.519-36.897-107.778-86.643-.001-.004-.002-.007-.003-.011-2.238-9.087-3.432-18.602-3.432-28.401 0-12.162 1.84-23.886 5.235-34.898.005-.016.01-.033.015-.049 14.333-46.407 56.412-80.107 105.961-80.107h203.299c61.323.003 111.213 51.616 111.213 115.057 0 29.472-10.806 57.523-30.427 78.989-2.794 3.057-2.581 7.801.476 10.596 3.059 2.794 7.801 2.583 10.597-.476 22.153-24.236 34.354-55.883 34.354-89.109 0-71.712-56.618-130.054-126.212-130.054zm-327.292 154.355c-.331.015-.661.042-.994.042h-20.075c-12.367 0-22.427-10.061-22.427-22.427v-26.69c0-2.69 2.188-4.879 4.879-4.879h39.712c-2.165 9.529-3.313 19.456-3.313 29.654-.001 8.303.768 16.425 2.218 24.3zm6.111-70.755c-.223.599-.45 1.197-.665 1.8h-33.62v-151.848h34.285zm185.659 146.844c.079-.295.145-.592.188-.893 2.556-11.864 10.292-32.703 20.824-46.114 4.821-6.138 9.509-9.659 12.861-9.659 3.353 0 8.04 3.521 12.861 9.659 10.531 13.409 18.265 34.245 20.823 46.11.043.303.109.602.189.898.634 3.156.87 5.598.649 6.962-.885 1.076-4.605 3.974-13.546 6.945-7.283 2.42-15.713 4.046-20.976 4.046s-13.692-1.626-20.976-4.046c-8.956-2.976-12.674-5.879-13.546-6.941-.222-1.363.013-3.807.649-6.967z"/></svg>