<svg id="Capa_1" enable-background="new 0 0 512 512" height="512" viewBox="0 0 512 512" width="512" xmlns="http://www.w3.org/2000/svg"><path d="m463.3 335.044c-8.474-4.892-18.26-6.382-27.56-4.193-.049.012-.098.027-.147.038-9.198-4.804-17.641-10.798-25.156-17.92 3.325-6.81.865-15.153-5.797-19l-16.378-9.456c1.981-9.197 3.033-18.734 3.033-28.514s-1.052-19.318-3.033-28.514l16.379-9.456c6.661-3.847 9.121-12.191 5.795-19 7.513-7.12 15.957-13.115 25.156-17.919.05.012.098.027.147.038 2.798.658 5.64.983 8.478.983 6.592 0 13.158-1.757 19.082-5.177 8.473-4.892 14.656-12.623 17.41-21.77 2.805-9.313 1.736-18.968-3.008-27.185-3.005-5.206-7.376-9.537-12.64-12.524-3.601-2.045-8.181-.782-10.225 2.82-2.045 3.603-.782 8.18 2.82 10.225 2.985 1.694 5.358 4.043 7.054 6.979 2.653 4.596 3.234 10.051 1.636 15.36-1.649 5.476-5.396 10.13-10.548 13.105s-11.055 3.893-16.624 2.582c-.665-.156-1.315-.344-1.948-.559-.014-.005-.028-.009-.042-.014-4.495-1.533-8.174-4.507-10.494-8.524-4.935-8.547-2.314-19.967 6.096-26.563 3.259-2.557 3.829-7.271 1.272-10.53-2.556-3.259-7.27-3.828-10.53-1.272-6.325 4.962-10.67 11.608-12.795 18.775-8.784 5.59-18.226 9.924-28.177 12.879-4.235-6.285-12.691-8.327-19.354-4.48l-16.441 9.492c-14.074-12.754-30.838-22.586-49.325-28.548v-18.914c0-7.692-5.995-13.996-13.557-14.521-2.411-10.075-3.381-20.395-2.939-30.774 6.333-6.685 10.254-15.892 10.254-26.043.001-20.374-15.787-36.95-35.194-36.95s-35.195 16.576-35.195 36.951c0 10.151 3.921 19.358 10.254 26.043.442 10.378-.528 20.698-2.939 30.774-7.561.525-13.557 6.828-13.557 14.521v18.914c-18.487 5.962-35.251 15.793-49.324 28.547l-16.44-9.491c-3.37-1.947-7.3-2.465-11.058-1.457-3.43.919-6.336 3.016-8.299 5.936-9.921-2.947-19.335-7.262-28.095-12.827-.014-.049-.026-.098-.04-.146-2.754-9.147-8.938-16.878-17.41-21.77-8.473-4.892-18.259-6.381-27.56-4.193-9.468 2.228-17.295 7.98-22.039 16.198-4.744 8.217-5.813 17.872-3.008 27.186 2.754 9.147 8.938 16.878 17.41 21.77 5.924 3.42 12.489 5.177 19.082 5.177 2.837 0 5.68-.325 8.478-.983.049-.012.098-.027.147-.038 9.199 4.805 17.644 10.8 25.156 17.919-3.326 6.81-.866 15.154 5.796 19.001l16.378 9.455c-1.981 9.197-3.033 18.734-3.033 28.514s1.052 19.318 3.033 28.514l-16.379 9.456c-6.661 3.847-9.121 12.191-5.795 19-7.513 7.119-15.957 13.114-25.156 17.919-.05-.012-.098-.027-.147-.038-9.297-2.187-19.086-.699-27.56 4.193-8.473 4.892-14.656 12.623-17.41 21.77-2.805 9.313-1.736 18.968 3.008 27.185 6.232 10.795 17.667 17.178 30.39 17.178 1.131 0 2.271-.05 3.42-.152 4.126-.368 7.173-4.01 6.806-8.136s-3.997-7.17-8.136-6.806c-8.178.737-15.655-2.943-19.489-9.584-2.653-4.596-3.234-10.051-1.636-15.36 1.649-5.476 5.396-10.13 10.548-13.105s11.056-3.893 16.624-2.582c5.397 1.27 9.831 4.5 12.484 9.096 2.336 4.045 3.051 8.695 2.149 13.293-.014.066-.026.133-.038.199-.348 1.687-.908 3.366-1.695 5.005-1.793 3.733-.221 8.214 3.514 10.008 3.731 1.792 8.214.221 10.008-3.514.852-1.774 1.537-3.595 2.083-5.44 8.766-5.57 18.186-9.889 28.112-12.838 1.963 2.919 4.868 5.017 8.299 5.936 1.255.336 2.529.503 3.795.503 2.525 0 5.018-.663 7.262-1.959l16.441-9.492c14.074 12.754 30.838 22.586 49.324 28.547v18.914c0 7.692 5.995 13.996 13.557 14.521 2.411 10.075 3.381 20.395 2.939 30.774-6.333 6.685-10.254 15.892-10.254 26.043 0 20.375 15.788 36.951 35.195 36.951s35.195-16.576 35.195-36.951c0-10.151-3.921-19.358-10.254-26.043-.442-10.378.528-20.698 2.939-30.774 7.561-.525 13.557-6.828 13.557-14.521v-18.914c18.487-5.962 35.251-15.794 49.325-28.548l16.441 9.492c2.289 1.322 4.79 1.949 7.261 1.949 4.722 0 9.329-2.294 12.109-6.425 9.915 2.947 19.324 7.261 28.08 12.823.014.049.025.098.04.146 2.754 9.147 8.938 16.878 17.41 21.77 5.924 3.42 12.489 5.177 19.082 5.177 2.837 0 5.68-.325 8.478-.983 9.468-2.228 17.295-7.981 22.039-16.198s5.813-17.872 3.008-27.185c-2.754-9.147-8.938-16.879-17.41-21.771zm-53.236-179.453c.724 3.237 1.924 6.393 3.638 9.361 1.706 2.955 3.816 5.585 6.252 7.853-6.074 3.809-11.804 8.117-17.15 12.901l-12.524-21.693c6.829-2.243 13.437-5.057 19.784-8.422zm-39.732 3.872 26.438 45.791-12.632 7.293c-5.787-17.02-14.882-32.523-26.506-45.751zm-114.332-144.463c11.136 0 20.195 9.847 20.195 21.951s-9.059 21.952-20.195 21.952-20.195-9.848-20.195-21.952 9.059-21.951 20.195-21.951zm12.504 78.717h-25.008c1.471-7.025 2.341-14.145 2.602-21.313 3.143.969 6.464 1.499 9.902 1.499s6.759-.53 9.902-1.499c.261 7.168 1.131 14.288 2.602 21.313zm-38.941 15h4.316c.009 0 .019.002.028.002.008 0 .016-.002.024-.002h44.14c.008 0 .016.002.024.002.009 0 .019-.002.028-.002h4.316v14.588c-8.553-1.701-17.392-2.601-26.438-2.601s-17.884.9-26.438 2.601zm-144.254 48.734c-2.32 4.018-6 6.992-10.496 8.525-.013.004-.025.008-.038.012-.635.215-1.285.403-1.95.559-5.567 1.311-11.472.393-16.624-2.582s-8.898-7.629-10.548-13.105c-1.599-5.31-1.018-10.764 1.636-15.36 2.653-4.596 7.087-7.826 12.484-9.096 1.656-.39 3.342-.582 5.028-.582 3.984 0 7.976 1.074 11.596 3.164 5.152 2.975 8.898 7.629 10.548 13.105.197.654.359 1.31.49 1.967.003.014.006.029.009.043.919 4.659.184 9.333-2.135 13.35zm6.738 15.353c2.436-2.268 4.546-4.898 6.252-7.852 1.706-2.955 2.929-6.097 3.675-9.341 6.336 3.356 12.931 6.164 19.748 8.402l-12.524 21.693c-5.347-4.786-11.077-9.094-17.151-12.902zm23.183 32.45 26.438-45.791 12.7 7.332c-11.625 13.228-20.719 28.731-26.506 45.751zm-13.282 151.15c-.74-3.258-1.95-6.413-3.649-9.355-1.706-2.955-3.816-5.584-6.252-7.853 6.074-3.809 11.803-8.116 17.15-12.901l12.524 21.693c-6.826 2.241-13.43 5.053-19.773 8.416zm39.72-3.867-26.438-45.791 12.632-7.293c5.787 17.02 14.882 32.523 26.506 45.751zm114.332 144.463c-11.136 0-20.195-9.847-20.195-21.951s9.06-21.952 20.195-21.952c11.136 0 20.195 9.848 20.195 21.952s-9.059 21.951-20.195 21.951zm-12.504-78.717h25.008c-1.471 7.025-2.341 14.145-2.602 21.313-3.143-.969-6.464-1.499-9.902-1.499s-6.759.53-9.902 1.499c-.261-7.168-1.131-14.288-2.602-21.313zm38.942-15h-52.875v-14.588c8.553 1.701 17.392 2.601 26.438 2.601s17.884-.9 26.438-2.601v14.588zm-26.438-26.987c-55.77 0-102.792-38.15-116.354-89.722-.008-.036-.02-.071-.029-.107-2.55-9.734-3.913-19.944-3.913-30.467s1.363-20.733 3.913-30.467c.009-.036.021-.071.029-.107 13.562-51.572 60.585-89.722 116.354-89.722 55.77 0 102.792 38.15 116.354 89.722.008.036.02.071.029.107 2.55 9.734 3.913 19.944 3.913 30.467s-1.363 20.733-3.913 30.467c-.009.036-.021.071-.029.107-13.562 51.572-60.584 89.722-116.354 89.722zm114.332-23.759-12.7-7.332c11.624-13.228 20.719-28.731 26.506-45.751l12.632 7.293zm43.369-5.488c-1.706 2.955-2.928 6.097-3.675 9.341-6.336-3.356-12.931-6.164-19.748-8.402l12.525-21.693c5.346 4.785 11.076 9.093 17.149 12.901-2.435 2.268-4.545 4.898-6.251 7.853zm51.011 29.451c-2.653 4.596-7.087 7.826-12.484 9.096-5.569 1.311-11.471.393-16.624-2.582-5.152-2.975-8.898-7.629-10.548-13.105-.197-.654-.359-1.31-.49-1.967-.003-.014-.006-.029-.009-.043-.919-4.659-.184-9.333 2.135-13.35 2.653-4.596 7.087-7.826 12.484-9.096 5.57-1.31 11.472-.393 16.624 2.582s8.898 7.629 10.548 13.105c1.598 5.309 1.017 10.764-1.636 15.36zm-208.712-210.496c-49.623 0-89.995 40.372-89.995 89.996s40.372 89.996 89.995 89.996c49.624 0 89.996-40.372 89.996-89.996s-40.372-89.996-89.996-89.996zm7.5 15.376c21.922 2.187 41.08 13.862 53.332 30.838l-29.315 16.924c-6.061-7.102-14.47-12.134-24.018-13.887v-33.875zm-15 0v33.875c-9.547 1.753-17.957 6.785-24.018 13.887l-29.314-16.924c12.253-16.976 31.41-28.651 53.332-30.838zm-60.85 105.422c-4.255-9.405-6.645-19.826-6.645-30.802s2.39-21.398 6.645-30.802l29.311 16.923c-1.548 4.342-2.399 9.012-2.399 13.879s.85 9.537 2.399 13.879zm60.85 43.818c-21.922-2.187-41.08-13.862-53.332-30.838l29.314-16.924c6.061 7.102 14.47 12.134 24.018 13.887zm-18.937-74.62c0-14.578 11.859-26.438 26.438-26.438s26.438 11.86 26.438 26.438-11.861 26.438-26.439 26.438-26.437-11.86-26.437-26.438zm33.937 74.62v-33.875c9.547-1.754 17.957-6.785 24.018-13.887l29.315 16.924c-12.253 16.976-31.411 28.651-53.333 30.838zm67.496-74.62c0 10.976-2.39 21.397-6.645 30.802l-29.313-16.923c1.548-4.342 2.399-9.012 2.399-13.879s-.85-9.537-2.399-13.879l29.312-16.923c4.256 9.404 6.646 19.826 6.646 30.802zm-74.996-10.378c-5.731 0-10.378 4.646-10.378 10.378 0 5.731 4.646 10.378 10.378 10.378 5.731 0 10.378-4.646 10.378-10.378 0-5.731-4.647-10.378-10.378-10.378z"/></svg>