<svg id="Capa_1" enable-background="new 0 0 512 512" height="512" viewBox="0 0 512 512" width="512" xmlns="http://www.w3.org/2000/svg"><path d="m267.082 302.633c4.142 0 7.5-3.358 7.5-7.5v-24.282c0-4.142-3.358-7.5-7.5-7.5s-7.5 3.358-7.5 7.5v24.282c0 4.142 3.358 7.5 7.5 7.5zm0 81.027c-4.142 0-7.5 3.358-7.5 7.5v24.282c0 4.142 3.358 7.5 7.5 7.5s7.5-3.358 7.5-7.5v-24.282c0-4.142-3.358-7.5-7.5-7.5zm198.952-212.015c-20.834-13.659-48.323-39.728-63.049-86.914 10.305-8.051 16.549-20.559 16.549-33.712 0-12.764-5.77-24.601-15.831-32.477-4.581-3.585-9.749-6.082-15.178-7.453-22.921-6.634-76.118-11.089-132.525-11.089-56.398 0-109.587 4.453-132.513 11.086-5.435 1.37-10.607 3.868-15.191 7.456-10.061 7.876-15.831 19.713-15.831 32.477 0 13.153 6.244 25.66 16.549 33.711-7.202 23.044-18.209 43.28-32.771 60.207-2.701 3.14-2.346 7.876.794 10.577 1.416 1.218 3.156 1.814 4.888 1.814 2.109 0 4.206-.885 5.689-2.609 14.861-17.275 26.311-37.632 34.125-60.628 11.754 10.416 23.948 26.987 36.71 44.337 25.264 34.346 53.685 72.981 90.052 77.745v22.855h-17.095c-8.877 0-16.359 6.009-18.64 14.167h-41.784v-.821c0-8.563-6.967-15.53-15.53-15.53h-15.078c-8.563 0-15.53 6.967-15.53 15.53v.821h-14.379c-14.925 0-27.067 12.143-27.067 27.067v5.458c0 14.925 12.142 27.067 27.067 27.067h14.379v60.716h-14.379c-14.925 0-27.067 12.143-27.067 27.067v5.458c0 14.925 12.142 27.067 27.067 27.067h14.379v.821c0 8.563 6.967 15.53 15.53 15.53h15.078c8.563 0 15.53-6.967 15.53-15.53v-.821h41.784c2.281 8.159 9.763 14.167 18.64 14.167h17.094v14.172c0 19.609-15.954 35.563-35.563 35.563h-134.891c-21.325 0-38.674-17.349-38.674-38.674v-246.424c0-11.268 5.54-21.626 14.818-27.709 1.98-1.298 3.966-2.668 5.903-4.072 3.354-2.431 4.102-7.12 1.671-10.474s-7.12-4.103-10.474-1.671c-1.747 1.267-3.538 2.502-5.325 3.673-13.521 8.865-21.594 23.913-21.594 40.254v246.426c.001 29.596 24.079 53.674 53.675 53.674h134.891c18.184 0 34.152-9.653 43.063-24.1 8.911 14.447 24.879 24.1 43.063 24.1h117.21c4.142 0 7.5-3.358 7.5-7.5s-3.358-7.5-7.5-7.5h-117.21c-19.609 0-35.563-15.954-35.563-35.563v-14.172h17.095c8.876 0 16.358-6.009 18.639-14.167h41.785v.821c0 8.563 6.967 15.53 15.53 15.53h15.077c8.564 0 15.53-6.967 15.53-15.53v-.821h14.379c14.925 0 27.067-12.143 27.067-27.067v-5.458c0-14.925-12.143-27.067-27.067-27.067h-14.379v-60.716h14.379c14.925 0 27.067-12.143 27.067-27.067v-5.458c0-14.925-12.143-27.067-27.067-27.067h-14.379v-.821c0-8.563-6.967-15.53-15.53-15.53h-15.077c-8.563 0-15.53 6.967-15.53 15.53v.821h-41.785c-2.281-8.158-9.763-14.167-18.639-14.167h-17.095v-22.855c36.367-4.764 64.788-43.399 90.052-77.745 12.761-17.348 24.954-33.918 36.706-44.333 16.382 48.339 45.381 75.56 67.551 90.095 9.279 6.083 14.818 16.442 14.818 27.71v246.426c0 15.888-9.958 30.397-24.779 36.105-3.866 1.489-5.792 5.829-4.304 9.694 1.148 2.98 3.988 4.807 7.001 4.807.896 0 1.808-.162 2.694-.503 20.569-7.921 34.389-28.057 34.389-50.103v-246.43c0-16.34-8.072-31.389-21.594-40.254zm-341.19 246.453h-14.379c-6.654 0-12.067-5.414-12.067-12.067v-5.458c0-6.654 5.413-12.067 12.067-12.067h14.379zm0-120.309h-14.379c-6.654 0-12.067-5.414-12.067-12.067v-5.458c0-6.654 5.413-12.067 12.067-12.067h14.379zm31.137 136.13c0 .292-.238.53-.53.53h-15.078c-.292 0-.53-.238-.53-.53v-181.544c0-.292.238-.53.53-.53h15.078c.292 0 .53.238.53.53zm231.175-165.724h14.379c6.654 0 12.067 5.414 12.067 12.067v5.458c0 6.654-5.414 12.067-12.067 12.067h-14.379zm0 120.309h14.379c6.654 0 12.067 5.414 12.067 12.067v5.458c0 6.654-5.414 12.067-12.067 12.067h-14.379zm-31.137-136.129c0-.292.238-.53.53-.53h15.077c.293 0 .53.238.53.53v181.544c0 .292-.238.53-.53.53h-15.077c-.292 0-.53-.238-.53-.53zm-100.019-237.375c32.898 0 64.508 1.501 89.264 4.045-13.383 5.84-25.485 13.619-36.271 23.301-20.145 3.088-38.302 3.098-52.992 3.098s-32.848-.009-52.993-3.098c-10.787-9.682-22.889-17.461-36.271-23.301 24.755-2.544 56.365-4.045 89.263-4.045zm-85.469 114.54c-16.831-22.882-32.73-44.495-49.667-54.802-8.265-5.03-13.399-14.118-13.399-23.719 0-8.12 3.673-15.652 10.077-20.665 4.603-3.604 10.133-5.493 15.778-5.493 2.044 0 4.103.248 6.138.751 21.094 5.217 39.354 14.919 54.647 28.98.207.215.426.42.659.61 11.807 11.015 21.825 24.656 29.984 40.877 17.913 35.618 22.913 75.377 23.65 104.889-29.245-5.328-54.963-40.291-77.867-71.428zm.45 138.655h41.054v29.593h-41.054zm41.055 149.903h-41.054v-29.593h41.054zm.73-44.594h-41.784v-60.716h41.784c2.281 8.159 9.763 14.168 18.64 14.168h17.094v32.381h-17.095c-8.876 0-16.358 6.009-18.639 14.167zm72.198 54.392c0 2.409-1.96 4.37-4.369 4.37h-49.189c-2.409 0-4.37-1.96-4.37-4.37v-2.288c0-.003.001-.006.001-.01s-.001-.007-.001-.01v-44.574c0-.003.001-.006.001-.01s-.001-.006-.001-.01v-2.288c0-2.41 1.961-4.37 4.37-4.37h49.189c2.409 0 4.369 1.96 4.369 4.37zm56.055-9.798h-41.055v-29.593h41.055zm-41.055-149.903h41.055v29.593h-41.055zm-.73 44.594h41.785v60.716h-41.785c-2.281-8.159-9.763-14.168-18.639-14.168h-17.095v-32.381h17.095c8.876 0 16.358-6.009 18.639-14.167zm-18.639-58.761c2.409 0 4.369 1.961 4.369 4.37v49.189c0 2.41-1.96 4.37-4.369 4.37h-49.189c-2.409 0-4.37-1.96-4.37-4.37v-2.288c0-.003.001-.006.001-.01 0-.003-.001-.006-.001-.01v-44.574c0-.003.001-.006.001-.01 0-.003-.001-.006-.001-.01v-2.288c0-2.409 1.961-4.37 4.37-4.37h49.189zm-24.595-114.142c-3.86-16.793-9.554-34.048-17.852-50.547-5.585-11.104-11.973-21.111-19.132-30.03 13.838 1.131 26.298 1.135 36.984 1.135s23.146-.004 36.984-1.135c-7.159 8.919-13.547 18.927-19.132 30.03-8.298 16.499-13.992 33.754-17.852 50.547zm135.136-65.148c-16.938 10.307-32.836 31.92-49.668 54.802-22.904 31.137-48.621 66.1-77.866 71.428.738-29.512 5.737-69.271 23.65-104.889 8.158-16.219 18.174-29.859 29.979-40.873.236-.192.457-.399.667-.617 15.292-14.06 33.55-23.76 54.643-28.977 2.036-.503 4.094-.751 6.138-.751 5.646 0 11.176 1.89 15.778 5.493 6.404 5.013 10.077 12.545 10.077 20.666.001 9.6-5.133 18.689-13.398 23.718z"/></svg>