<svg id="Capa_1" enable-background="new 0 0 511.993 511.993" height="512" viewBox="0 0 511.993 511.993" width="512" xmlns="http://www.w3.org/2000/svg"><path d="m502.355 241.534c-3.294-1.982-6.935-2.876-10.523-2.825-10.726-16.074-29.886-24.922-49.312-22.29-25.527 3.459-51.146 6.023-76.811 7.704-.022.001-.044.003-.066.004-48.534 3.178-97.227 3.177-145.761-.001-.017-.001-.035-.002-.052-.003-11.852-.777-23.694-1.746-35.522-2.901.697-2.839 1.076-5.761 1.076-8.717v-51.958c0-30.313-24.661-54.973-54.974-54.973h-48.187c-4.142 0-7.5 3.358-7.5 7.5s3.358 7.5 7.5 7.5h48.187c19.477 0 35.736 14.006 39.258 32.473h-132.706c1.954-10.22 7.846-19.396 16.584-25.427 3.409-2.353 4.266-7.023 1.913-10.433-2.353-3.409-7.023-4.267-10.433-1.913-14.891 10.277-23.781 27.201-23.781 45.272v51.958c0 16.14 10.535 29.858 25.086 34.662v22.284c-4.456-3.137-9.753-4.8-15.666-4.8-10.075 0-18.619 5.517-22.298 14.399-3.78 9.125-1.706 19.538 5.284 26.528 1.405 1.405 3.035 2.948 4.81 4.584-11.861 6.821-18.461 15.739-18.461 25.375 0 10.937 8.15 19.409 18.487 25.349-1.765 1.626-3.424 3.196-4.835 4.607-6.99 6.989-9.064 17.402-5.285 26.527 3.679 8.881 12.223 14.399 22.298 14.399 11.298 0 20.374-6.015 25.556-16.938 2.892-6.097 4.179-12.789 4.729-18.269h17.706c17.677 0 37.447-14.202 37.447-33.208v-.824c4.14 1.783 8.569 3.038 13.211 3.667 54.2 7.344 108.829 11.018 163.464 11.018 48.587 0 97.18-2.906 145.472-8.719 4.112-.495 7.045-4.23 6.55-8.343-.495-4.112-4.235-7.048-8.343-6.55-101.329 12.198-203.99 11.434-305.129-2.27-17.643-2.391-30.973-17.529-31.165-35.296 10.727 6.126 23.928 10.839 38.862 13.711 2.355.453 4.72.842 7.09 1.196.145.023.29.051.434.066 21.015 3.081 42.401 2.266 61.298-2.385 15.253 10.658 41.801 22.321 84.92 22.321s69.667-11.663 84.919-22.321c18.897 4.651 40.285 5.466 61.301 2.385.138-.014.277-.041.415-.063 2.375-.354 4.745-.744 7.106-1.198 14.932-2.871 28.132-7.583 38.858-13.709-.138 12.652-6.981 24.418-17.945 30.776-3.583 2.078-4.804 6.667-2.726 10.25 1.391 2.399 3.908 3.739 6.495 3.739 1.277 0 2.571-.327 3.755-1.013 15.689-9.097 25.434-26.011 25.434-44.142v-10.632c3.52-3.372 6.468-6.981 8.763-10.792 5.667-9.409 2.622-21.673-6.787-27.341zm-471.689 149.884c-5.491 0-7.645-3.22-8.44-5.139-1.101-2.658-1.229-6.919 2.033-10.181 2.476-2.476 5.9-5.591 9.312-8.632 4.335 1.403 8.577 2.412 12.388 3.026-.957 8.73-4.268 20.926-15.293 20.926zm15.666-36.026c-13.718-2.671-31.332-11.463-31.332-19.856 0-4.77 5.935-10.32 15.439-14.675 5.851 5.161 11.772 10.405 15.893 14.509zm0-40.49c-2.215-1.979-4.5-3.993-6.76-5.987-5.971-5.266-11.611-10.24-15.313-13.942-3.262-3.262-3.134-7.523-2.033-10.181.795-1.919 2.949-5.139 8.44-5.139 14.536 0 15.666 21.207 15.666 27.707zm11.413-80.897c-11.855 0-21.5-9.645-21.5-21.499v-44.458h134.138v44.458c0 2.447-.418 4.857-1.219 7.136-8.726-.973-17.444-2.043-26.15-3.223-17.435-2.364-34.658 4.525-45.762 17.586zm43.359 93.261v10.738c0 9.806-12.343 18.208-22.447 18.208h-17.325v-107.207h14.693c-3.299 6.018-3.422 13.578.367 19.87 2.295 3.811 5.243 7.42 8.763 10.792v10.632c0 14.389 6.093 27.596 15.949 36.967zm40.375-37.675c-24.911-4.859-44.424-15.481-52.237-28.454-1.399-2.324-.648-5.353 1.675-6.752 1.126-.678 2.449-.875 3.724-.561 1.275.316 2.351 1.111 3.029 2.237 6.54 10.858 23.234 19.548 45.88 23.917zm-30.96-41.269c-.779-1.293-1.7-2.464-2.719-3.528 7.792-9.928 20.421-15.243 33.199-13.51 23.189 3.142 46.453 5.551 69.757 7.246l-3.716 23.48c-.463.125-.925.264-1.383.423-36.242 12.593-86.51.215-95.138-14.111zm174.748 62.143c-37.317-1.293-59.285-12.129-71.326-21.31-1.321-1.008-2.922-1.536-4.548-1.536-.668 0-1.34.089-1.998.271-15.549 4.299-33.255 5.595-51.037 3.859l2.085-9.684c18.594 1.658 37.027-.212 52.136-5.462 1.738-.604 3.649-.196 4.987 1.065 18.855 17.75 49.296 22.156 69.701 22.941zm-59.419-43.72c-1.201-1.131-2.521-2.081-3.917-2.866l3.853-24.349c44.615 2.648 89.35 2.648 133.965 0l3.854 24.35c-1.395.785-2.715 1.735-3.917 2.866-7.542 7.1-26.265 19.01-66.919 19.01-40.655 0-59.377-11.911-66.919-19.011zm152.291 21.145c-2.259-.623-4.682-.157-6.546 1.265-12.042 9.181-34.009 20.017-71.326 21.31v-9.856c20.404-.786 50.844-5.191 69.7-22.94 1.34-1.26 3.251-1.669 4.987-1.066 15.109 5.25 33.542 7.119 52.136 5.462l2.086 9.685c-17.782 1.735-35.488.439-51.037-3.86zm60.138-22.472c-20.614 3.837-41.899 2.748-58.4-2.984-.458-.159-.92-.299-1.384-.424l-3.716-23.48c23.304-1.695 46.569-4.104 69.757-7.246 12.784-1.732 25.412 3.584 33.202 13.513-1.014 1.053-1.936 2.221-2.722 3.525-3.462 5.751-16.165 13.267-36.737 17.096zm58.016-4.282c-7.814 12.974-27.327 23.596-52.238 28.455l-2.07-9.613c22.645-4.369 39.34-13.059 45.879-23.916 1.401-2.324 4.429-3.076 6.753-1.678 2.323 1.4 3.075 4.429 1.676 6.752zm-424.501-65.344h20.863c4.142 0 7.5-3.358 7.5-7.5s-3.358-7.5-7.5-7.5h-20.863c-4.142 0-7.5 3.358-7.5 7.5s3.358 7.5 7.5 7.5zm28.363 19.609c0-4.142-3.358-7.5-7.5-7.5h-20.863c-4.142 0-7.5 3.358-7.5 7.5s3.358 7.5 7.5 7.5h20.863c4.142 0 7.5-3.357 7.5-7.5z"/></svg>