<svg id="Capa_1" enable-background="new 0 0 511.902 511.902" height="512" viewBox="0 0 511.902 511.902" width="512" xmlns="http://www.w3.org/2000/svg"><path d="m499.185 329.343-62.524-62.524c-11.194-11.195-27.582-15.37-42.77-10.893l-16.124 4.753c-6.837 2.013-14.21.136-19.248-4.902l-56.087-56.087 47.443-47.443 2.45 2.45c4.416 4.416 10.288 6.848 16.534 6.848s12.118-2.432 16.533-6.848l7.142-7.141c9.116-9.117 9.116-23.951 0-33.068l-51.381-51.381h-.001c-4.416-4.416-10.288-6.848-16.534-6.848s-12.118 2.432-16.533 6.848l-7.142 7.141c-9.116 9.117-9.116 23.951 0 33.068l2.45 2.45-47.443 47.443-47.443-47.443 2.45-2.45c9.116-9.117 9.116-23.951-.001-33.068l-7.14-7.14c-4.416-4.417-10.288-6.849-16.534-6.849s-12.118 2.432-16.535 6.849l-38.196 38.197c-2.929 2.929-2.929 7.678 0 10.606 2.93 2.929 7.678 2.929 10.607 0l38.195-38.197c1.584-1.583 3.689-2.455 5.929-2.455 2.239 0 4.344.872 5.928 2.455l7.14 7.14c3.269 3.269 3.269 8.586 0 11.855l-7.752 7.752s-.001 0-.001.001c0 0 0 .001-.001.001l-35.87 35.87c-.001.001-.003.003-.004.004s-.002.003-.004.004l-7.748 7.748c-1.584 1.583-3.689 2.456-5.929 2.456-2.239 0-4.344-.872-5.928-2.456l-7.14-7.14c-1.291-1.29-2.109-2.922-2.369-4.719-.592-4.1-4.394-6.942-8.494-6.352-4.1.592-6.943 4.395-6.352 8.495.725 5.026 3.01 9.585 6.608 13.183l7.14 7.14c4.416 4.417 10.288 6.849 16.534 6.849s12.118-2.432 16.535-6.849l2.449-2.449 47.443 47.443-56.087 56.086c-5.039 5.039-12.414 6.915-19.248 4.902l-16.125-4.753c-15.184-4.478-31.574-.303-42.77 10.893l-62.523 62.524c-13.621 13.62-16.655 34.922-7.38 51.804 16.044 29.198 39.958 53.112 69.157 69.156 6.539 3.593 13.737 5.339 20.899 5.339 11.328 0 22.56-4.372 30.905-12.717l62.524-62.524c11.194-11.196 15.368-27.584 10.892-42.77l-4.753-16.124c-2.015-6.835-.136-14.211 4.902-19.25l56.086-56.086 56.086 56.086c5.038 5.039 6.917 12.415 4.902 19.249l-4.753 16.124c-4.477 15.186-.303 31.574 10.892 42.77l62.525 62.524c8.346 8.346 19.575 12.717 30.904 12.717 7.161 0 14.361-1.746 20.898-5.338 2.51-1.379 5.01-2.833 7.432-4.324 3.527-2.171 4.628-6.79 2.457-10.318-2.172-3.528-6.791-4.627-10.318-2.457-2.214 1.362-4.499 2.692-6.794 3.953-11.069 6.082-25.041 4.094-33.973-4.839l-1.68-1.68c3.98-.982 7.848-2.478 11.528-4.5 32.232-17.711 58.63-44.109 76.34-76.34 2.021-3.68 3.521-7.547 4.503-11.526l1.677 1.677c8.933 8.933 10.923 22.903 4.84 33.974-7.892 14.362-17.902 27.383-29.755 38.701-2.996 2.861-3.105 7.608-.244 10.604 1.474 1.543 3.447 2.32 5.425 2.32 1.861 0 3.727-.689 5.179-2.076 12.962-12.378 23.911-26.619 32.542-42.326 9.281-16.879 6.247-38.182-7.374-51.802zm-187.634-248.488 7.142-7.141c1.583-1.584 3.688-2.455 5.927-2.455s4.345.872 5.928 2.455l51.381 51.381c3.268 3.269 3.268 8.586.001 11.854l-7.142 7.141c-1.583 1.583-3.688 2.455-5.927 2.455s-4.345-.872-5.928-2.455l-51.381-51.38c-3.269-3.269-3.269-8.587-.001-11.855zm-138.918 60.786 25.268-25.268 47.443 47.443-25.268 25.268zm-56.94 290.678c-8.935 8.932-22.902 10.922-33.975 4.838-26.698-14.67-48.565-36.536-63.234-63.234-6.083-11.071-4.094-25.042 4.84-33.974l1.677-1.677c.982 3.979 2.482 7.846 4.503 11.526 17.71 32.231 44.107 58.629 76.34 76.34 3.681 2.022 7.549 3.518 11.529 4.501zm92.84-161.7c-.009.583-.017 1.182-.024 1.781l-19.252 19.252c-8.924 8.925-12.251 21.99-8.684 34.097l4.753 16.125c2.923 9.914.198 20.612-7.11 27.921l-47.114 47.114c-6.276.472-12.468-.858-18.037-3.917-29.731-16.337-54.081-40.687-70.416-70.418-3.059-5.567-4.39-11.757-3.918-18.034l47.114-47.115c7.31-7.309 18.006-10.034 27.923-7.111l16.124 4.753c12.108 3.568 25.171.242 34.097-8.683l19.251-19.251c.599-.007 1.199-.014 1.782-.023 7.754-.125 12.427-.201 18.068 5.441 5.644 5.642 5.568 10.319 5.443 18.068zm14.219-12.461c-1.083-5.25-3.547-10.709-9.053-16.215-5.506-5.505-10.965-7.97-16.215-9.054l116.517-116.517 25.268 25.268zm66.399.001-22.593-22.592 25.268-25.268 22.594 22.594c-5.25 1.083-10.71 3.546-16.216 9.052-5.507 5.505-7.971 10.964-9.053 16.214zm180.101 84.416c-16.336 29.731-40.686 54.081-70.418 70.418-5.566 3.059-11.757 4.391-18.033 3.917l-47.115-47.115c-7.309-7.309-10.033-18.008-7.11-27.922l4.753-16.125c3.567-12.106.24-25.171-8.684-34.096l-19.252-19.252c-.007-.599-.014-1.199-.024-1.782-.125-7.749-.201-12.426 5.441-18.069 5.642-5.642 10.314-5.567 18.068-5.441.583.009 1.183.017 1.782.023l19.251 19.251c8.926 8.925 21.988 12.252 34.097 8.684l16.124-4.753c9.917-2.924 20.613-.197 27.922 7.111l47.115 47.115c.473 6.279-.858 12.469-3.917 18.036zm-60.232-9.246c-4.132.284-7.252 3.864-6.968 7.997.049.713-.044 2.083-1.214 3.253-1.171 1.17-2.548 1.261-3.253 1.213-4.153-.286-7.712 2.836-7.997 6.968-.284 4.132 2.836 7.712 6.968 7.997.441.03.882.046 1.321.046 5.074 0 9.959-2.008 13.568-5.618 3.921-3.921 5.952-9.348 5.571-14.888-.284-4.132-3.874-7.24-7.996-6.968zm-28.148 27.95c-2.929-2.929-7.678-2.93-10.606-.001-2.93 2.929-2.93 7.678-.001 10.607l3.923 3.923c1.465 1.465 3.384 2.197 5.304 2.197 1.919 0 3.839-.732 5.303-2.196 2.93-2.929 2.93-7.678.001-10.606zm-266.555-15.487c-.703.048-2.083-.043-3.253-1.214-1.17-1.17-1.263-2.54-1.214-3.253.284-4.132-2.836-7.712-6.968-7.997-4.139-.282-7.713 2.836-7.997 6.968-.381 5.539 1.65 10.966 5.571 14.887 3.609 3.61 8.493 5.618 13.568 5.618.439 0 .88-.015 1.321-.046 4.132-.284 7.252-3.864 6.968-7.997-.284-4.13-3.861-7.239-7.996-6.966zm16.713 15.487-3.923 3.923c-2.929 2.929-2.929 7.678.001 10.606 1.464 1.464 3.384 2.196 5.303 2.196s3.839-.732 5.304-2.197l3.923-3.923c2.929-2.929 2.929-7.678-.001-10.607-2.928-2.927-7.677-2.927-10.607.002zm297.115-47.274c-2.93-2.929-7.678-2.929-10.607 0s-2.929 7.678 0 10.606l3.924 3.924c1.465 1.464 3.385 2.197 5.304 2.197s3.839-.732 5.304-2.197c2.929-2.929 2.929-7.678 0-10.606zm-333.781 0c-2.93-2.929-7.678-2.929-10.607 0l-3.924 3.924c-2.929 2.929-2.929 7.678 0 10.606 1.465 1.464 3.385 2.197 5.304 2.197s3.839-.732 5.304-2.197l3.924-3.924c2.928-2.928 2.928-7.677-.001-10.606z"/></svg>