<svg id="Capa_1" enable-background="new 0 0 512 512" height="512" viewBox="0 0 512 512" width="512" xmlns="http://www.w3.org/2000/svg"><path d="m347.389 371.194c-3.123-2.723-7.86-2.396-10.582.726-1.14 1.308-2.784 2.058-4.511 2.058s-3.37-.75-4.51-2.058c-2.723-3.123-7.46-3.448-10.582-.726-3.123 2.721-3.447 7.459-.727 10.582 3.99 4.577 9.755 7.203 15.818 7.203s11.829-2.625 15.819-7.203c2.722-3.123 2.398-7.861-.725-10.582zm23.46 12.87c4.143 0 7.5-3.358 7.5-7.5v-6.399c0-4.142-3.357-7.5-7.5-7.5s-7.5 3.358-7.5 7.5v6.399c0 4.142 3.357 7.5 7.5 7.5zm-77.105-21.4c-4.143 0-7.5 3.358-7.5 7.5v6.399c0 4.142 3.357 7.5 7.5 7.5s7.5-3.358 7.5-7.5v-6.399c0-4.142-3.357-7.5-7.5-7.5zm-131.482-12.282-13.034 13.034c-2.929 2.929-2.929 7.678 0 10.606 1.465 1.464 3.385 2.197 5.304 2.197s3.839-.732 5.304-2.197l13.034-13.034c2.929-2.929 2.929-7.678 0-10.606-2.931-2.929-7.679-2.929-10.608 0zm-96.272-152.202c-2.93-2.929-7.678-2.929-10.607 0s-2.929 7.678 0 10.606l11.249 11.249c1.465 1.464 3.385 2.197 5.304 2.197s3.839-.732 5.304-2.197c2.929-2.929 2.929-7.678 0-10.606zm345.303-91.979c-14.123 0-25.613 11.491-25.613 25.614 0 14.124 11.49 25.614 25.613 25.614 14.124 0 25.614-11.49 25.614-25.614 0-14.123-11.49-25.614-25.614-25.614zm0 36.228c-5.853 0-10.613-4.761-10.613-10.614s4.761-10.614 10.613-10.614c5.853 0 10.614 4.762 10.614 10.614 0 5.853-4.761 10.614-10.614 10.614zm-214.34 173.262-13.034 13.034c-2.93 2.929-2.93 7.677-.001 10.607 1.465 1.465 3.384 2.197 5.304 2.197 1.919 0 3.839-.732 5.303-2.197l13.034-13.034c2.93-2.929 2.93-7.677.001-10.606-2.93-2.93-7.679-2.931-10.607-.001zm306.003-197.368-51.611-21.2c-1.658-1.912-3.449-3.703-5.361-5.361l-21.199-51.611c-2.257-5.493-7.553-9.043-13.491-9.043-5.939 0-11.235 3.55-13.492 9.043l-21.2 51.611c-1.912 1.658-3.703 3.449-5.361 5.361l-25.556 10.498h-245.23c-2.422-1.962-5.173-3.561-8.199-4.666-23.636-8.632-49.671-8.632-73.307 0-11.334 4.14-18.949 15.029-18.949 27.095v8.218c0 4.142 3.357 7.5 7.5 7.5s7.5-3.358 7.5-7.5v-8.218c0-5.791 3.655-11.018 9.095-13.005 20.319-7.419 42.698-7.419 63.016 0 5.44 1.987 9.096 7.213 9.096 13.005v317.273c0 5.792-3.655 11.018-9.096 13.005-20.317 7.421-42.698 7.421-63.016 0-5.44-1.987-9.095-7.213-9.095-13.005v-273.256c0-4.142-3.357-7.5-7.5-7.5s-7.5 3.358-7.5 7.5v273.256c0 12.067 7.615 22.956 18.949 27.095 11.82 4.316 24.234 6.475 36.654 6.474 12.416 0 24.836-2.159 36.652-6.474 3.027-1.105 5.777-2.704 8.2-4.666h298.453c22.859 0 43.723-12.552 54.448-32.757 1.941-3.659.55-8.199-3.108-10.141-3.662-1.942-8.199-.55-10.142 3.108-8.116 15.291-23.902 24.79-41.198 24.79h-288.703c.643-2.391 1.001-4.88 1.001-7.429v-16.212h136.109c.009 0 .017.002.026.002.014 0 .028-.002.042-.002h146.754c15.297 0 27.741-12.445 27.741-27.741v-175.389c1.214-1.282 2.207-2.799 2.907-4.503l20.733-50.477v225.432c0 4.142 3.357 7.5 7.5 7.5s7.5-3.358 7.5-7.5v-229.202c0-2.121-.111-4.245-.328-6.358l42.766-17.566c5.494-2.256 9.044-7.552 9.044-13.492 0-5.939-3.55-11.235-9.044-13.492zm-91.662-71.539 13.912 33.869c-4.437-1.208-9.098-1.865-13.913-1.865-4.814 0-9.475.657-13.912 1.864zm-61.237 75.257c.014-.006.028-.011.042-.017l10.032-4.121c-1.208 4.437-1.865 9.098-1.865 13.912s.657 9.475 1.865 13.912l-33.868-13.912zm-239.852.58h203.641c-2.066 2.542-3.26 5.758-3.26 9.194 0 5.939 3.55 11.235 9.044 13.492l2.326.956h-210.75v-16.213c0-2.548-.358-5.038-1.001-7.429zm1.001 79.481c29.964 3.175 48.964 11.76 55.142 25.015 7.77 16.67-5.512 37.892-11.582 46.242-8.441 11.612-20.464 12.301-43.559 2.095v-73.352zm295.672 201.267c0 7.025-5.716 12.741-12.741 12.741h-141.637c-9.946-26.953-11.09-48.064-3.148-59.763 5.503-8.106 16.05-12.216 31.348-12.216 31.987 0 54.389-19.947 76.053-39.238 16.312-14.525 31.83-28.339 50.125-32.109zm0-145.828c-23.64 3.691-42.149 20.166-60.1 36.15-20.469 18.226-39.802 35.44-66.078 35.44-20.57 0-35.293 6.322-43.758 18.79-12.491 18.398-7.962 45.62-.346 68.189h-125.39v-124.401c9.76 3.836 17.716 5.679 24.964 5.846.344.008.686.012 1.026.012 12.287 0 22.276-5.174 29.702-15.389 16.133-22.192 20.888-44.571 13.045-61.398-8.746-18.766-31.859-30.106-68.737-33.758v-25.76h247.268l12.767 5.244c1.658 1.912 3.449 3.703 5.362 5.362l21.2 51.61c1.676 4.08 5.029 7.084 9.076 8.362v25.701zm4.415-40.696-13.912-33.868c4.436 1.208 9.098 1.865 13.912 1.865s9.475-.657 13.912-1.865zm0-47.003c-20.968 0-38.026-17.059-38.026-38.026 0-20.968 17.059-38.026 38.026-38.026 20.968 0 38.026 17.059 38.026 38.026s-17.058 38.026-38.026 38.026zm51.162-24.115c1.208-4.437 1.865-9.098 1.865-13.912s-.657-9.475-1.865-13.912l33.868 13.912zm-429.02 217.395c-2.93 2.929-2.93 7.677-.001 10.606l16.207 16.208c1.465 1.465 3.384 2.197 5.304 2.197 1.919 0 3.839-.732 5.303-2.197 2.93-2.929 2.93-7.677.001-10.607l-16.207-16.207c-2.93-2.929-7.679-2.929-10.607 0zm44.137-184.098-16.207-16.207c-2.93-2.929-7.678-2.929-10.607 0s-2.929 7.678 0 10.606l16.207 16.207c1.465 1.464 3.385 2.197 5.304 2.197s3.839-.732 5.304-2.197c2.928-2.928 2.928-7.677-.001-10.606zm154.072 101.976-13.034 13.034c-2.929 2.929-2.929 7.678 0 10.606 1.465 1.464 3.385 2.197 5.304 2.197s3.839-.732 5.304-2.197l13.034-13.034c2.929-2.929 2.929-7.678 0-10.606-2.931-2.928-7.679-2.928-10.608 0zm34.69-34.691-13.034 13.035c-2.929 2.929-2.929 7.678 0 10.606 1.465 1.464 3.385 2.197 5.304 2.197s3.839-.732 5.304-2.197l13.034-13.034c2.929-2.929 2.929-7.678 0-10.606-2.93-2.929-7.678-2.929-10.608-.001zm44.223-63.109c-16.263 0-29.493 13.231-29.493 29.494s13.23 29.494 29.493 29.494 29.494-13.231 29.494-29.494-13.232-29.494-29.494-29.494zm0 43.987c-7.991 0-14.493-6.502-14.493-14.494s6.502-14.494 14.493-14.494c7.992 0 14.494 6.502 14.494 14.494s-6.502 14.494-14.494 14.494z"/></svg>