<svg id="Capa_1" enable-background="new 0 0 511.98 511.98" height="512" viewBox="0 0 511.98 511.98" width="512" xmlns="http://www.w3.org/2000/svg"><path d="m503.504 197.117-11.534-11.534c-.002-.002-.003-.003-.005-.005s-.004-.003-.005-.005l-37.535-37.535c-.002-.002-.003-.003-.005-.005s-.003-.003-.005-.005l-35.63-35.63c-22.117-22.117-51.523-34.298-82.802-34.298h-160.007c-31.278 0-60.685 12.181-82.802 34.298l-84.718 84.719c-9.678 9.678-11.235 24.983-3.703 36.391 2.283 3.457 6.936 4.409 10.391 2.126 3.457-2.282 4.409-6.935 2.126-10.391-3.625-5.489-2.871-12.857 1.791-17.52l6.236-6.236 65.423 65.423-6.236 6.236c-2.632 2.633-6.132 4.083-9.855 4.083s-7.223-1.45-9.856-4.083l-23.527-23.526c-2.929-2.929-7.678-2.929-10.606 0-2.929 2.929-2.929 7.678 0 10.606l23.527 23.526c5.465 5.466 12.732 8.476 20.462 8.476s14.997-3.01 20.462-8.476l11.536-11.536c.001-.001.002-.002.003-.003s.002-.002.003-.003l16.445-16.445v148.541c0 16.306 13.266 29.572 29.571 29.572h183.764c4.142 0 7.5-3.358 7.5-7.5s-3.358-7.5-7.5-7.5h-183.763c-8.035 0-14.571-6.537-14.571-14.572v-25.556h235.803v25.556c0 5.061-2.567 9.686-6.868 12.372-3.513 2.194-4.582 6.821-2.387 10.334 1.422 2.277 3.867 3.527 6.368 3.527 1.357 0 2.73-.368 3.966-1.14 8.716-5.445 13.92-14.826 13.92-25.094v-148.539l27.986 27.986c5.466 5.466 12.733 8.476 20.463 8.476s14.997-3.01 20.462-8.476l45.711-45.711c5.466-5.465 8.476-12.732 8.476-20.462.001-7.73-3.01-14.997-8.475-20.462zm-164.595-103.972c22.761.636 44.257 8.685 61.702 23l-22.337 22.336h-57.998c10.355-12.566 17.087-28.214 18.633-45.336zm-47.193-.044c-3.469 16.548-18.173 29.015-35.737 29.015s-32.268-12.466-35.737-29.015zm-86.699 0c3.643 24.862 25.105 44.015 50.963 44.015s47.32-19.152 50.963-44.015h16.904c-3.748 34.137-32.748 60.787-67.867 60.787-35.118 0-64.119-26.65-67.866-60.787zm-31.966.044c1.546 17.122 8.278 32.769 18.632 45.337h-57.998l-22.337-22.336c17.445-14.316 38.941-22.364 61.703-23.001zm-72.664 33.253 24.888 24.887c1.406 1.407 3.314 2.197 5.303 2.197h77.234c13.61 9.686 30.228 15.406 48.167 15.406s34.558-5.72 48.168-15.406h77.234c1.989 0 3.897-.79 5.303-2.197l24.888-24.887 26.938 26.938-60.236 60.235h-244.59l-60.235-60.236zm273.494 237.353h-235.803v-60.089h235.803zm36.751-107.447-23.948-23.948c-2.145-2.145-5.372-2.786-8.173-1.626-2.803 1.161-4.63 3.896-4.63 6.929v51.002h-235.803v-51.001c0-3.034-1.827-5.768-4.63-6.929-2.801-1.16-6.029-.519-8.173 1.626l-23.948 23.947-65.423-65.423 26.938-26.938 62.432 62.433c1.406 1.407 3.314 2.197 5.303 2.197h250.803c1.989 0 3.897-.79 5.303-2.197l62.432-62.432 26.939 26.939zm82.265-28.869-45.711 45.711c-2.633 2.633-6.133 4.083-9.856 4.083s-7.223-1.45-9.856-4.083l-6.236-6.235 65.423-65.423 6.236 6.236c2.633 2.632 4.083 6.132 4.083 9.855s-1.45 7.223-4.083 9.856z"/></svg>