<svg id="Capa_1" enable-background="new 0 0 512.001 512.001" height="512" viewBox="0 0 512.001 512.001" width="512" xmlns="http://www.w3.org/2000/svg"><path d="m276.958 286.755c-4.143 0-7.5 3.358-7.5 7.5v3.559c0 4.142 3.357 7.5 7.5 7.5s7.5-3.358 7.5-7.5v-3.559c0-4.142-3.357-7.5-7.5-7.5zm219.25 29.586-141.503-141.504c-19.178-19.177-47.336-26.633-73.492-19.463l-21.44 5.879c-6.253 1.714-12.986-.068-17.571-4.653l-53.649-53.649 2.877-2.877c9.447-9.448 9.447-24.821 0-34.269l-19.269-19.269c-9.448-9.446-24.82-9.446-34.269 0l-1.786 1.786-21.856-34.305c-4.961-7.787-13.071-12.83-22.249-13.834-9.178-1.003-18.187 2.164-24.715 8.692l-58.367 58.367c-6.529 6.529-9.698 15.538-8.693 24.716s6.047 17.288 13.834 22.249l34.306 21.857-1.786 1.786c-9.448 9.448-9.448 24.821 0 34.269l19.269 19.269c4.724 4.725 10.928 7.085 17.134 7.085 6.204 0 12.411-2.362 17.134-7.085l2.877-2.877 10.262 10.262c1.464 1.464 3.384 2.197 5.303 2.197 1.92 0 3.839-.732 5.303-2.197 2.929-2.929 2.929-7.678 0-10.606l-10.262-10.262 64.346-64.346 53.649 53.649c8.389 8.389 20.706 11.652 32.144 8.513l21.44-5.878c20.971-5.75 43.544.229 58.918 15.604l141.503 141.503c14.31 14.309 15.249 37.561 2.141 52.938-2.688 3.152-2.311 7.886.841 10.573 1.412 1.204 3.142 1.793 4.862 1.793 2.121 0 4.228-.894 5.711-2.634 18.15-21.291 16.855-53.478-2.947-73.279zm-474.088-214.785c-3.93-2.504-6.476-6.598-6.983-11.231s1.092-9.181 4.388-12.476l58.367-58.367c3.295-3.296 7.842-4.899 12.477-4.388 4.633.507 8.727 3.052 11.231 6.983l23.644 37.109-66.014 66.014zm158.704-12.089-8.176 8.176c-.001.001-.003.002-.004.004-.001.001-.002.003-.004.004l-74.948 74.947s-.001 0-.001.001c0 0 0 .001-.001.001l-8.179 8.179c-3.6 3.6-9.457 3.599-13.055.001l-19.269-19.268c-1.744-1.744-2.704-4.062-2.704-6.528s.96-4.784 2.704-6.528l82.83-82.83c.009-.009.017-.017.026-.026l8.457-8.457c3.599-3.601 9.456-3.6 13.056 0l19.268 19.269c3.599 3.599 3.599 9.456 0 13.055zm162.303 283.116c-4.143 0-7.5 3.358-7.5 7.5v10.513c0 4.142 3.357 7.5 7.5 7.5s7.5-3.358 7.5-7.5v-10.513c0-4.142-3.357-7.5-7.5-7.5zm120.43 31.663-81.313 81.312c-7.379 7.379-17.19 11.443-27.627 11.443-10.436 0-20.247-4.064-27.626-11.443l-141.504-141.504c-15.374-15.374-21.352-37.95-15.603-58.918l5.878-21.439c3.137-11.44-.124-23.757-8.513-32.145l-18.867-18.866c-2.929-2.93-7.678-2.929-10.606 0-2.929 2.929-2.929 7.678 0 10.606l18.867 18.866c4.585 4.585 6.368 11.318 4.653 17.572l-5.878 21.439c-7.172 26.154.286 54.314 19.462 73.491l141.504 141.504c10.213 10.213 23.791 15.837 38.233 15.837 14.443 0 28.021-5.624 38.234-15.837l81.313-81.312c2.929-2.929 2.929-7.678 0-10.606-2.928-2.929-7.677-2.93-10.607 0zm-203.417-140.227c-4.142 0-7.5 3.358-7.5 7.5v10.513c0 4.142 3.358 7.5 7.5 7.5 4.143 0 7.5-3.358 7.5-7.5v-10.513c0-4.142-3.358-7.5-7.5-7.5zm-195.617-195.9c4.219 0 7.639-3.42 7.639-7.639s-3.42-7.639-7.639-7.639-7.639 3.42-7.639 7.639 3.42 7.639 7.639 7.639zm403.914 291.126c-2.93-2.929-7.678-2.929-10.607 0s-2.929 7.678 0 10.606l7.13 7.13c1.465 1.464 3.385 2.197 5.304 2.197s3.839-.733 5.304-2.197c2.929-2.929 2.929-7.678 0-10.607zm-367.317-296.698c4.219 0 7.639-3.42 7.639-7.639s-3.42-7.639-7.639-7.639-7.639 3.42-7.639 7.639 3.42 7.639 7.639 7.639zm215.187 137.614-8.055-8.054c-5.028-5.029-11.976-7.528-19.054-6.859-7.032.664-13.335 4.386-17.295 10.21-7.598 11.179-16.265 21.483-25.802 30.7-5.04-1.717-10.674-1.518-15.691.814-15.078 7.011-27.244 19.177-34.255 34.255-3.714 7.988-2.024 17.54 4.205 23.77l142.51 142.511c4.026 4.026 9.44 6.155 14.924 6.155 3 0 6.02-.638 8.846-1.951 15.078-7.011 27.243-19.176 34.254-34.254.761-1.636 1.283-3.34 1.598-5.065 11.182-10.111 21.384-21.6 30.327-34.227 9.969-14.073 8.382-33.109-3.772-45.264l-4.717-4.716c-3.132-3.134-7.297-4.859-11.729-4.859h-20.577c-.874 0-1.585-.711-1.585-1.585v-20.577c0-4.43-1.726-8.595-4.857-11.728l-35.111-35.111c-5.493-5.493-13.537-7.555-20.995-5.378l-7.562 2.206v-17.455c0-5.113-1.991-9.92-5.607-13.538zm70.986 190.971c0 .001 0 .001 0 0-5.521 11.875-15.103 21.456-26.977 26.978-2.295 1.068-5.046.583-6.839-1.21l-142.51-142.51c-1.792-1.793-2.278-4.541-1.21-6.839 5.522-11.875 15.102-21.456 26.977-26.978.813-.378 1.682-.562 2.545-.562 1.578 0 3.135.613 4.294 1.771l142.51 142.51c1.793 1.794 2.279 4.542 1.21 6.84zm-64.099-144.728 10.482-3.057c2.195-.641 4.567-.034 6.187 1.585l35.111 35.111c.3.3.465.698.465 1.121v20.577c0 9.145 7.44 16.585 16.585 16.585h20.577c.417 0 .825.169 1.12.464l4.718 4.718c6.97 6.969 7.869 17.898 2.14 25.987-6.689 9.444-14.124 18.205-22.176 26.155-.53-.681-1.092-1.343-1.712-1.963l-138.445-138.444c9.595-9.494 18.349-20.003 26.063-31.353 1.458-2.146 3.695-3.463 6.299-3.709 2.617-.247 5.18.676 7.037 2.533l8.054 8.053c.772.772 1.215 1.84 1.215 2.931v20.496c0 4.042 1.855 7.751 5.088 10.176 3.233 2.424 7.311 3.166 11.192 2.034zm-258.671-148.348c0-4.219-3.42-7.639-7.639-7.639s-7.639 3.42-7.639 7.639 3.42 7.639 7.639 7.639 7.639-3.42 7.639-7.639zm294.765 359.73c-2.929 2.929-2.929 7.678 0 10.606l7.13 7.13c1.465 1.464 3.385 2.197 5.304 2.197s3.839-.732 5.304-2.197c2.929-2.929 2.929-7.678 0-10.606l-7.13-7.13c-2.93-2.929-7.678-2.929-10.608 0zm49.271-49.27c-2.929 2.929-2.929 7.678 0 10.606l7.13 7.13c1.465 1.464 3.385 2.197 5.304 2.197s3.839-.733 5.304-2.197c2.929-2.929 2.929-7.678 0-10.607l-7.13-7.13c-2.931-2.928-7.679-2.928-10.608.001z"/></svg>