<svg id="Capa_1" enable-background="new 0 0 512 512" height="512" viewBox="0 0 512 512" width="512" xmlns="http://www.w3.org/2000/svg"><path d="m478.318 274.256c.698-3.757 1.149-7.561 1.331-11.381 1.046-21.937-6.26-43.143-20.57-59.712-.768-.888-.842-2.181-.178-3.074 11.079-14.904 16.692-33.375 15.806-52.006-.592-12.479-4.176-24.834-10.363-35.729-2.046-3.602-6.625-4.862-10.226-2.817-3.602 2.045-4.863 6.624-2.817 10.226 5.102 8.982 7.935 18.749 8.424 29.032.732 15.398-3.715 30.041-12.862 42.346-4.897 6.59-4.543 15.565.864 21.826 11.785 13.645 17.802 31.117 16.94 49.194-.172 3.614-.645 7.208-1.378 10.747h-137.248c-.967-4.672-1.463-9.42-1.463-14.179 0-2.979.192-5.983.571-8.931 1.076-8.387-3.911-16.354-11.858-18.942-20.1-6.546-33.604-25.157-33.604-46.31 0-22.642 16.021-42.632 38.094-47.532 7.559-1.678 13.762-6.543 17.018-13.345 11.334-23.675 35.607-38.333 61.858-37.33 11.663.443 23.039 4.044 32.899 10.414 3.479 2.248 8.122 1.25 10.369-2.23 2.248-3.48 1.249-8.122-2.23-10.37-12.121-7.83-26.114-12.257-40.468-12.803-32.238-1.239-62.038 16.769-75.957 45.841-1.254 2.619-3.711 4.506-6.74 5.179-13.927 3.092-26.574 10.923-35.613 22.05-9.176 11.296-14.229 25.546-14.229 40.126 0 27.667 17.666 52.009 43.959 60.573 1.102.359 1.785 1.524 1.626 2.769-.46 3.577-.693 7.225-.693 10.841 0 5.051.454 10.092 1.351 15.067-20.338 4.121-35.697 22.135-35.697 43.67v34.477c0 3.801-1.566 7.283-4.411 9.804-2.855 2.53-6.524 3.667-10.313 3.211-29.361-3.561-60.756-13.331-93.993-23.675-46.022-14.323-93.612-29.134-145.595-31.429-5.432-.243-10.815 1.78-14.746 5.543-3.984 3.809-6.176 8.941-6.176 14.45v20.93c0 1.879.263 3.743.779 5.538 1.148 3.98 5.305 6.274 9.283 5.13 3.981-1.147 6.277-5.303 5.131-9.284-.128-.445-.193-.911-.193-1.385v-20.93c0-1.377.549-2.66 1.545-3.613 1.004-.961 2.329-1.455 3.715-1.395 17.072.754 33.749 2.942 50.105 6.053.558 14.034-.072 27.556-1.788 38.835-9.658-4.231-19.325-7.749-29.071-10.286-4.012-1.045-8.104 1.36-9.148 5.368s1.359 8.104 5.368 9.147c11.559 3.01 23.164 7.591 34.892 13.216.184.098.372.189.566.272 19.6 9.452 39.549 21.793 60.211 34.577 47.753 29.547 97.132 60.1 151.336 60.1h92.048c75.663 0 137.22-61.557 137.22-137.22v-27.436c.001-20.817-14.352-38.341-33.681-43.208zm18.682 70.645c0 67.392-54.827 122.22-122.22 122.22h-92.048c-49.939 0-97.474-29.412-143.443-57.855-19.308-11.947-38.012-23.518-56.618-32.891 2.22-12.114 3.192-26.916 2.802-42.339 26.208 5.894 51.632 13.802 76.586 21.568 33.906 10.552 65.932 20.519 96.645 24.243 7.991.973 16.041-1.535 22.065-6.875 6.015-5.329 9.464-12.995 9.464-21.031v-9.672h206.767zm0-17.63h-206.768v-9.805c0-16.298 13.26-29.558 29.559-29.558h.361c.006 0 .012.001.018.001.007 0 .014-.001.021-.001h147.251c.208 0 .413.011.619.016.248.006.497.008.744.02.053.002.106.002.158.004 15.594.793 28.037 13.729 28.037 29.517zm-213.868-207.162c24.877 0 45.115-20.239 45.115-45.115s-20.238-45.115-45.115-45.115-45.115 20.239-45.115 45.115c0 24.877 20.238 45.115 45.115 45.115zm0-75.23c16.605 0 30.115 13.51 30.115 30.115s-13.51 30.115-30.115 30.115-30.115-13.51-30.115-30.115 13.509-30.115 30.115-30.115zm30.76 342.956c4.143 0 7.5-3.358 7.5-7.5 0-2.841 2.31-5.152 5.151-5.152s5.152 2.311 5.152 5.152c0 4.142 3.357 7.5 7.5 7.5s7.5-3.358 7.5-7.5c0-11.112-9.04-20.152-20.152-20.152-11.111 0-20.151 9.04-20.151 20.152 0 4.142 3.357 7.5 7.5 7.5zm69.198 20.901c7.311 0 14.263-3.166 19.074-8.686 2.722-3.123 2.397-7.86-.726-10.582-3.121-2.722-7.86-2.397-10.581.725-1.962 2.251-4.793 3.542-7.768 3.542-2.974 0-5.805-1.291-7.766-3.541-2.722-3.124-7.46-3.448-10.582-.727s-3.448 7.459-.727 10.581c4.812 5.522 11.764 8.688 19.076 8.688zm43.895-20.901c4.142 0 7.5-3.358 7.5-7.5 0-2.841 2.31-5.152 5.151-5.152s5.151 2.311 5.151 5.152c0 4.142 3.357 7.5 7.5 7.5s7.5-3.358 7.5-7.5c0-11.112-9.04-20.152-20.151-20.152s-20.151 9.04-20.151 20.152c0 4.142 3.358 7.5 7.5 7.5z"/></svg>