<svg id="Capa_1" enable-background="new 0 0 512 512" height="512" viewBox="0 0 512 512" width="512" xmlns="http://www.w3.org/2000/svg"><path d="m74.336 358.716c4.142 0 7.5-3.358 7.5-7.5v-7.845c0-4.142-3.358-7.5-7.5-7.5s-7.5 3.358-7.5 7.5v7.845c0 4.142 3.358 7.5 7.5 7.5zm316.069-271.033c-18.253 0-33.102 14.849-33.102 33.102 0 18.252 14.849 33.101 33.102 33.101 18.252 0 33.102-14.849 33.102-33.101 0-18.253-14.849-33.102-33.102-33.102zm0 51.203c-9.982 0-18.102-8.12-18.102-18.101 0-9.982 8.12-18.102 18.102-18.102 9.981 0 18.102 8.12 18.102 18.102 0 9.981-8.12 18.101-18.102 18.101zm-268.811 225.854c6.943 0 13.545-3.006 18.114-8.249 2.721-3.122 2.396-7.86-.727-10.582-3.122-2.721-7.86-2.396-10.582.727-1.719 1.972-4.199 3.104-6.805 3.104-2.605 0-5.086-1.131-6.806-3.104-2.722-3.122-7.459-3.448-10.582-.726-3.122 2.722-3.448 7.459-.726 10.582 4.57 5.242 11.172 8.248 18.114 8.248zm390.406-75.214v-15.866c0-9.987-8.071-18.115-18.032-18.227-1.946-14.648-8.671-28.169-19.378-38.652-12.494-12.233-29.005-18.969-46.493-18.969h-4.59v-24.234c17.548-11.043 29.242-30.572 29.242-52.793 0-11.418-3.116-22.587-9.011-32.302-2.148-3.541-6.762-4.669-10.303-2.521-3.541 2.149-4.669 6.761-2.52 10.303 4.471 7.368 6.835 15.847 6.835 24.52 0 26.105-21.239 47.344-47.344 47.344s-47.344-21.239-47.344-47.344 21.238-47.344 47.344-47.344c5.965 0 11.778 1.093 17.276 3.248 3.855 1.511 8.208-.388 9.72-4.245 1.512-3.856-.389-8.208-4.245-9.72-7.249-2.842-14.904-4.283-22.75-4.283-25.895 0-48.148 15.873-57.554 38.398h-51.953v-39.949c0-31.369-25.52-56.89-56.89-56.89h-14.65c-9.798 0-17.769 7.971-17.769 17.769v16.025c0 9.798 7.971 17.769 17.769 17.769h14.648c2.938 0 5.327 2.39 5.327 5.327v39.948h-50.186c-9.407-22.525-31.659-38.398-57.555-38.398-34.377 0-62.344 27.967-62.344 62.344 0 22.221 11.694 41.751 29.243 52.794v24.234h-4.59c-17.488 0-34 6.737-46.493 18.969-10.707 10.483-17.432 24.005-19.378 38.652-9.961.113-18.032 8.241-18.032 18.228v15.866c0 9.778 7.74 17.76 17.412 18.196v90.879c-9.672.436-17.412 8.418-17.412 18.195v15.866c0 9.778 7.74 17.76 17.412 18.196v19.749c0 17.44 11.028 33.105 27.442 38.98.835.299 1.688.44 2.527.44 3.079 0 5.965-1.91 7.062-4.975 1.396-3.9-.634-8.193-4.534-9.589-10.465-3.746-17.497-13.735-17.497-24.857v-19.707h178.364v19.707c0 14.552-11.839 26.391-26.391 26.391h-102.271c-4.142 0-7.5 3.358-7.5 7.5s3.358 7.5 7.5 7.5h102.272c22.823 0 41.391-18.568 41.391-41.391v-19.749c4.179-.188 7.995-1.775 10.983-4.322h38.482c2.988 2.547 6.803 4.134 10.982 4.322v19.749c0 22.823 18.568 41.391 41.391 41.391h125.582c22.823 0 41.392-18.568 41.392-41.391v-19.749c9.672-.436 17.412-8.418 17.412-18.196v-15.866c0-9.777-7.74-17.76-17.412-18.196v-90.879c9.671-.434 17.411-8.417 17.411-18.195zm-83.903-76.715c13.541 0 26.326 5.216 35.999 14.687 7.801 7.639 12.879 17.356 14.708 27.924h-176.797c1.829-10.568 6.907-20.286 14.708-27.924 9.673-9.471 22.458-14.687 35.999-14.687zm-55.793-32.371c5.732 1.743 11.808 2.689 18.102 2.689s12.37-.946 18.102-2.689v17.372h-36.204zm-148.296-143.877h-14.648c-1.526 0-2.769-1.242-2.769-2.769v-16.025c0-1.526 1.242-2.769 2.769-2.769h14.648c23.098 0 41.89 18.792 41.89 41.89v39.948h-21.562v-39.948c-.001-11.209-9.119-20.327-20.328-20.327zm-40.721 75.275h145.426c-.422 2.923-.652 5.908-.652 8.946s.229 6.023.652 8.946h-145.426c.422-2.923.652-5.908.652-8.946s-.23-6.023-.652-8.946zm149.564 32.892c4.991 11.951 13.602 22.019 24.453 28.847v24.234h-4.59c-17.488 0-34 6.737-46.493 18.969-10.707 10.483-17.432 24.004-19.378 38.652-4.422.05-8.466 1.681-11.602 4.354h-38.482c-3.136-2.673-7.18-4.304-11.602-4.354-1.946-14.648-8.671-28.169-19.378-38.652-12.494-12.233-29.005-18.969-46.493-18.969h-4.59v-24.234c10.85-6.828 19.462-16.896 24.453-28.847zm-64.04 130.057v13.613h-25.622v-13.613zm-194.561-154.003c0-26.105 21.239-47.344 47.344-47.344 26.106 0 47.344 21.239 47.344 47.344s-21.239 47.344-47.344 47.344-47.344-21.238-47.344-47.344zm65.446 59.655v17.372h-36.204v-17.371c5.732 1.743 11.808 2.689 18.102 2.689 6.294-.001 12.37-.947 18.102-2.69zm-91.792 47.06c9.673-9.471 22.458-14.687 35.999-14.687h75.383c13.541 0 26.326 5.216 35.999 14.687 7.801 7.639 12.879 17.356 14.708 27.924h-176.797c1.829-10.568 6.907-20.286 14.708-27.924zm-32.904 62.027v-15.866c0-1.785 1.453-3.238 3.238-3.238h206.713c1.786 0 3.238 1.453 3.238 3.238v15.866c0 1.786-1.453 3.238-3.238 3.238h-206.713c-1.785.001-3.238-1.452-3.238-3.238zm195.776 18.239v90.795h-178.364v-90.795zm17.413 124.898c0 1.786-1.453 3.238-3.238 3.238h-206.713c-1.785 0-3.238-1.453-3.238-3.238v-15.866c0-1.785 1.453-3.238 3.238-3.238h206.713c1.786 0 3.238 1.453 3.238 3.238zm40.622-1.126h-25.622v-13.613h25.622zm6.43-28.613h-38.482c-2.988-2.547-6.804-4.134-10.983-4.322v-90.879c4.179-.188 7.995-1.775 10.983-4.322h38.482c2.988 2.547 6.803 4.134 10.982 4.322v90.879c-4.179.188-7.994 1.775-10.982 4.322zm204.347 67.685c0 14.552-11.839 26.391-26.392 26.391h-125.582c-14.552 0-26.391-11.839-26.391-26.391v-19.707h178.365zm17.412-53.812v15.866c0 1.786-1.453 3.238-3.238 3.238h-206.713c-1.785 0-3.238-1.453-3.238-3.238v-15.866c0-1.785 1.453-3.238 3.238-3.238h206.713c1.785.001 3.238 1.453 3.238 3.238zm-195.777-18.237v-90.795h178.365v90.795zm192.539-105.795h-206.713c-1.785 0-3.238-1.453-3.238-3.238v-15.866c0-1.785 1.453-3.238 3.238-3.238h206.713c1.785 0 3.238 1.453 3.238 3.238v15.866c0 1.785-1.453 3.238-3.238 3.238zm-324.909 65.951c4.142 0 7.5-3.358 7.5-7.5v-7.845c0-4.142-3.358-7.5-7.5-7.5s-7.5 3.358-7.5 7.5v7.845c0 4.142 3.358 7.5 7.5 7.5zm165.061-27.776c-4.142 0-7.5 3.358-7.5 7.5v9.535c0 4.142 3.358 7.5 7.5 7.5s7.5-3.358 7.5-7.5v-9.535c0-4.142-3.358-7.5-7.5-7.5zm56.491 4.723c-6.95 0-25.41 0-25.41 19.609 0 15.186 11.399 27.541 25.41 27.541 14.012 0 25.411-12.355 25.411-27.541 0-19.609-18.461-19.609-25.411-19.609zm0 32.15c-5.74 0-10.41-5.626-10.41-12.541 0-3.354 0-4.609 10.41-4.609 10.411 0 10.411 1.255 10.411 4.609 0 6.915-4.67 12.541-10.411 12.541zm56.492-36.873c-4.142 0-7.5 3.358-7.5 7.5v9.535c0 4.142 3.358 7.5 7.5 7.5s7.5-3.358 7.5-7.5v-9.535c0-4.142-3.358-7.5-7.5-7.5zm-292.201-210.156c0-18.253-14.85-33.102-33.102-33.102s-33.102 14.849-33.102 33.102c0 18.252 14.849 33.101 33.102 33.101 18.253.001 33.102-14.848 33.102-33.101zm-51.203 0c0-9.982 8.12-18.102 18.102-18.102 9.981 0 18.102 8.12 18.102 18.102 0 9.981-8.121 18.101-18.102 18.101-9.982.001-18.102-8.119-18.102-18.101z"/></svg>