<svg id="Capa_1" enable-background="new 0 0 512 512" height="512" viewBox="0 0 512 512" width="512" xmlns="http://www.w3.org/2000/svg"><path d="m495.637 231.588-1.752-.72c-4.475-42.795-20.421-83.525-46.27-118.063-26.298-35.135-61.623-62.352-102.158-78.707-3.84-1.55-8.211.307-9.761 4.149-1.55 3.841.308 8.211 4.149 9.761 37.993 15.33 71.106 40.844 95.761 73.785 22.588 30.18 37.103 65.404 42.362 102.537l-28.208-11.587c-6.284-28.218-18.861-55.018-36.606-77.999l3.55-8.499c3.77-9.026 1.815-18.93-5.102-25.847s-16.821-8.873-25.847-5.102l-8.499 3.55c-22.981-17.745-49.781-30.322-77.999-36.606l-11.587-28.209c6.462.914 12.885 2.106 19.2 3.57.57.132 1.14.195 1.701.195 3.411 0 6.496-2.342 7.3-5.807.936-4.035-1.577-8.065-5.611-9.001-9.548-2.215-19.325-3.848-29.127-4.874l-.72-1.752c-4.147-10.092-13.501-16.362-24.413-16.362s-20.266 6.27-24.412 16.363l-.721 1.756c-54.259 5.685-105.243 29.984-144.003 68.744s-63.059 89.744-68.744 144.003l-1.756.721c-10.094 4.147-16.364 13.501-16.364 24.413s6.27 20.266 16.364 24.412l1.754.721c4.046 38.604 17.558 75.901 39.226 108.14 22.025 32.769 52.082 59.835 86.92 78.272 1.119.592 2.319.873 3.502.873 2.689 0 5.29-1.451 6.635-3.993 1.938-3.661.54-8.2-3.121-10.137-32.66-17.284-60.837-42.659-81.487-73.382-18.783-27.946-31.01-59.951-35.741-93.226l28.187 11.578c6.284 28.217 18.86 55.017 36.606 77.999l-3.55 8.5c-3.77 9.026-1.814 18.931 5.103 25.848 4.587 4.587 10.487 6.992 16.575 6.991 3.091 0 6.232-.62 9.272-1.89l8.499-3.55c22.981 17.745 49.781 30.321 77.999 36.606l11.581 28.195c-14.192-2.009-28.161-5.358-41.666-10.03-3.915-1.353-8.185.722-9.54 4.636-1.354 3.914.721 8.186 4.636 9.54 17.151 5.934 34.996 9.888 53.113 11.782l.721 1.754c4.146 10.091 13.5 16.361 24.412 16.361s20.266-6.27 24.412-16.363l.721-1.756c54.259-5.685 105.243-29.984 144.003-68.744 38.761-38.761 63.059-89.744 68.744-144.003l1.756-.721c10.094-4.147 16.364-13.501 16.364-24.413s-6.27-20.266-16.363-24.412zm-63.149-25.939-41.781-17.162 15.703-37.595c11.663 16.683 20.506 35.257 26.078 54.757zm-40.952-96.512c4.972-2.075 8.497.905 9.46 1.867.963.963 3.942 4.49 1.867 9.459l-5.238 12.54c-.009.021-.017.041-.026.062l-20.768 49.722-21.522-8.841c-1.003-1.211-2.032-2.399-3.077-3.572l19.567-19.567c2.929-2.929 2.929-7.678 0-10.606-2.929-2.929-7.678-2.929-10.606 0l-19.567 19.567c-1.174-1.046-2.362-2.075-3.573-3.078l-8.84-21.522zm6.063 269.798c.008.021.017.041.026.062l5.238 12.539c2.075 4.969-.904 8.497-1.867 9.46s-4.489 3.943-9.46 1.867l-12.544-5.24c-.018-.007-.036-.015-.053-.022l-49.726-20.769 8.841-21.522c1.211-1.003 2.399-2.032 3.572-3.077l19.567 19.567c1.464 1.464 3.384 2.197 5.303 2.197s3.839-.732 5.303-2.197c2.929-2.929 2.929-7.678 0-10.606l-19.567-19.567c1.045-1.174 2.075-2.361 3.078-3.573l21.522-8.84zm-6.893-55.422 41.782-17.162c-5.572 19.5-14.416 38.075-26.079 54.758zm-29.598 82.896c-16.683 11.663-35.257 20.506-54.757 26.079l17.162-41.781zm-105.108-36.531c-62.793 0-113.878-51.085-113.878-113.878s51.085-113.878 113.878-113.878 113.878 51.085 113.878 113.878-51.085 113.878-113.878 113.878zm-141.602-236.819c-.007-.017-.014-.033-.021-.05l-5.24-12.546c-2.076-4.969.904-8.497 1.867-9.459.962-.963 4.489-3.942 9.459-1.867l62.324 26.031-8.84 21.522c-1.212 1.003-2.399 2.032-3.573 3.078l-19.566-19.567c-2.928-2.93-7.677-2.929-10.606 0s-2.929 7.678 0 10.606l19.566 19.567c-1.046 1.174-2.075 2.362-3.078 3.573l-21.521 8.84zm6.895 55.428-41.781 17.162c5.572-19.5 14.415-38.074 26.078-54.758zm29.598-82.896c16.683-11.663 35.258-20.506 54.758-26.079l-17.162 41.782zm210.217 0-37.596 15.703-17.162-41.782c19.501 5.572 38.075 14.415 54.758 26.079zm-135.995-33.986 20.35-49.542c1.817-4.423 5.756-7.063 10.537-7.063s8.72 2.64 10.537 7.063l20.35 49.542c.004.009.008.019.012.028l28.833 70.196c-15.778-8.288-33.472-13.401-52.232-14.483v-54.235c0-4.142-3.358-7.5-7.5-7.5s-7.5 3.358-7.5 7.5v54.235c-18.759 1.082-36.453 6.194-52.232 14.483l28.833-70.196c.005-.01.008-.019.012-.028zm-127.642 25.865c34.393-34.393 79.051-56.63 126.855-63.425l-11.581 28.195c-28.219 6.284-55.018 18.86-77.999 36.606l-8.499-3.55c-9.026-3.77-18.93-1.816-25.847 5.101s-8.872 16.821-5.102 25.848l3.55 8.499c-17.745 22.982-30.321 49.781-36.605 77.999l-28.196 11.582c6.793-47.804 29.03-92.462 63.424-126.855zm-25.866 189.417-49.542-20.35c-4.422-1.817-7.063-5.756-7.063-10.537s2.641-8.72 7.063-10.537l5.827-2.394c.013-.005.026-.011.039-.016l113.898-46.785c-8.288 15.778-13.401 33.472-14.483 52.232h-54.233c-4.142 0-7.5 3.358-7.5 7.5s3.358 7.5 7.5 7.5h54.235c1.082 18.759 6.194 36.454 14.483 52.232l-7.816-3.21h-.001l-62.377-25.622c-.011-.005-.02-.009-.03-.013zm7.907 19.464 41.781 17.162-15.703 37.595c-11.663-16.683-20.506-35.258-26.078-54.757zm53.559 91.246c-.025.01-.049.021-.074.031l-12.533 5.235c-4.969 2.077-8.496-.904-9.459-1.867s-3.943-4.49-1.868-9.46l5.237-12.538c.009-.021.018-.043.027-.064l20.768-49.721 21.522 8.841c1.003 1.211 2.032 2.399 3.077 3.573l-19.566 19.567c-2.929 2.929-2.929 7.678 0 10.606 1.464 1.464 3.384 2.197 5.303 2.197s3.839-.732 5.303-2.197l19.566-19.567c1.174 1.045 2.362 2.075 3.573 3.078l8.84 21.522zm17.82 8.812 37.596-15.703 17.162 41.781c-19.5-5.572-38.075-14.415-54.758-26.078zm135.994 33.99-20.349 49.538c-1.816 4.423-5.755 7.063-10.536 7.063s-8.72-2.64-10.537-7.063l-20.35-49.542c-.004-.009-.007-.019-.011-.028l-28.834-70.196c15.778 8.288 33.472 13.401 52.232 14.483v54.235c0 4.142 3.358 7.5 7.5 7.5s7.5-3.358 7.5-7.5v-54.235c18.759-1.082 36.454-6.194 52.232-14.483l-3.21 7.815s0 .001-.001.001v.001l-25.622 62.376c-.004.012-.009.024-.014.035zm127.645-25.869c-34.394 34.393-79.051 56.63-126.855 63.425l11.582-28.195c28.219-6.285 55.018-18.861 77.999-36.606l8.499 3.55c3.04 1.27 6.18 1.89 9.272 1.89 6.087 0 11.988-2.405 16.575-6.992 6.917-6.917 8.871-16.821 5.102-25.847l-3.55-8.499c17.745-22.982 30.321-49.781 36.606-77.999l28.195-11.582c-6.795 47.804-29.032 92.461-63.425 126.855zm75.407-147.993-49.536 20.348c-.012.005-.025.01-.037.015l-70.193 28.832c8.288-15.779 13.401-33.473 14.483-52.232h54.235c4.142 0 7.5-3.358 7.5-7.5s-3.358-7.5-7.5-7.5h-54.235c-1.082-18.76-6.194-36.454-14.483-52.232l7.815 3.21s.001 0 .001.001c0 0 .001 0 .001.001l106.073 43.571.051.021 5.824 2.392c4.424 1.816 7.064 5.755 7.064 10.536s-2.64 8.72-7.063 10.537zm-217.007-17.238c-3.123-2.722-7.861-2.397-10.582.726-1.604 1.84-3.917 2.895-6.348 2.895s-4.744-1.055-6.348-2.895c-2.722-3.123-7.459-3.448-10.581-.727-3.123 2.721-3.448 7.459-.727 10.582 4.453 5.11 10.888 8.04 17.656 8.04s13.203-2.931 17.656-8.04c2.721-3.122 2.396-7.86-.726-10.581zm-62.453-9.738c-4.142 0-7.5 3.358-7.5 7.5v7.557c0 4.142 3.358 7.5 7.5 7.5s7.5-3.358 7.5-7.5v-7.557c0-4.142-3.358-7.5-7.5-7.5zm45.523-78.1c-52.129 0-94.539 42.41-94.539 94.539s42.41 94.539 94.539 94.539 94.539-42.41 94.539-94.539-42.41-94.539-94.539-94.539zm0 174.078c-43.858 0-79.539-35.681-79.539-79.539s35.681-79.539 79.539-79.539 79.539 35.681 79.539 79.539-35.681 79.539-79.539 79.539zm45.523-95.978c-4.142 0-7.5 3.358-7.5 7.5v7.557c0 4.142 3.358 7.5 7.5 7.5s7.5-3.358 7.5-7.5v-7.557c0-4.142-3.358-7.5-7.5-7.5z"/></svg>