<svg id="Capa_1" enable-background="new 0 0 511.938 511.938" height="512" viewBox="0 0 511.938 511.938" width="512" xmlns="http://www.w3.org/2000/svg"><path d="m255.455 253.89c-3.643-1.966-8.195-.606-10.162 3.039-2.113 3.916-3.23 8.348-3.23 12.817 0 4.47 1.117 8.901 3.23 12.816 1.356 2.513 3.939 3.94 6.607 3.94 1.203 0 2.423-.29 3.555-.901 3.646-1.967 5.006-6.517 3.038-10.162-.949-1.758-1.431-3.673-1.431-5.692s.481-3.935 1.431-5.694c1.968-3.646.607-8.196-3.038-10.163zm251.201 7.245c-17.41-29.057-43.292-51.855-76.928-67.761-28.874-13.655-62.259-21.583-99.443-23.695l-17.295-31.78c-13.495-24.8-39.419-40.206-67.654-40.206-8.84 0-17.272 3.795-23.134 10.412-5.863 6.618-8.614 15.446-7.548 24.222l6.186 50.931c-48.359 14.881-89.488 38.558-116.245 56.46-10.052-12.97-22.851-23.74-37.379-31.397-3.662-1.93-8.201-.526-10.132 3.138-1.932 3.664-.527 8.2 3.138 10.132 14.569 7.679 27.139 18.958 36.353 32.617 1.121 1.662 2.86 2.805 4.829 3.176 1.968.372 4.005-.061 5.653-1.201 19.594-13.545 50.972-32.903 89.185-48.202 39.609-15.857 77.817-23.898 113.563-23.898 5.255 0 10.433.118 15.536.345.143.007.286.016.43.015 36.732 1.678 69.484 9.223 97.543 22.492 30.904 14.615 54.615 35.445 70.473 61.911 4.36 7.278 4.208 16.595-.388 23.737-2.84 4.414-5.929 8.688-9.243 12.824-44.414 20.255-116.678 16.033-187.558 11.208.477-1.593.93-3.197 1.352-4.812 1.046-4.008-1.354-8.105-5.362-9.151-4.012-1.049-8.104 1.355-9.151 5.362-1.119 4.288-2.469 8.486-4.022 12.589-.056.138-.105.28-.153.422-7.134 18.646-18.668 35.238-33.839 48.529-18.617 16.31-41.441 26.543-66.005 29.59-4.981.621-9.692-1.461-12.591-5.565-2.898-4.103-3.286-9.235-1.037-13.727l18.181-36.312c5.59-11.164 14.13-20.603 24.698-27.295 3.5-2.216 4.54-6.849 2.324-10.349-2.216-3.499-6.848-4.539-10.349-2.324-3.989 2.526-7.739 5.374-11.22 8.505-24.685.559-44.295 3.099-59.698 7.752-7.963-4.513-15.633-9.216-22.882-14.055-3.429-2.289-8.063-1.381-10.374 2.032-16.199 23.922-41.917 39.68-70.561 43.233-3.616.448-7.025-1.06-9.125-4.033-2.101-2.974-2.382-6.694-.752-9.949l14.973-29.906c3.988-7.965 9.92-14.925 17.158-20.13 1.959-1.409 3.121-3.675 3.121-6.089s-1.162-4.68-3.121-6.089c-7.237-5.205-13.17-12.166-17.158-20.13l-14.973-29.905c-1.63-3.256-1.349-6.976.752-9.95s5.513-4.482 9.124-4.033c1.278.159 2.558.342 3.805.546 4.086.669 7.943-2.105 8.61-6.193s-2.105-7.943-6.193-8.61c-1.434-.234-2.906-.445-4.374-.628-9.056-1.122-17.957 2.809-23.223 10.264-5.267 7.456-6 17.157-1.914 25.32l14.973 29.905c3.645 7.279 8.567 13.899 14.464 19.504-5.897 5.604-10.819 12.224-14.464 19.503l-14.971 29.904c-4.086 8.162-3.353 17.864 1.914 25.319 4.671 6.612 12.199 10.454 20.162 10.454 1.015 0 2.037-.063 3.061-.189 30.488-3.783 58.092-19.587 76.801-43.731 6.682 4.269 13.663 8.418 20.856 12.414.05.026.096.056.147.081 11.836 6.569 24.255 12.712 36.928 18.252l-10.111 20.194c-4.696 9.38-3.854 20.529 2.199 29.097 5.368 7.599 14.02 12.014 23.171 12.014 1.166 0 2.341-.072 3.518-.218 27.165-3.37 52.425-14.588 73.145-32.436 24.467 4.693 48.942 7.077 72.808 7.077 38.398 0 73.708-7.85 104.945-23.33 3.712-1.839 5.229-6.339 3.39-10.05-1.839-3.712-6.338-5.231-10.05-3.39-29.149 14.446-62.218 21.771-98.285 21.771-19.581 0-39.604-1.671-59.699-4.973 9.91-11.128 17.93-23.727 23.773-37.41 31.737 2.168 63.865 4.316 94.067 4.316 27.522 0 53.422-1.802 75.97-6.979-2.072 1.73-4.191 3.426-6.367 5.077-3.299 2.504-3.943 7.209-1.439 10.508 1.476 1.944 3.714 2.966 5.979 2.966 1.58 0 3.174-.498 4.529-1.527 16.94-12.86 31.065-27.983 41.981-44.948 7.66-11.901 7.911-27.43.642-39.564zm-196.849-92.052c-25.747 0-50.786 3.86-74.36 10.019l-5.901-48.583c-.557-4.583.823-9.011 3.885-12.466 3.061-3.456 7.29-5.359 11.907-5.359 22.736 0 43.61 12.406 54.478 32.376l13.088 24.049c-1.035-.01-2.058-.036-3.097-.036zm-159.93 161.432c7.729-1.347 16.394-2.302 26.053-2.883-1.975 2.939-3.775 6.005-5.37 9.191l-1.344 2.684c-6.532-2.841-12.994-5.846-19.339-8.992zm201.426-67.891v-9.274c0-4.142-3.357-7.5-7.5-7.5s-7.5 3.358-7.5 7.5v9.274c0 4.142 3.357 7.5 7.5 7.5 4.142 0 7.5-3.358 7.5-7.5zm-67.95-8.734c-3.646-1.966-8.194-.605-10.162 3.039-2.112 3.916-3.23 8.348-3.23 12.817 0 4.47 1.117 8.901 3.23 12.816 1.355 2.513 3.939 3.94 6.606 3.94 1.202 0 2.423-.29 3.556-.901 3.645-1.967 5.005-6.517 3.037-10.162-.948-1.758-1.43-3.673-1.43-5.692s.482-3.935 1.431-5.694c1.967-3.646.607-8.196-3.038-10.163zm179.691 8.734v-9.274c0-4.142-3.357-7.5-7.5-7.5s-7.5 3.358-7.5 7.5v9.274c0 4.142 3.357 7.5 7.5 7.5s7.5-3.358 7.5-7.5zm-63.371 14.622c7.813 0 15.242-3.384 20.385-9.283 2.721-3.122 2.396-7.86-.727-10.582-3.123-2.723-7.859-2.397-10.582.726-2.292 2.63-5.601 4.139-9.076 4.139s-6.783-1.508-9.075-4.138c-2.721-3.124-7.459-3.448-10.581-.728-3.123 2.721-3.449 7.459-.727 10.582 5.14 5.9 12.569 9.284 20.383 9.284z"/></svg>