<svg id="Capa_1" enable-background="new 0 0 512 512" height="512" viewBox="0 0 512 512" width="512" xmlns="http://www.w3.org/2000/svg"><path d="m471.92 106.098c-2.526-3.28-7.236-3.893-10.518-1.364-3.281 2.528-3.892 7.237-1.364 10.519 5.591 7.257 8.546 15.97 8.546 25.198 0 12.262-5.388 23.815-14.781 31.696-9.395 7.881-21.704 11.179-33.784 9.05l-107.222-18.917v-43.66l107.221-18.916c4.868-.858 9.763-.858 14.543.004 4.081.735 7.977-1.975 8.711-6.052.734-4.076-1.975-7.977-6.051-8.711-6.529-1.176-13.193-1.182-19.809-.013l-81.309 14.345c3.282-4.181 5.246-9.443 5.246-15.158v-11.345c0-13.565-11.036-24.601-24.602-24.601h-1.425c-2.132-16.525-11.546-28.909-28.074-36.874-15.78-7.603-38.464-11.299-69.351-11.299s-53.572 3.696-69.352 11.299c-16.528 7.964-25.942 20.349-28.074 36.874h-1.425c-13.564 0-24.601 11.036-24.601 24.601v11.345c0 13.565 11.036 24.601 24.601 24.601h3.95v63.46h-3.95c-13.564 0-24.601 11.036-24.601 24.601v11.345c0 13.565 11.036 24.602 24.601 24.602h10.904l-10.732 92.072c-.002.015-.004.03-.005.045l-12.633 108.386c-.982 1.038-1.941 2.079-2.883 3.104-8.083 8.789-15.063 16.38-29.387 16.38-19.761 0-35.657 12.939-44.763 36.434-1.996 5.149-1.32 10.949 1.808 15.515 3.146 4.594 8.345 7.336 13.908 7.336h8.371c4.143 0 7.5-3.358 7.5-7.5s-3.357-7.5-7.5-7.5h-8.371c-.851 0-1.325-.508-1.532-.811-.24-.351-.47-.916-.197-1.619 4.748-12.251 13.941-26.855 30.776-26.855 20.908 0 31.731-11.77 40.428-21.227 7.808-8.49 12.695-13.341 21.348-13.341.132 0 .265.001.397.003 22.613.381 42.013 8.55 49.403 20.336-10.851 5.47-21.908 15.008-25.483 35.595-.462 2.665-.355 5.355.267 7.918h-71.171c-4.143 0-7.5 3.358-7.5 7.5s3.357 7.5 7.5 7.5h276.87c6.179 0 11.881-2.815 15.646-7.724 3.715-4.843 4.943-10.982 3.371-16.844-8.803-32.803-40.203-48.318-55.058-49.334-.192-.013-.366-.039-.554-.055l-16.034-137.564c-.001-.005-.001-.01-.002-.015l-7.895-67.736h10.903c13.565 0 24.602-11.036 24.602-24.602v-11.345c0-5.715-1.964-10.977-5.246-15.158l81.309 14.345c3.279.579 6.57.864 9.842.863 13.141 0 25.941-4.596 36.189-13.194 12.799-10.739 20.14-26.48 20.14-43.188.001-12.568-4.033-24.446-11.662-34.35zm-254.023-91.098c51.958 0 77.825 10.303 82.217 33.173h-164.435c4.392-22.87 30.261-33.173 82.218-33.173zm-98.85 78.72c-5.294 0-9.601-4.307-9.601-9.601v-11.345c0-5.294 4.307-9.601 9.601-9.601h197.7c5.294 0 9.602 4.307 9.602 9.601v11.345c0 5.294-4.308 9.601-9.602 9.601zm178.75 15v63.46h-159.8v-63.46zm-161.06 309.433c-.219-.003-.435-.005-.65-.005-4.926 0-9.18.957-12.943 2.532l10.566-90.649c41.154-26.955 81.804-61.312 115.124-97.304h41.91l7.704 66.101c-46.287 48.895-103.771 92.224-158.472 119.427-1.073-.048-2.151-.084-3.239-.102zm-.743-107.718 9.057-77.708h83.108c-27.598 28.346-59.525 55.263-92.165 77.708zm193.311 142.628c11.453.784 35.147 14.238 41.593 38.256.485 1.808-.283 3.174-.785 3.828-.903 1.178-2.268 1.853-3.744 1.853h-186.595c-1.895 0-3.059-1.047-3.584-1.672-.51-.606-1.318-1.89-1.008-3.68 3.06-17.622 12.494-23.214 23.26-27.313.067-.023.133-.052.2-.076 1.653-.626 3.337-1.219 5.033-1.816 6.077-2.137 11.817-4.155 16.34-7.964 5.148-4.335 8.671-10.341 12.399-16.699 7.273-12.402 13.555-23.113 30.582-23.113 20.584 0 26.877 8.38 34.163 18.084 6.721 8.949 14.338 19.094 32.146 20.312zm-15.626-23.56c-1.495-1.734-2.952-3.666-4.524-5.759-2.77-3.689-5.772-7.687-9.661-11.347 3.742-3.245 7.417-6.525 11.046-9.82zm-5.288-45.363c-7.058 6.641-14.418 13.24-21.973 19.703-6.075-2.559-13.654-4.177-23.422-4.177-25.62 0-35.967 17.643-43.521 30.525-3.058 5.214-5.946 10.139-9.122 12.814-2.211 1.862-6.137 3.337-10.41 4.848-6.206-11.71-18.865-20.711-35.334-25.602 47.254-26.138 95.388-62.955 136.082-104.167zm17.957-176.014c0 5.294-4.308 9.602-9.602 9.602h-197.7c-5.294 0-9.601-4.307-9.601-9.602v-11.345c0-5.294 4.307-9.601 9.601-9.601h197.7c5.294 0 9.602 4.307 9.602 9.601zm-64.724-38.275c16.212 0 29.4-13.189 29.4-29.401 0-16.211-13.189-29.4-29.4-29.4-16.212 0-29.401 13.189-29.401 29.4-.001 16.212 13.189 29.401 29.401 29.401zm0-43.802c7.941 0 14.4 6.46 14.4 14.4 0 7.941-6.46 14.401-14.4 14.401-7.941 0-14.401-6.46-14.401-14.401-.001-7.94 6.459-14.4 14.401-14.4z"/></svg>