<svg id="Capa_1" enable-background="new 0 0 512 512" height="512" viewBox="0 0 512 512" width="512" xmlns="http://www.w3.org/2000/svg"><path d="m358.054 474.391c-32.049 15.002-66.385 22.609-102.054 22.609-64.374 0-124.894-25.068-170.413-70.587s-70.587-106.039-70.587-170.413c0-63.149 24.253-122.843 68.29-168.084 2.89-2.968 2.825-7.717-.143-10.606-2.969-2.888-7.717-2.826-10.605.143-46.779 48.058-72.542 111.467-72.542 178.547 0 68.38 26.629 132.668 74.98 181.019 48.352 48.353 112.64 74.981 181.02 74.981 37.884 0 74.359-8.083 108.413-24.024 3.751-1.756 5.369-6.221 3.613-9.972s-6.22-5.371-9.972-3.613zm-253.024-210.891h8.101c3.785 72.93 62.439 131.584 135.368 135.369v8.101c0 4.142 3.357 7.5 7.5 7.5s7.5-3.358 7.5-7.5v-8.102c16.328-.832 32.129-4.386 47.147-10.613 5.657 9.817 16.253 16.445 28.374 16.445 18.049 0 32.732-14.684 32.732-32.732 0-8.298-3.109-15.879-8.216-21.654 15.589-17.743 26.471-38.871 31.795-61.803 16.281-1.875 28.966-15.735 28.966-32.509 0-11.089-5.548-20.902-14.009-26.825 2.959-9.808 2.648-20.26-.992-30.062-5.048-13.599-11.9-26.44-20.372-38.254 1.717-3.7 2.625-7.76 2.625-11.96 0-7.599-2.96-14.743-8.334-20.116-11.091-11.091-29.14-11.089-40.23.001l-7.963 7.963c-21.378-14.212-45.857-22.277-71.522-23.595v-8.121c0-4.142-3.357-7.5-7.5-7.5s-7.5 3.358-7.5 7.5v8.101c-72.929 3.785-131.583 62.439-135.368 135.369h-8.101c-4.143 0-7.5 3.358-7.5 7.5-.001 4.139 3.357 7.497 7.499 7.497zm233.991 126.2c-9.777 0-17.732-7.955-17.732-17.732 0-9.778 7.955-17.733 17.732-17.733s17.732 7.955 17.732 17.733c0 9.777-7.955 17.732-17.732 17.732zm70.277-133.7c0 9.778-7.955 17.733-17.733 17.733s-17.733-7.955-17.733-17.733 7.955-17.733 17.733-17.733 17.733 7.955 17.733 17.733zm-14.064-51.667c2.332 6.28 2.661 12.947 1.029 19.276-1.535-.222-3.103-.342-4.698-.342-15.468 0-28.456 10.788-31.856 25.233h-55.978l75.417-75.417c6.584 9.757 11.995 20.226 16.086 31.25zm-159.349 71.783c5.373 5.373 12.517 8.332 20.115 8.332s14.742-2.959 20.115-8.332l12.616-12.616h24.472c-3.69 28.286-27.927 50.206-57.203 50.206-31.819 0-57.706-25.887-57.706-57.706s25.887-57.706 57.706-57.706c5.271 0 10.412.713 15.384 2.091l-35.498 35.498c-5.374 5.373-8.334 12.518-8.334 20.116s2.96 14.744 8.333 20.117zm117.707-136.726c2.622-2.621 6.065-3.932 9.509-3.932s6.888 1.311 9.51 3.932c2.54 2.541 3.939 5.917 3.939 9.509 0 2.829-.88 5.519-2.491 7.778-.109.138-.216.278-.314.423-.352.454-.723.896-1.135 1.309l-107.102 107.1c-2.539 2.539-5.916 3.938-9.508 3.938s-6.969-1.398-9.509-3.939c-2.54-2.54-3.939-5.917-3.939-9.509s1.399-6.969 3.94-9.509zm-217.752 109.11h-7.679c3.753-64.655 55.685-116.587 120.339-120.339v7.679c0 4.142 3.357 7.5 7.5 7.5s7.5-3.358 7.5-7.5v-7.665c21.673 1.244 42.376 7.871 60.672 19.422l-40.974 40.974c-8.633-3.499-17.757-5.277-27.198-5.277-40.09 0-72.706 32.616-72.706 72.706s32.616 72.706 72.706 72.706c37.558 0 68.554-28.626 72.32-65.206h31.389c2.533 10.758 10.378 19.488 20.613 23.243-5.018 20.395-14.957 39.157-29.096 54.861-3.774-1.523-7.892-2.37-12.205-2.37-18.049 0-32.732 14.684-32.732 32.733 0 .609.02 1.213.053 1.813-13.623 5.842-27.982 9.222-42.841 10.069v-7.689c0-4.142-3.357-7.5-7.5-7.5s-7.5 3.358-7.5 7.5v7.679c-64.654-3.753-116.586-55.685-120.339-120.34h7.679c4.143 0 7.5-3.358 7.5-7.5-.001-4.141-3.359-7.499-7.501-7.499zm120.16 219.462c116.876 0 211.962-95.086 211.962-211.962s-95.086-211.962-211.962-211.962-211.962 95.086-211.962 211.962 95.086 211.962 211.962 211.962zm0-408.924c108.605 0 196.962 88.357 196.962 196.962s-88.357 196.962-196.962 196.962-196.962-88.357-196.962-196.962 88.357-196.962 196.962-196.962zm181.02 15.942c-48.352-48.352-112.64-74.98-181.02-74.98-57.04 0-111.016 18.354-156.092 53.077-3.281 2.528-3.893 7.237-1.364 10.519 2.526 3.28 7.233 3.894 10.519 1.364 42.428-32.684 93.239-49.96 146.937-49.96 64.374 0 124.894 25.068 170.413 70.587s70.587 106.039 70.587 170.413c0 81.301-40.585 156.585-108.565 201.384-3.459 2.279-4.415 6.931-2.136 10.389 1.442 2.188 3.832 3.374 6.27 3.374 1.416 0 2.849-.401 4.12-1.238 72.205-47.583 115.311-127.549 115.311-213.909 0-68.38-26.629-132.668-74.98-181.02z"/></svg>