<svg id="Capa_1" enable-background="new 0 0 512 512" height="512" viewBox="0 0 512 512" width="512" xmlns="http://www.w3.org/2000/svg"><path d="m407.638 335.07c-40.014 0-72.567 32.554-72.567 72.567s32.554 72.567 72.567 72.567 72.567-32.554 72.567-72.567-32.553-72.567-72.567-72.567zm0 130.135c-31.743 0-57.567-25.824-57.567-57.567s25.825-57.567 57.567-57.567 57.567 25.824 57.567 57.567-25.824 57.567-57.567 57.567zm-303.276 15c40.014 0 72.567-32.554 72.567-72.567s-32.554-72.567-72.567-72.567-72.567 32.554-72.567 72.567 32.553 72.567 72.567 72.567zm0-130.135c31.743 0 57.567 25.824 57.567 57.567s-25.825 57.567-57.567 57.567-57.567-25.824-57.567-57.567 25.824-57.567 57.567-57.567zm43.488-162.627c-4.142 0-7.5 3.357-7.5 7.5v50.969c0 4.143 3.358 7.5 7.5 7.5s7.5-3.357 7.5-7.5v-50.969c0-4.142-3.358-7.5-7.5-7.5zm334.608-99.575v-13.048c0-41.256-33.564-74.82-74.82-74.82-17.166 0-33.936 5.96-47.222 16.781-3.211 2.616-3.694 7.341-1.078 10.552 2.615 3.211 7.34 3.693 10.552 1.079 10.617-8.649 24.023-13.412 37.748-13.412 32.985 0 59.82 26.835 59.82 59.82v.257c-16.951-11.9-37.583-18.896-59.82-18.896-22.238 0-42.87 6.996-59.821 18.896v-.257c0-7.253 1.282-14.338 3.809-21.057 1.458-3.877-.502-8.202-4.379-9.66-3.874-1.458-8.202.502-9.66 4.379-3.165 8.413-4.77 17.274-4.77 26.338v13.049c-11.987 12.338-20.959 27.617-25.712 44.641-11.263-16.152-29.965-26.75-51.105-26.75s-39.842 10.598-51.105 26.75c-4.753-17.024-13.725-32.304-25.712-44.641v-13.049c0-41.256-33.564-74.82-74.821-74.82-41.256 0-74.82 33.564-74.82 74.82v13.048c-18.272 18.806-29.542 44.447-29.542 72.676v247.094c0 24.378 8.583 48.099 24.17 66.792 2.653 3.181 7.383 3.61 10.563.958 3.182-2.653 3.61-7.382.958-10.564-13.343-16.003-20.691-36.311-20.691-57.186 0-49.274 40.087-89.361 89.362-89.361s89.362 40.087 89.362 89.361-40.088 89.362-89.362 89.362c-15.192 0-30.19-3.877-43.375-11.213-3.62-2.015-8.187-.713-10.2 2.907-2.014 3.619-.712 8.187 2.907 10.2 15.409 8.574 32.93 13.106 50.668 13.106 57.545 0 104.362-46.816 104.362-104.362v-14.298c11.431 13.334 28.378 21.807 47.276 21.807s35.846-8.473 47.276-21.807v14.298c0 57.546 46.816 104.362 104.362 104.362s104.362-46.816 104.362-104.362v-247.094c0-28.229-11.27-53.87-29.542-72.676zm-437.916-13.048c0-32.985 26.835-59.82 59.82-59.82s59.821 26.835 59.821 59.82v.258c-16.951-11.9-37.583-18.896-59.821-18.896s-42.87 6.996-59.82 18.896zm-29.542 145.208c12.164-12.206 30.72-20.266 55.233-23.955 6.623-.996 13.35.955 18.459 5.354 5.192 4.469 8.169 10.958 8.169 17.804 0 11.938-8.971 21.929-20.866 23.24-25.293 2.789-45.718 9.616-60.995 20.333zm178.724 133.756c-18.296-30.246-51.506-50.507-89.362-50.507s-71.066 20.261-89.362 50.507v-71.475c13.372-13.426 34.414-21.816 62.64-24.928 19.51-2.152 34.222-18.554 34.222-38.15 0-11.218-4.878-21.851-13.384-29.172-8.423-7.252-19.533-10.468-30.477-8.818-21.624 3.255-39.363 9.734-53.001 19.301v-39.997c0-49.274 40.087-89.362 89.362-89.362s89.362 40.088 89.362 89.362zm62.276 46.363c-26.068 0-47.276-21.208-47.276-47.276s21.208-47.276 47.276-47.276 47.276 21.208 47.276 47.276-21.208 47.276-47.276 47.276zm47.276-87.746c-11.431-13.334-28.378-21.807-47.276-21.807s-35.846 8.473-47.276 21.807v-144.364c0-26.068 21.208-47.276 47.276-47.276s47.276 21.208 47.276 47.276zm104.362 184.599c-49.274 0-89.362-40.088-89.362-89.362s40.087-89.361 89.362-89.361c49.274 0 89.362 40.087 89.362 89.361s-40.087 89.362-89.362 89.362zm89.362-234.196c-15.277-10.717-35.702-17.544-60.996-20.333-11.896-1.312-20.866-11.303-20.866-23.24 0-6.846 2.977-13.335 8.169-17.804 5.11-4.398 11.837-6.344 18.459-5.355 24.514 3.69 43.069 11.75 55.233 23.956v42.776zm0-62.263c-13.638-9.567-31.377-16.046-53.001-19.302-10.944-1.643-22.053 1.567-30.477 8.819-8.506 7.321-13.384 17.954-13.384 29.172 0 19.597 14.712 35.998 34.222 38.15 28.226 3.112 49.268 11.502 62.64 24.928v71.475c-18.296-30.246-51.506-50.507-89.362-50.507-37.855 0-71.066 20.261-89.362 50.507v-193.24c0-49.274 40.087-89.362 89.362-89.362 49.274 0 89.362 40.088 89.362 89.362zm-132.85-13.098c-4.142 0-7.5 3.357-7.5 7.5v50.969c0 4.143 3.358 7.5 7.5 7.5s7.5-3.357 7.5-7.5v-50.969c0-4.142-3.358-7.5-7.5-7.5z"/></svg>