<svg id="Capa_1" enable-background="new 0 0 512 512" height="512" viewBox="0 0 512 512" width="512" xmlns="http://www.w3.org/2000/svg"><path d="m346.503 360.467c-4.142 0-7.5 3.357-7.5 7.5v8.034c0 4.143 3.358 7.5 7.5 7.5s7.5-3.357 7.5-7.5v-8.034c0-4.143-3.358-7.5-7.5-7.5zm161.349-24.523c-4.859-7.621-13.155-12.171-22.193-12.171h-148.606c-13.228 0-26.211 4.539-36.557 12.781l-16.021 12.762v-47.548h131.023c10.749 0 19.495-8.745 19.495-19.495s-8.746-19.495-19.495-19.495h-6c-13.571-25.29-33.312-52.038-55.998-75.786-22.738-23.803-47.072-43.133-69.025-54.897v-10.978c14.363-.023 27.043-9.702 30.848-23.557l9.868-35.938c1.649-6.007.429-12.294-3.348-17.247-3.777-4.954-9.517-7.796-15.746-7.796h-21.621v-16.508c-.002-11.067-9.006-20.071-20.074-20.071h-16.802c-11.067 0-20.072 9.004-20.072 20.071v16.508h-21.622c-6.23 0-11.969 2.842-15.746 7.796-3.777 4.953-4.997 11.24-3.348 17.246l9.868 35.939c3.805 13.854 16.485 23.533 30.848 23.556v10.963c-39.671 20.964-84.455 61.201-120.676 108.587-2.516 3.291-1.887 7.998 1.404 10.514 1.359 1.039 2.96 1.541 4.549 1.541 2.256 0 4.488-1.014 5.964-2.945 32.836-42.957 72.713-79.699 108.759-100.557v151.535h-142.035c4.022-7.462 8.504-15.064 13.416-22.72 2.237-3.486 1.224-8.126-2.263-10.362-3.487-2.238-8.126-1.224-10.362 2.263-6.68 10.413-12.629 20.759-17.725 30.819h-5.325c-10.75 0-19.495 8.745-19.495 19.495s8.746 19.495 19.495 19.495h164.295v34.495h-201.184c-9.101 0-17.428 4.599-22.276 12.301-4.848 7.702-5.391 17.199-1.455 25.404l31.55 65.757c9.997 20.836 31.389 34.299 54.498 34.299h285.707c4.142 0 7.5-3.357 7.5-7.5s-3.358-7.5-7.5-7.5h-285.707c-17.375 0-33.458-10.122-40.974-25.787l-2.488-5.186h398.98l-2.19 4.706c-6.409 13.769-19.189 23.386-34.187 25.725-4.093.638-6.893 4.474-6.255 8.565.639 4.093 4.471 6.895 8.566 6.255 19.95-3.111 36.95-15.901 45.474-34.215l53.932-115.863c3.814-8.193 3.191-17.635-1.668-25.256zm-102.871-58.164c.011 0 .022-.002.033-.002h10.482c2.478 0 4.495 2.017 4.495 4.495 0 2.479-2.017 4.495-4.495 4.495h-131.022v-8.99h120.478c.01 0 .02.002.029.002zm-12.652-15.002h-107.855v-113.424c38.709 23.203 82.046 68.73 107.855 113.424zm-149.8-242.707c0-2.796 2.275-5.071 5.072-5.071h16.802c2.796 0 5.072 2.275 5.072 5.071v16.508h-26.945v-16.508zm-31.383 73.518-9.868-35.939c-.547-1.993.273-3.475.812-4.181.538-.705 1.749-1.89 3.817-1.89h100.188c2.068 0 3.279 1.185 3.817 1.89.538.706 1.359 2.188.812 4.182l-9.868 35.938c-2.026 7.378-8.784 12.531-16.435 12.531h-56.841c-7.65-.001-14.408-5.154-16.434-12.531zm58.328 27.53v240.146l-4.344 3.46c-6.493 5.173-14.384 8.377-22.601 9.257v-252.863zm-206.24 203.625c-2.479 0-4.495-2.017-4.495-4.495s2.017-4.495 4.495-4.495h9.934c.012 0 .023.002.035.002.009 0 .019-.002.028-.002h154.298v8.99zm432.688 30.126-44.759 96.156h-413.16l-21.865-45.57c-1.718-3.582-1.49-7.564.625-10.926 2.116-3.362 5.608-5.291 9.581-5.291h211.574c13.229 0 26.211-4.539 36.557-12.781l35.366-28.171c7.701-6.135 17.364-9.514 27.211-9.514h148.606c3.945 0 7.424 1.908 9.545 5.234 2.122 3.327 2.383 7.287.719 10.863zm-373.671 42.27c-12.679 0-22.994 10.315-22.994 22.993 0 12.679 10.315 22.993 22.994 22.993 12.678 0 22.993-10.315 22.993-22.993 0-12.679-10.315-22.993-22.993-22.993zm0 30.986c-4.408 0-7.994-3.586-7.994-7.993s3.586-7.993 7.994-7.993c4.407 0 7.993 3.586 7.993 7.993s-3.586 7.993-7.993 7.993zm321.05-67.659c-4.142 0-7.5 3.357-7.5 7.5v8.034c0 4.143 3.358 7.5 7.5 7.5s7.5-3.357 7.5-7.5v-8.034c0-4.143-3.358-7.5-7.5-7.5zm-30.711 10.236c-3.122-2.722-7.86-2.396-10.582.727-1.795 2.06-4.385 3.24-7.106 3.24s-5.311-1.181-7.107-3.24c-2.722-3.124-7.46-3.448-10.582-.727-3.123 2.722-3.448 7.46-.726 10.582 4.645 5.329 11.356 8.385 18.414 8.385s13.769-3.056 18.414-8.385c2.722-3.122 2.397-7.86-.725-10.582zm-183.47 26.437c-12.679 0-22.994 10.315-22.994 22.993 0 12.679 10.315 22.993 22.994 22.993s22.993-10.315 22.993-22.993c.001-12.679-10.314-22.993-22.993-22.993zm0 30.986c-4.408 0-7.994-3.586-7.994-7.993s3.586-7.993 7.994-7.993c4.407 0 7.993 3.586 7.993 7.993.001 4.407-3.585 7.993-7.993 7.993z"/></svg>