<svg id="Capa_1" enable-background="new 0 0 512 512" height="512" viewBox="0 0 512 512" width="512" xmlns="http://www.w3.org/2000/svg"><path d="m248.759 103.224h14.482c4.143 0 7.5-3.357 7.5-7.5s-3.357-7.5-7.5-7.5h-14.482c-4.142 0-7.5 3.357-7.5 7.5 0 4.142 3.358 7.5 7.5 7.5zm-56.103 371.051h-12.062c-4.142 0-7.5 3.357-7.5 7.5s3.358 7.5 7.5 7.5h12.062c4.142 0 7.5-3.357 7.5-7.5 0-4.142-3.358-7.5-7.5-7.5zm15.07-18.211c-4.142 0-7.5 3.357-7.5 7.5s3.358 7.5 7.5 7.5h12.061c4.142 0 7.5-3.357 7.5-7.5s-3.358-7.5-7.5-7.5zm-44.893-222.041c-4.142 0-7.5 3.357-7.5 7.5v15.466c0 4.143 3.358 7.5 7.5 7.5s7.5-3.357 7.5-7.5v-15.466c0-4.142-3.358-7.5-7.5-7.5zm2.691 222.041h-12.061c-4.142 0-7.5 3.357-7.5 7.5s3.358 7.5 7.5 7.5h12.061c4.142 0 7.5-3.357 7.5-7.5s-3.358-7.5-7.5-7.5zm90.476 14.327c-4.569 0-8.273 3.704-8.273 8.273s3.704 8.273 8.273 8.273 8.273-3.704 8.273-8.273-3.704-8.273-8.273-8.273zm-90.476 3.884h-12.061c-4.142 0-7.5 3.357-7.5 7.5s3.358 7.5 7.5 7.5h12.061c4.142 0 7.5-3.357 7.5-7.5 0-4.142-3.358-7.5-7.5-7.5zm27.132-18.211h-12.062c-4.142 0-7.5 3.357-7.5 7.5s3.358 7.5 7.5 7.5h12.062c4.142 0 7.5-3.357 7.5-7.5s-3.358-7.5-7.5-7.5zm156.511-222.041c-4.143 0-7.5 3.357-7.5 7.5v15.466c0 4.143 3.357 7.5 7.5 7.5s7.5-3.357 7.5-7.5v-15.466c0-4.142-3.357-7.5-7.5-7.5zm-63.676 17.997c-3.125-2.722-7.862-2.396-10.582.727-4.772 5.478-11.665 8.618-18.909 8.618s-14.136-3.141-18.909-8.618c-2.721-3.122-7.458-3.448-10.581-.727s-3.448 7.459-.727 10.582c7.622 8.746 18.636 13.763 30.217 13.763s22.596-5.017 30.218-13.763c2.721-3.123 2.395-7.86-.727-10.582zm144.653-61.411c-7.14-20.58-17.978-39.349-32.161-55.365 2.112-3.206 3.319-7.029 3.319-11.092v-28.308c15.642-13.033 21.926-29.594 16.832-44.89-6.337-19.029-35.827-50.954-162.134-50.954-50.175 0-89.848 5.091-117.918 15.132-3.9 1.395-5.931 5.688-4.536 9.588 1.395 3.899 5.685 5.932 9.588 4.535 26.444-9.459 64.418-14.255 112.866-14.255 47.31 0 84.672 4.582 111.051 13.62 20.262 6.942 33.35 16.557 36.852 27.074 1.537 4.612 3.203 16.594-13.485 29.66-28.156 7.565-59.846 12.462-94.351 14.587.129-1.388.198-2.794.198-4.218 0-23.583-18.063-42.769-40.264-42.769-22.202 0-40.264 19.186-40.264 42.769 0 1.423.069 2.83.198 4.218-34.501-2.125-66.189-7.021-94.343-14.585-8.766-6.883-13.879-14.799-14.418-22.406-.436-6.147 2.163-12.077 7.724-17.626 2.932-2.926 2.937-7.674.011-10.606s-7.675-2.937-10.607-.011c-8.656 8.637-12.836 18.771-12.09 29.303.804 11.346 7.34 22.531 18.488 31.823v28.319c0 4.063 1.207 7.886 3.318 11.092-14.182 16.016-25.021 34.785-32.16 55.365-32.593 3.889-57.432 29.713-57.432 60.798 0 16.19 6.72 31.458 18.922 42.99 10.816 10.222 24.901 16.489 40.089 17.961 9.326 23.615 23.898 44.824 42.381 62.335-3.952 1.392-7.607 3.647-10.651 6.692l-22.628 22.628c-.002.002-.003.003-.005.005s-.003.003-.005.005l-12.286 12.286c-8.98 8.98-8.98 23.593 0 32.574l20.437 20.437c.609.609 1.253 1.17 1.916 1.702-1.217 5.598-2.132 11.271-2.725 16.932-.641 6.113 1.355 12.244 5.477 16.82 4.137 4.593 10.054 7.228 16.233 7.228h215.505c4.142 0 7.5-3.357 7.5-7.5s-3.358-7.5-7.5-7.5h-215.506c-1.964 0-3.771-.805-5.088-2.267-1.3-1.443-1.906-3.297-1.705-5.218.471-4.495 1.186-8.995 2.094-13.455.028 0 .056.004.084.004 6.152 0 11.936-2.396 16.287-6.746l34.923-34.924c6.551-6.551 9.501-15.908 7.89-25.031l-.155-.88c24.229 11.13 51.403 17.378 80.089 17.378 28.687 0 55.86-6.248 80.09-17.378l-.155.88c-1.611 9.124 1.339 18.481 7.889 25.031l34.924 34.924c4.491 4.49 10.39 6.735 16.287 6.735.027 0 .055-.004.082-.004.909 4.464 1.625 8.969 2.097 13.467.201 1.92-.404 3.772-1.705 5.217-1.316 1.462-3.123 2.267-5.088 2.267h-18.147c-4.143 0-7.5 3.357-7.5 7.5s3.357 7.5 7.5 7.5h18.147c6.18 0 12.097-2.635 16.234-7.228 4.121-4.575 6.117-10.706 5.477-16.818-.593-5.66-1.508-11.333-2.725-16.932.661-.529 1.304-1.091 1.917-1.703l20.437-20.438c8.979-8.98 8.979-23.593-.001-32.574l-34.923-34.923c-3.045-3.044-6.699-5.3-10.65-6.693 18.482-17.511 33.054-38.719 42.38-62.334 15.188-1.472 29.272-7.739 40.089-17.961 12.202-11.532 18.922-26.8 18.922-42.99-.002-31.086-24.84-56.909-57.433-60.799zm-376.495 92.886c-9.173-8.67-14.225-20.065-14.225-32.089 0-21.353 15.884-39.432 37.703-44.735-3.489 14.307-5.3 29.309-5.3 44.735 0 1.664.03 3.322.079 4.975.002.029.002.057.004.085.415 13.743 2.522 27.09 6.12 39.867-9.215-2.076-17.637-6.465-24.381-12.838zm238.173-168.283c34.261-1.828 65.978-6.29 94.48-13.302v22.241c0 2.396-1.65 4.474-4.01 5.052-8.052 1.969-16.546 3.748-25.262 5.317-3.127-1.364-8.804-3.314-18.597-5.214-13.766-2.669-31.289-4.427-52.303-5.257 2.228-2.67 4.143-5.637 5.692-8.837zm-35.822-47.257c13.931 0 25.264 12.457 25.264 27.769s-11.333 27.769-25.264 27.769-25.264-12.457-25.264-27.769 11.333-27.769 25.264-27.769zm0 70.537c48.089 0 73.44 3.929 85.773 6.92-8.795 6.764-20.811 12.596-35.413 17.134-16.496 5.128-35.322 8.189-50.359 8.189-15.038 0-33.864-3.061-50.36-8.189-14.602-4.538-26.618-10.37-35.413-17.134 12.332-2.991 37.683-6.92 85.772-6.92zm-130.301-36.582c28.502 7.012 60.218 11.473 94.479 13.302 1.551 3.204 3.469 6.175 5.7 8.847-45.394 1.822-64.17 7.579-70.881 10.466-8.728-1.57-17.231-3.351-25.288-5.322-2.361-.578-4.01-2.655-4.01-5.052zm-3.053 356.801c-1.518 1.518-3.535 2.354-5.681 2.354s-4.163-.836-5.681-2.354l-20.436-20.436c-3.132-3.133-3.132-8.229-.001-11.361l6.987-6.987 31.797 31.797zm34.924-34.924-17.33 17.331-31.797-31.797 17.33-17.329c3.093-3.094 7.508-4.484 11.818-3.726l5.688 1.004c5.08 3.735 10.371 7.222 15.853 10.447l2.163 12.255c.76 4.305-.632 8.723-3.725 11.815zm263.581 3.126c3.132 3.133 3.132 8.23 0 11.361l-20.437 20.436c-1.517 1.518-3.534 2.354-5.68 2.354-2.147 0-4.164-.836-5.681-2.354l-6.987-6.986 31.797-31.798zm-34.922-34.922 17.329 17.328-31.797 31.798-17.331-17.33c-3.092-3.092-4.484-7.509-3.724-11.816l2.163-12.255c5.482-3.224 10.773-6.711 15.853-10.446l5.689-1.004c4.305-.761 8.723.631 11.818 3.725zm-130.229 18.87c-89.897 0-163.63-66.438-168.863-149.955 16.841-7.42 51.725-27.638 60.838-70.4 46.987 23.126 90.662 34.696 130.746 34.694 32.309-.002 62.289-7.521 89.763-22.567 11.214 29.372 35.073 48.771 56.38 58.252-5.221 83.527-78.959 149.976-168.864 149.976zm123.975-221.328c-.619-2.28-2.276-4.136-4.473-5.008-2.194-.869-4.674-.655-6.689.579-60.524 37.142-135.615 32.904-223.183-12.595-2.204-1.145-4.831-1.126-7.019.055-2.186 1.179-3.646 3.364-3.9 5.835-3.858 37.584-30.81 57.227-47.738 65.969 1.5-38.654 15.353-73.951 39.48-100.522 8.222 2.004 16.876 3.817 25.75 5.417 24.711 26.518 76.334 36.472 103.797 36.472s79.086-9.953 103.796-36.471c8.871-1.599 17.526-3.412 25.752-5.417 24.093 26.533 37.941 61.765 39.474 100.354-13.987-7.56-36.759-24.123-45.047-54.668zm78.376 93.962c-6.744 6.373-15.165 10.761-24.382 12.839 3.6-12.784 5.707-26.139 6.121-39.889.001-.02.001-.04.003-.06.049-1.654.08-3.313.08-4.978 0-15.427-1.81-30.429-5.299-44.735 21.819 5.304 37.703 23.383 37.703 44.735-.002 12.023-5.054 23.418-14.226 32.088zm-202.351 152.608c-4.569 0-8.273 3.704-8.273 8.273s3.704 8.273 8.273 8.273 8.273-3.704 8.273-8.273-3.704-8.273-8.273-8.273z"/></svg>