<svg id="Capa_1" enable-background="new 0 0 512.015 512.015" height="512" viewBox="0 0 512.015 512.015" width="512" xmlns="http://www.w3.org/2000/svg"><path d="m429.447 290.934c-5.084-24.289-24.803-44.975-57.026-59.818-31.224-14.384-71.482-21.986-116.421-21.986-44.891 0-85.115 7.587-116.326 21.941-32.205 14.811-51.946 35.456-57.091 59.703-5.82 27.424 3.53 81.622 129.503 139.062.027.45.076.902.15 1.353.319 1.945.759 3.865 1.31 5.749-6.547 2.397-12.078 5.785-16.462 10.168-14.919 14.92-15.12 39.003-13.912 52.033.612 6.586 5.837 11.811 12.425 12.423 2.781.258 6.064.452 9.657.452 13.234-.001 30.64-2.631 42.373-14.364 3.366-3.366 6.165-7.434 8.372-12.119 2.207 4.685 5.005 8.753 8.371 12.119 11.735 11.734 29.139 14.363 42.374 14.363 3.592 0 6.877-.193 9.658-.451 6.588-.612 11.813-5.838 12.423-12.425.201-2.164.334-4.379.397-6.583.118-4.141-3.143-7.593-7.283-7.711-.073-.002-.145-.003-.218-.003-4.043 0-7.377 3.219-7.493 7.286-.044 1.535-.127 3.074-.249 4.59-8.946.716-28.449.88-39.003-9.674-6.056-6.055-8.548-15.112-9.471-23.211 1.285-.337 2.546-.739 3.778-1.205l12.089 12.089c1.465 1.464 3.385 2.196 5.304 2.196s3.839-.732 5.304-2.196c2.929-2.93 2.929-7.678 0-10.607l-9.673-9.673c1.697-1.601 3.26-3.356 4.676-5.241 7.426 1.586 13.244 4.44 17.323 8.518 1.401 1.4 2.674 3.029 3.783 4.84 1.415 2.31 3.879 3.583 6.402 3.583 1.336 0 2.689-.356 3.911-1.105 3.532-2.164 4.642-6.781 2.477-10.314-1.726-2.815-3.732-5.376-5.967-7.611-5.401-5.4-12.465-9.307-21.069-11.674.306-1.057.568-2.135.795-3.226 49.105-21.862 85.611-45.411 108.529-70.025 15.345-16.476 32.356-42.212 26.28-71.246zm-269.857-35.504c6.592-12.724 21.252-21.908 43.57-27.296.039-.01.076-.024.115-.034 16.466-2.623 34.152-3.97 52.725-3.97 18.575 0 36.26 1.347 52.726 3.97.039.01.075.024.114.034 22.318 5.388 36.978 14.572 43.57 27.296 5.497 10.609 5.674 24.197.571 40.46-15.213-6.601-32.52-5.484-51.587 3.355-17.518 8.123-32.664 21.014-42.533 30.003-1.633 1.486-4.093 1.486-5.722 0-9.87-8.989-25.017-21.88-42.535-30.003-19.065-8.84-36.372-9.956-51.586-3.356-5.102-16.263-4.925-29.85.572-40.459zm-62.334 38.458c4.063-19.149 21.354-36.618 48.686-49.188 1.176-.541 2.39-1.055 3.595-1.575-1.197 1.743-2.298 3.538-3.265 5.404-8.462 16.332-7.911 36.812 1.638 60.871 14.121 35.579 46.416 74.033 71.485 97.924-1.029 2.643-1.804 5.422-2.305 8.302-84.466-38.784-128.063-82.958-119.834-121.738zm139.765 193.155c-10.554 10.555-30.056 10.392-39.003 9.674-.718-8.944-.88-28.45 9.674-39.003 3.698-3.699 8.872-6.4 15.389-8.058.9.328 1.841.556 2.808.68 1.182 1.467 2.442 2.848 3.787 4.116l-9.658 9.658c-2.929 2.93-2.929 7.678 0 10.607 1.465 1.464 3.385 2.196 5.304 2.196s3.839-.732 5.304-2.196l12.1-12.1c1.235.466 2.488.882 3.767 1.217-.923 8.097-3.415 17.153-9.472 23.209zm18.979-36.982c-3.643 0-7.188-.902-10.408-2.555 12.079-3.01 23.246-7.982 33.419-14.888-3.499 10.18-12.492 17.443-23.011 17.443zm-27.188-14.753c-.576-1.499-1.044-3.044-1.398-4.62 20.057-3.315 37.871-11.758 53.013-25.123.934 1.497 1.748 3.075 2.432 4.718-14.966 14.31-33.135 22.723-54.047 25.025zm4.03-21.072c3.385-10.412 12.486-17.889 23.158-17.889 3.287 0 6.501.723 9.476 2.086-9.759 7.482-20.681 12.775-32.634 15.803zm54.607-22.837c-1.624-.966-3.45-1.587-5.368-1.78-.83-.084-1.659-.076-2.478-.001-6.797-5.356-15.025-8.272-23.603-8.272-11.212 0-21.342 4.966-28.55 12.918-22.093-21.461-49.174-53.776-63.028-84.353 11.42-5.152 24.532-4.171 39.872 2.942 15.646 7.255 29.605 19.16 38.744 27.484 7.389 6.73 18.532 6.73 25.923 0 9.139-8.324 23.098-20.229 38.743-27.484 15.339-7.114 28.451-8.096 39.871-2.942-13.155 29.02-38.361 59.81-60.126 81.488zm10.24 22.945c.745-2.626.673-5.474-.317-8.135-.316-.849-.668-1.681-1.031-2.507 24.758-24.35 54.413-60.709 67.744-94.29.002-.004.004-.008.006-.013 9.549-24.06 10.1-44.539 1.638-60.871-.967-1.867-2.068-3.662-3.265-5.405 1.234.533 2.477 1.061 3.681 1.616 27.34 12.595 44.607 30.091 48.621 49.268 3.855 18.423-.378 66.134-117.077 120.337zm-183.775-310.677c1.675 3.884 5.239 6.551 9.347 7.124l18.463 42.836c2.87 6.657 7.713 12.081 14.004 15.684 1.176.673 2.457.992 3.721.992 2.601 0 5.13-1.354 6.516-3.773 2.058-3.595.813-8.178-2.781-10.236-3.453-1.977-6.11-4.952-7.684-8.605l-15.852-36.779h232.705l-15.853 36.779c-2.884 6.691-9.455 11.015-16.742 11.015h-145.871c-4.143 0-7.5 3.357-7.5 7.5s3.357 7.5 7.5 7.5h145.871c13.282 0 25.261-7.881 30.517-20.077l18.462-42.835c4.108-.572 7.673-3.24 9.348-7.124 3.959-9.185 3.498-19.673-1.232-28.057-5.511-9.767-15.887-15.833-27.08-15.833h-14.793c-8.959-17.012-22.139-31.449-38.368-41.938-18.058-11.671-39.018-17.84-60.612-17.84s-42.554 6.169-60.613 17.84c-16.231 10.489-29.411 24.925-38.369 41.938h-14.231c-10.004 0-19.454 4.576-25.279 12.241-6.782 8.925-8.245 20.854-3.818 31.126zm142.086-88.667c33.145 0 63.997 17.244 81.632 44.777h-163.264c17.634-27.533 48.486-44.777 81.632-44.777zm-126.549 66.095c3.006-3.956 7.991-6.317 13.336-6.317h18.813c.012 0 .024.002.036.002.009 0 .018-.002.028-.002h208.111c5.79 0 11.16 3.144 14.016 8.204 2.143 3.799 2.556 8.513 1.192 12.928h-1.137c-.031 0-.063 0-.094 0h-255.505c-.031 0-.063 0-.094 0h-1.182c-1.655-5.002-.751-10.563 2.48-14.815z"/></svg>