<svg id="Capa_1" enable-background="new 0 0 512.011 512.011" height="512" viewBox="0 0 512.011 512.011" width="512" xmlns="http://www.w3.org/2000/svg"><path d="m273.066 201.205v-6.106c0-4.143-3.357-7.5-7.5-7.5-4.142 0-7.5 3.357-7.5 7.5v6.106c0 4.143 3.358 7.5 7.5 7.5 4.143 0 7.5-3.358 7.5-7.5zm232.096 29.107-69.149-69.148c-15.647-15.646-40.594-17.17-58.026-3.544l-22.272 17.408c-21.215-21.991-53.595-35.593-89.283-35.593-46.006 0-80.106 14.232-101.523 42.31l-30.867-24.124c-17.434-13.627-42.379-12.102-58.026 3.544l-69.151 69.148c-6.012 6.013-8.259 14.497-6.009 22.697 2.249 8.199 8.51 14.35 16.748 16.453 6.438 1.644 12.987 2.444 19.501 2.444 20.852-.001 41.31-8.209 56.351-23.249l20.45-20.45.113.007 15.814 20.235c-6.81 5.883-15.165 9.766-24.061 11.107l-29.888 4.502c-10.357 1.559-18.913 8.677-22.332 18.576-1.893 5.484-2.012 11.267-.526 16.632.107.538.267 1.055.482 1.544 1.273 3.738 3.335 7.233 6.155 10.222l11.189 11.859c2.046 2.168 4.263 4.135 6.607 5.909.155.126.316.24.481.353 9.226 6.821 20.463 10.561 31.975 10.56 2.241 0 4.495-.142 6.743-.429 4.109-.525 7.015-4.281 6.489-8.39-.524-4.108-4.288-7.008-8.39-6.489-3.894.498-7.798.383-11.585-.287 6.769-2.478 13.032-5.06 17.829-7.222 3.776-1.702 5.458-6.144 3.756-9.92-1.703-3.777-6.145-5.455-9.92-3.756-7.78 3.507-19.61 8.179-30.906 11.481-.745-.674-1.475-1.368-2.17-2.105l-7.701-8.162c14.34-1.486 29.299-4.556 37.119-6.65 4.001-1.072 6.376-5.185 5.304-9.186-1.071-4.002-5.188-6.379-9.185-5.304-8.904 2.384-25.929 5.669-40.166 6.692.121-.821.315-1.643.596-2.457 1.614-4.674 5.496-7.903 10.387-8.64l29.888-4.502c11.671-1.757 22.623-6.835 31.553-14.522 5.199 4.777 11.404 8.285 18.273 10.279 3.977 1.152 8.138-1.134 9.293-5.113 1.154-3.978-1.136-8.139-5.113-9.293-6.294-1.826-11.77-5.539-15.836-10.739-.001-.001-.001-.001-.001-.002l-.407-.521c-.002-.003-.005-.005-.007-.008l-19.922-25.49c-2.657-3.4-6.652-5.502-10.96-5.765-4.313-.26-8.528 1.335-11.579 4.387l-17.141 17.142c-14.758-3.942-32.633-15.25-33.498-29.01l33.963-33.962c10.295-10.297 26.71-11.298 38.183-2.333l66.388 51.886c3.263 2.552 7.978 1.974 10.527-1.291 2.551-3.264 1.973-7.977-1.291-10.527l-23.699-18.522c18.504-24.256 48.635-36.549 89.701-36.549 22.783 0 45.067 6.423 62.747 18.086 13.894 9.165 24.539 21.264 30.738 34.745h-16.37c1.873-1.364 3.094-3.567 3.094-6.061v-6.106c0-4.143-3.357-7.5-7.5-7.5s-7.5 3.357-7.5 7.5v6.106c0 2.494 1.222 4.697 3.094 6.061h-31.495c-17.696 0-32.093 14.397-32.093 32.094s14.396 32.093 32.093 32.093h52.499c-16.67 27.296-51.023 44.985-89.308 44.985-24.585 0-45.262-1.932-61.787-5.757-.005-.001-.01-.002-.015-.003-7.532-1.745-14.202-3.882-19.984-6.411-7.149-3.126-15.259-3.071-22.248.151l-17.258 7.95c-3.763 1.732-5.407 6.188-3.674 9.949 1.732 3.763 6.189 5.407 9.949 3.674l17.258-7.95c3.106-1.43 6.735-1.441 9.963-.03 4.886 2.137 10.228 4.01 16.036 5.631-1.067 4.015-3.143 7.697-6.135 10.689-4.231 4.232-6.562 9.858-6.562 15.843s2.33 11.61 6.562 15.842c4.232 4.231 9.858 6.563 15.843 6.563 5.984 0 11.611-2.331 15.841-6.563 9.684-9.683 16.204-22.061 18.808-35.432 3.735.25 7.588.442 11.555.582-.786 1.121-1.66 2.186-2.639 3.165-4.232 4.232-6.564 9.858-6.564 15.843s2.331 11.611 6.563 15.842 9.858 6.563 15.842 6.563 11.61-2.331 15.843-6.563c10.449-10.45 17.19-23.965 19.333-38.524 33.09-8.182 60.59-28.582 73.838-56.038h1.138c.493 0 .984-.021 1.476-.032h.007c.003 0 .006-.001.009-.001 15.082-.331 29.801-5.644 41.597-15.075 1.77-1.414 3.274-3.07 4.499-4.896 10.701 9.669 23.741 16.218 37.967 19.004.486.095.972.141 1.449.141 3.514 0 6.651-2.482 7.353-6.06.796-4.064-1.853-8.006-5.919-8.802-8.418-1.648-16.323-4.925-23.356-9.618 6.782-2.766 13.271-6.482 18.633-10.782 6.478-5.196 11.168-11.118 13.915-17.399l22.987 22.987c2.033 2.032 2.862 4.804 2.276 7.605-.584 2.788-2.479 5.057-5.069 6.069-3.857 1.508-5.763 5.857-4.255 9.716 1.157 2.961 3.988 4.772 6.987 4.772.908 0 1.832-.166 2.729-.517 7.322-2.862 12.665-9.205 14.29-16.967 1.622-7.734-.753-15.691-6.348-21.287zm-450.787 5.02c5.358 4.297 11.841 8.01 18.617 10.776-15.036 9.973-33.894 13.362-51.677 8.823-4.249-1.085-5.608-4.48-5.993-5.889-.387-1.408-.951-5.021 2.15-8.122l22.987-22.987c2.748 6.281 7.438 12.203 13.916 17.399zm155.239 120.076c-1.398 1.398-3.257 2.169-5.234 2.169-1.978 0-3.837-.771-5.236-2.17-1.398-1.398-2.168-3.257-2.168-5.234 0-1.978.771-3.837 2.168-5.235 5.012-5.011 8.485-11.193 10.177-17.936 4.648.862 9.538 1.599 14.684 2.208-2.217 9.879-7.186 18.993-14.391 26.198zm59.406-.001c-1.398 1.399-3.258 2.17-5.235 2.17s-3.836-.771-5.235-2.17c-1.398-1.398-2.169-3.257-2.169-5.234 0-1.978.77-3.837 2.17-5.235 3.861-3.862 6.82-8.463 8.759-13.514 5.348-.034 10.629-.382 15.817-1.018-2.333 9.417-7.178 18.073-14.107 25.001zm34.219-98.955c-9.425 0-17.093-7.668-17.093-17.093 0-9.426 7.668-17.094 17.093-17.094h56.626c-3.384 11.714-2.613 23.363 2.237 34.187zm104.421-11.824c-8.198 6.554-18.2 10.568-28.601 11.569-8.391-12.577-6.998-24.732-3.354-33.894 11.593.385 22.879 4.53 31.956 11.786 1.264 1.01 2.097 2.414 2.399 3.967.022.147.044.293.074.438.036.285.06.572.06.864 0 2.062-.923 3.983-2.534 5.27zm18.21-9.884-1.568-1.568c-1.242-4.212-3.745-7.98-7.275-10.803-11.615-9.285-26.061-14.583-40.898-15.06-2.675-7.361-6.322-14.308-10.838-20.733l21.931-17.141c11.473-8.966 27.887-7.963 38.183 2.333l33.963 33.962c-.865 13.76-18.74 25.067-33.498 29.01z"/></svg>