<svg id="Capa_1" enable-background="new 0 0 512 512" height="512" viewBox="0 0 512 512" width="512" xmlns="http://www.w3.org/2000/svg"><path d="m264.944 72.635c15.114 0 27.41 12.296 27.41 27.41v6.657c0 4.143 3.358 7.5 7.5 7.5s7.5-3.357 7.5-7.5v-6.657c0-15.114 12.296-27.41 27.41-27.41 4.142 0 7.5-3.358 7.5-7.5 0-4.143-3.358-7.5-7.5-7.5-14.458 0-27.251 7.273-34.91 18.353-7.659-11.08-20.452-18.353-34.91-18.353-4.142 0-7.5 3.357-7.5 7.5 0 4.142 3.358 7.5 7.5 7.5zm-245.662 212.833c2.721-2.211 6.248-3.067 9.683-2.35l30.067 6.292c15.676 3.28 27.909 14.946 31.925 30.445.515 1.987 1.821 3.676 3.614 4.674 1.794.997 3.918 1.218 5.877.605 22.253-6.933 45.722-27.903 72.897-52.185 33.153-29.624 70.729-63.2 116.755-81.765 3.842-1.549 5.7-5.919 4.15-9.761-1.549-3.841-5.921-5.699-9.761-4.149-48.456 19.543-87.071 54.047-121.14 84.489-22.86 20.427-42.966 38.392-60.545 46.413-7.174-17.063-22.166-29.571-40.702-33.449l-30.067-6.292c-7.874-1.647-15.97.316-22.214 5.389-6.24 5.073-9.821 12.596-9.821 20.64 0 23.089 11.838 44.54 30.56 57.131-18.722 12.591-30.56 34.043-30.56 57.131 0 8.045 3.581 15.567 9.825 20.64 4.796 3.896 10.685 5.958 16.726 5.958 1.823 0 3.661-.188 5.487-.57l12.979-2.716c4.054-.849 6.653-4.822 5.805-8.877s-4.824-6.652-8.877-5.805l-12.979 2.716c-3.432.716-6.96-.137-9.682-2.349-2.722-2.211-4.283-5.49-4.283-8.997 0-22.058 13.82-42.204 34.39-50.133 2.894-1.115 4.803-3.897 4.803-6.998 0-3.102-1.909-5.883-4.803-6.998-20.571-7.928-34.391-28.075-34.391-50.133 0-3.507 1.561-6.785 4.282-8.996zm280.572-157.897c-4.142 0-7.5 3.357-7.5 7.5v14.565c0 4.143 3.358 7.5 7.5 7.5s7.5-3.357 7.5-7.5v-14.565c0-4.142-3.357-7.5-7.5-7.5zm59.737 34.716c-12.722 0-25.529 1.279-38.066 3.803-4.061.817-6.69 4.771-5.873 8.832s4.771 6.693 8.833 5.873c11.564-2.327 23.376-3.508 35.106-3.508 75.768 0 137.409 58.784 137.409 131.039 0 6.089-.448 12.08-1.295 17.95-46.867-13.471-86.947-13.009-125.11-5.606-.768.034-1.509.183-2.205.434-20.568 4.141-40.605 10.265-60.877 17.276.487-1.69.928-3.401 1.293-5.144l2.451-11.713c1.966-9.396.152-18.986-5.109-27.006-2.272-3.464-6.922-4.427-10.385-2.158-3.463 2.272-4.429 6.922-2.157 10.385 3.059 4.663 4.113 10.241 2.969 15.707l-2.451 11.713c-5.497 26.272-28.969 45.34-55.81 45.339-3.808 0-7.369-1.693-9.774-4.644-.012-.015-.023-.031-.036-.046-2.386-2.957-3.311-6.782-2.532-10.502l6.628-31.674c1.992-9.518 6.927-17.941 14.271-24.357 3.119-2.726 3.439-7.464.713-10.583s-7.464-3.438-10.583-.714c-9.82 8.579-16.419 19.846-19.084 32.582l-6.628 31.674c-.956 4.565-.739 9.202.554 13.537-27.429 7.338-52.248 11.085-77.355 11.7-12.75-2.892-24.635-5.055-35.174-6.123-3.765-.374-7.227 2.104-8.069 5.795-2.455 10.765-9.237 20.302-18.608 26.164-3.512 2.197-4.578 6.824-2.381 10.336s6.823 4.578 10.336 2.381c10.799-6.756 19.068-17.104 23.364-29.02 31.386 4.248 74.304 17.359 115.893 30.064 14.5 4.43 29.136 8.901 43.445 13.046.14.044.281.087.424.123 36.816 10.654 71.425 19.123 95.871 19.123 4.374 0 8.703-.188 12.985-.536.224-.009.448-.028.672-.057 67.429-5.766 122.364-53.781 135.67-116.154.037-.158.068-.316.095-.475 1.954-9.319 2.986-18.954 2.986-28.817.003-80.526-68.368-146.039-152.406-146.039zm-135.358 245.441c-15.762-4.815-31.711-9.686-47.211-14.131 14.001-2.223 28.346-5.411 43.46-9.63 4.942 4.195 11.214 6.537 17.833 6.537h.002c24.944 0 47.573-13.05 60.561-33.16 21.822-7.862 42.676-14.846 63.704-19.732-5.835 45.27-38.277 73.053-96.568 82.679-13.748-4.001-27.829-8.301-41.781-12.563zm146.38 31.215c-3.637.277-7.312.422-11.022.422-16.529 0-38.7-4.352-63.326-10.711 25.259-7.781 44.948-19.903 58.723-36.217 13.283-15.73 21.001-35.227 23.013-58.007 20.702-3.704 41.838-5.116 64.473-3.103 1.106 19.671-1.835 37.427-8.793 52.844-11.046 24.476-32.266 42.897-63.068 54.772zm51.98-14.187c10.607-9.914 18.888-21.401 24.76-34.413 7.641-16.931 11.072-36.13 10.237-57.184 11.251 1.721 22.906 4.297 35.082 7.855-9.847 36.439-35.763 66.786-70.079 83.742zm-56.64-161.475v-8.123c0-4.143-3.358-7.5-7.5-7.5s-7.5 3.357-7.5 7.5v8.123c0 4.142 3.358 7.5 7.5 7.5s7.5-3.357 7.5-7.5zm97.862 0v-8.123c0-4.143-3.358-7.5-7.5-7.5s-7.5 3.357-7.5 7.5v8.123c0 4.142 3.358 7.5 7.5 7.5s7.5-3.357 7.5-7.5zm-56.431 13.737c7.112 0 13.875-3.08 18.555-8.449 2.721-3.123 2.396-7.861-.727-10.582-3.123-2.722-7.86-2.396-10.582.727-1.83 2.101-4.471 3.305-7.246 3.305s-5.416-1.204-7.246-3.305c-2.721-3.122-7.46-3.447-10.582-.727-3.123 2.721-3.448 7.459-.727 10.582 4.68 5.369 11.443 8.449 18.555 8.449z"/></svg>