<svg id="Capa_1" enable-background="new 0 0 512 512" height="512" viewBox="0 0 512 512" width="512" xmlns="http://www.w3.org/2000/svg"><path d="m368.388 447.494-6.564 6.564c-2.929 2.93-2.929 7.678 0 10.607 1.464 1.464 3.384 2.196 5.303 2.196s3.839-.732 5.303-2.196l6.565-6.564c2.929-2.93 2.929-7.678 0-10.607-2.929-2.928-7.678-2.928-10.607 0zm-186.051-194.067-7.849 7.849c-2.929 2.93-2.929 7.678 0 10.607 1.464 1.464 3.384 2.196 5.303 2.196 1.92 0 3.839-.732 5.303-2.196l7.849-7.849c2.929-2.93 2.929-7.678 0-10.607-2.928-2.928-7.677-2.928-10.606 0zm-121.875 130.133c-2.929-2.928-7.678-2.928-10.606 0l-7.124 7.124c-2.929 2.93-2.929 7.678 0 10.607 1.464 1.464 3.384 2.196 5.303 2.196s3.839-.732 5.303-2.196l7.124-7.124c2.93-2.929 2.93-7.677 0-10.607zm153.557-279.758c0 23.148 18.833 41.981 41.981 41.981 23.149 0 41.982-18.833 41.982-41.981 0-23.15-18.833-41.983-41.982-41.983-23.148 0-41.981 18.833-41.981 41.983zm68.963 0c0 14.878-12.104 26.981-26.982 26.981-14.877 0-26.981-12.104-26.981-26.981 0-14.878 12.104-26.983 26.981-26.983 14.878 0 26.982 12.105 26.982 26.983zm27.704 17.726-4.69 4.689c-2.929 2.929-2.929 7.678 0 10.606 1.465 1.465 3.384 2.197 5.304 2.197 1.919 0 3.839-.732 5.303-2.196l4.69-4.689c2.929-2.929 2.929-7.678 0-10.606-2.929-2.929-7.677-2.928-10.607-.001zm179.953 230.571c-6.595-7.859-15.855-12.68-26.076-13.574l-84.008-7.35c-21.099-1.848-39.763 13.823-41.61 34.917-1.6 18.288 9.961 34.741 26.81 40.004-22.111 12.554-46.346 21.322-71.345 25.732v-133.53h41.807c21.179 0 38.41-17.23 38.41-38.41 0-21.179-17.23-38.409-38.41-38.409h-41.807v-21.27c39.331-15.682 65.392-53.762 65.392-96.406 0-11.887-2.004-23.553-5.956-34.674-1.387-3.902-5.675-5.941-9.579-4.556-3.903 1.388-5.942 5.676-4.555 9.579 3.378 9.504 5.09 19.479 5.09 29.65 0 38.03-24.235 71.82-60.306 84.082-3.04 1.033-5.086 3.889-5.086 7.101v26.493h-46.82v-26.493c0-3.212-2.046-6.067-5.087-7.101-36.07-12.262-60.305-46.052-60.305-84.082.001-48.966 39.837-88.802 88.802-88.802 25.969 0 50.579 11.367 67.519 31.188 2.69 3.147 7.425 3.52 10.574.828 3.149-2.691 3.52-7.425.829-10.574-19.794-23.16-48.56-36.442-78.922-36.442-57.236 0-103.801 46.565-103.801 103.802 0 42.645 26.061 80.725 65.392 96.406v21.27h-41.808c-21.179 0-38.41 17.23-38.41 38.409 0 21.18 17.23 38.41 38.41 38.41h41.808v133.53c-24.999-4.41-49.235-13.178-71.345-25.732 16.849-5.262 28.41-21.715 26.81-40.004-.895-10.223-5.715-19.485-13.575-26.082-7.863-6.599-17.821-9.736-28.037-8.835l-84.006 7.35c-10.22.894-19.481 5.714-26.077 13.574-6.595 7.859-9.734 17.816-8.84 28.036l7.35 84.007c.732 8.363 4.077 16.076 9.673 22.305 2.768 3.081 7.51 3.333 10.592.566 3.081-2.769 3.334-7.511.566-10.592-3.406-3.79-5.442-8.488-5.888-13.586l-7.35-84.007c-.545-6.229 1.369-12.298 5.388-17.088 4.02-4.79 9.664-7.729 15.893-8.272l84.013-7.351c6.226-.546 12.29 1.362 17.08 5.382 4.791 4.022 7.73 9.668 8.275 15.899 1.125 12.858-8.421 24.235-21.281 25.36l-12.774 1.117c-.012.001-.023.002-.035.003l-40.405 3.535c-1.981.174-3.813 1.127-5.091 2.65-1.279 1.524-1.9 3.493-1.727 5.475l4.656 53.215c.931 10.639-5.438 20.553-15.488 24.108-3.905 1.382-5.951 5.667-4.569 9.572 1.089 3.077 3.981 5 7.07 5 .83 0 1.674-.139 2.501-.432 13.862-4.904 23.456-17.172 25.263-31.319 47.887 30.342 102.811 46.319 159.767 46.319 56.957 0 111.881-15.977 159.766-46.315.915 7.239 3.875 14.076 8.677 19.799 6.595 7.859 15.855 12.68 26.077 13.574 1.121.098 2.259.148 3.381.148 19.716 0 36.508-15.401 38.228-35.064l7.349-84.007c.896-10.22-2.244-20.177-8.839-28.036zm-314.856-68.802c-12.908 0-23.41-10.502-23.41-23.41s10.501-23.409 23.41-23.409h160.435c12.908 0 23.41 10.501 23.41 23.409s-10.501 23.41-23.41 23.41zm240.712 163.944c-47.484 32.558-102.896 49.759-160.495 49.759-57.598 0-113.01-17.201-160.495-49.759l-3.109-35.538 30.255-2.646c30.251 20.572 65.251 34.042 101.429 38.963.337.046.675.068 1.011.068 1.802 0 3.558-.65 4.933-1.851 1.631-1.424 2.567-3.484 2.567-5.649v-142.291h46.82v142.291c0 2.165.936 4.226 2.567 5.649 1.375 1.2 3.13 1.851 4.933 1.851.336 0 .674-.022 1.011-.068 36.178-4.921 71.178-18.391 101.429-38.963l30.254 2.646zm68.041-68.413-7.349 84.007c-1.048 11.983-11.276 21.37-23.285 21.37-.689 0-1.387-.03-2.076-.091-6.229-.545-11.873-3.482-15.893-8.272s-5.933-10.858-5.388-17.088l4.655-53.215c.361-4.126-2.692-7.764-6.818-8.125l-53.213-4.655c-12.859-1.125-22.406-12.502-21.281-25.359 1.064-12.169 11.312-21.371 23.308-21.371.679 0 1.365.029 2.053.09l84.006 7.35c6.229.545 11.872 3.482 15.892 8.272 4.021 4.789 5.935 10.858 5.389 17.087z"/></svg>