<svg id="Capa_1" enable-background="new 0 0 512 512" height="512" viewBox="0 0 512 512" width="512" xmlns="http://www.w3.org/2000/svg"><path d="m435.334 270.53c-.092-.431-.222-.847-.384-1.247-18.393-59.282-65.491-106.052-124.974-123.984 18.022-15.554 28.724-38.321 28.724-62.599-.001-45.601-37.099-82.7-82.7-82.7s-82.7 37.099-82.7 82.699c0 24.28 10.703 47.049 28.727 62.602-15.154 4.55-29.728 10.996-43.339 19.288-3.538 2.154-4.659 6.77-2.504 10.307 2.154 3.537 6.769 4.659 10.307 2.504 26.894-16.381 57.845-25.04 89.509-25.04 73.895 0 137.068 46.758 161.507 112.238h-28.421c-22.95-50.635-73.972-85.943-133.086-85.943s-110.136 35.309-133.086 85.943h-28.364c9.396-25.216 24.634-48.191 44.773-66.73 3.047-2.805 3.244-7.55.439-10.598-2.806-3.045-7.55-3.244-10.598-.438-24.384 22.447-42.16 50.878-51.907 81.996-.328.675-.557 1.406-.67 2.176-5.184 17.279-7.908 35.354-7.908 53.675 0 19.213 2.912 37.759 8.311 55.222.103.488.253.958.446 1.406 24.06 75.696 95.006 130.693 178.564 130.693 32.493 0 64.507-8.452 92.58-24.442 3.6-2.05 4.855-6.63 2.805-10.228-2.05-3.6-6.632-4.858-10.228-2.805-25.815 14.703-55.263 22.475-85.157 22.475-73.486 0-136.364-46.243-161.093-111.153h28.515c23.184 50.051 73.889 84.858 132.579 84.858s109.394-34.807 132.579-84.858h28.508c-10.014 26.367-26.454 50.184-48.279 69.101-3.13 2.713-3.469 7.449-.755 10.579 1.483 1.711 3.57 2.588 5.67 2.588 1.741 0 3.49-.603 4.909-1.832 26.382-22.867 45.528-52.32 55.872-84.851.238-.525.418-1.081.53-1.662 5.436-17.663 8.286-36.21 8.286-55.09-.001-18.822-2.798-37.001-7.987-54.15zm-144.386-129.887c-11.327-2.146-23.007-3.283-34.948-3.283-11.783 0-23.47 1.13-34.927 3.297-20.279-12.263-32.772-34.231-32.772-57.957-.001-37.33 30.369-67.7 67.699-67.7 37.329 0 67.699 30.37 67.699 67.699 0 23.716-12.484 45.678-32.751 57.944zm-200.979 230.204c-4.093-14.7-6.29-30.181-6.29-46.167 0-15.342 2.078-30.496 6.046-45.082h27.38c-4.622 14.205-7.131 29.355-7.131 45.082 0 16.127 2.634 31.65 7.484 46.167zm166.031 84.858c-72.248 0-131.025-58.777-131.025-131.025s58.778-131.025 131.025-131.025c72.248 0 131.025 58.777 131.025 131.025s-58.777 131.025-131.025 131.025zm166.02-84.858h-27.479c4.85-14.517 7.484-30.04 7.484-46.167 0-15.727-2.509-30.877-7.131-45.082h27.431c3.901 14.376 5.995 29.488 5.995 45.082 0 15.768-2.161 31.283-6.3 46.167zm-166.02-335.15c-25.918 0-47.003 21.085-47.003 47.002 0 25.918 21.085 47.003 47.003 47.003s47.003-21.085 47.003-47.003c0-25.917-21.085-47.002-47.003-47.002zm0 79.005c-17.647 0-32.003-14.356-32.003-32.003 0-17.646 14.356-32.002 32.003-32.002 17.646 0 32.003 14.356 32.003 32.002 0 17.647-14.357 32.003-32.003 32.003zm0 116.821c4.143 0 7.5-3.358 7.5-7.5v-12.961c0-4.143-3.357-7.5-7.5-7.5-4.142 0-7.5 3.357-7.5 7.5v12.961c0 4.142 3.358 7.5 7.5 7.5zm-100.657 85.657h-12.962c-4.142 0-7.5 3.357-7.5 7.5s3.358 7.5 7.5 7.5h12.962c4.142 0 7.5-3.357 7.5-7.5s-3.358-7.5-7.5-7.5zm100.657-67.178c-14.296 0-28.014 4.011-39.969 11.618l-9.624-5.031c-5.337-2.791-11.785-1.804-16.042 2.454-4.259 4.258-5.246 10.705-2.456 16.043 0 0 0 .001.001.001l5.031 9.625c-7.607 11.954-11.617 25.672-11.617 39.968 0 41.178 33.5 74.678 74.677 74.678 14.295 0 28.012-4.011 39.968-11.618l9.624 5.031c2.023 1.058 4.204 1.572 6.366 1.572 3.543 0 7.032-1.383 9.677-4.027 4.259-4.259 5.245-10.706 2.455-16.043l-5.031-9.624c7.607-11.955 11.618-25.673 11.618-39.969 0-41.178-33.5-74.678-74.678-74.678zm9.609 54.46-29.828 29.828-32.67-62.498zm-9.609 79.895c-32.906 0-59.677-26.771-59.677-59.678 0-8.345 1.715-16.442 5.003-23.925l23.418 44.8c2.333 4.461 5.923 8.051 10.381 10.38l44.8 23.418c-7.484 3.29-15.58 5.005-23.925 5.005zm-9.611-39.46 29.828-29.828 32.67 62.499zm64.285 3.708-23.418-44.799c-2.331-4.461-5.921-8.051-10.381-10.381l-44.801-23.419c7.483-3.289 15.58-5.004 23.926-5.004 32.906 0 59.678 26.771 59.678 59.678 0 8.345-1.716 16.441-5.004 23.925zm45.982-16.425h12.962c4.143 0 7.5-3.357 7.5-7.5s-3.357-7.5-7.5-7.5h-12.962c-4.143 0-7.5 3.357-7.5 7.5 0 4.142 3.358 7.5 7.5 7.5zm-100.656 85.656c-4.142 0-7.5 3.357-7.5 7.5v12.962c0 4.142 3.358 7.5 7.5 7.5 4.143 0 7.5-3.358 7.5-7.5v-12.962c0-4.143-3.357-7.5-7.5-7.5z"/></svg>