<svg id="Capa_1" enable-background="new 0 0 512 512" height="512" viewBox="0 0 512 512" width="512" xmlns="http://www.w3.org/2000/svg"><path d="m466.289 252.616c-1.76 0-3.493.11-5.201.305 2.535-17.973 9.059-40.142 15.917-63.405 9.929-33.684 20.18-68.476 20.796-97.962 6.822-9.114 6.118-22.115-2.162-30.396-2.074-2.074-4.454-3.65-6.987-4.777 4.892-5.349 7.573-12.232 7.573-19.528 0-7.739-3.014-15.015-8.486-20.486-11.296-11.296-29.678-11.294-40.973 0l-11.772 11.772c-2.929 2.93-2.929 7.678 0 10.607 2.929 2.928 7.678 2.928 10.606 0l11.772-11.773c5.448-5.449 14.312-5.449 19.76 0 2.639 2.639 4.092 6.147 4.092 9.879s-1.454 7.241-4.092 9.88l-90.309 90.309-19.76-19.76 53.736-53.736c2.929-2.93 2.929-7.678 0-10.607-2.929-2.928-7.678-2.928-10.606 0l-140.225 140.225c-.001.001-.002.002-.004.003-.001.001-.002.002-.003.004l-57.963 57.963c-26.947-10.923-59.034-5.475-80.855 16.343-17.655 17.655-24.571 42.028-20.79 64.965l-74.212 74.212c-.003.003-.006.005-.009.008s-.005.006-.008.009l-26.617 26.618c-6.131 6.131-9.507 14.283-9.507 22.952 0 8.671 3.376 16.822 9.507 22.953l15.403 15.402c6.131 6.132 14.282 9.509 22.953 9.509s16.822-3.377 22.953-9.508l35.009-35.009c2.929-2.93 2.929-7.678 0-10.607-2.929-2.928-7.678-2.928-10.606 0l-3.08 3.08-40.095-40.095 63.022-63.022c3.633 8.736 8.984 16.921 16.078 24.016 7.048 7.048 15.243 12.413 24.031 16.065l-35.162 35.162c-2.929 2.93-2.929 7.678 0 10.607 1.464 1.464 3.384 2.196 5.303 2.196s3.839-.732 5.303-2.196l41.053-41.053c4.065.674 8.177 1.034 12.299 1.034 12.369-.001 24.788-3.065 36.033-9.297l13.293 13.293c-.045.694-.077 1.39-.077 2.091 0 8.362 3.257 16.225 9.17 22.139 6.104 6.103 14.121 9.154 22.138 9.154s16.034-3.052 22.137-9.154v-.001c5.913-5.913 9.17-13.775 9.17-22.138 0-8.362-3.257-16.225-9.17-22.138-6.631-6.63-15.52-9.651-24.214-9.078l-13.307-13.307c3.23-5.827 5.613-11.967 7.153-18.255 14.22-4.894 32.918-19.299 45.507-31.888 10.308-10.309 28.556-31.989 32.772-48.416 16.427-4.217 38.108-22.465 48.416-32.771 10.308-10.308 28.556-31.989 32.772-48.417 16.427-4.215 38.108-22.463 48.416-32.77 3.845-3.846 8.797-9.275 13.712-15.423-3.918 18.346-9.651 37.796-15.276 56.877-7.865 26.681-15.315 51.978-17.19 72.401-14.74 7.595-24.849 22.96-24.849 40.652 0 22.651 16.563 41.496 38.212 45.086v21.763c0 8.51-6.923 15.434-15.433 15.434s-15.434-6.924-15.434-15.434c0-4.143-3.358-7.5-7.5-7.5s-7.5 3.357-7.5 7.5c0 16.781 13.652 30.434 30.434 30.434 16.781 0 30.433-13.652 30.433-30.434v-21.763c21.648-3.59 38.211-22.435 38.211-45.086 0-25.206-20.506-45.712-45.711-45.712zm-384.757 210.051-21.323 21.323c-3.298 3.298-7.683 5.114-12.346 5.114s-9.048-1.816-12.346-5.115l-15.403-15.403c-3.298-3.297-5.114-7.681-5.114-12.346 0-4.663 1.816-9.048 5.114-12.346l21.323-21.323zm391.781-390.902c1.616-1.616 3.737-2.424 5.86-2.424 2.121 0 4.244.809 5.859 2.424 3.231 3.23 3.231 8.487 0 11.718-3.231 3.233-8.488 3.229-11.719.001-3.231-3.232-3.231-8.489 0-11.719zm-116.858 56.124 19.76 19.76-70.581 70.581-19.759-19.759zm-214.704 234.463c-8.012-8.012-13.445-17.909-15.92-28.686-.041-.237-.094-.473-.158-.706-.898-4.141-1.374-8.404-1.374-12.742 0-15.917 6.198-30.881 17.453-42.135 23.233-23.233 61.036-23.233 84.27 0 17.825 17.825 22.26 44.796 11.968 67.098l-9.792-9.792c5.727-16.739 1.528-35.571-11.193-48.29-8.846-8.847-20.608-13.719-33.118-13.719-12.511 0-24.272 4.872-33.119 13.718-8.847 8.847-13.718 20.608-13.718 33.119 0 12.51 4.872 24.271 13.718 33.117 8.973 8.975 20.987 13.708 33.163 13.708 5.084 0 10.196-.829 15.126-2.515l9.793 9.793c-22.302 10.292-49.274 5.859-67.099-11.968zm27.565-27.565 17.139 17.139c-9.125.729-18.358-2.474-25.081-9.198-6.013-6.013-9.325-14.008-9.325-22.511 0-8.505 3.312-16.499 9.325-22.513 6.013-6.013 14.008-9.324 22.512-9.324s16.499 3.311 22.512 9.325c6.723 6.723 9.926 15.956 9.197 25.081l-17.138-17.139c-3.892-3.893-9.066-6.037-14.571-6.037-5.504 0-10.678 2.145-14.569 6.036-3.892 3.892-6.035 9.065-6.035 14.569s2.142 10.68 6.034 14.572zm73.075 43.936c-1.344 1.344-2.543 2.793-3.605 4.321l-12.363-12.362c-.008-.008-.015-.015-.023-.023l-46.478-46.477c-1.059-1.06-1.642-2.467-1.642-3.964s.583-2.903 1.642-3.963c1.059-1.059 2.465-1.643 3.962-1.643s2.904.584 3.963 1.644l46.481 46.482c.004.004.009.009.013.013l12.373 12.373c-1.518 1.052-2.97 2.246-4.323 3.599zm10.607 10.607c3.18-3.18 7.355-4.769 11.531-4.769 4.175 0 8.352 1.59 11.531 4.769 3.08 3.079 4.776 7.175 4.776 11.53 0 4.356-1.696 8.451-4.776 11.531-6.359 6.358-16.705 6.357-23.062.001-3.08-3.081-4.776-7.176-4.776-11.532 0-1.059.104-2.101.3-3.119.023-.101.048-.201.066-.302.648-3.049 2.153-5.853 4.41-8.109zm-7.436-111.028c-2.598-3.828-5.569-7.461-8.935-10.826-3.377-3.377-7.009-6.344-10.821-8.937l49.462-49.462 19.759 19.759zm45.636 17.287c-10.47 10.47-23.058 20.003-32.775 25.194.062-9.776-1.778-19.527-5.475-28.654l42.615-42.615c1.123 2.52 2.701 4.886 4.767 6.952 4.379 4.379 10.083 6.624 15.834 6.779-4.948 9.113-13.842 21.22-24.966 32.344zm31.458-49.73c-3.231 3.232-8.488 3.232-11.719 0-3.229-3.229-3.231-8.483-.005-11.714l.01-.01c1.615-1.613 3.734-2.419 5.855-2.419 2.122 0 4.244.809 5.859 2.424 3.231 3.23 3.231 8.488 0 11.719zm49.73-31.458c-11.123 11.124-23.23 20.017-32.344 24.966-.155-5.751-2.4-11.455-6.78-15.834-2.066-2.066-4.431-3.643-6.951-4.766l50.421-50.421c1.145 2.549 2.751 4.897 4.786 6.932 4.247 4.247 9.848 6.629 15.828 6.79-4.949 9.112-13.841 21.214-24.96 32.333zm31.46-49.733c-.001.001-.001.001-.002.002s-.002.002-.003.003c-1.565 1.564-3.645 2.425-5.857 2.425-2.213 0-4.294-.861-5.86-2.428-1.565-1.564-2.427-3.645-2.427-5.858 0-2.214.862-4.295 2.427-5.859 1.616-1.616 3.738-2.424 5.859-2.424 2.122 0 4.244.808 5.86 2.424 1.565 1.564 2.427 3.645 2.427 5.859.001 2.211-.859 4.291-2.424 5.856zm49.728-31.455c-11.12 11.12-23.221 20.011-32.334 24.961-.161-5.98-2.543-11.582-6.789-15.829-2.066-2.066-4.432-3.643-6.952-4.766l50.445-50.445c1.126 2.521 2.697 4.89 4.762 6.956 4.38 4.379 10.084 6.624 15.835 6.778-4.949 9.114-13.844 21.223-24.967 32.345zm12.715 195.826c-16.935 0-30.712-13.777-30.712-30.712 0-16.934 13.777-30.711 30.712-30.711 16.934 0 30.711 13.777 30.711 30.711 0 16.935-13.777 30.712-30.711 30.712z"/></svg>