<svg id="Capa_1" enable-background="new 0 0 512 512" height="512" viewBox="0 0 512 512" width="512" xmlns="http://www.w3.org/2000/svg"><path d="m136.42 407.977-20.747 20.746c-2.929 2.93-2.929 7.678 0 10.607 1.464 1.464 3.384 2.196 5.303 2.196s3.839-.732 5.303-2.196l20.747-20.746c2.929-2.93 2.929-7.678 0-10.607-2.928-2.928-7.677-2.928-10.606 0zm230.395 0-20.747 20.746c-2.929 2.929-2.929 7.678 0 10.606 1.464 1.465 3.384 2.197 5.303 2.197s3.839-.732 5.303-2.196l20.747-20.746c2.929-2.929 2.929-7.678 0-10.607-2.927-2.929-7.677-2.928-10.606 0zm10.374-74.887-20.747 20.746c-2.929 2.929-2.929 7.678 0 10.607 1.464 1.465 3.384 2.197 5.303 2.197s3.839-.732 5.303-2.196l20.747-20.746c2.929-2.929 2.929-7.678 0-10.607-2.928-2.93-7.677-2.929-10.606-.001zm-24.941-190.186c-4.142 0-7.5 3.357-7.5 7.5v16.245c0 4.143 3.358 7.5 7.5 7.5s7.5-3.357 7.5-7.5v-16.245c0-4.142-3.358-7.5-7.5-7.5zm-229.191 227.869 20.747-20.746c2.929-2.93 2.929-7.678 0-10.607-2.928-2.928-7.677-2.928-10.606 0l-20.747 20.746c-2.929 2.93-2.929 7.678 0 10.607 1.464 1.464 3.384 2.196 5.303 2.196 1.919.001 3.839-.732 5.303-2.196zm-47.268-42.207-20.747 20.747c-2.929 2.93-2.929 7.678 0 10.607 1.464 1.464 3.384 2.196 5.303 2.196s3.839-.732 5.303-2.196l20.747-20.747c2.929-2.93 2.929-7.678 0-10.607-2.928-2.927-7.677-2.927-10.606 0zm-15.32 86.039-20.747 20.747c-2.929 2.93-2.929 7.678 0 10.607 1.464 1.464 3.384 2.196 5.303 2.196s3.839-.732 5.303-2.196l20.747-20.747c2.929-2.93 2.929-7.678 0-10.607-2.928-2.928-7.677-2.928-10.606 0zm424.033-272.745c-4.515-4.567-9.415-8.62-14.63-12.13 3.877-24.774-4.161-49.705-22.044-67.59-27.905-27.904-71.752-30.56-102.673-7.239-25.378-22.21-58.46-35.241-93.894-35.241-37.763 0-73.06 14.987-99.099 40.148-21.672-7.059-45.706-4.357-65.228 7.543-3.537 2.156-4.656 6.772-2.5 10.309 1.413 2.317 3.881 3.597 6.411 3.597 1.33 0 2.678-.354 3.896-1.097 13.776-8.397 30.337-11.133 45.985-7.896-10.122 12.416-18.256 26.65-23.8 42.312-.271.764-1.024 1.205-1.786 1.042-5.666-1.187-11.49-1.859-17.311-1.999-10.8-.269-21.391 1.313-31.434 4.591 1.406-5.344 3.475-10.503 6.2-15.275 2.054-3.597.804-8.178-2.793-10.232-3.598-2.054-8.179-.804-10.232 2.793-5.23 9.157-8.577 19.44-9.788 29.975-7.311 4.07-14.165 9.137-20.39 15.144-18.654 18-29.09 41.917-29.385 67.345-.299 25.732 9.493 49.977 27.572 68.269 18.082 18.294 42.205 28.368 67.924 28.368h101.353l-25.509 69.074c-2.402 6.506-1.47 13.787 2.495 19.477 3.964 5.69 10.472 9.088 17.407 9.088h19.032l-23.556 63.784c-3.182 8.617-.191 17.84 7.444 22.948 3.376 2.26 7.149 3.372 10.893 3.372 4.721 0 9.394-1.771 13.159-5.244l6.444-5.944c3.045-2.809 3.236-7.553.428-10.598-2.809-3.046-7.554-3.237-10.598-.428l-6.444 5.944c-2.346 2.164-4.655 1.022-5.54.431-.884-.591-2.82-2.29-1.714-5.285l27.285-73.882c.85-2.302.521-4.873-.882-6.886-1.402-2.013-3.701-3.213-6.154-3.213h-29.797c-2.062 0-3.921-.971-5.1-2.662s-1.445-3.771-.73-5.705l34.031-92.148c2.691-7.287 9.718-12.183 17.485-12.183h51.308c2.541 0 4.832 1.196 6.285 3.281s1.781 4.648.9 7.032l-29.988 81.2c-.85 2.302-.52 4.873.882 6.886s3.701 3.213 6.154 3.213h27.996c3.938 0 5.426 3.025 5.788 3.952.362.928 1.32 4.161-1.574 6.831l-64.435 59.436c-3.045 2.809-3.236 7.553-.428 10.598s7.553 3.236 10.598.428l64.436-59.436c6.468-5.967 8.578-15.119 5.375-23.316-3.203-8.196-10.959-13.492-19.759-13.492h-17.231l20.885-56.553h112.373c25.314 0 49.166-9.804 67.162-27.605 17.98-17.788 28.043-41.504 28.334-66.779.294-25.844-9.469-50.118-27.494-68.353zm-47.28-69.113c13.124 13.126 19.692 30.947 18.454 49.112-12.133-5.417-25.414-8.268-39.174-8.269-9.56 0-19.006 1.414-28.076 4.202-.879.268-1.779-.142-2.045-.938-6.535-19.511-16.997-36.869-30.328-51.327 24.88-17.378 59.154-14.793 81.169 7.22zm35.888 193.58c-15.169 15.006-35.275 23.27-56.613 23.27h-106.848c2.362-6.833 1.328-14.405-2.816-20.353-4.234-6.078-11.185-9.707-18.592-9.707h-51.308c-14.018 0-26.699 8.835-31.556 21.985l-2.982 8.074h-106.893c-21.68 0-42.014-8.492-57.256-23.913-15.239-15.417-23.493-35.856-23.241-57.55.248-21.386 9.057-41.531 24.803-56.726 5.984-5.775 12.649-10.52 19.784-14.164.368-.142.721-.316 1.059-.513 11.386-5.605 23.926-8.436 36.819-8.117 4.911.117 9.821.685 14.596 1.685 8.073 1.69 16.239-2.919 19.001-10.718 6.177-17.45 15.933-32.933 28.265-45.741.064-.063.127-.126.189-.191 23.552-24.358 56.442-38.99 91.739-38.99 33.501 0 64.636 13.034 87.788 35.003.066.079.125.161.194.238.356.395.746.742 1.16 1.044 14.137 13.814 25.172 31.023 31.753 50.673 2.871 8.576 11.954 13.19 20.675 10.513 7.642-2.349 15.605-3.54 23.669-3.54 14.722.001 28.784 3.875 41.044 11.114.188.119.382.229.581.331 5.669 3.412 10.944 7.55 15.708 12.369 15.186 15.362 23.411 35.831 23.16 57.635-.243 21.305-8.725 41.295-23.882 56.289zm-217.11-128.893c-20.961 0-38.015 18.683-38.015 41.646s17.054 41.646 38.015 41.646 38.015-18.683 38.015-41.646-17.054-41.646-38.015-41.646zm0 68.293c-12.69 0-23.015-11.953-23.015-26.646s10.325-26.646 23.015-26.646 23.015 11.953 23.015 26.646c0 14.692-10.325 26.646-23.015 26.646zm188.74 184.541-20.746 20.747c-2.929 2.93-2.929 7.678 0 10.607 1.464 1.464 3.384 2.196 5.303 2.196s3.839-.733 5.303-2.196l20.747-20.747c2.929-2.93 2.929-7.678 0-10.607-2.929-2.928-7.678-2.928-10.607 0zm-284.989-247.364c-4.142 0-7.5 3.357-7.5 7.5v16.245c0 4.143 3.358 7.5 7.5 7.5s7.5-3.357 7.5-7.5v-16.245c0-4.142-3.358-7.5-7.5-7.5zm268.034 217.017 20.747-20.747c2.929-2.93 2.929-7.678 0-10.607-2.929-2.928-7.678-2.928-10.606 0l-20.747 20.747c-2.929 2.93-2.929 7.678 0 10.607 1.464 1.464 3.384 2.196 5.303 2.196 1.92 0 3.839-.732 5.303-2.196z"/></svg>