<svg id="Capa_1" enable-background="new 0 0 512 512" height="512" viewBox="0 0 512 512" width="512" xmlns="http://www.w3.org/2000/svg"><path d="m192.656 474.275h-12.062c-4.142 0-7.5 3.357-7.5 7.5s3.358 7.5 7.5 7.5h12.062c4.142 0 7.5-3.357 7.5-7.5 0-4.142-3.358-7.5-7.5-7.5zm0-18.211h-12.062c-4.142 0-7.5 3.357-7.5 7.5s3.358 7.5 7.5 7.5h12.062c4.142 0 7.5-3.357 7.5-7.5s-3.358-7.5-7.5-7.5zm-27.132 0h-12.061c-4.142 0-7.5 3.357-7.5 7.5s3.358 7.5 7.5 7.5h12.061c4.142 0 7.5-3.357 7.5-7.5s-3.358-7.5-7.5-7.5zm181.035-220.848c-4.143 0-7.5 3.357-7.5 7.5v15.032c0 4.143 3.357 7.5 7.5 7.5s7.5-3.357 7.5-7.5v-15.032c0-4.143-3.358-7.5-7.5-7.5zm-181.035 239.059h-12.061c-4.142 0-7.5 3.357-7.5 7.5s3.358 7.5 7.5 7.5h12.061c4.142 0 7.5-3.357 7.5-7.5 0-4.142-3.358-7.5-7.5-7.5zm83.235-371.051h14.482c4.143 0 7.5-3.357 7.5-7.5s-3.357-7.5-7.5-7.5h-14.482c-4.142 0-7.5 3.357-7.5 7.5 0 4.142 3.358 7.5 7.5 7.5zm-83.318 131.992c-4.142 0-7.5 3.357-7.5 7.5v15.032c0 4.143 3.358 7.5 7.5 7.5s7.5-3.357 7.5-7.5v-15.032c0-4.143-3.358-7.5-7.5-7.5zm119.363 17.544c-3.124-2.721-7.859-2.396-10.582.727-4.599 5.278-11.24 8.305-18.222 8.305-6.981 0-13.623-3.026-18.221-8.304-2.721-3.124-7.459-3.448-10.581-.728-3.123 2.721-3.448 7.459-.727 10.581 7.448 8.548 18.211 13.45 29.53 13.45 11.318 0 22.082-4.902 29.53-13.449 2.721-3.123 2.395-7.861-.727-10.582zm-77.078 203.304c-4.142 0-7.5 3.357-7.5 7.5s3.358 7.5 7.5 7.5h12.061c4.142 0 7.5-3.357 7.5-7.5s-3.358-7.5-7.5-7.5zm279.849-204.658c0-14.799-5.743-29.087-16.172-40.232-4.941-5.281-10.79-9.69-17.239-13.095 12.503-11.545 19.882-27.938 19.882-45.332 0-34.006-27.665-61.672-61.671-61.672-2.092 0-4.17.117-6.233.324 12.051-12.235 16.523-26.841 11.993-40.445-6.338-19.029-35.828-50.954-162.135-50.954-50.175 0-89.848 5.091-117.918 15.132-3.9 1.395-5.931 5.688-4.536 9.588 1.395 3.899 5.685 5.932 9.588 4.535 26.444-9.459 64.418-14.255 112.866-14.255 47.31 0 84.673 4.582 111.051 13.62 20.262 6.941 33.35 16.557 36.852 27.073 1.537 4.613 3.204 16.594-13.485 29.661-28.155 7.566-59.846 12.462-94.351 14.587.129-1.388.198-2.794.198-4.218 0-23.583-18.063-42.769-40.264-42.769-22.202 0-40.264 19.186-40.264 42.769 0 1.423.069 2.83.198 4.218-34.501-2.125-66.189-7.021-94.343-14.585-8.766-6.883-13.879-14.799-14.418-22.406-.435-6.146 2.163-12.077 7.724-17.626 2.932-2.926 2.937-7.674.011-10.606s-7.674-2.937-10.607-.011c-8.657 8.637-12.838 18.771-12.092 29.303.804 11.346 7.34 22.531 18.488 31.823v28.319c0 1.829.252 3.607.713 5.305-16.122 17.649-28.396 38.885-36.064 62.25-13.419 2.914-25.625 9.714-34.752 19.468-10.429 11.146-16.172 25.434-16.172 40.232 0 19.213 9.854 37.356 26.125 48.865-1.299 3.39-2.017 7.065-2.017 10.906 0 16.866 13.722 30.588 30.588 30.588 5.947 0 11.606-1.684 16.442-4.778 8.265 13.848 18.46 26.531 30.253 37.704-3.952 1.393-7.606 3.648-10.651 6.692l-22.628 22.628c-.002.002-.003.003-.005.005s-.003.003-.005.005l-12.286 12.286c-8.98 8.98-8.98 23.593 0 32.574l20.437 20.437c.609.609 1.253 1.17 1.916 1.702-1.217 5.598-2.132 11.271-2.725 16.932-.641 6.113 1.355 12.244 5.477 16.82 4.137 4.593 10.054 7.228 16.233 7.228h215.505c4.142 0 7.5-3.357 7.5-7.5s-3.358-7.5-7.5-7.5h-215.502c-1.964 0-3.771-.805-5.088-2.267-1.3-1.443-1.906-3.297-1.705-5.218.471-4.495 1.186-8.996 2.094-13.455.028 0 .056.004.084.004 6.152 0 11.936-2.396 16.287-6.746l34.923-34.924c6.551-6.551 9.501-15.908 7.89-25.031l-.155-.88c24.229 11.13 51.403 17.378 80.089 17.378 28.687 0 55.86-6.248 80.09-17.378l-.155.88c-1.611 9.124 1.339 18.481 7.889 25.031l34.924 34.924c4.491 4.49 10.39 6.735 16.287 6.735.027 0 .055-.004.082-.004.909 4.464 1.625 8.969 2.097 13.467.201 1.92-.404 3.772-1.705 5.217-1.316 1.462-3.123 2.267-5.088 2.267h-18.147c-4.143 0-7.5 3.357-7.5 7.5s3.357 7.5 7.5 7.5h18.147c6.18 0 12.097-2.635 16.234-7.228 4.121-4.575 6.117-10.706 5.477-16.818-.593-5.66-1.508-11.333-2.725-16.932.661-.529 1.304-1.091 1.917-1.703l20.437-20.438c8.979-8.98 8.979-23.593-.001-32.574l-34.923-34.923c-3.045-3.044-6.699-5.3-10.65-6.693 11.792-11.173 21.987-23.856 30.252-37.703 4.836 3.094 10.495 4.778 16.442 4.778 16.866 0 30.588-13.722 30.588-30.588 0-3.841-.718-7.516-2.017-10.907 16.271-11.509 26.124-29.654 26.124-48.866zm-86.273-127.255v-16.744c3.606-.878 7.311-1.332 11.073-1.332 25.734 0 46.671 20.937 46.671 46.672 0 15.857-8.112 30.612-21.344 39.184-.348-.081-.7-.149-1.05-.225-7.668-23.365-19.942-44.6-36.064-62.25.462-1.698.714-3.475.714-5.305zm-109.48-8.939c34.261-1.828 65.978-6.29 94.48-13.302v22.241c0 2.396-1.65 4.474-4.01 5.052-8.051 1.969-16.546 3.748-25.261 5.317-3.127-1.364-8.804-3.314-18.596-5.213-13.766-2.669-31.289-4.427-52.304-5.257 2.227-2.671 4.142-5.638 5.691-8.838zm-35.822-47.257c13.931 0 25.264 12.457 25.264 27.769s-11.333 27.769-25.264 27.769-25.264-12.457-25.264-27.769 11.333-27.769 25.264-27.769zm0 70.537c48.089 0 73.44 3.929 85.773 6.92-8.795 6.764-20.811 12.596-35.414 17.134-16.496 5.128-35.322 8.189-50.359 8.189-15.038 0-33.864-3.061-50.36-8.189-14.602-4.538-26.618-10.37-35.413-17.134 12.333-2.991 37.684-6.92 85.773-6.92zm-130.301-36.582c28.502 7.012 60.218 11.473 94.479 13.302 1.551 3.204 3.469 6.175 5.7 8.847-45.394 1.822-64.17 7.579-70.881 10.465-8.728-1.57-17.231-3.35-25.288-5.322-2.361-.578-4.01-2.655-4.01-5.052zm-39.914 107.919c6.111-25.768 18.143-49.211 34.93-68.264 1.663.97 3.478 1.731 5.429 2.208 8.313 2.034 17.076 3.87 26.06 5.489 24.711 26.518 76.334 36.472 103.797 36.472s79.087-9.953 103.797-36.472c8.981-1.619 17.744-3.455 26.061-5.489 1.951-.478 3.765-1.238 5.428-2.208 16.787 19.053 28.819 42.496 34.929 68.264.142.597-.051 1.071-.236 1.364-.171.268-.567.741-1.311.895-23.544 4.896-59.336 4.778-95.747-.317-32.412-4.536-60.288-12.618-67.79-19.654-2.884-2.706-7.377-2.708-10.262 0-7.502 7.036-35.378 15.118-67.789 19.654-36.413 5.096-72.206 5.216-95.747.317-.744-.154-1.141-.628-1.311-.895-.188-.293-.379-.767-.238-1.364zm-46.36 41.577c0-19.193 12.677-35.816 31.408-42.81-.373 3.717.485 7.428 2.531 10.645.285.448.595.878.919 1.295-1.627 10.06-2.455 20.424-2.455 30.87 0 10.066.916 19.931 2.653 29.535-5.793.885-11.05 3.407-15.299 7.069-12.46-8.742-19.757-22.065-19.757-36.604zm39.696 75.36c-8.595 0-15.588-6.993-15.588-15.588 0-8.161 6.309-14.866 14.304-15.523 2.686 9.696 6.231 19.064 10.556 28.028-2.651 1.976-5.863 3.083-9.272 3.083zm43.525 131.945c-1.518 1.518-3.535 2.354-5.681 2.354s-4.163-.836-5.681-2.354l-20.436-20.436c-3.132-3.133-3.132-8.229-.001-11.361l6.987-6.987 31.797 31.798zm34.924-34.924-17.33 17.331-31.797-31.797 17.33-17.329c3.093-3.094 7.508-4.484 11.818-3.726l5.688 1.004c5.08 3.735 10.371 7.222 15.853 10.446l2.163 12.255c.76 4.306-.632 8.724-3.725 11.816zm263.581 3.126c3.132 3.133 3.132 8.23 0 11.361l-20.437 20.436c-1.517 1.518-3.534 2.354-5.68 2.354-2.147 0-4.164-.836-5.681-2.354l-6.987-6.986 31.797-31.798zm-34.922-34.922 17.329 17.328-31.797 31.798-17.331-17.33c-3.092-3.092-4.484-7.509-3.724-11.816l2.163-12.255c5.482-3.224 10.773-6.711 15.853-10.446l5.689-1.004c4.305-.762 8.723.631 11.818 3.725zm-130.229 18.87c-93.281 0-169.171-71.531-169.171-159.455 0-8.048.532-16.035 1.578-23.844 11.687 2.062 25.693 3.096 40.979 3.096 17.458-.001 36.577-1.345 55.772-4.031 12.679-1.775 52.262-8.077 70.842-19.704 18.579 11.627 58.162 17.93 70.842 19.704 36.001 5.038 71.714 5.353 96.752.935 1.046 7.809 1.578 15.797 1.578 23.844 0 87.924-75.891 159.455-169.172 159.455zm176.879-84.095c-3.409 0-6.621-1.106-9.272-3.082 4.325-8.964 7.87-18.333 10.556-28.028 7.995.657 14.304 7.361 14.304 15.523 0 8.593-6.993 15.587-15.588 15.587zm19.938-38.756c-4.249-3.662-9.506-6.184-15.298-7.069 1.736-9.604 2.653-19.47 2.653-29.535 0-10.446-.827-20.811-2.455-30.871.324-.417.634-.846.918-1.293 2.046-3.217 2.905-6.929 2.531-10.646 18.731 6.994 31.408 23.617 31.408 42.81.001 14.539-7.296 27.862-19.757 36.604zm-196.817 148.093c-4.569 0-8.273 3.704-8.273 8.273s3.704 8.273 8.273 8.273 8.273-3.704 8.273-8.273-3.704-8.273-8.273-8.273zm0 34.288c-4.569 0-8.273 3.704-8.273 8.273s3.704 8.273 8.273 8.273 8.273-3.704 8.273-8.273-3.704-8.273-8.273-8.273z"/></svg>