<svg id="Capa_1" enable-background="new 0 0 512 512" height="512" viewBox="0 0 512 512" width="512" xmlns="http://www.w3.org/2000/svg"><path d="m484.677 256c0-5.48-4.443-9.923-9.923-9.923-5.481 0-9.923 4.443-9.923 9.923s4.443 9.923 9.923 9.923c5.481 0 9.923-4.443 9.923-9.923zm-257.057-77.895c-7.346-4.982-15.93-7.614-24.826-7.614-7.246 0-14.284 1.746-20.615 5.086-6.331-3.34-13.37-5.086-20.616-5.086-8.895 0-17.48 2.633-24.825 7.614-3.428 2.325-4.322 6.988-1.997 10.417 2.323 3.427 6.985 4.324 10.417 1.997 4.851-3.289 10.523-5.028 16.405-5.028 5.883 0 11.556 1.739 16.406 5.028 2.543 1.725 5.877 1.725 8.42 0 4.851-3.289 10.523-5.028 16.405-5.028 5.883 0 11.556 1.739 16.406 5.028 1.29.875 2.754 1.294 4.203 1.294 2.403 0 4.764-1.152 6.214-3.291 2.325-3.429 1.431-8.092-1.997-10.417zm141.212 146.205c-4.852 3.29-10.524 5.029-16.406 5.029-5.881 0-11.554-1.739-16.405-5.029-3.429-2.325-8.092-1.431-10.417 1.997-2.325 3.429-1.431 8.092 1.997 10.417 7.347 4.982 15.931 7.615 24.825 7.615 8.895 0 17.479-2.633 24.826-7.615 3.428-2.325 4.322-6.988 1.997-10.417s-6.987-4.326-10.417-1.997zm-196.344-11.375c-4.852 3.29-10.524 5.029-16.405 5.029-5.882 0-11.555-1.739-16.406-5.029-3.43-2.326-8.092-1.432-10.417 1.997s-1.431 8.092 1.997 10.417c7.347 4.982 15.931 7.615 24.826 7.615s17.479-2.633 24.825-7.615c3.428-2.325 4.322-6.988 1.997-10.417-2.324-3.427-6.987-4.325-10.417-1.997zm248.508-196.641c3.875-3.875 3.875-10.158 0-14.034-3.875-3.875-10.158-3.875-14.034 0-3.875 3.875-3.875 10.159 0 14.034 3.876 3.875 10.159 3.875 14.034 0zm-128.914 27.11c-7.346-4.981-15.93-7.614-24.826-7.614-7.246 0-14.284 1.746-20.615 5.086-6.331-3.34-13.37-5.086-20.616-5.086-8.895 0-17.479 2.633-24.825 7.614-3.428 2.325-4.322 6.988-1.997 10.417 2.323 3.428 6.985 4.323 10.417 1.997 4.851-3.289 10.523-5.028 16.405-5.028 5.883 0 11.556 1.739 16.406 5.028 2.543 1.725 5.877 1.725 8.42 0 4.851-3.289 10.523-5.028 16.405-5.028 5.883 0 11.556 1.739 16.406 5.028 1.29.875 2.754 1.294 4.203 1.294 2.403 0 4.764-1.152 6.214-3.291 2.325-3.428 1.431-8.091-1.997-10.417zm-8.42 224.343c-4.852 3.29-10.524 5.029-16.405 5.029-5.882 0-11.555-1.739-16.406-5.029-3.429-2.326-8.093-1.431-10.417 1.997-2.325 3.429-1.431 8.092 1.997 10.417 7.347 4.982 15.931 7.615 24.826 7.615s17.479-2.633 24.825-7.615c3.428-2.325 4.322-6.988 1.997-10.417-2.324-3.428-6.986-4.325-10.417-1.997zm-26.329 95.751c0 5.481 4.443 9.923 9.923 9.923s9.923-4.443 9.923-9.923-4.443-9.923-9.923-9.923-9.923 4.442-9.923 9.923zm164.366-397.368c-3.214-2.618-7.936-2.133-10.552 1.079-2.615 3.212-2.133 7.937 1.079 10.552 53.876 43.874 84.774 108.84 84.774 178.239 0 61.367-23.897 119.06-67.29 162.454-43.394 43.393-101.087 67.29-162.453 67.29-45.905 0-90.213-13.496-128.133-39.028-3.432-2.313-8.097-1.404-10.41 2.033-2.313 3.436-1.403 8.097 2.033 10.409 40.403 27.206 87.608 41.586 136.51 41.586 65.373 0 126.834-25.458 173.06-71.684 46.225-46.226 71.683-107.687 71.683-173.06 0-73.931-32.913-143.136-90.301-189.87zm-294.149 50.164c3.875-3.875 3.875-10.158 0-14.034-3.875-3.875-10.158-3.875-14.033 0s-3.875 10.159 0 14.034 10.158 3.875 14.033 0zm-78.576 211.489c6.702-4.99 11.051-12.971 11.051-21.949v-39.924c5.356-.143 9.656-4.52 9.656-9.91s-4.3-9.767-9.656-9.91v-39.923c0-8.977-4.348-16.957-11.048-21.947 14.51-44.054 42.72-83.528 79.935-111.647 40.102-30.301 87.94-46.316 138.345-46.316 41.228 0 81.662 11.045 116.933 31.94 3.566 2.114 8.165.936 10.276-2.629 2.11-3.565.934-8.165-2.63-10.276-37.585-22.266-80.663-34.035-124.579-34.035-53.695 0-104.661 17.064-147.388 49.349-39.46 29.816-69.417 71.628-84.934 118.312-.746-.061-1.499-.101-2.261-.101h-5.322c-15.083-.002-27.352 12.268-27.352 27.35v99.666c0 15.082 12.269 27.352 27.352 27.352h5.322c.759 0 1.51-.039 2.254-.1 13.095 39.484 36.178 75.126 67.065 103.425 1.439 1.318 3.255 1.97 5.064 1.97 2.029 0 4.053-.819 5.532-2.434 2.798-3.054 2.591-7.798-.464-10.597-29.151-26.708-50.894-60.377-63.151-97.666zm-3.949-21.95c0 6.811-5.541 12.352-12.352 12.352h-5.322c-6.811 0-12.352-5.541-12.352-12.352v-19.105h30.025v19.105zm0-34.105h-30.025v-31.457h30.025zm0-46.457h-30.025v-19.104c0-6.811 5.541-12.352 12.352-12.352h5.322c6.811 0 12.352 5.541 12.352 12.352v19.104zm232.155-176.769c0-5.481-4.443-9.923-9.923-9.923s-9.923 4.443-9.923 9.923c0 5.481 4.443 9.923 9.923 9.923s9.923-4.442 9.923-9.923zm-149.63 347.204c-3.875-3.875-10.158-3.875-14.033 0s-3.875 10.158 0 14.034c3.875 3.875 10.158 3.875 14.033 0s3.875-10.158 0-14.034zm224.073-304.607c-25.317-13.005-54-20.351-84.366-20.351-102.149 0-185.253 83.104-185.253 185.252 0 1.389.022 2.773.053 4.155v.038c2.238 100.219 84.453 181.059 185.2 181.059s182.961-80.84 185.199-181.059c0-.013 0-.025 0-.038.031-1.382.053-2.766.053-4.155 0-34.489-9.484-66.8-25.966-94.481-.258-.599-.592-1.164-1-1.68-17.478-28.662-42.523-52.221-72.333-67.901-.496-.345-1.029-.625-1.587-.839zm-84.366 335.153c-90.433 0-164.612-70.877-169.935-159.995 5.992-.597 12.076.694 17.307 3.777 12.448 7.335 26.702 11.213 41.221 11.213s28.773-3.878 41.221-11.213c8.933-5.264 20.032-5.264 28.965 0 12.448 7.335 26.703 11.213 41.222 11.213 14.517 0 28.771-3.877 41.221-11.213 5.755-3.391 12.407-4.584 18.802-3.606.166.035.334.06.502.083 3.356.575 6.634 1.739 9.661 3.523 12.448 7.335 26.702 11.213 41.221 11.213s28.772-3.878 41.22-11.213c5.23-3.082 11.314-4.375 17.308-3.777-5.325 89.118-79.503 159.995-169.936 159.995zm8.566-192.598c1.558-1.759 3.709-2.727 6.058-2.727 14.228 0 27.29 7.764 34.092 20.261l.242.444c-5.334.836-10.55 2.647-15.352 5.477-7.354 4.334-15.487 7.177-23.915 8.418l-3.101-25.531c-.283-2.331.419-4.584 1.976-6.342zm143.467-54.221c10.971 21.696 17.437 46.041 18.148 71.801-8.734-.618-17.542 1.38-25.17 5.875-10.143 5.978-21.764 9.137-33.605 9.137-11.842 0-23.463-3.159-33.605-9.137-3.583-2.111-7.398-3.652-11.317-4.653l-4.592-8.438c-9.431-17.327-27.542-28.091-47.268-28.091-6.604 0-12.905 2.836-17.285 7.779-4.38 4.944-6.436 11.541-5.64 18.099l2.941 24.215c-9.968-.805-19.64-3.839-28.247-8.912-13.63-8.031-30.564-8.031-44.195 0-10.143 5.978-21.764 9.137-33.605 9.137-11.842 0-23.463-3.159-33.606-9.137-7.627-4.494-16.436-6.494-25.169-5.876 2.534-91.681 77.899-165.485 170.183-165.485 23.689 0 46.261 4.869 66.775 13.649-12.393 11.003-19.71 26.876-19.71 43.892 0 32.379 26.342 58.721 58.721 58.721 18.255.002 35.26-8.554 46.246-22.576zm-8.261-14.524c-7.725 13.542-22.231 22.102-37.987 22.102-24.107 0-43.721-19.613-43.721-43.721 0-14.841 7.49-28.5 19.763-36.548 25.213 13.878 46.55 33.955 61.945 58.167zm-4.066 230.797c-3.875 3.875-3.875 10.158 0 14.034 3.875 3.875 10.159 3.875 14.034 0s3.875-10.158 0-14.034c-3.876-3.875-10.159-3.875-14.034 0z"/></svg>