<svg id="Capa_1" enable-background="new 0 0 512 512" height="512" viewBox="0 0 512 512" width="512" xmlns="http://www.w3.org/2000/svg"><path d="m298.771 203.205c4.143 0 7.5-3.357 7.5-7.5v-7.1c0-4.143-3.357-7.5-7.5-7.5s-7.5 3.357-7.5 7.5v7.1c0 4.143 3.357 7.5 7.5 7.5zm-85.541-22.1c-4.143 0-7.5 3.357-7.5 7.5v7.1c0 4.143 3.357 7.5 7.5 7.5s7.5-3.357 7.5-7.5v-7.1c0-4.142-3.358-7.5-7.5-7.5zm195.506 91.458h13.204c14.01 0 25.408-11.398 25.408-25.408v-89.02c0-14.011-11.398-25.409-25.408-25.409h-12.752c-8.036-17.581-19.145-33.811-33.065-47.989-2.902-2.954-7.65-2.998-10.607-.097-2.955 2.901-2.999 7.65-.097 10.606 13.674 13.927 24.371 30.029 31.788 47.506.096.267.205.526.329.778 7.727 18.493 11.79 38.506 11.79 59.115 0 23.368-4.885 42.358-11.957 58.721-.261.459-.479.946-.639 1.459-7.196 16.197-16.496 29.822-25.228 42.603-11.842 17.332-22.178 32.462-23.524 49.514-7.966 5.654-22.156 10.69-40.518 14.331-19.776 3.921-39.55 5.318-51.461 5.318s-31.685-1.397-51.461-5.318c-18.361-3.641-32.552-8.677-40.518-14.331-1.346-17.052-11.682-32.182-23.523-49.514-8.731-12.78-18.032-26.406-25.228-42.603-.16-.513-.378-1-.639-1.459-7.072-16.363-11.957-35.353-11.957-58.721 0-20.734 4.131-40.702 11.731-58.993.16-.31.297-.634.413-.967 15.559-36.727 45.152-66.575 83.386-82.09.344 10.598 5.991 19.872 14.371 25.256-11.456 4.263-22.298 10.229-32.246 17.849-19.289 14.773-33.986 35.168-41.956 57.97h-10.65c-7.994 0-14.497 6.503-14.497 14.497v52.957c0 7.994 6.503 14.497 14.497 14.497h10.65c7.971 22.801 22.667 43.196 41.956 57.969 21.879 16.757 48.046 25.614 75.672 25.614 68.683 0 124.56-55.877 124.56-124.559 0-53.434-33.823-99.113-81.183-116.763 8.404-5.377 14.071-14.663 14.419-25.277 8.879 3.617 17.425 8.066 25.5 13.302 1.261.817 2.675 1.208 4.073 1.208 2.456 0 4.864-1.206 6.3-3.421 2.254-3.476 1.263-8.12-2.213-10.373-10.562-6.848-21.854-12.483-33.634-16.793v-13.309c0-17.214-14.005-31.219-31.219-31.219h-53.207c-17.214 0-31.219 14.005-31.219 31.219v13.314c-43.239 15.784-77.065 47.993-95.373 88.193h-12.743c-14.01 0-25.408 11.398-25.408 25.409v89.02c0 14.01 11.398 25.408 25.408 25.408h13.204c7.505 15.922 16.632 29.299 24.849 41.326 10.619 15.544 19.2 28.139 20.773 40.725-13.914 8.396-24.742 15.266-34.383 21.385-1.478.938-2.928 1.858-4.37 2.771-9.571-8.555-24.254-9.085-34.454-.668-5.449 4.497-8.821 10.847-9.495 17.88-.673 7.033 1.434 13.908 5.931 19.356 9.822 11.901 20.004 22.824 30.264 32.466 3.018 2.837 7.765 2.689 10.602-.33 2.836-3.018 2.688-7.765-.33-10.602-9.8-9.209-19.546-19.666-28.967-31.082-1.946-2.358-2.858-5.334-2.566-8.379.291-3.045 1.751-5.794 4.109-7.74 4.869-4.02 12.101-3.326 16.121 1.543.567.687 1.136 1.349 1.704 2.027.011.013.021.025.032.037 46.152 55.11 94.802 80.821 152.916 80.821s106.764-25.71 152.916-80.821c.011-.013.021-.025.032-.037.568-.678 1.137-1.34 1.704-2.027 4.02-4.869 11.252-5.561 16.12-1.544 2.359 1.947 3.819 4.696 4.11 7.741.292 3.045-.62 6.021-2.566 8.38-50.653 61.374-107.018 91.209-172.317 91.209-42.87 0-81.145-12.54-117.012-38.337-3.361-2.418-8.048-1.654-10.468 1.71-2.418 3.362-1.653 8.049 1.71 10.468 38.507 27.696 79.647 41.159 125.77 41.159 70.056 0 130.205-31.618 183.884-96.662 4.497-5.448 6.604-12.323 5.931-19.356-.674-7.033-4.046-13.383-9.495-17.881-10.198-8.416-24.882-7.888-34.453.67-1.441-.913-2.892-1.833-4.37-2.771-9.64-6.119-20.469-12.989-34.383-21.385 1.574-12.586 10.154-25.181 20.773-40.725 8.216-12.028 17.344-25.405 24.849-41.327zm6.445-124.837h6.758c5.739 0 10.408 4.67 10.408 10.409v89.02c0 5.739-4.669 10.408-10.408 10.408h-6.97c5.632-15.689 9.357-33.706 9.357-54.918 0-18.966-3.137-37.47-9.145-54.919zm-276.333 80.894h-10.623v-18.476h10.623zm0-33.475h-10.623v-18.476h10.623zm226.712 7.5c0 60.411-49.148 109.559-109.56 109.559-47.379 0-89.665-30.926-104.208-75.676 1.296-2.17 2.056-4.697 2.056-7.404v-52.957c0-2.707-.759-5.234-2.056-7.404 14.543-44.752 56.829-75.678 104.208-75.678 60.411 0 109.56 49.148 109.56 109.56zm-152.331-142.059c4.719 2.868 10.254 4.521 16.167 4.521h53.207c5.914 0 11.449-1.653 16.168-4.521-.528 8.47-7.567 15.205-16.168 15.205h-53.207c-8.6 0-15.639-6.735-16.167-15.205zm-.051-29.367c0-8.943 7.275-16.219 16.219-16.219h53.207c8.943 0 16.219 7.275 16.219 16.219v2.67c0 8.943-7.275 16.219-16.219 16.219h-53.207c-8.943 0-16.219-7.275-16.219-16.219zm-123.117 226.344c-5.739 0-10.408-4.669-10.408-10.408v-89.02c0-5.739 4.669-10.409 10.408-10.409h6.765c-5.955 17.321-9.152 35.823-9.152 54.919 0 21.212 3.725 39.229 9.357 54.918zm299.398 131.1c.8.508 1.578 1.001 2.366 1.501-41.4 46.963-84.796 68.935-135.825 68.935s-94.424-21.971-135.824-68.935c.788-.5 1.565-.993 2.366-1.5 9.463-6.005 20.08-12.741 33.632-20.926 23.364 15.847 72.502 21.853 99.827 21.853s76.463-6.006 99.827-21.853c13.551 8.184 24.168 14.92 33.631 20.925zm-59.815 10.505c-2.93-2.928-7.678-2.928-10.607 0-2.929 2.93-2.929 7.678 0 10.607l9.274 9.274c1.465 1.464 3.385 2.196 5.304 2.196s3.839-.732 5.304-2.196c2.929-2.93 2.929-7.678 0-10.607zm-79.267-208.076c-2.723-3.122-7.46-3.447-10.582-.725s-3.446 7.46-.725 10.582c4.271 4.898 10.441 7.708 16.93 7.708 6.488 0 12.659-2.809 16.93-7.708 2.722-3.122 2.397-7.86-.725-10.582-3.124-2.723-7.861-2.398-10.582.725-1.421 1.631-3.471 2.565-5.623 2.565s-4.202-.934-5.623-2.565zm-87.211 11.553c0 51.188 41.645 92.834 92.834 92.834s92.834-41.645 92.834-92.834c0-51.188-41.646-92.834-92.834-92.834s-92.834 41.645-92.834 92.834zm170.668 0c0 42.918-34.916 77.834-77.834 77.834s-77.834-34.916-77.834-77.834 34.916-77.834 77.834-77.834 77.834 34.916 77.834 77.834zm-151.478 196.523-9.274 9.274c-2.929 2.93-2.929 7.678 0 10.607 1.465 1.464 3.385 2.196 5.304 2.196s3.839-.732 5.304-2.196l9.274-9.274c2.929-2.93 2.929-7.678 0-10.607-2.93-2.928-7.678-2.928-10.608 0z"/></svg>