<svg id="Capa_1" enable-background="new 0 0 512 512" height="512" viewBox="0 0 512 512" width="512" xmlns="http://www.w3.org/2000/svg"><path d="m320.352 137.281c-4.142 0-7.5 3.357-7.5 7.5v8.25c0 4.143 3.358 7.5 7.5 7.5s7.5-3.357 7.5-7.5v-8.25c0-4.142-3.358-7.5-7.5-7.5zm134.684 52.775c4.142 0 7.5-3.357 7.5-7.5v-9.453c0-24.44-19.883-44.324-44.324-44.324h-2.682c-5.05-18.924-22.332-32.907-42.825-32.907h-217.694c.688-2.113 1.065-4.366 1.065-6.705v-10.688c0-8.83-5.303-16.44-12.889-19.826 1.863-4.875 2.831-10.07 2.831-15.406 0-23.847-19.401-43.247-43.248-43.247s-43.247 19.4-43.247 43.247c0 5.336.968 10.531 2.831 15.406-7.587 3.387-12.89 10.997-12.89 19.826v10.687c0 10.282 7.189 18.91 16.802 21.14v345.896c0 4.143 3.358 7.5 7.5 7.5s7.5-3.357 7.5-7.5v-345.331h43.007v374.548c0 6.386-5.195 11.581-11.581 11.581h-19.844c-5.007 0-9.427-3.19-10.999-7.936-1.301-3.931-5.545-6.065-9.477-4.763s-6.064 5.545-4.763 9.477c3.609 10.9 13.752 18.222 25.239 18.222h19.845c14.657 0 26.581-11.924 26.581-26.581v-149.212h230.698v1.717c0 17.199 13.993 31.191 31.192 31.191h17.048c24.44 0 44.324-19.884 44.324-44.323v-107.331c0-4.143-3.358-7.5-7.5-7.5s-7.5 3.357-7.5 7.5v107.331c0 16.169-13.155 29.323-29.324 29.323h-17.048c-8.928 0-16.192-7.264-16.192-16.191v-3.457c18.49-5.336 32.056-22.399 32.056-42.583v-148.106h1.184c16.169 0 29.324 13.155 29.324 29.324v9.453c0 4.143 3.358 7.501 7.5 7.501zm-352.266-175.056c15.576 0 28.248 12.672 28.248 28.247 0 4.788-1.204 9.395-3.471 13.527h-49.553c-2.268-4.132-3.471-8.74-3.471-13.527-.001-15.575 12.671-28.247 28.247-28.247zm31.601 80.871h-63.202c-3.697 0-6.705-3.008-6.705-6.705v-10.687c0-3.697 3.008-6.705 6.705-6.705h60.484c.004 0 .008.001.013.001.006 0 .011-.001.017-.001h2.688c3.697 0 6.705 3.008 6.705 6.705v10.687c0 3.697-3.008 6.705-6.705 6.705zm267.657 196.013c0 16.169-13.154 29.323-29.323 29.323h-233.432v-210.336h233.431c16.169 0 29.323 13.154 29.323 29.323v151.69zm-131.377-125.018c7.189 0 14.026-3.113 18.757-8.541 2.722-3.122 2.396-7.859-.726-10.581-3.123-2.724-7.86-2.397-10.582.726-1.881 2.158-4.597 3.396-7.45 3.396s-5.568-1.238-7.45-3.396c-2.722-3.124-7.459-3.448-10.582-.726-3.122 2.722-3.447 7.459-.725 10.581 4.732 5.428 11.568 8.541 18.758 8.541zm-49.702-6.335c4.142 0 7.5-3.357 7.5-7.5v-8.25c0-4.143-3.358-7.5-7.5-7.5s-7.5 3.357-7.5 7.5v8.25c0 4.143 3.358 7.5 7.5 7.5zm106.868 112.661c-.013-.143-.029-.285-.05-.426-.014-.096-.03-.191-.048-.287-.027-.144-.057-.287-.092-.428-.024-.095-.049-.19-.077-.284-.039-.135-.081-.268-.127-.4-.036-.102-.075-.203-.115-.304-.048-.119-.098-.237-.151-.352-.05-.109-.104-.217-.16-.324-.055-.104-.111-.208-.17-.309-.064-.11-.131-.218-.202-.325-.064-.097-.129-.192-.197-.286-.073-.101-.148-.201-.227-.298-.079-.099-.161-.194-.244-.289-.075-.085-.152-.169-.231-.251-.101-.104-.206-.203-.313-.301-.046-.042-.087-.088-.135-.13-.029-.025-.06-.045-.088-.07-.117-.099-.238-.192-.361-.284-.078-.058-.155-.118-.235-.172-.119-.082-.243-.158-.367-.233-.09-.054-.178-.11-.27-.16-.116-.064-.236-.121-.357-.179-.104-.05-.207-.102-.313-.147-.111-.047-.225-.087-.338-.129-.12-.045-.24-.089-.361-.128-.104-.033-.21-.059-.316-.087-.136-.036-.271-.071-.408-.099-.1-.021-.201-.036-.303-.052-.146-.024-.291-.046-.438-.061-.04-.004-.078-.013-.118-.016l-13.852-1.212c-4.137-.364-7.764 2.69-8.126 6.818-.269 3.074 1.359 5.875 3.912 7.254-7.42 4.928-15.899 8.095-24.789 9.249v-33.36h12.782c4.142 0 7.5-3.357 7.5-7.5s-3.358-7.5-7.5-7.5h-12.782v-6.458c7.659-3.008 13.103-10.457 13.103-19.169 0-11.36-9.243-20.604-20.603-20.604-11.361 0-20.604 9.243-20.604 20.604 0 8.712 5.445 16.162 13.104 19.169v6.458h-12.782c-4.142 0-7.5 3.357-7.5 7.5s3.358 7.5 7.5 7.5h12.782v33.36c-8.891-1.154-17.37-4.321-24.79-9.249 2.553-1.379 4.181-4.18 3.912-7.254-.361-4.127-4.002-7.188-8.126-6.818l-13.853 1.212c-.043.004-.085.013-.128.018-.138.015-.275.035-.413.057-.109.018-.218.034-.325.056-.131.027-.26.061-.389.095-.112.029-.223.057-.333.091-.118.037-.234.081-.351.124-.116.043-.232.084-.345.132-.105.045-.209.096-.312.146-.12.058-.239.115-.355.178-.093.051-.184.108-.275.163-.122.074-.243.148-.36.229-.083.057-.163.118-.244.179-.12.089-.238.18-.351.276-.03.025-.063.047-.092.073-.05.043-.093.091-.141.136-.103.095-.204.191-.302.291-.083.085-.163.173-.241.261-.08.09-.158.182-.234.277-.082.102-.16.205-.236.311-.064.089-.127.18-.187.272-.073.112-.144.224-.21.339-.056.096-.11.194-.161.293-.059.112-.115.226-.168.34-.051.11-.098.222-.144.335-.043.107-.084.214-.122.322-.044.126-.084.253-.121.381-.029.101-.057.202-.082.304-.033.135-.062.272-.088.409-.019.102-.036.204-.051.306-.02.135-.035.27-.048.407-.01.114-.017.228-.022.342-.005.124-.009.248-.008.373.001.134.007.268.015.402.004.069.001.137.008.206l1.212 13.852c.342 3.904 3.616 6.848 7.463 6.847.219 0 .441-.009.663-.028 2.74-.24 4.999-1.928 6.107-4.241 12.159 8.412 26.676 13.059 41.729 13.059s29.57-4.647 41.729-13.059c1.108 2.313 3.367 4.001 6.107 4.241.223.02.443.028.663.028 3.846 0 7.121-2.942 7.463-6.847l1.212-13.852c.006-.073.004-.145.008-.218.007-.127.013-.253.014-.38.001-.132-.003-.262-.008-.392-.006-.109-.012-.216-.022-.323zm-57.166-53.086c-3.09 0-5.604-2.514-5.604-5.604s2.514-5.604 5.604-5.604 5.603 2.514 5.603 5.604c0 3.091-2.513 5.604-5.603 5.604z"/></svg>