<svg id="Capa_1" enable-background="new 0 0 511.999 511.999" height="512" viewBox="0 0 511.999 511.999" width="512" xmlns="http://www.w3.org/2000/svg"><path d="m386.396 69.338c-24.576 0-44.57 19.994-44.57 44.57 0 34.23 22.964 52.7 44.57 52.7s44.57-18.47 44.57-52.7c-.001-24.576-19.995-44.57-44.57-44.57zm0 82.271c-21.543 0-29.57-23.124-29.57-37.7 0-16.305 13.265-29.57 29.57-29.57s29.57 13.266 29.57 29.57c-.001 27.464-18.138 37.7-29.57 37.7zm-42.615 63.629c-2.929 2.929-2.929 7.678 0 10.607l10.77 10.77c1.464 1.465 3.384 2.197 5.303 2.197s3.839-.732 5.303-2.196c2.929-2.929 2.929-7.678 0-10.607l-10.77-10.77c-2.927-2.929-7.676-2.928-10.606-.001zm72.151.001-10.77 10.77c-2.929 2.929-2.929 7.678 0 10.607 1.464 1.464 3.384 2.196 5.303 2.196 1.92 0 3.839-.732 5.303-2.197l10.77-10.77c2.929-2.929 2.929-7.678 0-10.607-2.928-2.927-7.678-2.928-10.606.001zm95.048 212.255c-22.63-66.662-45.199-254.074-45.199-279.498v-34.088c0-14.883-4.145-29.395-11.988-41.966-2.191-3.513-6.817-4.586-10.333-2.394-3.514 2.192-4.586 6.818-2.393 10.333 6.355 10.188 9.714 21.953 9.714 34.026v83.754c0 30.938-18.121 59.369-46.162 72.429l-.478.222c-24.195 11.267-53.095 3.739-68.715-17.902-8.777-12.16-13.417-26.515-13.417-41.512v-96.99c0-35.502 28.883-64.386 64.386-64.386 11.255 0 22.33 2.944 32.026 8.516 3.592 2.065 8.176.826 10.239-2.767 2.064-3.592.825-8.176-2.767-10.239-11.966-6.876-25.625-10.51-39.499-10.51-43.773 0-79.385 35.612-79.385 79.386v34.088c0 25.424-22.568 212.835-45.199 279.498-2.124 6.256-.885 13.021 3.312 18.1 4.21 5.095 10.647 7.595 17.215 6.68 19.275-2.675 55.733-3.899 83.304 17.943 6.11 4.84 13.432 7.26 20.754 7.26s14.644-2.42 20.754-7.26c27.57-21.84 64.027-20.615 83.303-17.943 6.567.913 13.005-1.586 17.216-6.68 4.198-5.078 5.436-11.845 3.312-18.1zm-230.704 9.922c-1.984.275-3.173-.872-3.592-1.378-.333-.403-.768-1.102-.867-2.032 21.302-17.56 32.385-48.335 42.201-75.606 7.319-20.333 15.625-43.397 24.087-42.012 1.145.185 5.166 2.005 8.837 17.661 2.984 12.727 4.652 29.829 6.418 47.935 2.544 26.077 5.155 52.768 12.076 72.433-31.022-21.103-68.738-19.834-89.16-17.001zm106.12 18.985c-8.398-17.405-11.404-48.181-14.105-75.871-4.123-42.268-7.379-75.652-27.793-78.949-9.885-1.594-18.533 3.818-25.695 16.095-5.394 9.246-10.01 22.069-14.896 35.645-5.244 14.569-10.878 30.209-18.139 43.729 10.43-44.343 19.987-105.226 26.665-156.065 2.666 7.122 6.287 13.908 10.832 20.206 13.643 18.901 35.267 29.321 57.433 29.321 10.044 0 20.199-2.14 29.773-6.599l.478-.222c22.43-10.446 39.503-29.176 48.271-51.512 6.705 52.471 16.766 117.936 27.806 164.87-7.26-13.519-12.894-29.16-18.138-43.728-4.887-13.576-9.502-26.399-14.896-35.645-7.162-12.275-15.804-17.691-25.695-16.095-20.414 3.297-23.67 36.683-27.793 78.95-2.704 27.689-5.711 58.465-14.108 75.87zm109.711-20.364c-.418.506-1.608 1.648-3.592 1.379-20.421-2.833-58.138-4.101-89.16 17.003 6.921-19.664 9.532-46.355 12.076-72.433 1.766-18.107 3.435-35.209 6.418-47.936 3.671-15.657 7.692-17.478 8.837-17.662 8.485-1.372 16.768 21.679 24.087 42.012 9.816 27.271 20.9 58.046 42.202 75.606-.101.931-.535 1.628-.868 2.031zm-399.876-199.422c1.464 1.465 3.384 2.197 5.303 2.197s3.839-.732 5.303-2.196c2.929-2.929 2.929-7.678 0-10.607l-10.77-10.77c-2.929-2.93-7.678-2.929-10.606-.001-2.929 2.929-2.929 7.678 0 10.607zm108.758-88.619v-34.088c0-43.773-35.612-79.386-79.386-79.386s-79.386 35.612-79.386 79.386v34.088c0 25.424-22.568 212.836-45.199 279.498-2.123 6.255-.886 13.021 3.311 18.1 3.638 4.401 8.938 6.864 14.55 6.864.883 0 1.773-.061 2.666-.185 1.395-.193 2.814-.37 4.255-.529 4.117-.455 7.086-4.162 6.631-8.279-.455-4.116-4.153-7.067-8.278-6.631-1.582.175-3.14.369-4.67.582-1.987.271-3.174-.873-3.592-1.379-.333-.403-.768-1.101-.867-2.031 21.302-17.56 32.385-48.335 42.201-75.606 7.319-20.333 15.623-43.397 24.087-42.012 1.145.185 5.166 2.005 8.837 17.661 2.984 12.727 4.652 29.83 6.418 47.936 2.543 26.07 5.153 52.752 12.07 72.415-13.439-9.146-29.411-14.98-47.583-17.367-4.115-.541-7.874 2.354-8.413 6.46-.54 4.107 2.352 7.873 6.459 8.413 18.002 2.363 33.394 8.524 45.747 18.31 6.11 4.84 13.432 7.26 20.754 7.26s14.644-2.42 20.754-7.26c27.571-21.841 64.029-20.614 83.304-17.943 6.571.915 13.005-1.586 17.215-6.68 4.197-5.078 5.435-11.844 3.312-18.1-22.628-66.662-45.197-254.073-45.197-279.497zm-143.771-34.088c0-35.502 28.883-64.386 64.386-64.386 35.502 0 64.385 28.884 64.385 64.386v96.99c0 14.997-4.639 29.352-13.416 41.512-15.622 21.643-44.52 29.171-68.721 17.9l-.468-.218c-28.045-13.061-46.167-41.492-46.167-72.431v-83.753zm64.386 342.493c-8.398-17.405-11.404-48.181-14.105-75.87-4.123-42.268-7.379-75.653-27.793-78.95-9.886-1.594-18.534 3.818-25.696 16.095-5.394 9.246-10.01 22.069-14.896 35.645-5.244 14.568-10.878 30.209-18.138 43.728 11.04-46.935 21.1-112.399 27.806-164.87 8.769 22.337 25.842 41.067 48.276 51.515l.468.218c9.578 4.461 19.732 6.6 29.779 6.6 22.165 0 43.79-10.42 57.432-29.32h.001c4.545-6.297 8.166-13.083 10.832-20.206 6.679 50.839 16.235 111.723 26.665 156.065-7.26-13.519-12.895-29.16-18.139-43.729-4.887-13.576-9.502-26.399-14.896-35.645-7.162-12.275-15.806-17.691-25.696-16.095-20.413 3.297-23.67 36.682-27.793 78.949-2.703 27.688-5.709 58.465-14.107 75.87zm109.711-20.363c-.418.506-1.606 1.647-3.592 1.378-20.419-2.831-58.136-4.102-89.161 17.003 6.921-19.665 9.532-46.356 12.076-72.433 1.766-18.106 3.434-35.208 6.418-47.935 3.671-15.656 7.692-17.477 8.836-17.661 8.482-1.372 16.769 21.679 24.088 42.012 9.816 27.271 20.9 58.046 42.202 75.606-.099.929-.534 1.627-.867 2.03zm-109.711-269.429c21.606 0 44.57-18.47 44.57-52.7 0-24.576-19.994-44.57-44.57-44.57s-44.57 19.994-44.57 44.57c0 34.23 22.963 52.7 44.57 52.7zm0-82.271c16.305 0 29.57 13.266 29.57 29.57 0 27.465-18.138 37.7-29.57 37.7-21.542 0-29.57-23.124-29.57-37.7 0-16.304 13.265-29.57 29.57-29.57zm32.007 130.901-10.77 10.77c-2.929 2.929-2.929 7.678 0 10.607 1.464 1.464 3.384 2.196 5.303 2.196s3.839-.732 5.303-2.197l10.77-10.77c2.929-2.929 2.929-7.678 0-10.607-2.928-2.927-7.677-2.928-10.606.001z"/></svg>