<svg id="Capa_1" enable-background="new 0 0 511.978 511.978" height="512" viewBox="0 0 511.978 511.978" width="512" xmlns="http://www.w3.org/2000/svg"><path d="m239.748 369.283c6.949 0 13.557-3.009 18.129-8.256 2.722-3.122 2.397-7.859-.726-10.581-3.122-2.724-7.86-2.397-10.582.726-1.724 1.978-4.21 3.111-6.822 3.111s-5.099-1.134-6.822-3.111c-2.722-3.124-7.46-3.448-10.582-.726s-3.447 7.459-.726 10.581c4.575 5.247 11.183 8.256 18.131 8.256zm-47.321-6.033c4.142 0 7.5-3.357 7.5-7.5v-7.855c0-4.142-3.358-7.5-7.5-7.5s-7.5 3.358-7.5 7.5v7.855c0 4.143 3.358 7.5 7.5 7.5zm214.949-304.374c1.208.724 2.537 1.068 3.85 1.068 2.549 0 5.034-1.3 6.439-3.645 2.13-3.553.977-8.159-2.576-10.289-9.232-5.533-24.003-11.446-37.775-11.446-4.143 0-7.5 3.357-7.5 7.5s3.357 7.5 7.5 7.5c10.723.001 22.896 5.018 30.062 9.312zm-81.799 425.331c4.143 0 7.5-3.357 7.5-7.5 0-4.142-3.357-7.5-7.5-7.5h-24.952c-4.143 0-7.5 3.358-7.5 7.5 0 4.143 3.357 7.5 7.5 7.5zm-38.507-120.957c4.143 0 7.5-3.357 7.5-7.5v-7.855c0-4.142-3.357-7.5-7.5-7.5s-7.5 3.358-7.5 7.5v7.855c0 4.143 3.358 7.5 7.5 7.5zm224.646-211.716c-5.601-39.138-18.553-71.83-38.497-97.17-17.45-22.172-40.423-38.473-66.434-47.14-46.845-15.607-100.822-5.252-131.261 25.185-20.141 20.142-29.277 48.926-24.833 76.811-6.867 1.537-13.392 4.961-18.726 10.294-11.547 11.548-14.186 28.674-7.934 42.782l-103.03 103.031h-29.203c-15.167 0-27.507 12.34-27.507 27.507 0 8.014 3.447 15.237 8.934 20.269l-65.541 65.541c-10.245 10.246-10.245 26.917.001 37.163l9.887 9.887c5.123 5.122 11.852 7.684 18.581 7.684s13.458-2.562 18.581-7.684l43.737-43.737 1.921 17.926c.001.009.002.018.003.026l5.921 55.259c.413 3.848 3.665 6.702 7.448 6.702.267 0 .537-.015.808-.044 4.119-.441 7.1-4.138 6.659-8.256l-5.165-48.212c21.455-2.883 41.491 1.513 62.586 6.143 18.864 4.141 38.37 8.422 61.1 8.422s42.236-4.281 61.1-8.422c21.094-4.631 41.129-9.028 62.586-6.143l-6.448 60.185c-1.919 17.91-16.949 31.416-34.962 31.416h-164.555c-11.053 0-21.244-5.043-27.961-13.837-2.515-3.292-7.222-3.921-10.513-1.407-3.291 2.515-3.922 7.221-1.407 10.513 9.579 12.54 24.115 19.731 39.881 19.731h164.551c25.697 0 47.139-19.268 49.876-44.818l7.204-67.243c0-.002 0-.004.001-.006l8.523-79.552h.07c15.167 0 27.507-12.34 27.507-27.507s-12.34-27.507-27.507-27.507h-172.598l55.967-55.967c4.854 2.161 10.148 3.308 15.62 3.308 10.266 0 19.917-3.998 27.176-11.257 5.333-5.333 8.757-11.858 10.294-18.725 4.635.739 9.295 1.104 13.938 1.104 23.277 0 46.081-9.146 62.874-25.937 16.249-16.254 38.927-4.336 54.572 6.04 3.451 2.287 8.105 1.347 10.396-2.105 2.29-3.452 1.348-8.106-2.104-10.395-30.963-20.538-55.684-21.934-73.47-4.148-17.224 17.224-42.055 24.761-65.858 20.276-1.32-7.499-4.861-14.68-10.641-20.46v-.001l-27.547-27.547c-5.781-5.781-12.962-9.321-20.461-10.641-4.482-23.801 3.053-48.634 20.276-65.856 26.578-26.579 74.246-35.444 115.911-21.561 29.768 9.919 81.671 40.283 94.823 132.203.888 6.199-3.345 10.579-7.983 11.703-4.025.975-6.499 5.028-5.523 9.055.831 3.433 3.9 5.736 7.283 5.736.584 0 1.179-.069 1.772-.213 12.873-3.116 21.171-15.328 19.301-28.404zm-467.59 263.552c-4.397 4.398-11.552 4.398-15.949 0l-9.887-9.886c-4.397-4.396-4.397-11.552 0-15.949l69.242-69.242c1.391.217 2.815.332 4.265.332h.07l4.549 42.456zm320.907-24.65c-23.789-3.153-45.039 1.506-67.401 6.414-18.083 3.969-36.781 8.073-57.884 8.073s-39.801-4.105-57.884-8.073c-22.363-4.909-43.612-9.567-67.4-6.414l-7.51-70.096h265.589zm22.666-110.109c6.897 0 12.507 5.61 12.507 12.507 0 6.896-5.61 12.507-12.507 12.507h-295.901c-1.299 0-2.552-.2-3.731-.569-.05-.02-.102-.036-.152-.056-5-1.638-8.624-6.342-8.624-11.882 0-6.897 5.61-12.507 12.507-12.507zm-193.813-15h-51.671l90.607-90.607 25.836 25.835zm81.823-135.206 27.547 27.546c9.136 9.137 9.136 24.002 0 33.138-4.425 4.426-10.31 6.863-16.568 6.863-4.632 0-9.058-1.339-12.84-3.828-.003-.002-.006-.004-.009-.006-1.324-.873-2.571-1.883-3.718-3.031l-27.547-27.547c-9.135-9.135-9.135-24 0-33.136 4.568-4.568 10.567-6.853 16.569-6.853 5.998.001 12 2.286 16.566 6.854zm-23.484 354.086c4.142 0 7.5-3.357 7.5-7.5 0-4.142-3.358-7.5-7.5-7.5h-24.952c-4.142 0-7.5 3.358-7.5 7.5 0 4.143 3.358 7.5 7.5 7.5zm105.659-360.622c-2.298 3.446-1.366 8.102 2.08 10.4 1.278.853 2.724 1.261 4.153 1.261 2.424 0 4.802-1.173 6.247-3.341 5.075-7.612 24.992-31.545 68.198-19.841 4.001 1.081 8.117-1.28 9.2-5.278s-1.28-8.117-5.278-9.2c-18.691-5.063-36.027-4.861-51.531.595-13.789 4.852-25.225 13.636-33.069 25.404zm-29.658-67.597c-15.021 3.782-26.9 14.896-32.592 30.49-1.421 3.891.582 8.196 4.474 9.616.849.311 1.717.457 2.57.457 3.062 0 5.936-1.889 7.046-4.931 3.961-10.852 12.039-18.537 22.164-21.086 4.017-1.012 6.453-5.088 5.442-9.104-1.013-4.016-5.091-6.447-9.104-5.442zm-149.353 428.219c4.142 0 7.5-3.357 7.5-7.5 0-4.142-3.358-7.5-7.5-7.5h-24.953c-4.142 0-7.5 3.358-7.5 7.5 0 4.143 3.358 7.5 7.5 7.5z"/></svg>