<svg id="Capa_1" enable-background="new 0 0 512 512" height="512" viewBox="0 0 512 512" width="512" xmlns="http://www.w3.org/2000/svg"><path d="m149.301 211.666c-4.143 0-7.5 3.357-7.5 7.5v18.005c0 4.143 3.357 7.5 7.5 7.5s7.5-3.357 7.5-7.5v-18.005c0-4.143-3.357-7.5-7.5-7.5zm79.533-140.512c4.147 0 7.51-3.362 7.51-7.51 0-4.147-3.362-7.51-7.51-7.51s-7.51 3.362-7.51 7.51c0 4.147 3.363 7.51 7.51 7.51zm27.14 149.429c-14.44 0-41.32 0-41.32 30.365 0 25.003 18.536 45.344 41.32 45.344s41.32-20.341 41.32-45.344c0-30.365-26.88-30.365-41.32-30.365zm0 60.709c-14.513 0-26.32-13.612-26.32-30.344 0-12.35 5.166-15.365 26.32-15.365s26.32 3.016 26.32 15.365c0 16.732-11.807 30.344-26.32 30.344zm-78.104 77.132c4.148 0 7.51-3.362 7.51-7.51 0-4.147-3.362-7.51-7.51-7.51-4.147 0-7.51 3.362-7.51 7.51 0 4.147 3.363 7.51 7.51 7.51zm195.146-19.153c4.148 0 7.51-3.362 7.51-7.51 0-4.147-3.362-7.51-7.51-7.51s-7.51 3.362-7.51 7.51 3.362 7.51 7.51 7.51zm-2.87-102.1v-18.005c0-4.143-3.357-7.5-7.5-7.5s-7.5 3.357-7.5 7.5v18.005c0 4.143 3.357 7.5 7.5 7.5 4.142 0 7.5-3.357 7.5-7.5zm-28.559 211.663c0-4.147-3.362-7.51-7.51-7.51-4.147 0-7.51 3.362-7.51 7.51s3.362 7.51 7.51 7.51 7.51-3.363 7.51-7.51zm-141.187-15.02c0-4.148-3.362-7.51-7.51-7.51s-7.51 3.362-7.51 7.51 3.362 7.51 7.51 7.51c4.147 0 7.51-3.362 7.51-7.51zm281.132-365.802c-2.749-3.097-7.489-3.377-10.588-.627-3.097 2.75-3.378 7.491-.627 10.588 18.137 20.421 23.046 48.782 12.81 74.017l-74.219 182.981c-7.716 19.023-21.986 33.855-39.612 42.355-.532.177-1.044.414-1.527.707-10.318 4.712-21.727 7.288-33.616 7.288h-23.743l36.445-269.555c0-.002.001-.004.001-.006 4.742-35.084 35.017-61.54 70.42-61.54 9.536 0 18.729 1.809 27.321 5.376 3.825 1.589 8.215-.226 9.803-4.051 1.588-3.826-.226-8.215-4.051-9.803-10.426-4.328-21.554-6.522-33.073-6.522-28.461 0-54.173 14.127-69.933 36.048-3.109-15.927-10.356-30.944-21.267-43.431-17.681-20.233-43.233-31.837-70.102-31.837-26.87 0-52.421 11.604-70.102 31.836-10.911 12.486-18.159 27.504-21.267 43.431-15.76-21.92-41.472-36.048-69.933-36.048-28.675 0-55.362 14.201-71.381 37.984-16.02 23.785-19.148 53.851-8.37 80.425l74.219 182.982c7.635 18.823 20.687 34.176 36.94 44.605-12.919 11.209-20.552 27.583-20.504 45.11.018 6.78 1.193 13.449 3.49 19.822 1.103 3.057 3.983 4.958 7.056 4.958.845 0 1.703-.144 2.544-.446 3.896-1.405 5.916-5.702 4.512-9.6-1.713-4.749-2.588-9.721-2.601-14.775-.042-15.16 7.606-29.161 20.163-37.376 11.486 4.802 24.027 7.413 37.056 7.413h156.359c13.029 0 25.57-2.61 37.056-7.413 12.557 8.215 20.204 22.216 20.163 37.376-.065 23.576-19.264 43.473-42.797 44.352-9.596.355-18.823-2.283-26.7-7.64-3.14-2.136-6.924-2.877-10.654-2.085-3.753.795-7.071 3.128-9.105 6.4-9.996 16.086-27.245 25.689-46.144 25.689s-36.148-9.603-46.143-25.689c-2.033-3.272-5.352-5.605-9.105-6.4-3.729-.792-7.515-.05-10.654 2.084-7.878 5.358-17.116 8.01-26.7 7.641-7.563-.282-14.985-2.546-21.463-6.546-3.525-2.176-8.146-1.084-10.322 2.441-2.176 3.524-1.083 8.145 2.441 10.322 8.681 5.359 18.634 8.393 28.783 8.773 12.442.466 24.438-2.855 34.774-9.612 12.821 20.047 34.576 31.986 58.389 31.986s45.568-11.939 58.388-31.986c10.337 6.757 22.328 10.063 34.774 9.612 15.333-.573 29.708-7.037 40.479-18.2 10.764-11.157 16.715-25.754 16.758-41.101.049-17.528-7.585-33.901-20.504-45.11 16.253-10.429 29.305-25.783 36.94-44.605l74.219-182.982c12.394-30.56 6.457-64.899-15.496-89.616zm-303.738 317.308c-11.892 0-23.302-2.578-33.622-7.291-.48-.291-.989-.526-1.518-.703-17.628-8.499-31.899-23.332-39.615-42.356l-74.218-182.981c-9.033-22.27-6.514-46.474 6.911-66.406s34.907-31.364 58.939-31.364c35.403 0 65.678 26.456 70.42 61.54 0 .002.001.004.001.006l36.445 269.556h-23.743zm38.879 0-38.094-281.758c-3.02-22.338 3.755-44.883 18.587-61.855 14.832-16.973 36.267-26.707 58.808-26.707 22.54 0 43.975 9.734 58.808 26.707 14.832 16.973 21.607 39.519 18.587 61.855l-38.094 281.758z"/></svg>