<svg id="Capa_1" enable-background="new 0 0 512 512" height="512" viewBox="0 0 512 512" width="512" xmlns="http://www.w3.org/2000/svg"><path d="m424.126 89.192v-9.274c0-4.143-3.357-7.5-7.5-7.5s-7.5 3.357-7.5 7.5v9.274c0 4.143 3.357 7.5 7.5 7.5s7.5-3.358 7.5-7.5zm-117.385 7.5c4.143 0 7.5-3.357 7.5-7.5v-9.274c0-4.143-3.357-7.5-7.5-7.5s-7.5 3.357-7.5 7.5v9.274c0 4.142 3.357 7.5 7.5 7.5zm79.862-.404c0-14.884-11.179-26.992-24.919-26.992-13.741 0-24.92 12.108-24.92 26.992s11.179 26.992 24.92 26.992c13.74 0 24.919-12.109 24.919-26.992zm-34.839 0c0-6.612 4.45-11.992 9.92-11.992s9.919 5.38 9.919 11.992-4.449 11.992-9.919 11.992-9.92-5.38-9.92-11.992zm75.696-68.846c-18.729-18.294-43.517-28.032-69.686-27.414-23.895.561-46.662 10.035-64.107 26.678-2.997 2.859-3.109 7.606-.25 10.604s7.607 3.11 10.604.25c14.737-14.06 33.953-22.063 54.105-22.535 22.176-.513 43.039 7.701 58.853 23.148 15.82 15.453 24.533 36.141 24.533 58.252 0 21.787-8.496 42.259-23.924 57.646-15.719 15.676-28.651 35.008-38.439 57.459-7.001 16.058-15.945 30.985-26.635 44.473l-61.368-53.385c11.432-19.721 11.333-44.163-.727-64.038-7.759-12.786-11.823-27.496-11.753-42.54.052-11.138 2.352-21.948 6.838-32.134 1.669-3.79-.051-8.217-3.842-9.887-3.789-1.667-8.217.051-9.887 3.842-5.319 12.08-8.048 24.901-8.109 38.108-.083 17.813 4.733 35.238 13.929 50.392 8.893 14.656 9.253 32.568 1.369 47.316-10.363-4.726-22.814-3.283-32.084 4.384-11.068 9.155-24.64 16.875-36.456 23.22-11.734 6.3-17.667 19.45-15.486 31.982-31.194 16.141-63.037 33.405-89.508 62.22-33.366 36.322-49.702 82.123-49.941 140.021-.062 14.771 5.584 28.814 15.895 39.543 10.435 10.857 24.292 16.878 39.019 16.954.097 0 .191.001.288.001 10.027-.001 19.842-2.714 28.398-7.855 3.551-2.133 4.7-6.74 2.566-10.291-2.133-3.551-6.741-4.7-10.291-2.566-6.224 3.738-13.367 5.712-20.675 5.712-.069 0-.14-.001-.209-.001-21.771-.112-40.085-19.087-39.992-41.435.068-16.443 1.519-31.815 4.361-46.196l77.436 24.412c-.883 6.854-1.384 14.479-1.384 23.012 0 3.886-.552 7.723-1.64 11.406-1.173 3.973 1.097 8.144 5.069 9.317.709.209 1.424.309 2.127.309 3.238 0 6.227-2.114 7.19-5.378 1.495-5.064 2.253-10.33 2.253-15.654 0-38.934 11.138-56.05 20.842-66.612 13.513-14.71 34.84-26.359 57.907-38.316 3.14 4.278 7.518 7.455 12.681 9.074 2.479.777 5.017 1.163 7.54 1.163 4.031 0 8.027-.984 11.695-2.925 26.775-14.173 57.842-32.322 85.236-59.478 4.907-4.865 7.593-11.628 7.367-18.554-.179-5.487-2.174-10.755-5.58-14.982 11.795-14.725 21.642-31.054 29.31-48.64 9.031-20.717 20.901-38.492 35.28-52.832 18.271-18.222 28.332-42.466 28.332-68.267.002-26.185-10.315-50.684-29.05-68.983zm-251.763 352.59c-7.546 8.214-15.819 19.643-20.646 38.892l-76.734-24.19c7.389-26.514 20.047-49.385 38.16-69.103 6.028-6.563 12.41-12.507 19.044-17.977l50.514 62.603c-3.724 3.104-7.19 6.347-10.338 9.775zm22.357-18.768-50.637-62.754c16.978-12.188 35.169-21.952 53.178-31.286l36.874 71.467c-14.096 7.309-27.599 14.542-39.415 22.573zm153.189-72.218c-26.003 25.775-55.889 43.214-81.692 56.872-2.397 1.267-5.141 1.518-7.73.707-2.599-.815-4.718-2.598-5.967-5.019l-44.693-86.623c-3.804-7.372-.951-16.563 6.36-20.489 12.467-6.693 26.84-14.883 38.921-24.876 5.911-4.89 14.318-4.855 19.989.078l.008.007c.021.017.038.037.059.054.012.01.028.023.042.033l74.154 64.507c2.154 1.874 3.393 4.479 3.485 7.335.091 2.814-.952 5.447-2.936 7.414z"/></svg>