<svg id="Capa_1" enable-background="new 0 0 512 512" height="512" viewBox="0 0 512 512" width="512" xmlns="http://www.w3.org/2000/svg"><path d="m329.521 184.331c4.142 0 7.5-3.357 7.5-7.5v-10.894c0-4.143-3.358-7.5-7.5-7.5s-7.5 3.357-7.5 7.5v10.894c0 4.143 3.357 7.5 7.5 7.5zm-139.541-7.5v-10.894c0-4.143-3.358-7.5-7.5-7.5s-7.5 3.357-7.5 7.5v10.894c0 4.143 3.358 7.5 7.5 7.5s7.5-3.357 7.5-7.5zm288.068-47.703-10.874-7.021c-6.944-4.483-15.606-4.536-22.604-.133-6.997 4.401-10.701 12.231-9.665 20.433l.538 4.262-1.385-.743c-6.253-3.356-13.623-3.185-19.712.459-6.089 3.643-9.725 10.055-9.725 17.151v30.672c-1.165 2.184-1.831 4.674-1.831 7.318v14.53c0 18.069 10.565 33.717 25.841 41.091-3.375 5.736-8.115 10.48-13.445 13.276-4.857 2.548-10.102 3.403-15.649 2.574.906-5.975 1.367-12.256 1.367-18.844 0-21.959-9.967-43.449-28.165-60.963 1.675-6.916 2.553-14.269 2.553-21.804 0-16.956-4.421-32.999-12.448-45.174-8.662-13.138-20.497-20.373-33.324-20.373s-24.662 7.235-33.324 20.373c-5.15 7.811-8.806 17.217-10.772 27.431-19.322-2.797-39.528-2.797-58.85 0-1.966-10.214-5.622-19.621-10.772-27.431-8.662-13.138-20.497-20.373-33.324-20.373-7.631 0-15.159 2.674-21.77 7.732-3.29 2.517-3.916 7.224-1.399 10.514s7.225 3.916 10.514 1.398c4.028-3.082 8.286-4.645 12.655-4.645 16.68 0 30.772 23.147 30.772 50.547 0 27.398-14.092 50.546-30.772 50.546s-30.772-23.147-30.772-50.546c0-7.072.898-13.921 2.67-20.355 1.1-3.994-1.247-8.123-5.24-9.222-3.993-1.098-8.122 1.245-9.222 5.239-2.129 7.732-3.208 15.921-3.208 24.338 0 7.536.878 14.889 2.553 21.804-18.198 17.514-28.165 39.004-28.165 60.963 0 6.588.461 12.869 1.367 18.844-5.547.829-10.791-.025-15.649-2.573-5.33-2.796-10.07-7.54-13.445-13.276 15.277-7.374 25.841-23.022 25.841-41.091v-14.53c0-2.644-.666-5.134-1.831-7.318v-30.672c0-7.097-3.636-13.508-9.725-17.151-6.09-3.643-13.46-3.814-19.713-.459l-1.384.743.538-4.262c1.036-8.201-2.668-16.031-9.665-20.433-6.999-4.403-15.659-4.352-22.604.133l-10.874 7.021c-21.258 13.727-33.95 37.031-33.95 62.337v12.921c0 22.944 13.569 42.768 33.098 51.899 5.344 23.75 21.103 44.868 41.881 55.768 10.419 5.463 21.621 8.233 33.293 8.233h.014c7.671 0 15.41-1.236 23.08-3.639 3.184 3.795 6.737 7.319 10.663 10.561 1.545 1.275 3.145 2.507 4.799 3.699-1.501 3.408-2.817 6.943-3.882 10.607-4.943 16.999-4.776 35.464.447 49.393 3.421 9.125 12.266 15.256 22.009 15.256 2.819 0 5.595-.506 8.249-1.502 5.879-2.203 10.547-6.565 13.146-12.28 2.598-5.716 2.814-12.101.61-17.98-1.147-3.061-1.915-10.85.677-19.761.389-1.336.96-3.017 1.745-4.806 18.595 4.654 40.563 6.956 66.17 6.956s47.575-2.302 66.17-6.956c.785 1.788 1.357 3.47 1.745 4.805 2.591 8.912 1.824 16.7.677 19.761-2.205 5.88-1.988 12.265.61 17.98s7.267 10.077 13.143 12.279c2.657.997 5.433 1.503 8.252 1.503 4.499 0 8.887-1.287 12.688-3.721 3.488-2.233 4.505-6.872 2.271-10.36-2.233-3.488-6.872-4.504-10.36-2.272-2.243 1.438-5.06 1.754-7.583.807-2.127-.798-3.816-2.375-4.755-4.442-.94-2.068-1.019-4.379-.221-6.507 2.798-7.461 2.673-18.929-.318-29.216-.41-1.409-.973-3.104-1.704-4.941 5.573-1.975 10.786-4.208 15.636-6.71.905 2.232 1.711 4.535 2.399 6.902 2.263 7.783 3.284 16.017 2.952 23.811-.176 4.139 3.036 7.636 7.174 7.813.109.005.217.007.325.007 3.995 0 7.316-3.151 7.488-7.181.401-9.405-.821-19.308-3.535-28.638-1.065-3.664-2.381-7.199-3.882-10.607 1.653-1.191 3.254-2.423 4.799-3.699 3.926-3.242 7.479-6.765 10.663-10.561 7.67 2.402 15.409 3.639 23.079 3.639h.014c11.673 0 22.876-2.771 33.295-8.234 20.777-10.899 36.536-32.017 41.88-55.767 19.53-9.131 33.099-28.955 33.099-51.899v-12.921c0-25.306-12.692-48.61-33.952-62.337zm-58.427 34.407c0-2.552 1.697-3.842 2.426-4.278.729-.438 2.667-1.324 4.918-.115l10.785 5.789 2.651 20.99h-20.781v-22.386zm-90.1-42.697c16.68 0 30.771 23.147 30.771 50.547 0 27.398-14.092 50.546-30.771 50.546-16.68 0-30.772-23.147-30.772-50.546 0-27.4 14.091-50.547 30.772-50.547zm-255.271 44.093 10.785-5.789c2.249-1.207 4.189-.322 4.918.115s2.426 1.727 2.426 4.278v22.386h-20.78zm-59.25 39.455v-12.921c0-20.19 10.126-38.783 27.088-49.735l10.874-7.022c1.156-.746 2.261-1.003 3.234-1.003 1.48 0 2.656.594 3.246.965.978.615 3.205 2.417 2.771 5.857l-5.887 46.607c-.44 3.487.64 7 2.965 9.637s5.674 4.149 9.19 4.149h25.125c.333 0 .604.271.604.605v14.53c0 16.871-13.726 30.597-30.597 30.597h-6.347c-23.305 0-42.266-18.961-42.266-42.266zm93.285 100.9h-.011c-9.222 0-18.081-2.193-26.328-6.518-14.544-7.629-26.089-21.466-31.846-37.581 2.35.295 4.738.464 7.167.464h6.347c1.688 0 3.353-.099 4.993-.279 4.789 9.678 12.293 17.64 21.239 22.333 5.836 3.062 12.106 4.599 18.581 4.599 2.427 0 4.882-.22 7.355-.652 1.742 5.649 3.968 10.958 6.676 15.921-4.746 1.137-9.487 1.713-14.173 1.713zm65.078 74.381c.798 2.127.72 4.438-.221 6.506-.939 2.067-2.628 3.645-4.758 4.443-.966.362-1.969.546-2.981.546-3.525 0-6.726-2.219-7.964-5.523-4.127-11.006-4.16-25.935-.089-39.938.688-2.367 1.494-4.67 2.399-6.902 4.85 2.502 10.063 4.735 15.636 6.71-.731 1.837-1.294 3.533-1.704 4.942-2.991 10.286-3.116 21.755-.318 29.216zm82.637-37.878c-41.081 0-72.638-6.376-94.084-18.969 32.024-40.556 83.641-42.701 94.084-42.701s62.06 2.145 94.084 42.701c-21.446 12.593-53.003 18.969-94.084 18.969zm106.249-27.749c-13.56-17.415-31.516-30.513-53.505-38.972-22.505-8.656-42.705-9.949-52.743-9.949s-30.238 1.293-52.743 9.949c-21.99 8.458-39.945 21.557-53.505 38.972-15.895-14.06-23.655-33.669-23.655-59.888 0-16.106 6.464-31.551 18.763-45.188 1.291 2.663 2.721 5.206 4.296 7.594 8.662 13.138 20.497 20.373 33.324 20.373s24.662-7.235 33.324-20.373c8.027-12.175 12.448-28.218 12.448-45.173 0-.944-.019-1.883-.046-2.82 18.23-2.694 37.359-2.694 55.589 0-.027.937-.046 1.877-.046 2.82 0 16.955 4.421 32.998 12.448 45.173 8.662 13.138 20.497 20.373 33.324 20.373s24.662-7.235 33.324-20.373c1.575-2.388 3.005-4.93 4.296-7.594 12.299 13.637 18.763 29.083 18.763 45.188-.001 26.219-7.761 45.828-23.656 59.888zm67.806-15.272c-8.249 4.325-17.107 6.518-26.33 6.518h-.011c-4.685 0-9.426-.577-14.172-1.713 2.708-4.963 4.934-10.272 6.676-15.921 2.472.433 4.928.652 7.355.652 6.474 0 12.745-1.537 18.581-4.599 8.946-4.693 16.45-12.654 21.239-22.333 1.641.18 3.306.279 4.993.279h6.347c2.429 0 4.817-.169 7.167-.464-5.757 16.115-17.302 29.952-31.845 37.581zm66.945-94.382c0 23.306-18.961 42.267-42.267 42.267h-6.347c-16.871 0-30.597-13.725-30.597-30.597v-14.53c0-.333.271-.605.604-.605h25.125c3.516 0 6.865-1.513 9.19-4.149 2.325-2.637 3.406-6.149 2.965-9.637l-5.887-46.607c-.434-3.44 1.793-5.242 2.771-5.857s3.566-1.843 6.48.038l10.874 7.022c16.963 10.951 27.089 29.543 27.089 49.734zm-215.952 99.068h-50.096c-4.142 0-7.5 3.357-7.5 7.5s3.358 7.5 7.5 7.5h50.096c4.142 0 7.5-3.357 7.5-7.5s-3.358-7.5-7.5-7.5zm-2.818-85.082c-3.124-2.721-7.861-2.396-10.582.727-2.94 3.374-7.186 5.31-11.648 5.31s-8.708-1.936-11.648-5.31c-2.721-3.124-7.459-3.448-10.582-.727-3.122 2.721-3.448 7.459-.727 10.581 5.79 6.646 14.157 10.456 22.957 10.456s17.168-3.811 22.957-10.456c2.721-3.122 2.396-7.86-.727-10.581z"/></svg>