<svg id="Capa_1" enable-background="new 0 0 512 512" height="512" viewBox="0 0 512 512" width="512" xmlns="http://www.w3.org/2000/svg"><path d="m267.299 38.785c-2.853 3.273-6.971 5.15-11.299 5.15s-8.446-1.877-11.299-5.15c-2.722-3.122-7.46-3.447-10.582-.727-3.122 2.722-3.448 7.46-.726 10.582 5.702 6.543 13.942 10.295 22.606 10.295 8.665 0 16.904-3.752 22.606-10.295 2.722-3.122 2.397-7.86-.726-10.582-3.121-2.72-7.859-2.396-10.58.727zm-83.1-6.22v10.674c0 4.143 3.358 7.5 7.5 7.5s7.5-3.357 7.5-7.5v-10.674c0-4.142-3.358-7.5-7.5-7.5s-7.5 3.358-7.5 7.5zm128.602 0v10.674c0 4.143 3.358 7.5 7.5 7.5s7.5-3.357 7.5-7.5v-10.674c0-4.142-3.358-7.5-7.5-7.5s-7.5 3.358-7.5 7.5zm-144.609 300.857c-5.736 0-10.386 4.65-10.386 10.386s4.65 10.386 10.386 10.386 10.386-4.65 10.386-10.386-4.65-10.386-10.386-10.386zm311.503-227.449c17.813 0 32.305-14.492 32.305-32.305v-41.362c0-12.235-6.781-23.278-17.698-28.82-3.692-1.877-8.207-.4-10.082 3.292-1.875 3.693-.401 8.208 3.292 10.083 5.852 2.972 9.488 8.89 9.488 15.445v41.362c0 9.542-7.763 17.305-17.305 17.305h-447.39c-9.542 0-17.305-7.763-17.305-17.305v-41.362c0-9.542 7.763-17.306 17.305-17.306h423.59c4.142 0 7.5-3.357 7.5-7.5s-3.358-7.5-7.5-7.5h-423.59c-17.813 0-32.305 14.492-32.305 32.306v41.362c0 17.813 14.492 32.305 32.305 32.305h1.433v300.055h-1.433c-17.813-.001-32.305 14.492-32.305 32.305v41.361c0 17.814 14.492 32.306 32.305 32.306h25.6c4.142 0 7.5-3.357 7.5-7.5s-3.358-7.5-7.5-7.5h-25.6c-9.542 0-17.305-7.764-17.305-17.306v-41.361c0-9.542 7.763-17.306 17.305-17.306h447.39c9.542 0 17.305 7.764 17.305 17.306v41.361c0 9.542-7.763 17.306-17.305 17.306h-385.625c-4.142 0-7.5 3.357-7.5 7.5s3.358 7.5 7.5 7.5h385.625c17.813 0 32.305-14.492 32.305-32.306v-41.361c0-17.814-14.492-32.306-32.305-32.306h-.834v-300.054zm-144.608 0h17.79l-17.79 17.79zm-143.174 0h128.175v32.79l-128.175 128.175zm-143.175 300.054v-300.054h128.174v175.965l-124.089 124.089zm128.175 0h-14.105l14.105-14.105zm2.193-37.513-37.513 37.513h-67.556l300.055-300.055h67.556l-262.535 262.536zm140.981 37.513h-128.174v-29.105l128.175-128.175v157.28zm143.774 0h-128.774v-172.28l127.774-127.774h.999v300.054zm-207.861-160.413c-5.736 0-10.386 4.65-10.386 10.386s4.65 10.386 10.386 10.386 10.386-4.65 10.386-10.386-4.65-10.386-10.386-10.386zm87.808-87.809c-5.736 0-10.386 4.65-10.386 10.386s4.65 10.386 10.386 10.386 10.386-4.65 10.386-10.386c.001-5.735-4.65-10.386-10.386-10.386z"/></svg>