<svg id="Capa_1" enable-background="new 0 0 512.006 512.006" height="512" viewBox="0 0 512.006 512.006" width="512" xmlns="http://www.w3.org/2000/svg"><path d="m462.024 254.842c0-25.447-18.445-47.244-44.491-53.431-.382-1.17-.777-2.332-1.184-3.489 11.405-11.43 17.868-26.869 17.868-43.158 0-10.54-2.728-20.936-7.888-30.062-2.039-3.606-6.616-4.879-10.22-2.837-3.605 2.038-4.876 6.614-2.837 10.22 3.889 6.879 5.944 14.721 5.944 22.679 0 10.106-3.297 19.782-9.253 27.702-7.397-15.493-17.275-29.518-29.445-41.65-7.074-7.054-14.886-13.407-23.269-18.971l5.175-12.007c3.47-.818 7.032-1.234 10.63-1.234 6.149 0 12.117 1.188 17.738 3.529.943.394 1.92.579 2.882.579 2.938 0 5.725-1.736 6.926-4.617 1.594-3.824-.215-8.215-4.038-9.808-7.459-3.107-15.368-4.684-23.508-4.684-1.232 0-2.46.047-3.685.121l1.08-2.505c.012-.029.025-.057.037-.086l1.962-4.553c3.005-6.974 2.308-14.924-1.865-21.267-4.174-6.343-11.198-10.13-18.791-10.13h-9.315c-15.605-33.685-49-55.183-86.474-55.183s-70.869 21.498-86.476 55.183h-9.315c-7.593 0-14.617 3.787-18.791 10.13-4.173 6.343-4.87 14.293-1.865 21.267l1.963 4.554c.012.028.024.056.036.084l13.201 30.629c-8.381 5.563-16.193 11.915-23.268 18.969-16.959 16.907-29.476 37.486-37.015 60.596-26.047 6.187-44.491 27.984-44.491 53.431 0 16.99 8.495 32.966 22.617 43.343-1.789 3.609-2.799 7.669-2.799 11.963 0 14.907 12.128 27.035 27.035 27.035 6.088 0 11.873-2.083 16.527-5.688 9.314 15.5 21.356 29.345 35.51 40.938-7.866 5.131-14.797 12.283-14.812 22.385-.005 3.572.883 7.213 2.718 10.963-10.903 17.723-17.783 37.863-19.95 58.542-.593 5.656 1.254 11.329 5.067 15.563 3.827 4.249 9.302 6.687 15.019 6.687h2.902c4.143 0 7.5-3.357 7.5-7.5s-3.357-7.5-7.5-7.5h-2.902c-2.018 0-3.293-1.081-3.873-1.726-.572-.635-1.501-1.994-1.295-3.96 1.726-16.473 6.81-32.558 14.802-47.073 13.748 13.849 39.281 29.507 78.728 48.596-1.445.959-2.782 2.023-3.978 3.219-.304.305-.574.629-.858.944h-45.207c-4.143 0-7.5 3.357-7.5 7.5s3.357 7.5 7.5 7.5h38.104c-1.141 5.774-1.009 11.385-.646 15.303.487 5.235 4.641 9.387 9.874 9.87 1.608.149 3.503.261 5.577.261 7.9 0 18.409-1.612 25.667-8.868.784-.784 1.512-1.633 2.195-2.53.684.898 1.412 1.747 2.196 2.531 7.258 7.256 17.767 8.867 25.666 8.867 2.073 0 3.968-.111 5.575-.261 5.238-.483 9.392-4.637 9.876-9.873.363-3.916.495-9.526-.646-15.3h76.423c5.717 0 11.19-2.438 15.018-6.687 3.813-4.234 5.66-9.907 5.067-15.563-2.167-20.679-9.047-40.819-19.95-58.542 1.835-3.75 2.723-7.391 2.718-10.963-.015-10.102-6.946-17.253-14.812-22.385 14.154-11.593 26.195-25.438 35.51-40.938 4.654 3.604 10.44 5.688 16.527 5.688 14.907 0 27.035-12.128 27.035-27.035 0-4.293-1.01-8.354-2.799-11.963 14.121-10.378 22.616-26.354 22.616-43.344zm-206.021-239.842c29.169 0 55.406 15.456 69.607 40.183h-139.214c14.201-24.727 40.438-40.183 69.607-40.183zm-102.625 65.75-.047-.108c-1.017-2.357-.79-4.94.621-7.085s3.692-3.374 6.26-3.374h177.331c.009 0 .017.002.026.002.014 0 .028-.002.042-.002h14.183c2.567 0 4.849 1.229 6.26 3.374s1.638 4.728.621 7.085l-.047.108zm198.785 15-12.633 29.311c-2.24 5.199-7.347 8.559-13.008 8.559h-141.039c-5.661 0-10.768-3.359-13.008-8.559l-12.632-29.311zm-244.78 114.721c.117-.316.211-.641.284-.973 6.669-22.27 18.325-42.025 34.409-58.061 5.853-5.836 12.263-11.149 19.122-15.862 5.338 8.05 14.393 13.044 24.285 13.044h141.039c9.892 0 18.946-4.994 24.285-13.044 6.861 4.714 13.27 10.027 19.122 15.862 13.245 13.204 23.487 28.931 30.416 46.507.113.39.261.771.44 1.144 1.308 3.404 2.495 6.874 3.554 10.41.074.332.168.657.284.973 2.388 8.179 4.114 16.689 5.134 25.479.1.855-.363 1.321-.77 1.562-.801.477-1.347.085-1.552-.061-16.857-11.982-35.695-31.21-50.391-51.436-2.411-3.321-7.044-4.084-10.394-1.719-14.7 10.38-55.634 11.602-86.316-10.107-2.596-1.836-6.068-1.836-8.664 0-30.684 21.71-71.617 20.488-86.316 10.107-3.35-2.366-7.982-1.602-10.394 1.719-14.695 20.226-33.533 39.454-50.391 51.436-.207.145-.752.536-1.552.061-.406-.24-.869-.706-.77-1.562 1.023-8.79 2.748-17.3 5.136-25.479zm-42.402 44.371c0-15.725 9.961-29.564 24.889-36.133-1.063 5.076-1.911 10.248-2.522 15.511-.606 5.216 1.192 10.177 4.787 13.703-.093 2.331-.156 4.649-.156 6.919 0 9.684.948 19.161 2.746 28.36-4.33.336-8.379 1.688-11.9 3.83-11.102-7.541-17.844-19.504-17.844-32.19zm31.853 67.341c-6.636 0-12.035-5.399-12.035-12.035 0-6.637 5.399-12.036 12.035-12.036.561 0 1.113.052 1.661.128 2.068 6.728 4.604 13.268 7.573 19.588-2.256 2.709-5.627 4.355-9.234 4.355zm70.316 94.618c-8.25-6.277-12.817-11.162-15.3-14.833-.055-.087-.113-.172-.172-.257-2.114-3.202-2.62-5.454-2.618-6.872.006-3.941 4.364-8.206 12.956-12.702 15.701 10.439 33.409 18.341 52.461 23.068l19.045 34.409c-1.842 2.548-2.942 5.667-2.942 9.044v4.641c-28.459-13.851-49.78-26.113-63.43-36.498zm76.051 75.73c-3.902 3.901-11.091 4.509-15.756 4.458-.06-4.657.557-11.853 4.459-15.754.447-.448.953-.862 1.513-1.245 2.806 3.975 7.425 6.582 12.649 6.582h.419c-.673 2.258-1.706 4.381-3.284 5.959zm-9.59-83.729c7.324.952 14.797 1.455 22.392 1.455s15.068-.503 22.392-1.455l-13.489 24.371h-17.806zm12.455 62.77c-.269 0-.486-.219-.486-.487v-.973c0-.017 0-.035 0-.052v-21.401c0-.269.218-.486.486-.486h19.873c.269 0 .486.218.486.486v21.402.049.975c0 .268-.218.487-.486.487zm38.495 25.417c-4.669.04-11.853-.557-15.755-4.457-1.579-1.579-2.612-3.702-3.285-5.96h.419c5.224 0 9.843-2.608 12.649-6.582.56.383 1.065.798 1.513 1.245 3.901 3.901 4.518 11.097 4.459 15.754zm-6.077-57.374 19.045-34.409c19.052-4.727 36.76-12.629 52.461-23.068 8.592 4.496 12.95 8.76 12.956 12.702.002 1.419-.505 3.671-2.62 6.874-.058.083-.115.167-.17.253-2.483 3.671-7.051 8.557-15.302 14.835-13.65 10.385-34.97 22.647-63.43 36.499v-4.641c.002-3.378-1.097-6.497-2.94-9.045zm86.975-20.801c7.991 14.515 13.075 30.601 14.802 47.073.206 1.966-.723 3.325-1.295 3.961-.58.644-1.855 1.725-3.872 1.725h-83.526c-.285-.315-.554-.64-.858-.944-1.196-1.195-2.533-2.259-3.978-3.219 39.446-19.09 64.979-34.747 78.727-48.596zm-109.456-23.557c-82.172 0-149.023-62.99-149.023-140.415 0-.8.026-1.622.039-2.433 2.19-.453 4.313-1.36 6.241-2.731 16.854-11.98 34.752-29.781 49.814-49.455 22.271 10.482 61.902 8.747 92.929-10.888 31.025 19.634 70.657 21.369 92.928 10.888 15.063 19.674 32.961 37.475 49.815 49.455 1.929 1.371 4.052 2.274 6.241 2.728.013.812.039 1.635.039 2.436 0 77.425-66.851 140.415-149.023 140.415zm159.169-73.074c-3.607 0-6.978-1.645-9.235-4.355 2.969-6.32 5.505-12.86 7.573-19.588.548-.076 1.1-.128 1.661-.128 6.636 0 12.035 5.399 12.035 12.036.001 6.635-5.398 12.035-12.034 12.035zm14.009-35.152c-3.521-2.142-7.571-3.494-11.9-3.83 1.798-9.198 2.746-18.675 2.746-28.36 0-2.27-.063-4.588-.156-6.919 3.595-3.526 5.393-8.487 4.787-13.703-.611-5.263-1.458-10.435-2.522-15.511 14.928 6.57 24.889 20.409 24.889 36.133-.001 12.687-6.742 24.65-17.844 32.19zm-92.577 180.243h12.95c4.143 0 7.5-3.357 7.5-7.5s-3.357-7.5-7.5-7.5h-12.95c-4.143 0-7.5 3.357-7.5 7.5s3.357 7.5 7.5 7.5zm-.538-227.555c-4.143 0-7.5 3.357-7.5 7.5v13.29c0 4.143 3.357 7.5 7.5 7.5s7.5-3.357 7.5-7.5v-13.29c0-4.143-3.357-7.5-7.5-7.5zm-54.027 15.724c-3.125-2.721-7.859-2.396-10.582.726-3.901 4.477-9.534 7.044-15.454 7.044s-11.553-2.567-15.454-7.044c-2.722-3.122-7.46-3.447-10.582-.726-3.122 2.722-3.448 7.459-.727 10.582 6.751 7.746 16.506 12.189 26.763 12.189s20.012-4.442 26.763-12.189c2.721-3.123 2.395-7.86-.727-10.582zm-106.1-15.724c-4.143 0-7.5 3.357-7.5 7.5v13.29c0 4.143 3.357 7.5 7.5 7.5s7.5-3.357 7.5-7.5v-13.29c0-4.143-3.357-7.5-7.5-7.5z"/></svg>