<svg id="Capa_1" enable-background="new 0 0 512.011 512.011" height="512" viewBox="0 0 512.011 512.011" width="512" xmlns="http://www.w3.org/2000/svg"><path d="m476.739 1.887c-7.009-3.443-15.109-2.101-20.633 3.422l-250.295 250.296-24.1-24.1c-10.522-10.523-27.646-10.523-38.171 0-5.098 5.099-7.905 11.876-7.905 19.086 0 7.209 2.808 13.986 7.905 19.085l24.101 24.1-37.641 37.641c-.001.001-.003.003-.005.004-.001.001-.003.003-.004.005l-30.713 30.713c-6.283-3.423-13.62-4.713-20.841-3.468-4.082.701-6.822 4.58-6.121 8.662s4.579 6.82 8.662 6.121c4.969-.856 10.052.537 13.886 3.732.211.21.433.4.661.579.163.151.328.299.485.457l40.468 40.467c.189.189.353.393.531.588.161.197.333.388.516.572.001 0 .001.001.002.001 5.599 6.722 5.254 16.753-1.049 23.057l-26.572 26.572c-1.482 1.483-3.196 2.643-5.05 3.484-.201.08-.397.171-.591.269-2.027.826-4.214 1.263-6.468 1.263-4.574 0-8.874-1.781-12.108-5.017l-40.469-40.467c-6.677-6.678-6.677-17.542 0-24.219l12.564-12.565c2.929-2.93 2.929-7.678 0-10.607-2.93-2.928-7.678-2.928-10.607 0l-12.565 12.565c-12.524 12.525-12.524 32.906 0 45.433l40.469 40.467c6.067 6.068 14.135 9.41 22.716 9.41 2.91 0 5.758-.393 8.492-1.138 20.423 15.369 45.247 23.654 70.87 23.654 1.945 0 3.895-.048 5.847-.143 29.311-1.439 56.892-13.669 77.66-34.437 46.034-46.035 46.034-120.938 0-166.974l-1.571-1.571 168.6-168.601c1.892-1.893 3.766-3.84 5.568-5.79 2.813-3.04 2.629-7.785-.412-10.598-3.039-2.813-7.786-2.628-10.598.412-1.673 1.807-3.41 3.613-5.166 5.368l-168.602 168.602-32.067-32.067 250.295-250.295c1.309-1.309 2.698-.917 3.411-.566.713.35 1.874 1.212 1.638 3.047-3.602 27.989-13.554 55.343-28.779 79.104-2.235 3.488-1.22 8.127 2.268 10.361 3.487 2.233 8.127 1.221 10.361-2.268 16.416-25.617 27.145-55.107 31.027-85.283.997-7.749-2.889-14.98-9.9-18.425zm-298.491 302.496 32.067 32.066-32.341 32.342-32.067-32.066zm-25.683 111.031 68.357-68.358 1.572 1.572c13.673 13.673 11.846 24.226 8.726 31.892-4.831 11.872-16.91 24.534-29.922 37.545-22.365 22.366-37.148 33.94-51.121 31.862 7.504-10.113 8.297-23.666 2.388-34.513zm-41.748-43.601 24.482-24.482 32.067 32.067-24.482 24.482zm139.239-50.748c40.186 40.186 40.186 105.573 0 145.759-18.129 18.13-42.203 28.806-67.788 30.063-22.004 1.066-43.57-4.863-61.729-16.827l17.976-17.976c5.043 2.171 9.991 3.139 14.837 3.138 22.001-.002 41.854-19.851 58.552-36.549 14.142-14.142 27.323-28.032 33.21-42.499 6.936-17.044 2.894-33.245-12.014-48.152l-78.953-78.953c-4.676-4.675-4.676-12.281 0-16.956 4.674-4.676 12.282-4.676 16.956 0l29.394 29.394c.003.003.006.007.009.01s.007.006.01.009z"/></svg>